<?xml version="1.0" encoding="utf-8"?>
<!-- Generator: Adobe Illustrator 19.1.1, SVG Export Plug-In . SVG Version: 6.00 Build 0)  -->
<svg version="1.1" id="Layer_1" xmlns="http://www.w3.org/2000/svg" xmlns:xlink="http://www.w3.org/1999/xlink" x="0px" y="0px"
	 viewBox="0 0 117.7 29" style="enable-background:new 0 0 117.7 29;" xml:space="preserve">
<style type="text/css">
	.st0{fill-rule:evenodd;clip-rule:evenodd;fill:#FFFFFF;}
	.st1{fill-rule:evenodd;clip-rule:evenodd;fill:url(#SVGID_1_);}
	.st2{opacity:0.29;fill-rule:evenodd;clip-rule:evenodd;fill:#800002;}
	.st3{opacity:0.44;fill-rule:evenodd;clip-rule:evenodd;fill:#E61801;}
	.st4{opacity:0.73;fill-rule:evenodd;clip-rule:evenodd;fill:#EA5B4A;}
	.st5{opacity:0.93;fill-rule:evenodd;clip-rule:evenodd;fill:#E61801;}
	.st6{opacity:0.49;fill-rule:evenodd;clip-rule:evenodd;fill:#E61801;}
	.st7{opacity:0.4;fill-rule:evenodd;clip-rule:evenodd;fill:#F2ACA3;}
	.st8{opacity:0.18;fill-rule:evenodd;clip-rule:evenodd;fill:#FFFFFF;}
	.st9{fill:#FFFFFF;}
</style>
<path class="st0" d="M42.6,6.7h-7v6.1h7v-2.1H39V9h5.8v3.3c0,0.9-0.2,1.5-0.5,1.8c-0.3,0.3-1,0.5-1.9,0.5h-6.6
	c-0.9,0-1.6-0.2-1.9-0.5c-0.3-0.3-0.5-0.9-0.5-1.8V7.3c0-0.9,0.2-1.5,0.5-1.8c0.3-0.3,1-0.5,1.9-0.5h6.6c0.9,0,1.6,0.2,1.9,0.5
	c0.3,0.3,0.5,0.9,0.5,1.7v0.2l-2.2,0.4V6.7L42.6,6.7z M51.7,10.8h4.2l-2.1-3.9L51.7,10.8L51.7,10.8z M47.4,14.6L52.8,5H55l5.5,9.6
	H58l-1.2-2.1h-6.1l-1.1,2.1H47.4L47.4,14.6z M70.8,6.7h-5v2.7h5c0.4,0,0.7-0.1,0.8-0.2c0.1-0.1,0.2-0.3,0.2-0.6V7.4
	c0-0.3-0.1-0.5-0.2-0.6C71.5,6.7,71.2,6.7,70.8,6.7L70.8,6.7z M63.6,14.6V5h8.2c0.8,0,1.3,0.1,1.7,0.4C73.8,5.7,74,6.2,74,6.9v2.3
	c0,0.6-0.2,1.1-0.5,1.4c-0.3,0.3-0.9,0.4-1.7,0.4h-1.3l4.4,3.6h-3.2L67.9,11h-2.1v3.6H63.6L63.6,14.6z M78.5,14.6V5h1.5l6.8,5.7
	c0.2,0.2,0.4,0.4,0.6,0.5c0.2,0.2,0.3,0.3,0.5,0.5c0-0.5-0.1-0.9-0.1-1.1c0-0.2,0-0.4,0-0.5V5h2v9.6h-1.5l-7.1-5.9
	c-0.2-0.2-0.3-0.3-0.4-0.4c-0.1-0.1-0.2-0.2-0.4-0.4c0,0.3,0.1,0.6,0.1,0.8c0,0.3,0,0.5,0,0.7v5.2H78.5L78.5,14.6z M94.8,14.6V5h9.8
	v1.6H97v2.1h4.4v1.6H97v2.4h7.7v1.8H94.8L94.8,14.6z M113.3,6.7v7.9h-2.2V6.7h-4.4V5h11.1v1.7H113.3z"/>
<linearGradient id="SVGID_1_" gradientUnits="userSpaceOnUse" x1="14.4752" y1="-1.435650e-006" x2="14.4752" y2="28.9505">
	<stop  offset="0" style="stop-color:#E61102"/>
	<stop  offset="1" style="stop-color:#AB0C05"/>
</linearGradient>
<polygon class="st1" points="5.1,29 23.8,29 29,23.8 29,5.1 23.8,0 5.1,0 0,5.1 0,23.8 "/>
<polygon class="st2" points="14.5,4.1 24.8,14.5 29,23.8 23.8,29 14.5,24.8 4.1,14.5 0,5.1 5.1,0 "/>
<polygon class="st3" points="4.1,14.5 14.5,4.1 23.8,0 29,5.1 24.8,14.5 14.5,24.8 5.1,29 0,23.8 "/>
<polygon class="st4" points="0,23.8 7.2,21.8 5.1,29 "/>
<polygon class="st4" points="23.8,0 21.8,7.2 29,5.1 "/>
<polygon class="st5" points="0,5.1 7.2,7.2 5.1,0 "/>
<polygon class="st6" points="23.8,29 21.8,21.8 29,23.8 "/>
<rect x="7.2" y="7.2" class="st7" width="14.6" height="14.6"/>
<rect x="7.2" y="7.2" transform="matrix(-0.7071 0.7071 -0.7071 -0.7071 34.9464 14.4752)" class="st8" width="14.6" height="14.6"/>
<path class="st0" d="M18.3,10.8h-7.6v7h7.6v-2.8h-3.9v-1.2h5.6v3.1c0,0.9-0.2,1.5-0.5,1.8c-0.3,0.3-0.9,0.5-1.8,0.5h-6.3
	c-0.9,0-1.5-0.2-1.8-0.5c-0.3-0.3-0.5-0.9-0.5-1.8v-5.1c0-0.9,0.2-1.5,0.5-1.8c0.3-0.3,0.9-0.5,1.8-0.5h6.3c0.9,0,1.5,0.2,1.8,0.5
	c0.3,0.3,0.5,0.9,0.5,1.7v0.2h-1.6V10.8z"/>
<g>
	<path class="st9" d="M34.6,20.5v0.9h2.7c0.2,0,0.4,0,0.5,0c0.1,0,0.3,0.1,0.3,0.2c0.1,0.1,0.1,0.2,0.2,0.3c0,0.1,0.1,0.3,0.1,0.5
		V23c0,0.2,0,0.4-0.1,0.5c0,0.1-0.1,0.2-0.2,0.3c-0.1,0.1-0.2,0.1-0.3,0.2s-0.3,0-0.5,0h-2.7c-0.2,0-0.4,0-0.5,0
		c-0.1,0-0.2-0.1-0.3-0.2s-0.1-0.2-0.2-0.3c0-0.1-0.1-0.3-0.1-0.5v-0.1l0.9-0.2v0.5h3v-1h-2.7c-0.2,0-0.4,0-0.5,0
		c-0.1,0-0.3-0.1-0.3-0.2s-0.1-0.2-0.2-0.3c0-0.1-0.1-0.3-0.1-0.5v-0.5c0-0.2,0-0.4,0.1-0.5c0-0.1,0.1-0.2,0.2-0.3
		c0.1-0.1,0.2-0.1,0.3-0.2c0.1,0,0.3,0,0.5,0h2.5c0.4,0,0.7,0.1,0.8,0.2c0.2,0.1,0.3,0.4,0.3,0.7v0.1L37.5,21v-0.4H34.6z"/>
	<path class="st9" d="M45,20.3c0-0.1,0.1-0.2,0.2-0.3c0.1-0.1,0.2-0.1,0.3-0.2c0.1,0,0.3,0,0.5,0h3.2c0.2,0,0.4,0,0.5,0
		c0.1,0,0.2,0.1,0.3,0.2c0.1,0.1,0.1,0.2,0.2,0.3s0.1,0.3,0.1,0.5V23c0,0.2,0,0.4-0.1,0.5s-0.1,0.2-0.2,0.3
		c-0.1,0.1-0.2,0.1-0.3,0.2s-0.3,0-0.5,0H46c-0.2,0-0.4,0-0.5,0c-0.1,0-0.2-0.1-0.3-0.2c-0.1-0.1-0.1-0.2-0.2-0.3
		c0-0.1-0.1-0.3-0.1-0.5v-2.2C44.9,20.6,45,20.4,45,20.3z M49.3,23.1v-2.6h-3.3v2.6H49.3z"/>
	<path class="st9" d="M56.9,19.8h4.4v0.7H58v1.1h1.8v0.8H58v1.5h-1V19.8z"/>
	<path class="st9" d="M69.7,23.9h-1v-3.4h-2v-0.7h5v0.7h-2V23.9z"/>
	<path class="st9" d="M77.3,19.8h1.1l1.1,2.9l1.2-2.9h0.7l1.2,2.9l1.1-2.9h0.9l-1.7,4.1h-0.7L80.9,21l-1.2,2.9H79L77.3,19.8z"/>
	<path class="st9" d="M92.3,19.8h1l2.5,4.1h-1.1L94.2,23h-2.7l-0.5,0.9h-1L92.3,19.8z M93.7,22.3l-1-1.7l-0.9,1.7H93.7z"/>
	<path class="st9" d="M101.7,19.8h3.7c0.3,0,0.6,0.1,0.7,0.2c0.2,0.1,0.2,0.3,0.2,0.6v1c0,0.3-0.1,0.5-0.2,0.6
		c-0.2,0.1-0.4,0.2-0.7,0.2h-0.6l2,1.6h-1.4l-1.7-1.6h-1v1.6h-1V19.8z M102.7,20.5v1.1h2.3c0.2,0,0.3,0,0.3-0.1
		c0.1,0,0.1-0.1,0.1-0.3v-0.5c0-0.1,0-0.2-0.1-0.3c-0.1,0-0.2-0.1-0.3-0.1H102.7z"/>
	<path class="st9" d="M113,19.8h4.4v0.7H114v0.9h2v0.7h-2v1h3.5v0.8H113V19.8z"/>
</g>
</svg>
