<?xml version="1.0" encoding="utf-8"?>
<!-- Generator: Adobe Illustrator 19.1.1, SVG Export Plug-In . SVG Version: 6.00 Build 0)  -->
<svg version="1.1" id="Layer_1" xmlns="http://www.w3.org/2000/svg" xmlns:xlink="http://www.w3.org/1999/xlink" x="0px" y="0px"
	 viewBox="0 0 154.4 56" style="enable-background:new 0 0 154.4 56;" xml:space="preserve">
<style type="text/css">
	.st0{fill-rule:evenodd;clip-rule:evenodd;fill:#FFFFFF;}
</style>
<path class="st0" d="M0.1,28.5c0,4.4,3,6.6,6.2,6.6c5,0,6.8-5.3,6.8-5.3v0.4c0,3.4,0.5,4.6,2.3,4.6c1.3,0,3-0.9,3-0.9v-1.5
	c0,0-1.3,0.4-1.7,0.4c-0.6,0-0.8-0.8-0.8-2.9c0-4.6,0.1-6.5,0.1-11.4c0-4.3-1.5-7.3-7.1-7.3c-3.3,0-6.1,1-6.1,1l-0.1,1.9
	c0,0,2.8-0.6,5.5-0.6c3.8,0,5,1.8,5,5.2v2.8c-1.4-0.2-3.3-0.4-5.3-0.4C3.6,21.1,0.1,23.8,0.1,28.5L0.1,28.5z M2.8,27.9
	c0-3.3,2.3-5.3,5.6-5.3c1.5,0,3.4,0.3,4.8,0.4c0,1.7-0.1,3.2-0.1,5.1c-0.4,1.4-2.5,4.7-5.8,4.7C4.9,32.8,2.8,31.1,2.8,27.9L2.8,27.9
	z"/>
<path class="st0" d="M22.6,2.3h0.8c0.4,0,1,0,1.2,0c0.1,0.1,0.2,0.8,0.2,1.9c0,5.7-0.2,20.5-0.2,26.1c0,3.4,0.5,4.6,2.3,4.6
	c1.3,0,3-0.9,3-0.9v-1.5c0,0-1.2,0.4-1.6,0.4c-0.6,0-0.9-0.8-0.9-2.9c0-5.7,0.2-20.5,0.2-26.1c0-2.1-0.1-3.6-1.1-3.6
	c-1.1,0-3.8,0.3-3.8,0.3L22.6,2.3z"/>
<path class="st0" d="M32.8,13.8c0,0,2,0.2,4.3,0.3c0,6.9,0.1,13.9,0.1,20.6l2.9-0.2c0-6.7-0.1-13.6-0.1-20.4h0.9
	c3.8,0,6.6-0.4,6.6-0.4v-1.8H40V7.6c0-3.5,1.1-5.1,3.6-5.1c2.3,0,3.9,0.6,3.9,0.6l0.1-2.2c0,0-1.8-0.7-4.7-0.7c-4,0-5.7,2.6-5.7,7.5
	v4.1h-4.3L32.8,13.8z"/>
<path class="st0" d="M49.2,28.5c0,4.4,3,6.6,6.2,6.6c5,0,6.8-5.3,6.8-5.3v0.4c0,3.4,0.5,4.6,2.3,4.6c1.3,0,3-0.9,3-0.9v-1.5
	c0,0-1.3,0.4-1.7,0.4c-0.6,0-0.8-0.8-0.8-2.9c0-4.6,0.1-6.5,0.1-11.4c0-4.3-1.5-7.3-7.1-7.3c-3.3,0-6.1,1-6.1,1l-0.1,1.9
	c0,0,2.8-0.6,5.5-0.6c3.8,0,5,1.8,5,5.2v2.8c-1.4-0.2-3.3-0.4-5.3-0.4C52.7,21.1,49.2,23.8,49.2,28.5L49.2,28.5z M52,27.9
	c0-3.3,2.3-5.3,5.6-5.3c1.5,0,3.4,0.3,4.8,0.4c0,1.7-0.1,3.2-0.1,5.1c-0.4,1.4-2.5,4.7-5.8,4.7C54.1,32.8,52,31.1,52,27.9L52,27.9z"
	/>
<path class="st0" d="M69.4,56h4V31.6h0.1c1.3,2.2,3.9,3.5,6.7,3.5c5.2,0,10-3.9,10-11.8c0-6.7-4-11.2-9.3-11.2
	c-3.6,0-6.2,1.6-7.8,4.3H73l-0.2-3.8h-3.6c0.1,2.1,0.2,4.4,0.2,7.2V56z M73.3,21.8c0-0.5,0.1-1.1,0.3-1.6c0.8-3,3.3-5,6-5
	c4.2,0,6.6,3.8,6.6,8.2c0,5.1-2.5,8.5-6.7,8.5c-2.9,0-5.3-1.9-6-4.7c-0.1-0.5-0.2-1.1-0.2-1.6V21.8z M90.7,34.6h3.9V22.9
	c0-0.7,0.1-1.3,0.2-1.9c0.5-3,2.5-5.1,5.3-5.1c0.6,0,1,0,1.4,0.1v-3.8c-0.4-0.1-0.7-0.1-1.1-0.1c-2.7,0-5.1,1.9-6.1,4.8h-0.2
	L94,12.6h-3.5c0.1,2,0.2,4.3,0.2,6.8V34.6z M118.2,24.3c0-0.4,0.1-1,0.1-1.8c0-4-1.9-10.4-9.1-10.4c-6.4,0-10.3,5.2-10.3,11.9
	s4,11.1,10.8,11.1c3.5,0,5.9-0.7,7.3-1.4l-0.7-2.9c-1.5,0.6-3.2,1.1-6.1,1.1c-4,0-7.4-2.2-7.5-7.6H118.2z M102.8,21.4
	c0.3-2.8,2.1-6.5,6.1-6.5c4.5,0,5.6,3.9,5.6,6.5H102.8z M117.2,33.5c1.5,0.9,3.8,1.5,6.2,1.5c5.2,0,8.2-2.7,8.2-6.6
	c0-3.2-2-5.2-5.8-6.6c-2.9-1.1-4.2-1.9-4.2-3.7c0-1.7,1.3-3,3.7-3c2.1,0,3.7,0.7,4.5,1.3l1-2.9c-1.2-0.7-3.2-1.4-5.4-1.4
	c-4.7,0-7.6,2.9-7.6,6.5c0,2.6,1.8,4.8,5.8,6.2c2.9,1.1,4.1,2.1,4.1,4c0,1.8-1.4,3.3-4.3,3.3c-2,0-4.1-0.8-5.3-1.6L117.2,33.5z"/>
<path class="st0" d="M152.9,30.8c0.9-1.5,1.5-3.8,1.5-6.2c0-5.2-2.7-8.2-6.6-8.2c-3.3,0-5.2,2-6.7,5.8c-1.1,2.9-1.9,4.2-3.7,4.2
	c-1.6,0-3-1.3-3-3.7c0-2,0.7-3.6,1.3-4.5l-2.9-1c-0.7,1.2-1.4,3.2-1.4,5.4c0,4.7,2.9,7.6,6.5,7.6c2.6,0,4.8-1.8,6.2-5.8
	c1.1-3,2.1-4.1,4-4.1c1.8,0,3.3,1.4,3.3,4.3c0,2-0.8,4.1-1.6,5.3L152.9,30.8z"/>
<path class="st0" d="M134.7,33.8l0,1.6l-1.6,0v-1.6H134.7z M150.9,33.7l0,1.6l-1.6,0l0-1.6H150.9z M147.7,33.7v1.6H146v-1.6
	L147.7,33.7z M154,33.7v1.6h-1.6v-1.6L154,33.7z M144.4,33.7l0,1.6h-1.6v-1.6L144.4,33.7z M141.2,33.7v1.6h-1.6l0-1.6H141.2z
	 M138,33.7v1.6l-1.6,0v-1.6H138z"/>
<polygon class="st0" points="22.2,42.3 22.2,49 24.2,49 24.2,43.9 26.3,43.9 26.3,49 28.4,49 28.4,42.3 "/>
<path class="st0" d="M36,46.4c0-0.2,0.1-0.5,0.1-0.8c0-1.7-0.8-3.3-3-3.3c-2.3,0-3.4,1.9-3.4,3.6c0,2.1,1.3,3.4,3.6,3.4
	c0.9,0,1.8-0.1,2.4-0.4l-0.3-1.4c-0.6,0.2-1.1,0.3-1.8,0.3c-1,0-1.8-0.4-1.9-1.3H36z M31.6,44.9c0.1-0.6,0.4-1.3,1.3-1.3
	c1,0,1.2,0.8,1.2,1.3H31.6z"/>
<path class="st0" d="M37.3,51.7h2.1v-3.3h0c0.3,0.4,0.9,0.8,1.8,0.8c1.5,0,3-1.1,3-3.6c0-2.1-1.3-3.4-2.8-3.4c-1,0-1.8,0.4-2.2,1.1
	h0L39,42.3h-1.8c0,0.6,0.1,1.4,0.1,2.2V51.7z M39.3,45.2c0-0.1,0-0.3,0-0.4c0.2-0.6,0.7-1.1,1.3-1.1c0.9,0,1.4,0.8,1.4,1.9
	c0,1.1-0.5,1.9-1.4,1.9c-0.6,0-1.1-0.4-1.2-1c0-0.1,0-0.3,0-0.4V45.2z"/>
<path class="st0" d="M45.4,49c0.4,0.1,1.4,0.1,2.4,0.1c1.4,0,3.9-0.2,3.9-2.1c0-0.9-0.7-1.5-1.7-1.6v0c0.7-0.1,1.4-0.6,1.4-1.4
	c0-1.6-2.2-1.7-3.3-1.7c-1.1,0-2.2,0.1-2.7,0.2V49z M47.5,43.6c0.2,0,0.4-0.1,0.7-0.1c0.8,0,1.2,0.3,1.2,0.7c0,0.5-0.5,0.7-1.4,0.7
	h-0.5V43.6z M47.4,46.2H48c1,0,1.5,0.3,1.5,0.8c0,0.7-0.7,0.9-1.4,0.9c-0.3,0-0.5,0-0.7,0V46.2z"/>
<path class="st0" d="M58.6,49c-0.1-0.4-0.1-1-0.1-1.6v-2.3c0-1.6-0.7-2.9-3-2.9c-1.2,0-2.1,0.4-2.6,0.6l0.4,1.3
	c0.4-0.3,1.1-0.5,1.8-0.5c1,0,1.2,0.5,1.2,0.9v0.1c-2.4,0-3.9,0.8-3.9,2.5c0,1.1,0.8,2.1,2.2,2.1c0.8,0,1.5-0.3,1.9-0.8h0l0.1,0.7
	H58.6z M56.5,46.6c0,0.1,0,0.3,0,0.4c-0.1,0.4-0.6,0.8-1.1,0.8c-0.5,0-0.8-0.3-0.8-0.8c0-0.8,0.9-1.1,1.9-1.1V46.6z"/>
<path class="st0" d="M66.1,42.4c-0.6-0.1-1.5-0.1-2.6-0.1c-0.9,0-1.8,0.1-2.5,0.4c-0.7,0.3-1.1,0.8-1.1,1.6c0,1.1,1,1.6,1.7,1.7v0
	c-0.4,0.1-0.6,0.3-0.9,0.5c-0.4,0.4-0.7,1.3-1,1.8c-0.1,0.3-0.2,0.5-0.4,0.7h2.2c0.1-0.2,0.2-0.4,0.3-0.5c0.2-0.5,0.4-1.1,0.7-1.5
	c0.2-0.3,0.5-0.5,1-0.5H64V49h2.1V42.4z M64,45.2c-0.2,0-0.4,0-0.7,0c-0.6,0-1.3-0.3-1.3-0.9c0-0.6,0.6-0.9,1.2-0.9
	c0.3,0,0.5,0,0.7,0.1V45.2z"/>
<polygon class="st0" points="76,42.3 76,49 78.1,49 78.1,43.9 80.1,43.9 80.1,49 82.2,49 82.2,42.3 "/>
<path class="st0" d="M89.8,46.4c0-0.2,0.1-0.5,0.1-0.8c0-1.7-0.8-3.3-3-3.3c-2.3,0-3.4,1.9-3.4,3.6c0,2.1,1.3,3.4,3.6,3.4
	c0.9,0,1.7-0.1,2.4-0.4l-0.3-1.4c-0.5,0.2-1.1,0.3-1.8,0.3c-1,0-1.8-0.4-1.9-1.3H89.8z M85.5,44.9c0-0.6,0.4-1.3,1.3-1.3
	c1,0,1.2,0.8,1.2,1.3H85.5z"/>
<path class="st0" d="M91,42.3v2.2c0,1.6,0.8,2.4,2.3,2.4c0.6,0,1.3-0.2,1.7-0.4h0V49h2.1v-6.7H95v2.9c-0.2,0.1-0.6,0.3-0.9,0.3
	c-0.7,0-1-0.4-1-1.1v-2H91z"/>
<path class="st0" d="M104.4,49c-0.1-0.4-0.1-1-0.1-1.6v-2.3c0-1.6-0.7-2.9-2.9-2.9c-1.2,0-2.1,0.4-2.6,0.6l0.4,1.3
	c0.4-0.3,1.2-0.5,1.8-0.5c1.1,0,1.2,0.5,1.2,0.9v0.1c-2.4,0-3.9,0.8-3.9,2.5c0,1.1,0.8,2.1,2.2,2.1c0.8,0,1.5-0.3,1.9-0.8h0.1
	l0.1,0.7H104.4z M102.3,46.6c0,0.1,0,0.3-0.1,0.4c-0.1,0.4-0.5,0.8-1.1,0.8c-0.5,0-0.8-0.3-0.8-0.8c0-0.8,0.8-1.1,1.9-1.1V46.6z"/>
<polygon class="st0" points="105.3,42.3 105.3,43.9 107.2,43.9 107.2,49 109.3,49 109.3,43.9 111.2,43.9 111.2,42.3 "/>
<polygon class="st0" points="112.2,42.3 112.2,49 114.3,49 114.3,46.4 116.4,46.4 116.4,49 118.5,49 118.5,42.3 116.4,42.3 
	116.4,44.8 114.3,44.8 114.3,42.3 "/>
<path class="st0" d="M125.8,49c-0.1-0.4-0.1-1-0.1-1.6v-2.3c0-1.6-0.7-2.9-2.9-2.9c-1.2,0-2.1,0.4-2.6,0.6l0.4,1.3
	c0.4-0.3,1.2-0.5,1.8-0.5c1.1,0,1.2,0.5,1.2,0.9v0.1c-2.4,0-3.9,0.8-3.9,2.5c0,1.1,0.8,2.1,2.2,2.1c0.8,0,1.5-0.3,1.9-0.8h0.1
	l0.1,0.7H125.8z M123.7,46.6c0,0.1,0,0.3-0.1,0.4c-0.1,0.4-0.5,0.8-1.1,0.8c-0.5,0-0.8-0.3-0.8-0.8c0-0.8,0.8-1.1,1.9-1.1V46.6z"/>
<path class="st0" d="M133.2,42.4c-0.6-0.1-1.5-0.1-2.5-0.1c-0.9,0-1.8,0.1-2.5,0.4c-0.7,0.3-1.1,0.8-1.1,1.6c0,1.1,1,1.6,1.7,1.7v0
	c-0.4,0.1-0.6,0.3-0.8,0.5c-0.4,0.4-0.7,1.3-1,1.8c-0.1,0.3-0.3,0.5-0.4,0.7h2.2c0.1-0.2,0.2-0.4,0.3-0.5c0.2-0.5,0.4-1.1,0.7-1.5
	c0.2-0.3,0.5-0.5,1-0.5h0.4V49h2V42.4z M131.2,45.2c-0.2,0-0.4,0-0.7,0c-0.6,0-1.3-0.3-1.3-0.9c0-0.6,0.6-0.9,1.3-0.9
	c0.3,0,0.5,0,0.7,0.1V45.2z"/>
</svg>
