<?xml version="1.0" encoding="UTF-8" standalone="no"?>
<svg
   xmlns:dc="http://purl.org/dc/elements/1.1/"
   xmlns:cc="http://creativecommons.org/ns#"
   xmlns:rdf="http://www.w3.org/1999/02/22-rdf-syntax-ns#"
   xmlns:svg="http://www.w3.org/2000/svg"
   xmlns="http://www.w3.org/2000/svg"
   viewBox="0 0 42.5 57.5"
   height="57.5"
   width="42.5"
   xml:space="preserve"
   version="1.1"
   id="svg2"><metadata
     id="metadata8"><rdf:RDF><cc:Work
         rdf:about=""><dc:format>image/svg+xml</dc:format><dc:type
           rdf:resource="http://purl.org/dc/dcmitype/StillImage" /></cc:Work></rdf:RDF></metadata><defs
     id="defs6"><clipPath
       id="clipPath16"
       clipPathUnits="userSpaceOnUse"><path
         id="path18"
         d="M 0,46 34,46 34,0 0,0 0,46 Z" /></clipPath></defs><g
     transform="matrix(1.25,0,0,-1.25,0,57.5)"
     id="g10"><g
       id="g12"><g
         clip-path="url(#clipPath16)"
         id="g14"><g
           transform="translate(26,24)"
           id="g20"><path
             id="path22"
             style="fill:#000000;fill-opacity:1;fill-rule:nonzero;stroke:none"
             d="m 0,0 -18,0 c -0.553,0 -1,0.447 -1,1 0,0.552 0.447,1 1,1 L 0,2 C 0.553,2 1,1.552 1,1 1,0.447 0.553,0 0,0 m 0,-8 -18,0 c -0.553,0 -1,0.447 -1,1 0,0.552 0.447,1 1,1 L 0,-6 C 0.553,-6 1,-6.448 1,-7 1,-7.553 0.553,-8 0,-8 m 0,-8 -18,0 c -0.553,0 -1,0.447 -1,1 0,0.552 0.447,1 1,1 l 18,0 c 0.553,0 1,-0.448 1,-1 0,-0.553 -0.447,-1 -1,-1 m 6,26 -9,0 c -0.553,0 -1,0.448 -1,1 l 0,9 -18,0 c -1.104,0 -2,-0.896 -2,-2 l 0,-38 c 0,-1.104 0.896,-2 2,-2 l 26,0 c 1.104,0 2,0.896 2,2 L 6,10 Z M -2,18.619 -2,12 4.619,12 -2,18.619 Z M 4,-24 l -26,0 c -2.209,0 -4,1.791 -4,4 l 0,38 c 0,2.209 1.791,4 4,4 l 18.973,0 0.007,0 0.02,0 c 0.32,0 0.593,-0.161 0.776,-0.395 L 7.605,11.776 C 7.84,11.593 8,11.32 8,11 L 8,10.979 8,10.974 8,-20 c 0,-2.209 -1.791,-4 -4,-4" /></g></g></g></g></svg>