<?xml version="1.0" encoding="UTF-8" standalone="no"?>
<svg
   xmlns:dc="http://purl.org/dc/elements/1.1/"
   xmlns:cc="http://creativecommons.org/ns#"
   xmlns:rdf="http://www.w3.org/1999/02/22-rdf-syntax-ns#"
   xmlns:svg="http://www.w3.org/2000/svg"
   xmlns="http://www.w3.org/2000/svg"
   viewBox="0 0 142.48875 130.6725"
   height="130.6725"
   width="142.48875"
   xml:space="preserve"
   version="1.1"
   id="svg2"><metadata
     id="metadata8"><rdf:RDF><cc:Work
         rdf:about=""><dc:format>image/svg+xml</dc:format><dc:type
           rdf:resource="http://purl.org/dc/dcmitype/StillImage" /></cc:Work></rdf:RDF></metadata><defs
     id="defs6"><clipPath
       id="clipPath16"
       clipPathUnits="userSpaceOnUse"><path
         id="path18"
         d="m 0,104.538 113.991,0 L 113.991,0 0,0 0,104.538 Z" /></clipPath></defs><g
     transform="matrix(1.25,0,0,-1.25,0,130.6725)"
     id="g10"><g
       id="g12"><g
         clip-path="url(#clipPath16)"
         id="g14"><g
           transform="translate(9.2229,8.9265)"
           id="g20"><path
             id="path22"
             style="fill:#373535;fill-opacity:1;fill-rule:nonzero;stroke:none"
             d="m 0,0 -0.301,0 c 0,1.155 -0.239,2.474 -1.745,2.474 l -1.08,0 c -0.038,0 -1.017,0.062 -1.08,-0.779 l 0,-3.54 1.03,0 c 1.054,0.037 1.192,0.853 1.192,1.682 l 0.226,0 0,-3.591 -0.226,0 c 0,0.829 -0.125,1.62 -1.155,1.657 l -1.067,0 0,-3.276 c 0.063,-1.018 1.306,-0.816 1.331,-0.816 l 0,-0.264 -2.461,0 -1.067,0 0,0.175 c 0,0 0.992,-0.037 1.067,0.829 l 0,7.106 c -0.038,0.929 -1.067,0.892 -1.067,0.892 l 0,0.176 1.08,0 1.117,0 1.08,0 2.398,0 L 0,2.725 0,0 Z" /></g><g
           transform="translate(15.4627,6.202)"
           id="g24"><path
             id="path26"
             style="fill:#373535;fill-opacity:1;fill-rule:nonzero;stroke:none"
             d="M 0,0 -0.176,0.44 -1.494,3.918 -1.507,3.88 -2.812,0.44 -2.988,0 0,0 Z m 3.151,-3.528 0,-0.201 -3.101,0 0,0.201 c 0,0 1.03,-0.05 0.879,0.967 -0.013,0.1 -0.038,0.201 -0.075,0.326 l -0.59,1.545 -0.176,0.439 -3.164,0 -0.176,-0.439 -0.565,-1.494 c -0.088,-0.302 -0.088,-0.541 -0.037,-0.729 0.201,-0.665 1.129,-0.615 1.129,-0.615 l 0,-0.201 -2.511,0 0,0.201 c 0,0 0.54,0.025 0.98,0.879 l 1.168,3.089 1.443,3.791 0.201,0.553 0.163,0.401 0.427,0.201 0.013,0 0,-0.012 c 0,0 2.95,-7.734 2.976,-7.785 C 2.21,-2.611 2.31,-2.8 2.436,-2.988 2.561,-3.164 2.712,-3.327 2.888,-3.44 2.951,-3.477 3.013,-3.503 3.076,-3.516 l 0.075,-0.012 z" /></g><g
           transform="translate(26.6744,4.8212)"
           id="g28"><path
             id="path30"
             style="fill:#373535;fill-opacity:1;fill-rule:nonzero;stroke:none"
             d="m 0,0 c 0,-0.214 -0.025,-0.44 -0.075,-0.666 -0.114,-0.552 -0.427,-1.029 -0.905,-1.356 -0.351,-0.238 -0.765,-0.376 -1.18,-0.452 -0.301,-0.037 -0.602,-0.062 -0.904,-0.025 -0.288,0.025 -0.59,0.088 -0.866,0.201 -0.138,0.051 -0.276,0.113 -0.402,0.188 -0.138,0.088 -0.263,0.176 -0.401,0.252 -0.114,0.05 -0.251,0.075 -0.365,-0.013 -0.1,-0.101 -0.138,-0.239 -0.175,-0.364 l -0.038,-0.188 -0.239,0 0.026,1.506 -0.013,1.607 0.289,0 0,-0.05 c 0.012,-0.439 0.1,-0.879 0.251,-1.28 0.113,-0.314 0.264,-0.603 0.464,-0.867 0.114,-0.138 0.239,-0.263 0.377,-0.376 0.163,-0.139 0.327,-0.201 0.527,-0.264 0.126,-0.038 0.239,-0.075 0.365,-0.088 0.276,-0.05 0.552,-0.05 0.828,0.013 0.754,0.15 1.155,0.828 1.268,1.544 0.201,1.255 -1.494,2.273 -2.913,3.089 -1.406,0.816 -1.406,2.109 -1.406,2.109 -0.025,0.426 0.013,0.878 0.201,1.28 0.201,0.414 0.553,0.728 0.967,0.929 0.301,0.138 0.628,0.226 0.954,0.264 0.113,0.013 0.226,0.013 0.339,0.013 l 0.038,0 c 0.201,-0.013 0.414,-0.038 0.615,-0.101 0.289,-0.075 0.565,-0.201 0.816,-0.364 0.188,-0.125 0.477,-0.339 0.665,-0.088 0.076,0.088 0.113,0.201 0.139,0.314 l 0.025,0.176 0.251,0 -0.025,-1.469 0,-1.206 -0.289,0 C -0.804,4.557 -0.879,4.859 -0.967,5.135 -1.08,5.449 -1.218,5.75 -1.419,6.014 -1.519,6.152 -1.645,6.29 -1.783,6.39 -1.959,6.528 -2.16,6.592 -2.361,6.654 -2.85,6.792 -3.44,6.817 -3.867,6.503 -4.043,6.365 -4.194,6.202 -4.319,6.026 c 0,0 -1.155,-1.582 1.682,-2.975 C -0.929,2.222 0,1.067 0,0" /></g><g
           transform="translate(30.3151,10.9356)"
           id="g32"><path
             id="path34"
             style="fill:#373535;fill-opacity:1;fill-rule:nonzero;stroke:none"
             d="m 0,0 c -0.063,0.125 -0.151,0.238 -0.264,0.326 -0.1,0.076 -0.213,0.126 -0.339,0.164 -0.138,0.037 -0.401,0.05 -0.401,0.05 l 0,0.175 3.276,0 0,-0.175 c 0,0 -0.878,0.037 -1.054,-0.691 -0.013,-0.075 -0.025,-0.15 -0.025,-0.226 l 0,-3.377 4.331,0 0,3.377 c 0,0.076 -0.012,0.151 -0.025,0.226 C 5.323,0.577 4.444,0.54 4.444,0.54 l 0,0.175 3.277,0 0,-0.175 c 0,0 -0.878,0.037 -1.042,-0.691 -0.025,-0.075 -0.025,-0.15 -0.025,-0.226 l 0,-7.006 c 0,-0.075 0,-0.163 0.025,-0.251 0.201,-0.69 1.042,-0.653 1.042,-0.653 l 0,-0.175 -3.277,0 0,0.175 c 0,0 0.905,-0.037 1.055,0.729 0.013,0.062 0.025,0.137 0.025,0.201 l 0,3.352 -4.331,0 0,-3.39 c 0.05,-0.942 1.079,-0.892 1.079,-0.892 l 0,-0.175 -3.276,0 0,0.175 c 0,0 0.853,-0.037 1.042,0.653 0.025,0.088 0.025,0.176 0.025,0.251 0,0.013 0.012,6.755 0,7.006 C 0.063,-0.239 0.05,-0.113 0,0" /></g><g
           transform="translate(42.7572,10.5586)"
           id="g36"><path
             id="path38"
             style="fill:#373535;fill-opacity:1;fill-rule:nonzero;stroke:none"
             d="M 0,0 0,-7.006 C 0,-7.081 0,-7.169 0.025,-7.257 0.214,-7.947 1.067,-7.91 1.067,-7.91 l 0,-0.175 -3.277,0 0,0.175 c 0,0 0.841,-0.037 1.043,0.653 0.012,0.088 0.025,0.176 0.025,0.251 l 0,7.006 c 0,0.076 0,0.151 -0.025,0.226 -0.164,0.728 -1.043,0.691 -1.043,0.691 l 0,0.175 3.277,0 0,-0.175 c 0,0 -0.878,0.037 -1.054,-0.691 C 0,0.151 0,0.076 0,0" /></g><g
           transform="translate(53.1651,7.0431)"
           id="g40"><path
             id="path42"
             style="fill:#373535;fill-opacity:1;fill-rule:nonzero;stroke:none"
             d="m 0,0 c 0,2.511 -1.306,4.545 -2.925,4.545 -1.607,0 -2.913,-2.034 -2.913,-4.545 0,-2.511 1.306,-4.545 2.913,-4.545 C -1.306,-4.545 0,-2.511 0,0 m 1.168,-0.063 c 0,-2.648 -1.833,-4.808 -4.093,-4.808 -2.26,0 -4.093,2.16 -4.093,4.808 0,2.662 1.833,4.809 4.093,4.809 2.26,0 4.093,-2.147 4.093,-4.809" /></g><g
           transform="translate(64.9167,11.651)"
           id="g44"><path
             id="path46"
             style="fill:#373535;fill-opacity:1;fill-rule:nonzero;stroke:none"
             d="m 0,0 0,-0.176 c 0,0 -1.03,0.038 -1.08,-0.891 l 0,-8.111 -0.289,0 -5.449,8.438 0,-7.345 c 0,-0.076 0.013,-0.151 0.025,-0.227 0.176,-0.728 1.055,-0.69 1.055,-0.69 l 0,-0.176 -2.398,0 0,0.176 c 0,0 0.879,-0.038 1.055,0.703 0.012,0.063 0.012,0.138 0.012,0.214 l 0,7.056 c -0.062,0.891 -1.067,0.816 -1.067,0.816 l 0,0.213 2.185,0 4.62,-7.156 0,6.076 c -0.05,0.942 -1.167,0.904 -1.167,0.904 L -2.498,0 0,0 Z" /></g><g
           transform="translate(77.597,4.7957)"
           id="g48"><path
             id="path50"
             style="fill:#373535;fill-opacity:1;fill-rule:nonzero;stroke:none"
             d="m 0,0 c 0.025,2.373 -1.557,2.323 -1.77,2.323 l -1.658,0 0,-3.553 c 0,-0.063 0,-0.126 0.013,-0.188 0.063,-0.327 0.276,-0.516 0.565,-0.603 0.063,-0.025 0.125,-0.025 0.188,-0.038 0.164,-0.012 0.339,0 0.502,0.013 0.164,0.012 0.327,0.037 0.503,0.075 l 0.125,0.037 C -0.779,-1.732 -0.013,-1.23 0,0 M -2.662,6.63 C -3.063,6.566 -3.428,6.303 -3.428,5.851 l 0,-3.277 1.13,0 c 0.352,0 0.691,0.1 0.967,0.314 0.389,0.289 0.716,0.791 0.716,1.657 0,0.49 -0.076,0.866 -0.189,1.155 -0.075,0.164 -0.163,0.314 -0.288,0.44 -0.239,0.263 -0.565,0.414 -0.917,0.477 -0.213,0.038 -0.439,0.038 -0.653,0.013 M 1.293,0.251 c 0,-1.318 -0.866,-1.971 -1.619,-2.285 -0.465,-0.188 -0.967,-0.288 -1.47,-0.288 l -3.854,0 0,0.251 c 0,0 1.092,-0.088 1.092,0.916 l 0,6.88 c 0,1.005 -1.067,0.955 -1.067,0.955 l 0,0.175 3.616,0 c 0,0 2.637,0.076 2.637,-2.071 0,-1.532 -1.369,-2.072 -2.135,-2.248 0.653,-0.05 2.8,-0.351 2.8,-2.285" /></g><g
           transform="translate(83.6105,10.5586)"
           id="g52"><path
             id="path54"
             style="fill:#373535;fill-opacity:1;fill-rule:nonzero;stroke:none"
             d="M 0,0 0,-7.006 C 0,-7.081 0,-7.169 0.025,-7.257 0.214,-7.947 1.067,-7.91 1.067,-7.91 l 0,-0.175 -3.277,0 0,0.175 c 0,0 0.841,-0.037 1.043,0.653 0.012,0.088 0.025,0.176 0.025,0.251 l 0,7.006 c 0,0.076 0,0.151 -0.025,0.226 -0.164,0.728 -1.043,0.691 -1.043,0.691 l 0,0.175 3.277,0 0,-0.175 c 0,0 -0.878,0.037 -1.054,-0.691 C 0,0.151 0,0.076 0,0" /></g><g
           transform="translate(90.9805,11.4753)"
           id="g56"><path
             id="path58"
             style="fill:#373535;fill-opacity:1;fill-rule:nonzero;stroke:none"
             d="M 0,0 C 0,0 -0.879,0.038 -1.055,-0.69 -1.067,-0.766 -1.08,-0.841 -1.08,-0.917 l 0,-5.976 c 0,-0.803 0.189,-4.582 -2.837,-4.582 l 0,0.15 c 1.946,0 1.707,4.432 1.707,4.432 l 0,5.976 c 0,0.076 0,0.151 -0.012,0.227 C -2.398,0.038 -3.277,0 -3.277,0 l 0,0.176 1.08,0 L 0,0.176 0,0 Z" /></g><g
           transform="translate(100.3213,7.0431)"
           id="g60"><path
             id="path62"
             style="fill:#373535;fill-opacity:1;fill-rule:nonzero;stroke:none"
             d="m 0,0 c 0,2.511 -1.306,4.545 -2.926,4.545 -1.607,0 -2.912,-2.034 -2.912,-4.545 0,-2.511 1.305,-4.545 2.912,-4.545 C -1.306,-4.545 0,-2.511 0,0 m 1.167,-0.063 c 0,-2.648 -1.833,-4.808 -4.093,-4.808 -2.259,0 -4.093,2.16 -4.093,4.808 0,2.662 1.834,4.809 4.093,4.809 2.26,0 4.093,-2.147 4.093,-4.809" /></g><g
           transform="translate(111.3195,11.651)"
           id="g64"><path
             id="path66"
             style="fill:#373535;fill-opacity:1;fill-rule:nonzero;stroke:none"
             d="m 0,0 0,-0.176 c 0,0 -1.067,0.05 -1.067,-0.954 l 0,-4.294 c 0,-2.247 -0.515,-3.992 -3.001,-3.992 -0.452,0 -0.916,0.062 -1.331,0.251 -0.339,0.138 -0.628,0.351 -0.866,0.627 -0.214,0.226 -0.377,0.503 -0.502,0.804 -0.113,0.251 -0.189,0.515 -0.226,0.779 -0.063,0.351 -0.076,0.702 -0.076,1.054 l 0,0.728 0,1.005 0,1.08 0,0.991 0,0.729 0,0.288 c 0,0.076 -0.012,0.163 -0.025,0.251 -0.201,0.691 -1.042,0.653 -1.042,0.653 l 0,0.176 3.277,0 0,-0.176 c 0,0 -1.03,0.038 -1.08,-0.891 l 0,-0.214 0,-1.694 0,-2.148 c 0,-0.615 -0.037,-1.243 0.063,-1.845 0.101,-0.703 0.414,-1.406 1.067,-1.745 0.264,-0.138 0.54,-0.188 0.829,-0.188 2.637,0 2.662,2.398 2.662,3.477 l 0,4.294 c 0,1.004 -1.206,0.954 -1.206,0.954 L -2.524,0 0,0 Z" /></g><g
           transform="translate(46.2382,83.6368)"
           id="g68"><path
             id="path70"
             style="fill:#373535;fill-opacity:1;fill-rule:nonzero;stroke:none"
             d="m 0,0 c 1.448,-0.457 2.82,-1.143 4.116,-1.981 1.143,-0.763 2.896,-1.983 3.964,-0.534 0.457,0.534 0.686,1.219 0.838,1.906 l 0.229,1.067 1.448,0 -0.152,-8.919 0.076,-7.318 -1.753,0 c -0.152,1.754 -0.61,3.583 -1.144,5.26 -0.61,1.906 -1.524,3.735 -2.744,5.336 -0.61,0.839 -1.372,1.677 -2.21,2.287 C 1.905,-2.21 0.99,-1.829 0,-1.524 L 0,0 Z m 13.492,-41.619 c 0,-1.372 -0.076,-2.744 -0.382,-4.116 -0.761,-3.354 -2.667,-6.251 -5.488,-8.157 C 5.488,-55.34 2.973,-56.255 0.381,-56.636 0.305,-56.712 0.152,-56.712 0,-56.712 l 0,1.905 c 3.811,1.296 5.869,5.108 6.479,8.996 1.143,7.622 -9.147,13.872 -17.685,18.751 -8.613,4.955 -8.613,12.806 -8.613,12.806 -0.153,2.668 0.152,5.336 1.296,7.775 1.219,2.515 3.277,4.498 5.793,5.641 1.83,0.914 3.811,1.372 5.793,1.601 l 0.229,0 0,-1.601 c -1.144,-0.229 -2.211,-0.686 -3.202,-1.372 -1.067,-0.763 -1.981,-1.754 -2.744,-2.821 -0.076,0 -7.089,-9.681 10.139,-18.142 10.366,-5.031 16.007,-12.044 16.007,-18.446 m -20.2,-15.093 c -1.22,0.229 -2.439,0.61 -3.659,1.067 -0.839,0.305 -1.677,0.686 -2.439,1.144 -0.839,0.533 -1.525,1.143 -2.44,1.524 -0.686,0.305 -1.524,0.457 -2.134,-0.076 -0.61,-0.534 -0.914,-1.448 -1.143,-2.211 -0.077,-0.381 -0.153,-0.686 -0.153,-1.067 l -1.524,0 0.228,9.071 -0.076,9.833 1.754,0 0,-0.381 c 0.076,-2.668 0.609,-5.336 1.524,-7.775 0.686,-1.906 1.601,-3.659 2.82,-5.183 0.687,-0.915 1.372,-1.678 2.211,-2.363 0.991,-0.839 2.058,-1.22 3.202,-1.601 0.609,-0.229 1.219,-0.381 1.829,-0.458 l 0,-1.524 z" /></g><g
           transform="translate(47.245,96.5336)"
           id="g72"><path
             id="path74"
             style="fill:#373535;fill-opacity:1;fill-rule:nonzero;stroke:none"
             d="m 0,0 c 0.076,-0.686 0.305,-1.296 0.534,-1.905 l 0.381,-1.144 -1.601,0 c -1.372,3.659 -2.82,8.538 -7.013,9.681 -0.076,0.076 -0.61,0.152 -0.61,0.152 l 0,1.22 5.031,0 10.215,0 0,-1.22 C 6.937,6.784 -1.296,7.242 0,0 m 14.331,-38.418 c 0.381,0.991 6.402,16.693 7.622,19.895 l 3.659,9.681 c 0.991,2.515 1.982,5.031 2.896,7.546 0.763,1.982 2.135,4.193 0.687,6.174 -0.763,1.068 -2.059,1.601 -3.354,1.754 -0.153,0.076 -2.058,0.229 -2.058,0.152 l 0,1.22 18.827,0 0,-1.22 c 0,0 -2.058,0.153 -4.269,-2.897 -0.685,-0.838 -1.219,-1.829 -1.6,-2.82 l -16.954,-44.571 -2.56,-6.729 -3.659,9.681 0.763,2.134 z" /></g><g
           transform="translate(64.2507,45.8153)"
           id="g76"><path
             id="path78"
             style="fill:#373535;fill-opacity:1;fill-rule:nonzero;stroke:none"
             d="M 0,0 3.683,9.586 -2.21,13.513 -4.178,8.147 c 0,0 3.482,-3.342 4.178,-8.147" /></g><g
           transform="translate(31.0314,40.3271)"
           id="g80"><path
             id="path82"
             style="fill:#373535;fill-opacity:1;fill-rule:nonzero;stroke:none"
             d="m 0,0 c -0.509,0 -0.796,0.021 -0.812,0.022 l 0.045,0.555 c 0.095,-0.007 9.634,-0.683 18.664,6.314 5.171,4.006 9.199,9.734 11.97,17.025 3.209,8.441 8.006,14.915 14.257,19.242 L 44.441,42.7 C 38.284,38.438 33.556,32.052 30.388,23.718 27.579,16.33 23.492,10.521 18.238,6.45 10.573,0.511 2.533,0 0,0" /></g><g
           transform="translate(32.4884,99.4496)"
           id="g84"><path
             id="path86"
             style="fill:#373535;fill-opacity:1;fill-rule:nonzero;stroke:none"
             d="m 0,0 c 0,1.138 -0.923,2.061 -2.061,2.061 -1.138,0 -2.06,-0.923 -2.06,-2.061 0,-1.138 0.922,-2.061 2.06,-2.061 C -0.923,-2.061 0,-1.138 0,0" /></g><g
           transform="translate(74.2001,39.6552)"
           id="g88"><path
             id="path90"
             style="fill:#373535;fill-opacity:1;fill-rule:nonzero;stroke:none"
             d="m 0,0 c 0,1.138 -0.923,2.061 -2.061,2.061 -1.138,0 -2.06,-0.923 -2.06,-2.061 0,-1.138 0.922,-2.061 2.06,-2.061 C -0.923,-2.061 0,-1.138 0,0" /></g><g
           transform="translate(87.4958,32.1623)"
           id="g92"><path
             id="path94"
             style="fill:#373535;fill-opacity:1;fill-rule:nonzero;stroke:none"
             d="m 0,0 c -6.044,0 -11.955,2.089 -16.646,5.88 l 0.351,0.434 C -11.704,2.602 -5.916,0.557 0,0.557 c 14.302,0 25.938,11.636 25.938,25.938 0,14.302 -11.636,25.938 -25.938,25.938 -9.331,0 -17.986,-5.049 -22.588,-13.178 l -0.485,0.274 C -18.372,47.832 -9.531,52.99 0,52.99 14.609,52.99 26.495,41.104 26.495,26.495 26.495,11.885 14.609,0 0,0" /></g><g
           transform="translate(30.5932,40.3233)"
           id="g96"><path
             id="path98"
             style="fill:#373535;fill-opacity:1;fill-rule:nonzero;stroke:none"
             d="m 0,0 c -16.869,0 -30.593,13.724 -30.593,30.594 0,16.869 13.724,30.593 30.593,30.593 L 0,60.63 c -16.562,0 -30.036,-13.474 -30.036,-30.036 0,-16.562 13.474,-30.037 30.036,-30.037 10.245,0 20.452,5.801 26.003,14.779 l 0.473,-0.293 C 20.827,5.905 10.434,0 0,0" /></g></g></g></g></svg>