<?xml version="1.0" encoding="UTF-8" standalone="no"?>
<svg
   xmlns:dc="http://purl.org/dc/elements/1.1/"
   xmlns:cc="http://creativecommons.org/ns#"
   xmlns:rdf="http://www.w3.org/1999/02/22-rdf-syntax-ns#"
   xmlns:svg="http://www.w3.org/2000/svg"
   xmlns="http://www.w3.org/2000/svg"
   viewBox="0 0 271.96625 247.55125"
   height="247.55125"
   width="271.96625"
   xml:space="preserve"
   version="1.1"
   id="svg2"><metadata
     id="metadata8"><rdf:RDF><cc:Work
         rdf:about=""><dc:format>image/svg+xml</dc:format><dc:type
           rdf:resource="http://purl.org/dc/dcmitype/StillImage" /></cc:Work></rdf:RDF></metadata><defs
     id="defs6"><clipPath
       id="clipPath16"
       clipPathUnits="userSpaceOnUse"><path
         id="path18"
         d="m 0,198.041 217.573,0 L 217.573,0 0,0 0,198.041 Z" /></clipPath></defs><g
     transform="matrix(1.25,0,0,-1.25,0,247.55125)"
     id="g10"><g
       id="g12"><g
         clip-path="url(#clipPath16)"
         id="g14"><g
           transform="translate(82.7809,166.5785)"
           id="g20"><path
             id="path22"
             style="fill:#b5d676;fill-opacity:1;fill-rule:nonzero;stroke:none"
             d="m 0,0 10.776,-10.817 10.78,-10.819 1.556,-1.56 1.164,-1.169 -1.164,-1.163 -1.556,-1.555 -21.159,-21.181 -0.311,-0.32 -0.021,-0.021 -0.052,-0.052 -0.009,-0.008 -0.22,-0.204 -0.004,-0.005 -0.026,-0.023 c -0.409,-0.397 -0.832,-0.765 -1.263,-1.107 -0.508,-0.402 -1.06,-0.789 -1.646,-1.157 l 0,-0.007 c -2.901,-1.812 -6.203,-2.719 -9.5,-2.719 l -0.009,0 0,0.006 c -2.297,10e-4 -4.595,0.44 -6.746,1.312 -0.332,0.136 -0.681,0.293 -1.043,0.466 -1.565,0.756 -3.047,1.752 -4.383,2.988 l -0.035,0 -0.483,0.486 -0.004,0.004 -0.013,0.01 -0.483,0.486 0,0.031 c -0.314,0.339 -0.608,0.686 -0.888,1.035 -0.418,0.532 -0.81,1.083 -1.159,1.648 -1.815,2.899 -2.72,6.201 -2.72,9.497 0,4.117 1.409,8.237 4.233,11.573 -0.336,0.393 -0.651,0.796 -0.94,1.205 -0.556,0.777 -1.052,1.601 -1.478,2.462 -2.16,4.353 -2.44,9.405 -0.849,13.942 l 0,0.006 0.004,0.011 c 0.043,0.117 0.108,0.287 0.194,0.514 0.06,0.154 0.129,0.326 0.207,0.511 0.37,0.881 0.806,1.724 1.301,2.513 l 0,-10e-4 0.009,0.014 c 0.09,0.148 0.194,0.304 0.302,0.464 0.155,0.232 0.258,0.383 0.314,0.465 0.427,0.592 0.897,1.17 1.419,1.73 l 0,0.035 0.487,0.485 0.004,0.005 0.013,0.015 0.008,0 c 0.604,0.603 1.25,1.161 1.927,1.667 0.69,0.515 1.392,0.968 2.099,1.358 3.712,2.04 7.992,2.669 12.056,1.89 l 0.018,-0.004 c 0.086,-0.015 0.228,-0.047 0.448,-0.096 l 0.004,0.005 c 0.082,-0.017 0.246,-0.058 0.457,-0.11 0.759,-0.189 1.535,-0.439 2.311,-0.749 l 0.008,0 0.009,-0.003 0.013,-0.006 0.405,-0.168 0.022,-0.006 C -5.453,3.737 -5.302,3.67 -5.173,3.611 l 0,-0.002 C -4.41,3.259 -3.685,2.863 -3.009,2.431 L -3.013,2.43 -2.978,2.41 -2.935,2.38 -2.931,2.381 -2.927,2.377 -2.772,2.28 -2.759,2.261 -2.733,2.244 -2.72,2.232 -2.522,2.096 -2.509,2.089 c 0.328,-0.225 0.647,-0.464 0.961,-0.712 l 0.039,-0.022 0.13,-0.105 0.228,-0.19 0.052,-0.04 0.06,-0.06 0.022,-0.019 0.004,-0.005 0.215,-0.164 0.177,-0.141 0.104,-0.14 0.09,-0.079 0.056,-0.053 0,0.001 0.013,-0.011 0,-0.002 L -0.354,0.344 -0.06,0.061 -0.047,0.047 -0.013,0.013 0,0 Z m 5.297,-16.264 -10.741,10.782 -0.25,0.241 -0.22,0.193 -0.034,0.031 -0.104,0.087 -0.125,0.105 -0.013,0.019 -0.077,0.064 -0.009,0.005 -0.004,0.004 -0.026,0.021 -0.039,0.033 -0.078,0.063 0,0.002 -0.112,0.086 0,-0.001 c -0.202,0.154 -0.405,0.295 -0.594,0.42 l -0.009,0.005 -0.004,0.003 0,-0.001 -0.009,0.005 -0.026,0.014 -0.276,0.172 0,0.003 -0.224,0.13 0,-10e-4 c -0.409,0.232 -0.815,0.428 -1.215,0.587 l -0.018,0.007 -0.288,0.108 -0.242,0.086 c -0.418,0.14 -0.862,0.254 -1.319,0.341 l -0.008,0 -0.018,0.004 0,10e-4 c -0.452,0.086 -0.905,0.141 -1.357,0.164 -0.445,0.024 -0.906,0.017 -1.375,-0.019 -2.341,-0.184 -4.63,-1.174 -6.419,-2.963 l -0.004,-0.005 -0.315,-0.312 -0.146,-0.161 c -0.358,-0.409 -0.685,-0.851 -0.974,-1.314 l 0,-0.002 -0.194,-0.319 -0.005,0.003 -0.137,-0.253 0,-0.001 c -0.264,-0.482 -0.479,-0.971 -0.647,-1.452 l -0.004,-0.017 c -0.181,-0.507 -0.315,-1.023 -0.41,-1.541 -0.095,-0.519 -0.151,-1.045 -0.164,-1.571 -0.069,-2.707 0.931,-5.441 3,-7.513 l 0,-0.001 0.854,-0.779 c 0.185,-0.144 0.383,-0.289 0.59,-0.431 l 2.6,-1.778 1.939,-1.329 -1.909,-1.378 -2.522,-1.817 -0.004,-0.004 -0.112,-0.1 -0.056,-0.036 -0.009,-0.005 -0.181,-0.122 -0.116,-0.09 -0.173,-0.137 -0.004,-0.003 -0.035,-0.026 -0.116,-0.097 0,-0.002 -0.134,-0.112 -0.004,0 -0.258,-0.229 -0.293,-0.295 -0.005,-0.006 -0.336,-0.335 c -0.164,-0.179 -0.315,-0.355 -0.457,-0.533 l 0,-0.006 c -0.237,-0.299 -0.457,-0.61 -0.655,-0.93 -1.026,-1.647 -1.539,-3.53 -1.539,-5.416 l 0,-0.01 -0.009,0 c 0,-1.3 0.255,-2.608 0.755,-3.842 l 0,-0.006 c 0.073,-0.19 0.163,-0.387 0.258,-0.587 l 0,-0.006 c 0.414,-0.857 0.953,-1.673 1.625,-2.416 l 0.349,-0.35 0.014,-0.01 0.004,-0.005 0.357,-0.357 c 0.164,-0.15 0.341,-0.293 0.518,-0.434 l -0.005,-0.004 c 0.285,-0.222 0.595,-0.441 0.936,-0.653 1.646,-1.027 3.53,-1.541 5.414,-1.541 l 0.013,0 0,-0.006 c 1.297,0 2.607,0.252 3.84,0.751 0.216,0.088 0.418,0.176 0.591,0.26 0.961,0.461 1.857,1.079 2.663,1.853 l 0.078,0.088 0.013,0.009 0.03,0.039 0.022,0.022 1.082,1.082 0.008,-0.007 17.677,17.692 -8.065,8.092 z" /></g><g
           transform="translate(133.0442,166.5785)"
           id="g24"><path
             id="path26"
             style="fill:#b5d676;fill-opacity:1;fill-rule:nonzero;stroke:none"
             d="m 0,0 0.013,0.013 0.034,0.034 0.013,0.014 0.294,0.283 0.004,0.003 0,0.002 0.013,0.011 0,-0.001 0.056,0.053 0.09,0.079 0.104,0.14 0.177,0.141 0.215,0.164 0.004,0.005 0.022,0.019 0.06,0.06 0.052,0.04 0.228,0.19 0.13,0.105 0.038,0.022 C 1.862,1.625 2.181,1.864 2.509,2.089 L 2.522,2.096 2.72,2.232 2.733,2.244 2.759,2.261 2.772,2.28 2.927,2.377 2.931,2.381 2.935,2.38 2.978,2.41 3.013,2.43 3.009,2.431 C 3.685,2.863 4.41,3.259 5.173,3.609 l 0,0.002 c 0.129,0.059 0.28,0.126 0.443,0.198 l 0.022,0.006 0.405,0.168 0.013,0.006 0.009,0.003 0.008,0 c 0.776,0.31 1.552,0.56 2.311,0.749 0.211,0.052 0.375,0.093 0.457,0.11 L 8.845,4.846 c 0.22,0.049 0.362,0.081 0.448,0.096 l 0.018,0.004 c 4.064,0.779 8.344,0.15 12.056,-1.89 0.707,-0.39 1.409,-0.843 2.099,-1.358 0.677,-0.506 1.323,-1.064 1.927,-1.667 l 0.008,0 0.013,-0.015 0.004,-0.005 0.487,-0.485 0,-0.035 c 0.522,-0.56 0.992,-1.138 1.419,-1.73 0.056,-0.082 0.159,-0.233 0.314,-0.465 0.108,-0.16 0.212,-0.316 0.302,-0.464 l 0.009,-0.014 0,10e-4 c 0.495,-0.789 0.931,-1.632 1.301,-2.513 0.078,-0.185 0.147,-0.357 0.207,-0.511 0.086,-0.227 0.151,-0.397 0.194,-0.514 l 0.004,-0.011 0,-0.006 c 1.591,-4.537 1.311,-9.589 -0.849,-13.942 -0.426,-0.861 -0.922,-1.685 -1.478,-2.462 -0.289,-0.409 -0.604,-0.812 -0.94,-1.205 2.824,-3.336 4.233,-7.456 4.233,-11.573 0,-3.296 -0.905,-6.598 -2.72,-9.498 -0.349,-0.564 -0.741,-1.115 -1.159,-1.647 -0.28,-0.349 -0.574,-0.696 -0.888,-1.035 l 0,-0.031 -0.483,-0.486 -0.013,-0.01 -0.004,-0.004 -0.483,-0.486 -0.035,0 c -1.336,-1.236 -2.818,-2.233 -4.383,-2.988 -0.362,-0.173 -0.711,-0.33 -1.043,-0.466 -2.151,-0.872 -4.449,-1.311 -6.746,-1.312 l 0,-0.006 -0.009,0 c -3.297,0 -6.599,0.907 -9.5,2.719 l 0,0.007 c -0.586,0.368 -1.138,0.755 -1.646,1.157 -0.431,0.342 -0.854,0.71 -1.263,1.107 l -0.026,0.023 -0.004,0.005 -0.22,0.204 -0.009,0.008 -0.052,0.052 -0.021,0.021 -0.311,0.32 -21.159,21.181 -1.556,1.555 -1.164,1.163 1.164,1.169 1.556,1.56 10.78,10.819 L 0,0 Z m -5.297,-16.264 -8.065,-8.092 17.677,-17.692 0.008,0.007 1.082,-1.082 0.022,-0.022 0.03,-0.039 0.013,-0.009 0.078,-0.088 c 0.806,-0.774 1.702,-1.392 2.663,-1.853 0.173,-0.084 0.375,-0.172 0.591,-0.26 1.233,-0.499 2.543,-0.751 3.84,-0.751 l 0,0.006 0.013,0 c 1.884,0 3.768,0.514 5.414,1.541 0.341,0.212 0.651,0.43 0.936,0.653 L 19,-43.941 c 0.177,0.141 0.354,0.284 0.518,0.434 l 0.357,0.357 0.004,0.005 0.013,0.01 0.35,0.35 c 0.672,0.743 1.211,1.559 1.625,2.416 l 0,0.006 c 0.094,0.2 0.185,0.397 0.258,0.587 l 0,0.006 c 0.5,1.234 0.755,2.542 0.755,3.842 l -0.009,0 0,0.01 c 0,1.886 -0.513,3.769 -1.539,5.416 -0.198,0.32 -0.418,0.631 -0.655,0.93 l 0,0.006 c -0.142,0.178 -0.293,0.354 -0.457,0.533 l -0.336,0.335 -0.005,0.006 -0.293,0.295 -0.258,0.229 -0.004,0 -0.134,0.112 0,0.002 -0.116,0.097 -0.035,0.026 -0.004,0.003 -0.173,0.137 -0.116,0.09 -0.181,0.122 -0.009,0.005 -0.056,0.036 -0.112,0.1 -0.004,0.004 -2.522,1.817 -1.909,1.378 1.939,1.329 2.6,1.778 c 0.207,0.142 0.405,0.287 0.59,0.431 l 0.854,0.779 0,0.001 c 2.069,2.072 3.069,4.806 3,7.513 -0.013,0.526 -0.069,1.052 -0.164,1.57 -0.095,0.519 -0.229,1.035 -0.41,1.542 l -0.004,0.017 c -0.168,0.481 -0.383,0.97 -0.647,1.452 l 0,0.001 -0.137,0.253 -0.005,-0.003 -0.194,0.319 0,0.002 c -0.289,0.463 -0.616,0.905 -0.974,1.314 l -0.146,0.161 -0.315,0.312 -0.004,0.005 c -1.789,1.789 -4.078,2.779 -6.419,2.963 -0.469,0.036 -0.93,0.043 -1.375,0.019 -0.452,-0.023 -0.905,-0.078 -1.357,-0.164 l 0,-10e-4 -0.018,-0.004 -0.008,0 C 10.302,-2.737 9.858,-2.851 9.44,-2.991 L 9.198,-3.077 8.91,-3.185 8.892,-3.192 C 8.492,-3.351 8.086,-3.547 7.677,-3.779 l 0,10e-4 -0.224,-0.13 0,-0.003 -0.276,-0.172 -0.026,-0.014 -0.009,-0.005 0,0.001 L 7.138,-4.104 7.129,-4.109 C 6.94,-4.234 6.737,-4.375 6.535,-4.529 l 0,0.001 -0.112,-0.086 0,-0.002 L 6.345,-4.679 6.306,-4.712 6.28,-4.733 6.276,-4.737 6.267,-4.742 6.19,-4.806 6.177,-4.825 6.052,-4.93 5.948,-5.017 5.914,-5.048 5.694,-5.241 5.444,-5.482 -5.297,-16.264 Z" /></g><g
           transform="translate(83.5739,117.1685)"
           id="g28"><path
             id="path30"
             style="fill:#b5d676;fill-opacity:1;fill-rule:nonzero;stroke:none"
             d="m 0,0 10.815,10.775 10.819,10.781 1.565,1.555 1.163,1.163 1.164,-1.163 1.556,-1.555 21.182,-21.159 0.318,-0.312 0.022,-0.021 0.052,-0.051 0.008,-0.011 0.207,-0.218 0.005,-0.004 0.021,-0.025 c 0.397,-0.412 0.763,-0.833 1.108,-1.265 0.401,-0.506 0.789,-1.058 1.155,-1.647 l 0.009,0 c 1.81,-2.899 2.72,-6.203 2.72,-9.498 l 0,-0.009 -0.009,0 c 0,-2.3 -0.44,-4.595 -1.31,-6.746 -0.138,-0.334 -0.294,-0.683 -0.466,-1.045 -0.759,-1.565 -1.754,-3.045 -2.991,-4.381 l 0,-0.035 -0.483,-0.485 -0.004,-0.004 -0.013,-0.011 -0.483,-0.485 -0.035,0 c -0.336,-0.312 -0.681,-0.608 -1.034,-0.886 -0.53,-0.422 -1.082,-0.81 -1.647,-1.161 -2.896,-1.813 -6.202,-2.718 -9.496,-2.718 -4.116,0 -8.237,1.41 -11.573,4.233 -0.392,-0.339 -0.797,-0.651 -1.207,-0.942 -0.776,-0.556 -1.599,-1.05 -2.461,-1.476 -4.354,-2.16 -9.405,-2.442 -13.94,-0.849 l -0.008,0 -0.009,0.004 c -0.116,0.041 -0.289,0.105 -0.517,0.194 -0.151,0.058 -0.324,0.127 -0.509,0.207 -0.884,0.37 -1.724,0.806 -2.513,1.299 l 0,0.002 -0.013,0.007 c -0.146,0.092 -0.306,0.194 -0.465,0.302 -0.229,0.155 -0.384,0.26 -0.466,0.319 -0.59,0.424 -1.168,0.894 -1.728,1.416 l -0.035,0 -0.487,0.484 -0.004,0.005 -0.013,0.015 0,0.006 c -0.604,0.606 -1.164,1.252 -1.668,1.929 -0.518,0.688 -0.97,1.39 -1.358,2.099 -2.039,3.712 -2.668,7.992 -1.892,12.054 l 0.004,0.02 c 0.017,0.084 0.048,0.228 0.099,0.448 l -0.008,0.002 c 0.021,0.082 0.06,0.246 0.112,0.457 0.189,0.761 0.439,1.537 0.75,2.313 l 0,0.006 0,0.009 0.008,0.015 0.168,0.405 0.005,0.019 c 0.073,0.166 0.138,0.317 0.198,0.446 l 0.004,0 c 0.349,0.761 0.746,1.487 1.177,2.161 l 0.022,0.031 0.03,0.047 -0.004,0 0.004,0.005 0.099,0.154 0.017,0.017 0.017,0.024 0.013,0.012 0.138,0.2 0.005,0.013 c 0.224,0.328 0.465,0.648 0.711,0.959 l 0.021,0.042 0.108,0.13 0.19,0.228 0.039,0.048 0.06,0.06 0.022,0.023 0.004,0.005 0.163,0.214 0.143,0.18 0.138,0.104 0.077,0.087 0.056,0.058 -0.004,0 0.013,0.011 0,0.002 0.004,0.003 0.285,0.294 0.013,0.012 0.034,0.036 L 0,0 Z M 16.263,5.296 5.483,-5.444 5.241,-5.694 5.048,-5.914 5.017,-5.948 4.931,-6.052 4.823,-6.177 4.806,-6.19 4.742,-6.272 4.737,-6.276 4.733,-6.28 4.711,-6.306 l -0.03,-0.039 -0.065,-0.08 -0.004,0 -0.086,-0.11 0.004,-0.002 C 4.375,-6.737 4.233,-6.94 4.108,-7.132 L 4.104,-7.138 4.099,-7.142 4.104,-7.144 4.095,-7.153 4.082,-7.179 3.91,-7.457 l 0,0.002 -0.134,-0.222 0.004,0 C 3.548,-8.086 3.349,-8.494 3.19,-8.892 L 3.185,-8.91 3.078,-9.198 2.991,-9.44 c -0.142,-0.42 -0.254,-0.862 -0.34,-1.321 l 0,-0.006 -0.004,-0.018 -0.005,0 C 2.56,-11.237 2.504,-11.69 2.479,-12.142 2.457,-12.586 2.461,-13.048 2.5,-13.52 c 0.185,-2.338 1.173,-4.627 2.961,-6.418 l 0.005,-0.004 0.314,-0.312 0.16,-0.147 c 0.409,-0.36 0.853,-0.685 1.315,-0.976 l 0.318,-0.192 0,-0.005 0.251,-0.14 0.004,0.003 c 0.483,-0.263 0.97,-0.481 1.452,-0.649 l 0.018,-0.004 c 0.504,-0.179 1.021,-0.315 1.538,-0.41 0.518,-0.095 1.044,-0.149 1.569,-0.162 2.707,-0.071 5.444,0.929 7.513,2.998 l 0.005,0 0.776,0.856 c 0.146,0.183 0.288,0.381 0.431,0.59 l 1.78,2.595 1.327,1.944 1.38,-1.911 1.814,-2.52 0.009,-0.006 0.099,-0.112 0.035,-0.056 0.004,-0.007 0.121,-0.183 0.09,-0.114 0.138,-0.177 0.004,-0.002 0.026,-0.033 0.095,-0.118 0.004,0 0.112,-0.134 0,-0.002 0.229,-0.258 0.297,-0.296 0.005,-0.004 0.331,-0.336 c 0.182,-0.164 0.358,-0.315 0.535,-0.455 l 0.009,0 c 0.297,-0.237 0.607,-0.457 0.926,-0.655 1.647,-1.026 3.531,-1.541 5.418,-1.541 l 0.009,0 0,-0.007 c 1.302,0 2.608,0.253 3.841,0.753 l 0.008,0 c 0.19,0.075 0.388,0.163 0.587,0.258 l 0.004,0 c 0.858,0.414 1.677,0.955 2.418,1.627 l 0.349,0.349 0.009,0.011 0.008,0.004 0.354,0.358 c 0.151,0.166 0.293,0.341 0.435,0.518 l 0.005,-0.002 c 0.224,0.282 0.443,0.594 0.65,0.933 1.031,1.646 1.543,3.53 1.543,5.416 l 0,0.01 0.005,0 c 0,1.3 -0.25,2.608 -0.75,3.841 -0.087,0.218 -0.177,0.418 -0.259,0.593 -0.461,0.959 -1.078,1.857 -1.853,2.659 l -0.087,0.082 -0.012,0.009 -0.039,0.034 -0.022,0.02 -1.082,1.083 0.009,0.007 L 24.354,13.36 16.263,5.296 Z" /></g><g
           transform="translate(83.5739,167.3703)"
           id="g32"><path
             id="path34"
             style="fill:#b5d676;fill-opacity:1;fill-rule:nonzero;stroke:none"
             d="m 0,0 10.815,-10.775 10.819,-10.781 1.565,-1.555 1.163,-1.162 1.164,1.162 1.556,1.555 21.182,21.161 0.318,0.31 0.022,0.021 0.052,0.052 0.008,0.01 0.207,0.218 0.005,0.005 0.021,0.024 c 0.397,0.414 0.763,0.834 1.108,1.265 0.401,0.506 0.789,1.058 1.155,1.647 l 0.009,0 c 1.81,2.9 2.72,6.203 2.72,9.498 l 0,0.01 -0.009,0 c 0,2.3 -0.44,4.594 -1.31,6.746 -0.138,0.333 -0.294,0.683 -0.466,1.043 -0.759,1.567 -1.754,3.047 -2.991,4.384 l 0,0.033 -0.483,0.486 -0.004,0.004 -0.013,0.01 -0.483,0.485 -0.035,0 c -0.336,0.314 -0.681,0.607 -1.034,0.885 -0.53,0.422 -1.082,0.811 -1.647,1.164 -2.896,1.811 -6.202,2.717 -9.496,2.717 -4.116,0 -8.237,-1.41 -11.573,-4.234 -0.392,0.338 -0.797,0.651 -1.207,0.943 -0.776,0.556 -1.599,1.05 -2.461,1.475 -4.354,2.16 -9.405,2.443 -13.94,0.849 l -0.008,0 L 6.72,29.651 C 6.604,29.61 6.431,29.547 6.203,29.458 6.052,29.4 5.879,29.329 5.694,29.251 4.81,28.88 3.97,28.445 3.181,27.952 l 0,-0.002 -0.013,-0.009 C 3.022,27.848 2.862,27.747 2.703,27.639 2.474,27.485 2.319,27.381 2.237,27.323 1.647,26.898 1.069,26.426 0.509,25.907 l -0.035,0 -0.487,-0.485 -0.004,-0.006 -0.013,-0.015 0,-0.007 C -0.634,24.79 -1.194,24.143 -1.698,23.465 -2.216,22.778 -2.668,22.077 -3.056,21.368 -5.095,17.656 -5.724,13.374 -4.948,9.314 l 0.004,-0.02 C -4.927,9.21 -4.896,9.066 -4.845,8.845 L -4.853,8.844 c 0.021,-0.082 0.06,-0.248 0.112,-0.457 0.189,-0.763 0.439,-1.537 0.75,-2.314 l 0,-0.006 0,-0.009 0.008,-0.014 0.168,-0.406 0.005,-0.019 c 0.073,-0.166 0.138,-0.318 0.198,-0.448 l 0.004,0.003 c 0.349,-0.762 0.746,-1.487 1.177,-2.162 l 0.022,-0.03 0.03,-0.048 -0.004,0 0.004,-0.005 0.099,-0.154 0.017,-0.017 0.017,-0.024 0.013,-0.012 0.138,-0.2 0.005,-0.013 C -1.866,2.182 -1.625,1.861 -1.379,1.551 L -1.358,1.508 -1.25,1.378 -1.06,1.15 -1.021,1.103 -0.961,1.042 -0.939,1.02 -0.935,1.014 -0.772,0.801 -0.629,0.621 -0.491,0.516 -0.414,0.429 -0.358,0.372 -0.362,0.371 -0.349,0.36 -0.349,0.358 -0.345,0.355 -0.06,0.062 -0.047,0.049 -0.013,0.014 0,0 Z M 16.263,-5.296 5.483,5.445 5.241,5.695 5.048,5.915 5.017,5.949 4.931,6.052 4.823,6.177 4.806,6.191 4.742,6.271 4.737,6.276 4.733,6.28 4.711,6.305 4.681,6.345 4.616,6.426 4.612,6.425 4.526,6.536 4.53,6.537 C 4.375,6.738 4.233,6.94 4.108,7.133 L 4.104,7.139 4.099,7.144 4.104,7.144 4.095,7.153 4.082,7.179 3.91,7.456 3.91,7.455 3.776,7.676 3.78,7.677 C 3.548,8.086 3.349,8.494 3.19,8.891 l 0,10e-4 L 3.185,8.911 3.078,9.197 2.991,9.44 c -0.142,0.42 -0.254,0.863 -0.34,1.32 l 0,0.006 -0.004,0.02 -0.005,0 c -0.082,0.45 -0.138,0.905 -0.163,1.355 -0.022,0.446 -0.018,0.908 0.021,1.379 0.185,2.338 1.173,4.628 2.961,6.417 l 0.005,0.005 0.314,0.313 0.16,0.145 c 0.409,0.36 0.853,0.688 1.315,0.978 l 0.318,0.192 0,0.002 0.251,0.143 0.004,-0.002 c 0.483,0.262 0.97,0.479 1.452,0.647 l 0,0.001 0.018,0.005 c 0.504,0.176 1.021,0.313 1.538,0.407 l 0,0.002 c 0.518,0.094 1.044,0.148 1.569,0.162 2.707,0.071 5.444,-0.929 7.513,-3 l 0.005,0.002 0.776,-0.857 c 0.146,-0.183 0.288,-0.381 0.431,-0.589 l 1.78,-2.597 1.327,-1.942 1.38,1.909 1.814,2.522 0.009,0.005 0.099,0.113 0.035,0.055 0.004,0.008 0.121,0.183 0.09,0.114 0.138,0.175 0.004,0.004 0.026,0.032 0.095,0.119 0.004,-0.002 0.112,0.136 0.229,0.259 0.297,0.296 0.005,0.005 0.331,0.334 c 0.182,0.165 0.358,0.315 0.535,0.456 l 0.009,0 c 0.297,0.236 0.607,0.456 0.926,0.656 1.647,1.026 3.531,1.541 5.418,1.541 l 0.009,0 0,0.006 c 1.302,0 2.608,-0.252 3.841,-0.751 l 0.008,0 c 0.19,-0.077 0.388,-0.164 0.587,-0.261 l 0.004,0 c 0.858,-0.412 1.677,-0.954 2.418,-1.626 l 0.349,-0.351 0.009,-0.009 0.008,-0.004 0.354,-0.357 c 0.151,-0.167 0.293,-0.341 0.435,-0.519 l 0.005,0.003 c 0.224,-0.283 0.443,-0.595 0.65,-0.934 1.031,-1.646 1.543,-3.529 1.543,-5.416 l 0,-0.009 0.005,0 c 0,-1.301 -0.25,-2.608 -0.75,-3.843 C 45.306,8.585 45.216,8.386 45.134,8.21 44.673,7.253 44.056,6.354 43.281,5.551 L 43.194,5.47 43.182,5.46 43.143,5.429 43.121,5.407 42.039,4.324 42.048,4.318 24.354,-13.359 16.263,-5.296 Z" /></g><g
           transform="translate(46.4832,21.3534)"
           id="g36"><path
             id="path38"
             style="fill:#b5d676;fill-opacity:1;fill-rule:nonzero;stroke:none"
             d="m 0,0 0,47.042 35.172,0 -0.733,-7.84 -24.766,0 0,-10.919 19.272,0 0,-7.84 -19.272,0 0,-12.53 25.499,0 L 34.439,0 0,0 Z m -29.63,7.913 c 2.587,0 4.773,0.16 6.559,0.477 1.781,0.317 3.213,1.026 4.286,2.124 1.074,1.099 1.842,2.712 2.307,4.836 0.466,2.126 0.699,4.97 0.699,8.536 0,3.713 -0.358,6.607 -1.065,8.683 -0.707,2.077 -1.686,3.603 -2.933,4.582 -1.242,0.977 -2.721,1.561 -4.433,1.758 -1.708,0.196 -3.566,0.293 -5.567,0.293 l -7.034,0 0,-31.289 7.181,0 z m 175.98,13.826 15.067,0 0,17.068 -7.033,0 c -2.001,0 -3.86,-0.097 -5.568,-0.293 -1.712,-0.194 -3.186,-0.781 -4.433,-1.757 -1.246,-0.977 -2.225,-2.504 -2.932,-4.58 -0.707,-2.077 -1.061,-4.97 -1.061,-8.683 l 0,-0.341 0,-0.338 0,-0.341 0,-22.869 -9.811,0 0,22.608 c -0.004,0.395 -0.008,0.8 -0.008,1.208 0,5.177 0.56,9.306 1.686,12.383 1.121,3.077 2.708,5.423 4.761,7.035 2.053,1.611 4.545,2.648 7.473,3.114 2.933,0.464 6.18,0.696 9.746,0.696 l 16.853,0 0,-47.044 -2.488,0 -7.185,0 0,7.914 0,5.722 -15.067,0 0,8.498 z M -46.483,0 l 0,47.042 16.853,0 c 3.566,0 6.813,-0.231 9.746,-0.697 2.932,-0.463 5.42,-1.501 7.473,-3.113 2.053,-1.613 3.64,-3.957 4.765,-7.034 1.121,-3.079 1.682,-7.206 1.682,-12.385 0,-5.226 -0.5,-9.416 -1.501,-12.566 -1,-3.15 -2.479,-5.557 -4.433,-7.217 -1.953,-1.662 -4.347,-2.747 -7.18,-3.262 C -21.911,0.257 -25.184,0 -28.897,0 l -17.586,0 z" /></g><g
           transform="translate(161.9724,68.1013)"
           id="g40"><path
             id="path42"
             style="fill:#b5d676;fill-opacity:1;fill-rule:nonzero;stroke:none"
             d="m 0,0 0,-24.877 -21.08,0 0,17.035 -0.014,7.908 -9.658,-0.066 0,-47.044 2.488,0 7.184,0 0,7.913 0,5.759 21.08,0 0,-13.672 2.488,0 7.185,0 0,7.913 0,13.026 0,18.263 L 9.659,0.066 0,0 Z" /></g><g
           transform="translate(192.9486,44.7034)"
           id="g44" /><g
           transform="translate(87.5412,57.453)"
           id="g46"><path
             id="path48"
             style="fill:#b5d676;fill-opacity:1;fill-rule:nonzero;stroke:none"
             d="m 0,0 c 1.125,3.077 2.712,5.421 4.765,7.034 2.053,1.612 4.541,2.65 7.473,3.113 2.933,0.466 6.18,0.697 9.747,0.697 l 16.852,0 0,-7.829 -12.265,0 0,-0.011 -4.441,0 C 20.13,3.004 18.272,2.906 16.564,2.711 14.852,2.514 13.373,1.93 12.131,0.953 10.885,-0.026 9.905,-1.552 9.198,-3.629 8.491,-5.705 8.133,-8.599 8.133,-12.312 c 0,-3.566 0.233,-6.41 0.699,-8.536 0.465,-2.124 1.233,-3.737 2.307,-4.837 1.074,-1.097 2.505,-1.806 4.286,-2.123 1.786,-0.317 3.972,-0.477 6.56,-0.477 l 16.852,0 0,-7.913 -17.586,0 c -3.713,0 -6.986,0.256 -9.819,0.767 -2.833,0.516 -5.227,1.6 -7.18,3.263 -1.954,1.66 -3.433,4.066 -4.433,7.216 -1.001,3.151 -1.501,7.34 -1.501,12.567 0,5.179 0.561,9.306 1.682,12.385" /></g><g
           transform="translate(184.1983,3.4932)"
           id="g50"><path
             id="path52"
             style="fill:#b5d676;fill-opacity:1;fill-rule:nonzero;stroke:none"
             d="M 0,0 0,2.962 -2.696,7 -1.57,7 -0.188,4.884 C 0.03,4.553 0.264,4.161 0.52,3.707 0.793,4.176 1.049,4.587 1.28,4.941 L 2.64,7 3.715,7 0.921,2.962 0.921,0 0,0 Z m -8.087,3.912 1.992,0 c 0.622,0 1.066,0.11 1.331,0.326 0.26,0.217 0.392,0.499 0.392,0.853 0,0.755 -0.499,1.132 -1.501,1.132 l -2.214,0 0,-2.311 z M -9.013,0 l 0,7 3.097,0 C -5.332,7 -4.914,6.957 -4.662,6.874 -4.415,6.793 -4.21,6.68 -4.044,6.537 -3.877,6.398 -3.732,6.2 -3.608,5.952 -3.485,5.703 -3.421,5.417 -3.421,5.091 -3.421,3.999 -4.078,3.363 -5.387,3.18 -5.11,3.06 -4.863,2.884 -4.649,2.653 -4.436,2.427 -4.24,2.175 -4.065,1.902 L -2.845,0 -4.014,0 -4.935,1.455 C -5.161,1.817 -5.362,2.103 -5.524,2.314 -5.686,2.527 -5.848,2.696 -6.006,2.82 -6.164,2.943 -6.309,3.022 -6.441,3.058 -6.573,3.09 -6.765,3.107 -7.012,3.107 l -1.075,0 0,-3.107 -0.926,0 z m -6.948,3.393 c 0,-0.554 0.102,-1.038 0.311,-1.448 0.209,-0.409 0.482,-0.725 0.832,-0.943 0.35,-0.219 0.764,-0.328 1.246,-0.328 0.75,0 1.339,0.26 1.761,0.778 0.422,0.521 0.631,1.201 0.631,2.044 0,0.58 -0.102,1.083 -0.298,1.509 -0.201,0.427 -0.474,0.753 -0.823,0.982 -0.35,0.226 -0.768,0.339 -1.254,0.339 -0.389,0 -0.734,-0.066 -1.033,-0.192 -0.294,-0.13 -0.546,-0.324 -0.755,-0.583 -0.209,-0.26 -0.362,-0.567 -0.465,-0.925 -0.102,-0.36 -0.153,-0.77 -0.153,-1.233 m -0.951,0.015 c 0,0.7 0.123,1.327 0.375,1.879 0.247,0.55 0.623,0.996 1.126,1.331 0.499,0.337 1.118,0.505 1.847,0.505 0.491,0 0.939,-0.089 1.352,-0.264 0.41,-0.175 0.764,-0.418 1.058,-0.734 0.294,-0.313 0.525,-0.699 0.687,-1.147 0.162,-0.452 0.247,-0.949 0.247,-1.491 0,-0.749 -0.136,-1.386 -0.405,-1.913 -0.273,-0.527 -0.674,-0.943 -1.207,-1.241 -0.538,-0.301 -1.113,-0.45 -1.74,-0.45 -0.645,0 -1.225,0.155 -1.745,0.465 -0.52,0.309 -0.917,0.738 -1.19,1.288 -0.269,0.548 -0.405,1.137 -0.405,1.772 M -20.824,0 l 0,6.172 -2.311,0 0,0.828 5.549,0 0,-0.828 -2.316,0 0,-6.172 -0.922,0 z m -3.847,2.457 0.93,-0.232 c -0.401,-1.562 -1.369,-2.342 -2.905,-2.342 -1.122,0 -1.953,0.352 -2.482,1.055 -0.533,0.708 -0.802,1.579 -0.802,2.617 0,1.177 0.32,2.067 0.951,2.666 0.636,0.595 1.42,0.896 2.35,0.896 1.446,0 2.367,-0.68 2.764,-2.035 l -0.908,-0.219 c -0.312,0.974 -0.935,1.463 -1.873,1.463 -0.755,0 -1.331,-0.243 -1.732,-0.732 -0.401,-0.486 -0.601,-1.169 -0.601,-2.039 0,-1.008 0.218,-1.742 0.648,-2.199 0.431,-0.454 0.969,-0.682 1.613,-0.682 1.109,0 1.787,0.595 2.047,1.783 m -10.267,0.416 2.38,0 -0.733,1.94 c -0.244,0.649 -0.41,1.131 -0.495,1.447 -0.09,-0.448 -0.218,-0.894 -0.384,-1.329 L -34.938,2.873 Z M -36.955,0 l 2.691,7 0.994,0 2.866,-7 -1.062,0 -0.81,2.122 -2.926,0 L -35.966,0 -36.955,0 Z m -5.157,0 0,7 4.717,0 0,-0.828 -3.796,0 0,-2.165 3.285,0 0,-0.827 -3.285,0 0,-3.18 -0.921,0 z m -7.925,0 0,2.962 -2.696,4.038 1.126,0 1.382,-2.116 c 0.218,-0.331 0.452,-0.723 0.708,-1.177 0.273,0.469 0.529,0.88 0.759,1.234 l 1.361,2.059 1.075,0 -2.794,-4.038 0,-2.962 -0.921,0 z m -8.083,3.912 1.988,0 c 0.622,0 1.066,0.11 1.33,0.326 0.26,0.217 0.393,0.499 0.393,0.853 0,0.755 -0.499,1.132 -1.497,1.132 l -2.214,0 0,-2.311 z M -59.05,0 l 0,7 3.101,0 c 0.58,0 0.998,-0.043 1.25,-0.126 0.247,-0.081 0.452,-0.194 0.618,-0.337 0.166,-0.139 0.311,-0.337 0.435,-0.585 0.128,-0.249 0.188,-0.535 0.188,-0.861 0,-1.092 -0.657,-1.728 -1.966,-1.911 0.277,-0.12 0.524,-0.296 0.737,-0.527 0.218,-0.226 0.41,-0.478 0.585,-0.751 l 1.22,-1.902 -1.169,0 -0.921,1.455 c -0.226,0.362 -0.427,0.648 -0.589,0.859 -0.162,0.213 -0.324,0.382 -0.482,0.506 -0.158,0.123 -0.303,0.202 -0.435,0.238 -0.132,0.032 -0.32,0.049 -0.571,0.049 l -1.071,0 0,-3.107 -0.93,0 z m -5.289,2.873 2.38,0 -0.734,1.94 c -0.243,0.649 -0.409,1.131 -0.494,1.447 -0.09,-0.448 -0.218,-0.894 -0.384,-1.329 L -64.339,2.873 Z M -66.357,0 l 2.692,7 0.994,0 2.866,-7 -1.062,0 -0.811,2.122 -2.926,0 -0.763,-2.122 -0.99,0 z m -6.295,0 0,7 0.951,0 3.668,-5.492 0,5.492 0.896,0 0,-7 -0.951,0 -3.677,5.498 0,-5.498 -0.887,0 z m -6.923,3.393 c 0,-0.554 0.102,-1.038 0.311,-1.448 0.205,-0.409 0.482,-0.725 0.832,-0.943 0.35,-0.219 0.764,-0.328 1.246,-0.328 0.75,0 1.339,0.26 1.761,0.778 0.423,0.521 0.631,1.201 0.631,2.044 0,0.58 -0.102,1.083 -0.298,1.509 -0.201,0.427 -0.478,0.753 -0.823,0.982 -0.35,0.226 -0.768,0.339 -1.254,0.339 -0.389,0 -0.734,-0.066 -1.033,-0.192 -0.294,-0.13 -0.55,-0.324 -0.755,-0.583 -0.209,-0.26 -0.362,-0.567 -0.465,-0.925 -0.102,-0.36 -0.153,-0.77 -0.153,-1.233 m -0.951,0.015 c 0,0.7 0.123,1.327 0.375,1.879 0.243,0.55 0.623,0.996 1.122,1.331 0.503,0.337 1.122,0.505 1.851,0.505 0.491,0 0.938,-0.089 1.352,-0.264 0.41,-0.175 0.764,-0.418 1.058,-0.734 0.294,-0.313 0.525,-0.699 0.687,-1.147 0.162,-0.452 0.247,-0.949 0.247,-1.491 0,-0.749 -0.136,-1.386 -0.405,-1.913 -0.273,-0.527 -0.674,-0.943 -1.211,-1.241 -0.534,-0.301 -1.109,-0.45 -1.736,-0.45 -0.645,0 -1.225,0.155 -1.745,0.465 -0.525,0.309 -0.921,0.738 -1.19,1.288 -0.269,0.548 -0.405,1.137 -0.405,1.772 M -82.8,7 l 0.921,0 0,-7 -0.921,0 0,7 z m -4.35,-7 0,6.172 -2.312,0 0,0.828 5.549,0 0,-0.828 -2.316,0 0,-6.172 -0.921,0 z m -3.848,2.457 0.93,-0.232 c -0.401,-1.562 -1.369,-2.342 -2.905,-2.342 -1.126,0 -1.953,0.352 -2.486,1.055 -0.529,0.708 -0.798,1.579 -0.798,2.617 0,1.177 0.32,2.067 0.951,2.666 0.636,0.595 1.421,0.896 2.35,0.896 1.446,0 2.368,-0.68 2.764,-2.035 L -91.1,4.863 c -0.312,0.974 -0.934,1.463 -1.873,1.463 -0.755,0 -1.33,-0.243 -1.731,-0.732 -0.401,-0.486 -0.602,-1.169 -0.602,-2.039 0,-1.008 0.218,-1.742 0.649,-2.199 0.43,-0.454 0.968,-0.682 1.612,-0.682 1.109,0 1.787,0.595 2.047,1.783 M -102.489,0 l 0,7 5.059,0 0,-0.828 -4.137,0 0,-2.143 3.872,0 0,-0.819 -3.872,0 0,-2.384 4.295,0 0,-0.826 -5.217,0 z m -5.95,0 0,7 4.718,0 0,-0.828 -3.797,0 0,-2.165 3.285,0 0,-0.827 -3.285,0 0,-3.18 -0.921,0 z m -7.115,0 0,7 0.951,0 3.673,-5.492 0,5.492 0.892,0 0,-7 -0.952,0 -3.677,5.498 0,-5.498 -0.887,0 z m -6.922,3.393 c 0,-0.554 0.102,-1.038 0.311,-1.448 0.209,-0.409 0.482,-0.725 0.832,-0.943 0.35,-0.219 0.763,-0.328 1.245,-0.328 0.751,0 1.34,0.26 1.762,0.778 0.422,0.521 0.631,1.201 0.631,2.044 0,0.58 -0.102,1.083 -0.298,1.509 -0.201,0.427 -0.474,0.753 -0.824,0.982 -0.349,0.226 -0.767,0.339 -1.254,0.339 -0.388,0 -0.733,-0.066 -1.032,-0.192 -0.294,-0.13 -0.546,-0.324 -0.755,-0.583 -0.209,-0.26 -0.362,-0.567 -0.465,-0.925 -0.102,-0.36 -0.153,-0.77 -0.153,-1.233 m -0.952,0.015 c 0,0.7 0.124,1.327 0.376,1.879 0.247,0.55 0.623,0.996 1.126,1.331 0.499,0.337 1.117,0.505 1.847,0.505 0.49,0 0.938,-0.089 1.352,-0.264 0.409,-0.175 0.763,-0.418 1.058,-0.734 0.294,-0.313 0.524,-0.699 0.686,-1.147 0.163,-0.452 0.248,-0.949 0.248,-1.491 0,-0.749 -0.137,-1.386 -0.405,-1.913 -0.273,-0.527 -0.674,-0.943 -1.207,-1.241 -0.538,-0.301 -1.114,-0.45 -1.741,-0.45 -0.644,0 -1.224,0.155 -1.744,0.465 -0.521,0.309 -0.922,0.738 -1.19,1.288 -0.269,0.548 -0.406,1.137 -0.406,1.772 m -1.783,-0.951 0.93,-0.232 c -0.401,-1.562 -1.369,-2.342 -2.904,-2.342 -1.126,0 -1.954,0.352 -2.487,1.055 -0.529,0.708 -0.798,1.579 -0.798,2.617 0,1.177 0.316,2.067 0.952,2.666 0.635,0.595 1.416,0.896 2.35,0.896 1.446,0 2.367,-0.68 2.759,-2.035 l -0.904,-0.219 c -0.311,0.974 -0.934,1.463 -1.872,1.463 -0.755,0 -1.331,-0.243 -1.732,-0.732 -0.401,-0.486 -0.601,-1.169 -0.601,-2.039 0,-1.008 0.217,-1.742 0.648,-2.199 0.431,-0.454 0.968,-0.682 1.612,-0.682 1.105,0 1.787,0.595 2.047,1.783" /></g><text
           id="text54"
           style="font-variant:normal;font-weight:normal;font-stretch:normal;font-size:9.94579983px;font-family:Arial;-inkscape-font-specification:ArialMT;writing-mode:lr-tb;fill:#b5d676;fill-opacity:1;fill-rule:nonzero;stroke:none"
           transform="matrix(1,0,0,-1,31.3613,3.2295)"><tspan
             id="tspan56"
             y="0"
             x="0 5.5298648 11.05973">LLC</tspan></text>
</g></g></g></svg>