<?xml version="1.0" encoding="UTF-8" standalone="no"?>
<svg
   xmlns:dc="http://purl.org/dc/elements/1.1/"
   xmlns:cc="http://creativecommons.org/ns#"
   xmlns:rdf="http://www.w3.org/1999/02/22-rdf-syntax-ns#"
   xmlns:svg="http://www.w3.org/2000/svg"
   xmlns="http://www.w3.org/2000/svg"
   viewBox="0 0 634.46503 229.38126"
   height="229.38126"
   width="634.46503"
   xml:space="preserve"
   version="1.1"
   id="svg2"><metadata
     id="metadata8"><rdf:RDF><cc:Work
         rdf:about=""><dc:format>image/svg+xml</dc:format><dc:type
           rdf:resource="http://purl.org/dc/dcmitype/StillImage" /></cc:Work></rdf:RDF></metadata><defs
     id="defs6"><clipPath
       id="clipPath16"
       clipPathUnits="userSpaceOnUse"><path
         id="path18"
         d="m 0,183.505 507.572,0 L 507.572,0 0,0 0,183.505 Z" /></clipPath></defs><g
     transform="matrix(1.25,0,0,-1.25,0,229.38125)"
     id="g10"><g
       id="g12"><g
         clip-path="url(#clipPath16)"
         id="g14"><g
           transform="translate(9.0077,92.3811)"
           id="g20"><path
             id="path22"
             style="fill:#292929;fill-opacity:1;fill-rule:evenodd;stroke:none"
             d="m 0,0 c 0,10.998 7.437,17.596 18.434,17.596 4.923,0 11.208,-0.838 15.711,-1.466 0,-5.551 -0.209,-10.579 -0.209,-16.758 C 32.47,-5.237 25.557,-16.235 14.768,-16.235 6.913,-16.235 0,-10.684 0,0 m -9.008,-1.99 c 0,-14.454 9.846,-21.786 20.529,-21.786 16.445,0 22.415,17.282 22.415,17.282 l 0,-1.466 c 0,-11.208 1.781,-15.083 7.646,-15.083 4.294,0 9.846,2.828 9.846,2.828 l 0,4.923 c 0,0 -4.19,-1.152 -5.552,-1.152 -1.885,0 -2.618,2.618 -2.618,9.531 0,15.083 0.419,21.367 0.419,37.392 0,14.245 -4.818,24.091 -23.357,24.091 -10.893,0 -20.215,-3.142 -20.215,-3.142 l -0.314,-6.285 c 0,0 9.321,2.095 18.015,2.095 12.569,0 16.444,-5.97 16.444,-17.177 l 0,-9.113 c -4.504,0.629 -10.893,1.466 -17.387,1.466 -14.454,0 -25.871,-8.798 -25.871,-24.404" /></g><g
           transform="translate(74.0515,176.5924)"
           id="g24"><path
             id="path26"
             style="fill:#292929;fill-opacity:1;fill-rule:evenodd;stroke:none"
             d="m 0,0 2.723,0 c 1.467,0 3.142,0 3.876,-0.105 0.314,-0.209 0.628,-2.723 0.628,-6.179 0,-18.644 -0.628,-67.349 -0.628,-85.888 0,-11.207 1.78,-15.082 7.646,-15.082 4.189,0 9.741,2.828 9.741,2.828 l 0,4.923 c 0,0 -4.085,-1.153 -5.342,-1.153 -1.99,0 -2.933,2.619 -2.933,9.637 0,18.748 0.629,67.348 0.629,85.991 0,7.018 -0.419,11.941 -3.562,11.941 C 9.322,6.913 0.314,5.97 0.314,5.97 L 0,0 Z" /></g><g
           transform="translate(107.4637,138.7811)"
           id="g28"><path
             id="path30"
             style="fill:#292929;fill-opacity:1;fill-rule:evenodd;stroke:none"
             d="m 0,0 c 0,0 6.599,-0.628 14.245,-0.943 0.104,-22.624 0.419,-45.666 0.419,-67.767 l 9.426,0.629 c 0,21.995 -0.314,44.724 -0.314,67.138 l 3.038,0 c 12.359,0 21.681,1.257 21.681,1.257 l 0,6.075 -24.719,0 0,13.931 c 0,11.626 3.457,16.863 11.731,16.863 7.437,0 12.674,-2.095 12.674,-2.095 l 0.314,7.227 c 0,0 -5.866,2.409 -15.606,2.409 -13.093,0 -18.644,-8.693 -18.644,-24.823 l 0,-13.512 -14.14,0 L 0,0 Z" /></g><g
           transform="translate(170.6222,92.3811)"
           id="g32"><path
             id="path34"
             style="fill:#292929;fill-opacity:1;fill-rule:evenodd;stroke:none"
             d="m 0,0 c 0,10.998 7.437,17.596 18.434,17.596 4.923,0 11.208,-0.838 15.711,-1.466 0,-5.551 -0.209,-10.579 -0.209,-16.758 C 32.47,-5.237 25.557,-16.235 14.768,-16.235 6.913,-16.235 0,-10.684 0,0 m -9.008,-1.99 c 0,-14.454 9.846,-21.786 20.529,-21.786 16.445,0 22.415,17.282 22.415,17.282 l 0,-1.466 c 0,-11.208 1.781,-15.083 7.646,-15.083 4.399,0 9.846,2.828 9.846,2.828 l 0,4.923 c 0,0 -4.19,-1.152 -5.447,-1.152 -1.99,0 -2.723,2.618 -2.723,9.531 0,15.083 0.419,21.367 0.419,37.392 0,14.245 -4.818,24.091 -23.357,24.091 -10.893,0 -20.215,-3.142 -20.215,-3.142 l -0.314,-6.285 c 0,0 9.321,2.095 18.015,2.095 12.569,0 16.444,-5.97 16.444,-17.177 l 0,-9.113 c -4.504,0.629 -10.893,1.466 -17.387,1.466 -14.454,0 -25.871,-8.798 -25.871,-24.404" /></g><g
           transform="translate(385.3402,73.842)"
           id="g36"><path
             id="path38"
             style="fill:#ee3538;fill-opacity:1;fill-rule:evenodd;stroke:none"
             d="m 0,0 c 5.028,-3.037 12.359,-5.028 20.32,-5.028 17.177,0 27.127,9.008 27.127,21.786 0,10.684 -6.493,16.968 -19.062,21.786 -9.427,3.666 -13.721,6.285 -13.721,12.255 0,5.447 4.294,9.95 12.045,9.95 6.808,0 12.045,-2.409 14.873,-4.189 l 3.247,9.531 C 40.849,68.5 34.355,70.595 27.023,70.595 11.521,70.595 2.095,61.064 2.095,49.333 2.095,40.639 8.17,33.517 21.262,28.804 30.898,25.242 34.669,21.786 34.669,15.502 34.669,9.531 30.165,4.713 20.634,4.713 14.035,4.713 7.122,7.437 3.247,9.95 L 0,0 Z m -47.343,39.801 c 1.048,9.113 6.808,21.367 20.11,21.367 14.874,0 18.435,-12.987 18.33,-21.367 l -38.44,0 z M 3.352,30.375 c 0.104,1.257 0.419,3.351 0.419,6.075 0,13.302 -6.285,34.145 -29.956,34.145 -21.053,0 -33.936,-17.177 -33.936,-39.068 0,-21.891 13.302,-36.555 35.612,-36.555 11.521,0 19.481,2.409 24.09,4.504 l -2.2,9.427 c -4.922,-2.095 -10.683,-3.666 -20.11,-3.666 -13.092,0 -24.509,7.332 -24.823,25.138 l 50.904,0 z m -90.601,-33.831 12.988,0 0,38.544 c 0,2.304 0.314,4.399 0.628,6.18 1.781,9.845 8.38,16.863 17.597,16.863 1.885,0 3.142,-0.105 4.504,-0.419 l 0,12.464 c -1.152,0.314 -2.2,0.419 -3.666,0.419 -8.903,0 -16.863,-6.18 -20.11,-15.816 l -0.629,0 -0.419,14.14 -11.521,0 c 0.419,-6.703 0.628,-14.035 0.628,-22.519 l 0,-49.856 z m -57.083,41.896 c 0,1.78 0.419,3.77 0.838,5.342 2.618,9.95 10.997,16.339 19.9,16.339 13.931,0 21.577,-12.464 21.577,-26.918 0,-16.654 -8.065,-27.966 -21.996,-27.966 -9.426,0 -17.387,6.284 -19.796,15.397 -0.209,1.571 -0.523,3.456 -0.523,5.342 l 0,12.464 z m -13.093,-112.282 13.093,0 0,80.126 0.314,0 c 4.294,-7.227 12.673,-11.416 22.205,-11.416 17.073,0 32.993,12.883 32.993,38.858 0,22.101 -13.197,36.869 -30.689,36.869 -11.836,0 -20.32,-5.237 -25.766,-14.035 l -0.314,0 -0.524,12.359 -11.836,0 c 0.315,-6.808 0.524,-14.349 0.524,-23.566 l 0,-119.195 z" /></g><g
           transform="translate(502.6495,82.8497)"
           id="g40"><path
             id="path42"
             style="fill:#ee3538;fill-opacity:1;fill-rule:evenodd;stroke:none"
             d="m 0,0 c 3.037,5.028 4.923,12.359 4.923,20.32 0,17.177 -9.008,27.127 -21.681,27.127 -10.789,0 -17.073,-6.493 -21.891,-19.062 -3.561,-9.427 -6.285,-13.721 -12.255,-13.721 -5.342,0 -9.845,4.294 -9.845,12.15 0,6.703 2.409,11.94 4.189,14.768 l -9.531,3.247 c -2.409,-3.98 -4.504,-10.474 -4.504,-17.806 0,-15.502 9.531,-24.928 21.262,-24.928 8.589,0 15.816,6.075 20.425,19.167 3.666,9.741 7.017,13.407 13.302,13.407 6.075,0 10.788,-4.504 10.788,-14.035 0,-6.599 -2.619,-13.512 -5.237,-17.387 L 0,0 Z" /></g><g
           transform="translate(453.6784,73.1089)"
           id="g44"><path
             id="path46"
             style="fill:#ee3538;fill-opacity:1;fill-rule:evenodd;stroke:none"
             d="M 0,0 0,-5.237 -5.342,-5.342 -5.342,0 0,0 Z m 10.579,0.105 0,-5.342 -5.237,0 -0.105,5.342 5.342,0 z m 10.579,0.104 0.104,-5.341 -5.341,0 0,5.237 5.237,0.104 z m 31.736,0.105 0,-5.342 -5.342,0 0,5.237 5.342,0.105 z m -21.053,0 0,-5.342 -5.342,0 0,5.237 5.342,0.105 z m 10.579,0 0.105,-5.237 -5.342,-0.105 -0.105,5.342 5.342,0 z m -53.104,-0.419 0.105,-5.237 -5.342,-0.105 0,5.342 5.237,0 z" /></g><g
           transform="translate(72.5852,44.8289)"
           id="g48"><path
             id="path50"
             style="fill:#ee3538;fill-opacity:1;fill-rule:evenodd;stroke:none"
             d="m 0,0 0,-21.996 6.808,0 0,16.759 6.704,0 0,-16.759 6.912,0 L 20.424,0 0,0 Z" /></g><g
           transform="translate(103.6931,36.3449)"
           id="g52"><path
             id="path54"
             style="fill:#ee3538;fill-opacity:1;fill-rule:evenodd;stroke:none"
             d="M 0,0 C 0.209,1.885 1.362,4.399 4.19,4.399 7.437,4.399 8.065,1.676 8.065,0 L 0,0 Z m 14.245,-4.713 c 0.104,0.523 0.209,1.571 0.209,2.723 0,5.446 -2.723,10.998 -9.845,10.998 -7.646,0 -11.103,-6.18 -11.103,-11.731 0,-6.913 4.294,-11.207 11.731,-11.207 3.038,0 5.761,0.418 7.96,1.361 l -0.838,4.609 c -1.885,-0.629 -3.77,-0.943 -6.075,-0.943 -3.247,0 -5.97,1.362 -6.179,4.19 l 14.14,0 z" /></g><g
           transform="translate(129.0403,35.2975)"
           id="g56"><path
             id="path58"
             style="fill:#ee3538;fill-opacity:1;fill-rule:evenodd;stroke:none"
             d="m 0,0 c 0,0.419 0.105,0.838 0.105,1.257 0.523,1.99 2.199,3.456 4.189,3.456 3.038,0 4.609,-2.723 4.609,-6.179 0,-3.771 -1.781,-6.18 -4.713,-6.18 -1.99,0 -3.562,1.362 -4.085,3.247 C 0.105,-4.085 0,-3.561 0,-3.037 L 0,0 Z m -6.808,-21.367 6.808,0 0,10.893 0.105,0 c 1.047,-1.362 3.037,-2.514 5.76,-2.514 4.819,0 9.951,3.771 9.951,11.836 0,7.017 -4.295,11.207 -9.113,11.207 -3.247,0 -5.76,-1.257 -7.331,-3.561 l -0.105,0 -0.314,3.037 -5.971,0 c 0.105,-1.99 0.21,-4.503 0.21,-7.331 l 0,-23.567 z" /></g><g
           transform="translate(155.7491,32.2601)"
           id="g60"><path
             id="path62"
             style="fill:#ee3538;fill-opacity:1;fill-rule:evenodd;stroke:none"
             d="m 0,0 1.99,0 c 3.247,0 5.028,-0.838 5.028,-2.723 0,-2.2 -2.409,-2.828 -4.714,-2.828 -1.047,0 -1.571,0 -2.304,0.104 L 0,0 Z M 0.105,8.484 C 0.838,8.589 1.466,8.693 2.409,8.693 5.132,8.693 6.284,7.856 6.284,6.389 6.284,4.713 4.609,3.98 1.781,3.98 l -1.676,0 0,4.504 z M -6.703,-9.322 c 1.466,-0.209 4.608,-0.419 7.75,-0.419 4.504,0 12.988,0.524 12.988,6.808 0,2.933 -2.199,4.818 -5.446,5.342 l 0,0.105 c 2.199,0.419 4.504,1.885 4.504,4.713 0,5.237 -7.228,5.656 -10.893,5.656 -3.457,0 -7.228,-0.314 -8.903,-0.524 l 0,-21.681 z" /></g><g
           transform="translate(185.6001,30.8984)"
           id="g64"><path
             id="path66"
             style="fill:#ee3538;fill-opacity:1;fill-rule:evenodd;stroke:none"
             d="m 0,0 c 0,-0.419 0,-0.838 -0.105,-1.257 -0.419,-1.361 -1.885,-2.514 -3.561,-2.514 -1.571,0 -2.723,0.943 -2.723,2.619 0,2.723 2.828,3.561 6.389,3.456 L 0,0 Z m 7.018,-8.065 c -0.21,1.257 -0.315,3.247 -0.315,5.342 l 0,7.646 c 0,5.237 -2.409,9.531 -9.74,9.531 -3.981,0 -7.018,-1.152 -8.484,-1.99 l 1.256,-4.399 c 1.467,0.943 3.771,1.676 6.075,1.676 3.352,0 3.981,-1.676 3.981,-2.828 l 0,-0.314 c -7.751,0.104 -12.884,-2.724 -12.884,-8.38 0,-3.561 2.619,-6.808 7.123,-6.808 2.618,0 4.818,0.943 6.284,2.724 l 0.105,0 0.419,-2.2 6.18,0 z" /></g><g
           transform="translate(210.3189,35.2975)"
           id="g68"><path
             id="path70"
             style="fill:#ee3538;fill-opacity:1;fill-rule:evenodd;stroke:none"
             d="m 0,0 -2.2,0 c -2.094,0 -4.189,0.943 -4.189,2.828 0,1.99 1.885,2.828 4.085,2.828 1.047,0 1.78,-0.105 2.304,-0.209 L 0,0 Z m 6.808,9.427 c -1.99,0.209 -5.027,0.419 -8.484,0.419 -2.933,0 -6.075,-0.315 -8.065,-1.257 -2.199,-1.048 -3.666,-2.619 -3.666,-5.342 0,-3.561 3.142,-5.132 5.656,-5.447 l 0,-0.104 c -1.257,-0.315 -2.095,-0.838 -2.828,-1.676 -1.361,-1.467 -2.409,-4.295 -3.142,-6.075 -0.419,-0.838 -0.733,-1.676 -1.362,-2.409 l 7.332,0 c 0.314,0.733 0.629,1.152 0.838,1.78 0.733,1.781 1.257,3.771 2.409,4.923 0.629,0.943 1.676,1.571 3.142,1.571 l 1.362,0 0,-8.274 6.808,0 0,21.891 z" /></g><g
           transform="translate(249.7013,44.8289)"
           id="g72"><path
             id="path74"
             style="fill:#292929;fill-opacity:1;fill-rule:evenodd;stroke:none"
             d="m 0,0 0,-21.996 6.913,0 0,16.759 6.703,0 0,-16.759 6.913,0 L 20.529,0 0,0 Z" /></g><g
           transform="translate(280.9139,36.3449)"
           id="g76"><path
             id="path78"
             style="fill:#292929;fill-opacity:1;fill-rule:evenodd;stroke:none"
             d="M 0,0 C 0.105,1.885 1.362,4.399 4.19,4.399 7.332,4.399 8.065,1.676 8.065,0 L 0,0 Z m 14.14,-4.713 c 0.105,0.523 0.314,1.571 0.314,2.723 0,5.446 -2.723,10.998 -9.845,10.998 -7.646,0 -11.103,-6.18 -11.103,-11.731 0,-6.913 4.294,-11.207 11.731,-11.207 2.933,0 5.656,0.418 7.96,1.361 L 12.255,-7.96 C 10.474,-8.589 8.589,-8.903 6.18,-8.903 c -3.142,0 -5.97,1.362 -6.18,4.19 l 14.14,0 z" /></g><g
           transform="translate(299.1388,44.8289)"
           id="g80"><path
             id="path82"
             style="fill:#292929;fill-opacity:1;fill-rule:evenodd;stroke:none"
             d="m 0,0 0,-7.227 c 0,-5.237 2.723,-7.96 7.437,-7.96 2.094,0 4.189,0.523 5.551,1.361 l 0.105,0 0,-8.17 6.808,0 0,21.996 -6.808,0 0,-9.427 c -0.629,-0.419 -1.886,-0.942 -2.933,-0.942 -2.409,0 -3.352,1.257 -3.352,3.77 L 6.808,0 0,0 Z" /></g><g
           transform="translate(336.2169,30.8984)"
           id="g84"><path
             id="path86"
             style="fill:#292929;fill-opacity:1;fill-rule:evenodd;stroke:none"
             d="m 0,0 c 0,-0.419 -0.105,-0.838 -0.209,-1.257 -0.419,-1.361 -1.781,-2.514 -3.457,-2.514 -1.571,0 -2.723,0.943 -2.723,2.619 0,2.723 2.723,3.561 6.389,3.456 L 0,0 Z m 6.913,-8.065 c -0.21,1.257 -0.314,3.247 -0.314,5.342 l 0,7.646 c 0,5.237 -2.305,9.531 -9.636,9.531 -3.981,0 -7.018,-1.152 -8.589,-1.99 l 1.257,-4.399 c 1.466,0.943 3.875,1.676 6.075,1.676 3.456,0 4.085,-1.676 4.085,-2.828 l 0,-0.314 c -7.856,0.104 -12.988,-2.724 -12.988,-8.38 0,-3.561 2.723,-6.808 7.122,-6.808 2.619,0 4.923,0.943 6.285,2.724 l 0.209,0 0.314,-2.2 6.18,0 z" /></g><g
           transform="translate(346.0625,44.8289)"
           id="g88"><path
             id="path90"
             style="fill:#292929;fill-opacity:1;fill-rule:evenodd;stroke:none"
             d="m 0,0 0,-5.237 6.389,0 0,-16.759 6.808,0 0,16.759 6.389,0 0,5.237 L 0,0 Z" /></g><g
           transform="translate(368.896,44.8289)"
           id="g92"><path
             id="path94"
             style="fill:#292929;fill-opacity:1;fill-rule:evenodd;stroke:none"
             d="m 0,0 0,-21.996 6.808,0 0,8.694 7.018,0 0,-8.694 6.808,0 0,21.996 -6.808,0 0,-7.96 -7.018,0 0,7.96 L 0,0 Z" /></g><g
           transform="translate(406.7072,30.8984)"
           id="g96"><path
             id="path98"
             style="fill:#292929;fill-opacity:1;fill-rule:evenodd;stroke:none"
             d="m 0,0 c 0,-0.419 -0.105,-0.838 -0.209,-1.257 -0.419,-1.361 -1.781,-2.514 -3.457,-2.514 -1.571,0 -2.723,0.943 -2.723,2.619 0,2.723 2.723,3.561 6.389,3.456 L 0,0 Z m 6.913,-8.065 c -0.21,1.257 -0.314,3.247 -0.314,5.342 l 0,7.646 c 0,5.237 -2.305,9.531 -9.636,9.531 -3.981,0 -7.018,-1.152 -8.589,-1.99 l 1.257,-4.399 c 1.466,0.943 3.875,1.676 6.075,1.676 3.456,0 4.085,-1.676 4.085,-2.828 l 0,-0.314 c -7.856,0.104 -12.988,-2.724 -12.988,-8.38 0,-3.561 2.723,-6.808 7.122,-6.808 2.619,0 4.923,0.943 6.285,2.724 l 0.209,0 0.314,-2.2 6.18,0 z" /></g><g
           transform="translate(431.426,35.2975)"
           id="g100"><path
             id="path102"
             style="fill:#292929;fill-opacity:1;fill-rule:evenodd;stroke:none"
             d="m 0,0 -2.304,0 c -1.99,0 -4.19,0.943 -4.19,2.828 0,1.99 1.885,2.828 4.19,2.828 1.047,0 1.676,-0.105 2.304,-0.209 L 0,0 Z m 6.703,9.427 c -1.885,0.209 -4.922,0.419 -8.379,0.419 -3.037,0 -6.075,-0.315 -8.065,-1.257 -2.199,-1.048 -3.771,-2.619 -3.771,-5.342 0,-3.561 3.247,-5.132 5.656,-5.447 l 0,-0.104 c -1.152,-0.315 -2.094,-0.838 -2.723,-1.676 -1.466,-1.467 -2.409,-4.295 -3.142,-6.075 -0.419,-0.838 -0.838,-1.676 -1.362,-2.409 l 7.332,0 c 0.314,0.733 0.524,1.152 0.838,1.78 0.629,1.781 1.152,3.771 2.304,4.923 0.734,0.943 1.781,1.571 3.247,1.571 l 1.362,0 0,-8.274 6.703,0 0,21.891 z" /></g></g></g></g></svg>