<?xml version="1.0" encoding="UTF-8" standalone="no"?>
<svg
   xmlns:dc="http://purl.org/dc/elements/1.1/"
   xmlns:cc="http://creativecommons.org/ns#"
   xmlns:rdf="http://www.w3.org/1999/02/22-rdf-syntax-ns#"
   xmlns:svg="http://www.w3.org/2000/svg"
   xmlns="http://www.w3.org/2000/svg"
   viewBox="0 0 483.32126 141.26625"
   height="141.26625"
   width="483.32126"
   xml:space="preserve"
   version="1.1"
   id="svg2"><metadata
     id="metadata8"><rdf:RDF><cc:Work
         rdf:about=""><dc:format>image/svg+xml</dc:format><dc:type
           rdf:resource="http://purl.org/dc/dcmitype/StillImage" /></cc:Work></rdf:RDF></metadata><defs
     id="defs6"><clipPath
       id="clipPath16"
       clipPathUnits="userSpaceOnUse"><path
         id="path18"
         d="m 0,113.013 386.657,0 L 386.657,0 0,0 0,113.013 Z" /></clipPath></defs><g
     transform="matrix(1.25,0,0,-1.25,0,141.26625)"
     id="g10"><g
       id="g12"><g
         clip-path="url(#clipPath16)"
         id="g14"><g
           transform="translate(123.2105,97.0384)"
           id="g20"><path
             id="path22"
             style="fill:#6a6a6a;fill-opacity:1;fill-rule:nonzero;stroke:none"
             d="m 0,0 4.686,0 -0.718,-1.137 -4.706,0 L 0,0 Z m 14.334,10.394 c 0.04,0.06 0.077,0.129 0.106,0.196 0.053,0.128 1.358,3.126 4.639,3.126 3.532,0 4.848,-3.394 4.848,-5.533 0,-2.728 -1.671,-5.314 -2.554,-6.301 -0.02,-0.022 -0.04,-0.047 -0.059,-0.071 -0.037,-0.05 -3.689,-4.763 -8.722,-5.104 4.288,2.041 6.379,5.058 6.46,7.787 0.07,2.363 -1.405,4.164 -3.67,4.481 -0.729,0.102 -1.386,0.094 -1.99,0.02 l 0.942,1.399 z M 15.203,1.25 C 14.952,0.979 14.666,0.709 14.349,0.444 l -6.711,0 0.044,0.069 0.496,0.737 7.025,0 z m -5.782,1.847 7.022,0 C 16.319,2.809 16.155,2.515 15.961,2.218 l -7.132,0 0.592,0.879 z m 2.082,2.742 c 0.739,0.589 1.898,1.132 3.566,0.899 0.652,-0.091 1.137,-0.412 1.426,-0.899 l -4.992,0 z m -0.887,-0.968 6.142,0 c 0.008,0 0.015,0.005 0.023,0.005 C 16.789,4.773 16.798,4.671 16.794,4.561 16.79,4.401 16.772,4.235 16.742,4.065 l -6.669,0 0.543,0.806 z m 0.588,-6.331 -4.769,0 0.591,0.936 5.971,0 c -0.534,-0.33 -1.131,-0.643 -1.793,-0.936 m -5.38,-0.968 2.636,0 C 7.533,-2.682 6.527,-2.901 5.42,-3.067 l 0.404,0.639 z m -7.191,0.323 4.724,0 -0.772,-1.221 -4.744,0 0.792,1.221 z m -2.871,-3.48 16.227,0 2.078,-2.723 c 0.222,-0.291 0.558,-0.445 0.898,-0.445 0.239,0 0.48,0.076 0.684,0.232 0.496,0.378 0.592,1.087 0.213,1.583 l -1.272,1.667 c 4.861,1.153 8.121,5.196 8.496,5.681 1.033,1.168 2.663,3.722 3.021,6.637 l 3.215,1.528 -3.35,1.501 c -0.685,3.113 -3.049,5.898 -6.893,5.898 -4.431,0 -6.338,-3.67 -6.674,-4.401 L 8.947,6.437 C 8.719,6.14 8.573,5.9 8.508,5.784 l -2.374,-3.526 -6.747,0 c -0.383,0 -0.739,-0.193 -0.947,-0.514 l -3.625,-5.585 c -0.226,-0.347 -0.243,-0.79 -0.045,-1.153 0.197,-0.364 0.578,-0.591 0.992,-0.591" /></g><g
           transform="translate(143.3917,105.6305)"
           id="g24"><path
             id="path26"
             style="fill:#6a6a6a;fill-opacity:1;fill-rule:nonzero;stroke:none"
             d="M 0,0 C 0.717,0 1.298,0.581 1.298,1.298 1.298,2.014 0.717,2.595 0,2.595 -0.717,2.595 -1.298,2.014 -1.298,1.298 -1.298,0.581 -0.717,0 0,0" /></g><g
           transform="translate(19.0903,38.8458)"
           id="g28"><path
             id="path30"
             style="fill:#6a6a6a;fill-opacity:1;fill-rule:nonzero;stroke:none"
             d="M 0,0 C -0.062,-0.062 -0.156,-0.154 -0.281,-0.277 -0.406,-0.4 -0.489,-0.492 -0.531,-0.554 l 0.5,0 0,0.277 C -0.011,-0.154 0,-0.062 0,0 M -1.873,2.645 C -1.894,2.501 -1.915,2.316 -1.936,2.091 c 0.042,0.041 0.229,0.225 0.562,0.554 l -0.499,0 z m -0.281,-3.137 0.406,-0.031 c 0.207,0.184 0.52,0.492 0.936,0.922 0.416,0.411 0.729,0.728 0.937,0.954 C 0.167,1.845 0.198,2.234 0.219,2.521 0.135,2.542 0.021,2.553 -0.125,2.553 -0.146,2.532 -0.198,2.491 -0.281,2.43 -0.343,2.348 -0.385,2.296 -0.406,2.275 -0.968,1.722 -1.52,1.179 -2.06,0.646 -2.081,0.604 -2.091,0.522 -2.091,0.399 c 0,-0.102 -0.011,-0.184 -0.032,-0.246 l 0,-0.369 c 0,0 -0.01,-0.092 -0.031,-0.276 M -14.89,-36.568 c 0.104,0 0.198,0.01 0.281,0.031 l 0,0.431 c -0.042,-0.041 -0.115,-0.114 -0.219,-0.216 -0.104,-0.103 -0.176,-0.174 -0.218,-0.215 0.187,-0.021 0.239,-0.031 0.156,-0.031 m -1.124,13.963 c 0.666,0.635 1.374,1.323 2.123,2.06 l 0,1.6 c -0.354,-0.349 -1.061,-1.026 -2.123,-2.031 l 0,-1.629 z m 0,2.707 c 0.812,0.778 1.519,1.465 2.123,2.06 l 0,1.015 -0.031,0.338 0,0.061 c -0.854,-0.841 -1.551,-1.537 -2.092,-2.091 l 0,-1.046 0,-0.337 z m 2.092,-3.353 c 0.02,0.349 0.031,0.819 0.031,1.415 -0.479,-0.473 -1.186,-1.169 -2.123,-2.092 -0.021,-0.451 -0.031,-0.932 -0.031,-1.445 0.853,0.841 1.561,1.548 2.123,2.122 m -2.185,7.351 c 0.02,-0.452 0.041,-0.903 0.062,-1.354 0.791,0.779 1.488,1.466 2.091,2.061 l 0,0.738 c -0.021,0.082 -0.031,0.184 -0.031,0.308 l 0,0.307 c -0.832,-0.8 -1.54,-1.487 -2.122,-2.06 m 2.122,-10.15 c 0.021,0.287 0.031,0.769 0.031,1.446 -0.499,-0.493 -1.217,-1.2 -2.153,-2.123 -0.021,-0.533 -0.042,-1.025 -0.063,-1.475 0.895,0.86 1.624,1.578 2.185,2.152 m -0.062,13.502 c -0.021,0.696 -0.031,1.148 -0.031,1.353 -0.25,-0.246 -0.604,-0.595 -1.062,-1.045 -0.479,-0.473 -0.842,-0.831 -1.092,-1.077 0.02,-0.185 0.051,-0.625 0.093,-1.323 0.75,0.739 1.447,1.435 2.092,2.092 m -2.216,-17.039 c -0.021,-0.553 -0.052,-1.066 -0.094,-1.537 0.999,0.984 1.748,1.732 2.248,2.245 0.02,0.308 0.041,0.605 0.062,0.892 l 0,0.307 0,0.277 c -0.52,-0.534 -1.26,-1.261 -2.216,-2.184 m 2.06,20.976 c -0.958,-0.944 -1.675,-1.652 -2.154,-2.122 0,-0.062 0.01,-0.185 0.031,-0.37 l 0,-0.338 c 0,0.082 0.011,-0.123 0.032,-0.616 0.874,0.862 1.591,1.559 2.153,2.092 -0.042,0.985 -0.062,1.415 -0.062,1.292 l 0,0.062 z m -2.216,-0.862 c 0.79,0.758 1.508,1.455 2.153,2.091 -0.021,0.431 -0.052,0.872 -0.093,1.323 -0.791,-0.78 -1.498,-1.476 -2.123,-2.091 0.021,-0.718 0.042,-1.159 0.063,-1.323 m 1.966,6.029 c -0.791,-0.759 -1.498,-1.456 -2.123,-2.092 0,-0.595 0.011,-1.035 0.032,-1.322 0.79,0.778 1.498,1.475 2.122,2.09 0,0.493 -0.011,0.933 -0.031,1.324 m -2.154,4.582 c 0.645,0.656 1.155,1.169 1.53,1.538 -0.542,-0.042 -0.989,-0.082 -1.342,-0.123 -0.105,-0.35 -0.167,-0.821 -0.188,-1.415 m 2.154,-1.846 c -0.791,-0.779 -1.519,-1.496 -2.185,-2.152 0,-0.287 0.01,-0.749 0.031,-1.384 0.75,0.738 1.467,1.434 2.154,2.091 -0.021,0.492 -0.021,0.973 0,1.445 m -2.091,-32.139 c -0.042,-0.451 -0.084,-0.871 -0.125,-1.26 0.812,0.779 1.581,1.527 2.31,2.245 l 0,0.123 0,0.092 c 0.062,0.533 0.104,0.984 0.125,1.353 -0.708,-0.677 -1.468,-1.404 -2.279,-2.184 l 0,-0.184 c -0.021,-0.082 -0.031,-0.144 -0.031,-0.185 m -0.094,31.279 c 0.874,0.86 1.623,1.598 2.247,2.214 l 0,0.031 0,0.584 c -0.021,0.389 -0.021,0.738 0,1.046 -0.249,-0.246 -0.624,-0.616 -1.123,-1.108 -0.5,-0.492 -0.885,-0.861 -1.155,-1.107 0,-0.431 0.01,-0.974 0.031,-1.63 l 0,-0.03 z m 0.344,-34.908 c 0.749,0.758 1.321,1.323 1.716,1.692 0,0.43 0.011,0.748 0.032,0.953 l 0.062,0.554 c -0.749,-0.739 -1.509,-1.487 -2.279,-2.245 -0.021,-0.349 -0.021,-0.657 0,-0.923 0.125,-0.021 0.281,-0.031 0.469,-0.031 M -1.124,4.921 C 0.167,4.817 0.937,4.736 1.186,4.675 2.143,4.429 2.601,3.937 2.56,3.198 2.476,1.25 2.32,-0.544 2.091,-2.184 2.029,-2.635 1.113,-2.86 -0.656,-2.86 c -0.978,0 -1.893,0.071 -2.746,0.214 -0.874,0.124 -1.301,0.278 -1.28,0.462 -0.021,-0.184 0.103,1.108 0.374,3.875 0.083,0.862 0.114,1.364 0.094,1.507 l 0,0.031 c -0.25,-0.021 -0.583,-0.031 -0.999,-0.031 -2.58,0 -4.787,0.113 -6.618,0.338 -0.042,-0.02 -0.125,-1.015 -0.25,-2.982 -0.104,-1.723 -0.042,-4.757 0.188,-9.104 0.104,-1.928 0.187,-3.875 0.249,-5.844 l 0.656,0 c 0.707,0 2.112,0.01 4.214,0.032 2.123,0.019 3.257,0.03 3.403,0.03 l 0.062,0 c 1.165,-0.041 1.748,-0.738 1.748,-2.092 0,-0.595 -0.135,-1.076 -0.406,-1.445 -0.291,-0.39 -0.666,-0.605 -1.123,-0.646 -0.708,-0.041 -2.31,-0.102 -4.807,-0.184 -2.394,-0.062 -3.611,-0.092 -3.653,-0.092 0.021,-3.261 -0.042,-6.356 -0.187,-9.288 -0.042,-0.78 -0.115,-1.775 -0.219,-2.983 -0.167,-1.703 -0.26,-2.687 -0.28,-2.954 0,-0.164 -0.011,-0.656 -0.032,-1.475 0,-0.8 -0.021,-1.405 -0.062,-1.815 -0.125,-1.025 -0.979,-1.538 -2.56,-1.538 -0.104,0 -0.489,0.021 -1.155,0.062 -0.957,0.041 -1.602,0.123 -1.935,0.246 -0.645,0.225 -0.999,0.686 -1.062,1.384 -0.104,1.046 -0.041,2.562 0.188,4.551 0.375,3.363 0.551,7.709 0.53,13.04 -0.021,1.764 -0.135,4.573 -0.343,8.427 -0.208,3.65 -0.302,6.459 -0.281,8.427 0,0.061 -0.01,0.626 -0.031,1.692 -0.021,0.799 -0.011,1.465 0.031,1.999 0.063,1.62 0.344,2.788 0.843,3.506 0.291,0.389 3.101,0.584 8.428,0.584 4.121,0 6.971,-0.052 8.553,-0.153" /></g><g
           transform="translate(51.6607,29.2501)"
           id="g32"><path
             id="path34"
             style="fill:#6a6a6a;fill-opacity:1;fill-rule:nonzero;stroke:none"
             d="M 0,0 0,1.261 C -0.583,0.687 -1.166,0.103 -1.748,-0.492 l 0,-1.231 C -1.353,-1.333 -0.77,-0.759 0,0 m -1.748,3.69 c 0.229,0.226 0.79,0.78 1.686,1.662 0,0.47 -0.011,0.922 -0.031,1.352 C -1.238,5.577 -1.79,5.033 -1.748,5.074 l 0,-0.707 0,-0.677 z m 1.717,-0.984 0,1.323 C -1.238,2.84 -1.811,2.275 -1.748,2.337 l 0,-1.322 c 0.582,0.553 1.155,1.117 1.717,1.691 M 0,-1.322 c -0.104,-0.123 -0.396,-0.411 -0.874,-0.862 -0.354,-0.369 -0.645,-0.656 -0.874,-0.861 0,-0.513 -0.011,-0.974 -0.031,-1.384 0.603,0.595 1.196,1.179 1.779,1.753 l 0,1.354 z m -1.811,-5.844 c 0.666,0.656 1.27,1.25 1.811,1.784 l 0,1.414 c -1.291,-1.229 -1.883,-1.803 -1.779,-1.721 0,-0.39 -0.011,-0.78 -0.032,-1.169 l 0,-0.308 z m 0.032,13.532 c 0.395,0.39 0.946,0.933 1.654,1.63 -0.021,0.472 -0.031,0.902 -0.031,1.292 -0.499,-0.472 -1.051,-1.005 -1.655,-1.6 0.021,-0.389 0.032,-0.83 0.032,-1.322 M -1.842,-9.903 c 0.604,0.615 1.207,1.219 1.811,1.814 0,0.492 0.01,0.943 0.031,1.354 -0.708,-0.698 -1.322,-1.303 -1.842,-1.815 l 0,-1.353 z m -0.062,-2.738 c 0.437,0.431 1.05,1.026 1.842,1.785 l 0,1.353 c -0.125,-0.123 -0.427,-0.421 -0.905,-0.893 -0.375,-0.369 -0.677,-0.666 -0.906,-0.891 -0.021,-0.41 -0.031,-0.861 -0.031,-1.354 m 1.623,24.02 c -0.083,0.041 -0.198,0.093 -0.343,0.154 -0.334,-0.348 -0.781,-0.8 -1.342,-1.353 0.041,-0.246 0.083,-0.646 0.124,-1.2 0.604,0.595 1.145,1.127 1.624,1.6 -0.021,0.307 -0.042,0.573 -0.063,0.799 m -1.717,-26.818 c 0.832,0.82 1.457,1.435 1.873,1.845 0,0.349 0.011,0.81 0.032,1.384 l -1.873,-1.845 c 0,-0.43 -0.011,-0.892 -0.032,-1.384 m -0.125,-2.83 c 0.208,0.206 0.843,0.831 1.905,1.876 0.02,0.513 0.031,0.974 0.031,1.384 -1.041,-1.025 -1.666,-1.64 -1.873,-1.845 -0.021,-0.594 -0.042,-1.066 -0.063,-1.415 m 1.78,-0.953 c 0.02,0.451 0.041,0.923 0.062,1.414 -0.957,-0.943 -1.592,-1.568 -1.904,-1.876 -0.021,-0.492 -0.052,-0.973 -0.094,-1.445 l 0.031,0.031 c 0,0.02 0.011,0.031 0.032,0.031 0.166,0.164 0.478,0.471 0.936,0.922 0.395,0.39 0.593,0.584 0.593,0.584 0,0 0.115,0.113 0.344,0.339 m -0.219,-3.199 c 0.041,0.554 0.083,1.128 0.125,1.723 -0.25,-0.226 -0.583,-0.543 -0.999,-0.953 -0.479,-0.472 -0.812,-0.8 -0.999,-0.985 -0.083,-0.861 -0.187,-1.497 -0.312,-1.907 1.103,1.087 1.831,1.794 2.185,2.122 m -0.125,-1.199 -2.31,-2.276 c 0.832,0.226 1.509,0.451 2.03,0.677 0.02,0.02 0.041,0.04 0.062,0.062 0.062,0.368 0.135,0.881 0.218,1.537 m -1.685,34.784 c 0.062,0.062 0.176,0.174 0.343,0.338 0.146,0.144 0.26,0.267 0.343,0.369 -0.333,0.082 -0.697,0.154 -1.092,0.216 -0.042,-0.021 -0.094,-0.062 -0.156,-0.123 -0.063,-0.062 -0.115,-0.113 -0.156,-0.154 0.229,-0.164 0.416,-0.329 0.562,-0.493 l 0.156,-0.153 z m -2.31,-37.49 0.062,0.03 0.063,0 0.031,0.031 -0.187,-0.061 0.031,0 z m 0.406,36.137 c -0.23,0.287 -0.781,0.574 -1.655,0.861 -0.999,0.307 -1.966,0.461 -2.903,0.461 -1.873,0 -3.184,-0.646 -3.933,-1.938 -0.354,-0.369 -0.645,-5.761 -0.874,-16.176 -0.25,-10.334 -0.239,-15.901 0.031,-16.701 0.042,-0.574 1.394,-0.861 4.058,-0.861 2.81,0 4.328,0.205 4.558,0.615 0.437,0.759 0.728,6.459 0.874,17.1 0.166,10.477 0.114,16.023 -0.156,16.639 M -14.515,-26.48 c -0.084,-0.082 -0.167,-0.165 -0.25,-0.247 l 0.156,0 c 0.333,-0.041 0.5,-0.05 0.5,-0.03 0.02,-0.041 -0.115,0.051 -0.406,0.277 m -1.717,37.49 c 0.146,0.143 0.479,0.471 0.999,0.984 -0.312,-0.082 -0.552,-0.153 -0.718,-0.215 -0.084,-0.184 -0.177,-0.441 -0.281,-0.769 m 3.34,1.323 c -0.208,-0.02 -0.437,-0.052 -0.687,-0.093 -0.895,-0.902 -1.904,-1.886 -3.027,-2.952 -0.063,-0.472 -0.136,-0.984 -0.219,-1.538 0.874,0.861 1.446,1.425 1.717,1.691 0.125,0.493 0.27,0.851 0.437,1.078 0.457,0.737 1.05,1.341 1.779,1.814 m -2.778,-37.214 c -0.541,-0.533 -0.947,-0.923 -1.218,-1.169 0.271,-0.164 0.594,-0.307 0.968,-0.43 0.083,0.102 0.198,0.225 0.343,0.369 0.188,0.184 0.302,0.297 0.344,0.339 -0.187,0.265 -0.333,0.563 -0.437,0.891 m -1.498,29.556 c 0.749,0.738 1.311,1.302 1.685,1.691 0.042,0.554 0.094,1.035 0.156,1.446 -0.708,-0.677 -1.269,-1.22 -1.685,-1.63 -0.063,-0.493 -0.115,-0.995 -0.156,-1.507 m -0.157,-1.507 c -0.021,-0.472 -0.052,-0.943 -0.093,-1.415 1.082,1.046 1.675,1.63 1.779,1.753 0.02,0.472 0.041,0.932 0.062,1.384 -0.582,-0.575 -1.165,-1.149 -1.748,-1.722 m 1.624,-1.139 c -0.625,-0.614 -1.229,-1.188 -1.811,-1.721 -0.021,-0.411 -0.042,-0.882 -0.062,-1.415 1.04,1.004 1.643,1.588 1.81,1.753 0.021,0.533 0.042,0.994 0.063,1.383 m -0.344,-24.542 c -0.624,-0.615 -1.165,-1.148 -1.623,-1.599 0.042,-0.554 0.083,-0.984 0.125,-1.291 0.166,0.184 0.426,0.45 0.78,0.799 0.375,0.348 0.645,0.604 0.812,0.769 -0.042,0.287 -0.073,0.728 -0.094,1.322 m 0.25,21.806 -1.873,-1.784 c -0.021,-0.492 -0.031,-0.974 -0.031,-1.446 0.645,0.635 1.259,1.241 1.842,1.815 0.02,0.45 0.041,0.923 0.062,1.415 m -0.312,-19.191 c -1.124,-1.067 -1.686,-1.611 -1.686,-1.63 0.021,-0.451 0.042,-0.893 0.063,-1.323 0.728,0.717 1.279,1.25 1.654,1.599 -0.021,0.431 -0.031,0.882 -0.031,1.354 m 0.218,16.422 c -0.686,-0.656 -1.311,-1.271 -1.873,-1.844 -0.021,-0.492 -0.031,-0.964 -0.031,-1.415 0.77,0.738 1.394,1.353 1.873,1.845 0,0.43 0.01,0.902 0.031,1.414 m -1.966,-15.469 c 0,-0.451 0.01,-0.882 0.031,-1.292 1.082,1.066 1.655,1.631 1.717,1.692 l 0,1.322 c -0.624,-0.615 -1.207,-1.189 -1.748,-1.722 m 1.904,12.671 c -0.604,-0.616 -1.238,-1.23 -1.904,-1.845 l 0,-1.384 c 0.728,0.717 1.352,1.332 1.873,1.845 l 0,0.738 c 0,-0.041 0.01,0.174 0.031,0.646 m -0.156,-8.273 c -0.666,-0.697 -1.26,-1.323 -1.779,-1.876 l 0,-1.2 c 0.166,0.164 0.468,0.451 0.905,0.861 0.375,0.369 0.666,0.666 0.874,0.892 l 0,1.323 z m -1.81,-0.369 c 1.227,1.169 1.841,1.763 1.841,1.783 l 0,1.354 c -0.083,-0.082 -0.697,-0.677 -1.841,-1.784 l 0,-1.353 z m 0.031,4.06 c 0,-0.493 -0.011,-0.944 -0.031,-1.354 1.123,1.066 1.748,1.671 1.872,1.814 0.021,0.452 0.031,0.913 0.031,1.384 -0.208,-0.205 -0.52,-0.512 -0.936,-0.922 -0.417,-0.411 -0.729,-0.718 -0.936,-0.922 m 9.302,25.68 c 6.014,0 9.51,-0.8 10.488,-2.399 0.395,-1.169 0.52,-7.781 0.375,-19.837 -0.125,-12.404 -0.583,-18.863 -1.374,-19.376 -1.831,-1.21 -4.734,-1.988 -8.709,-2.337 -1.061,-0.082 -2.029,-0.123 -2.903,-0.123 -1.041,0 -2.414,0.082 -4.12,0.246 -2.185,0.205 -3.788,0.994 -4.807,2.368 -0.666,0.881 -0.833,7.474 -0.5,19.776 0.333,12.65 1.217,19.457 2.654,20.421 1.061,0.84 4.026,1.261 8.896,1.261" /></g><g
           transform="translate(82.1709,6.1534)"
           id="g36"><path
             id="path38"
             style="fill:#6a6a6a;fill-opacity:1;fill-rule:nonzero;stroke:none"
             d="m 0,0 c -0.375,0 -0.729,-0.021 -1.062,-0.062 0,-0.184 -0.031,-0.574 -0.093,-1.168 0.166,0.164 0.572,0.563 1.217,1.199 L 0,0 Z m -0.718,-3.537 c 0.187,0.184 0.468,0.461 0.843,0.83 0.375,0.369 0.666,0.656 0.874,0.861 0.041,0.267 0.072,0.564 0.093,0.892 l 0,0.184 0,0.032 0,0.184 0,0.215 0,0.062 c -0.354,-0.369 -1.154,-1.169 -2.403,-2.399 -0.063,-0.553 -0.094,-0.82 -0.094,-0.8 -0.021,-0.061 -0.031,-0.113 -0.031,-0.154 0.249,0.021 0.489,0.052 0.718,0.093 m -15.358,-0.277 c 0.187,-0.021 0.582,-0.031 1.186,-0.031 -0.021,0.369 -0.011,0.8 0.031,1.292 -0.416,-0.411 -0.843,-0.831 -1.28,-1.261 l 0.063,0 z m -0.063,14.793 c 0.812,0.799 1.509,1.487 2.092,2.061 l 0,1.353 c -0.812,-0.78 -1.509,-1.466 -2.092,-2.061 l 0,-1.353 z m 2.092,-0.646 0,1.384 c -0.458,-0.451 -1.155,-1.138 -2.092,-2.061 -0.021,-0.512 -0.031,-0.973 -0.031,-1.384 0.791,0.78 1.499,1.466 2.123,2.061 m -2.123,3.322 c 0.874,0.84 1.571,1.527 2.091,2.061 0,0.347 -0.01,0.789 -0.031,1.322 -0.811,-0.779 -1.498,-1.456 -2.06,-2.03 l 0,-1.353 z m 2.06,-6.09 c 0.021,0.718 0.031,1.189 0.031,1.415 -0.811,-0.799 -1.519,-1.497 -2.122,-2.091 -0.021,-0.431 -0.042,-0.912 -0.063,-1.446 0.77,0.758 1.488,1.466 2.154,2.122 m -2.122,8.704 c 0.79,0.758 1.487,1.446 2.091,2.061 0,0.245 -0.01,0.687 -0.031,1.322 -0.812,-0.779 -1.519,-1.466 -2.123,-2.06 0.021,-0.308 0.042,-0.749 0.063,-1.323 M -16.419,2.614 c 0.769,0.758 1.508,1.487 2.216,2.184 0,0.306 0.02,0.778 0.062,1.414 -0.812,-0.779 -1.54,-1.486 -2.185,-2.122 -0.042,-0.513 -0.073,-1.005 -0.093,-1.476 m 0.093,16.239 c 0.77,0.757 1.467,1.445 2.092,2.06 0,0.185 -0.021,0.625 -0.063,1.322 -0.853,-0.84 -1.561,-1.527 -2.122,-2.06 0.041,-0.513 0.072,-0.953 0.093,-1.322 m -0.156,2.552 c 0.791,0.758 1.498,1.455 2.123,2.091 l 0,0.185 0,0.184 c -0.021,0.308 -0.042,0.625 -0.063,0.954 -0.811,-0.799 -1.519,-1.497 -2.122,-2.091 0.02,-0.575 0.041,-1.015 0.062,-1.323 m -0.094,13.348 c 0.229,0.226 0.5,0.492 0.812,0.8 -0.271,0 -0.51,-0.011 -0.718,-0.032 -0.042,-0.246 -0.073,-0.502 -0.094,-0.768 m 2.092,-8.734 c -0.021,0.41 -0.042,0.871 -0.063,1.383 -0.707,-0.717 -1.415,-1.425 -2.122,-2.122 0,-0.246 0.02,-0.687 0.062,-1.322 0.77,0.738 1.478,1.425 2.123,2.061 M -16.701,-0.4 c 0.77,0.758 1.53,1.497 2.279,2.214 0.042,0.554 0.083,1.077 0.125,1.569 -0.687,-0.677 -1.436,-1.426 -2.247,-2.245 -0.063,-0.554 -0.115,-0.995 -0.157,-1.323 l 0,-0.123 0,-0.092 z m 2.092,35.953 c -0.229,-0.227 -0.573,-0.565 -1.03,-1.016 -0.458,-0.451 -0.801,-0.789 -1.03,-1.015 -0.021,-0.492 -0.042,-1.025 -0.063,-1.599 0.812,0.779 1.582,1.538 2.31,2.276 0.063,0.39 0.146,0.83 0.25,1.322 -0.104,0 -0.25,0.01 -0.437,0.032 m 0,-5.568 c -0.812,-0.798 -1.53,-1.496 -2.154,-2.09 0.02,-0.37 0.041,-0.831 0.062,-1.384 0.729,0.717 1.436,1.404 2.123,2.06 -0.021,0.533 -0.031,1.004 -0.031,1.414 m -2.154,-0.491 0,-0.277 c 0.77,0.738 1.488,1.434 2.154,2.092 0,0.47 0.01,0.953 0.031,1.445 -0.77,-0.759 -1.498,-1.477 -2.185,-2.153 l 0,-0.707 0,-0.4 z m -0.156,-32.755 c 0.333,0.328 0.697,0.688 1.092,1.077 0.146,0.143 0.333,0.328 0.562,0.553 0.27,0.267 0.458,0.451 0.562,0.554 0.042,0.451 0.094,0.964 0.156,1.538 -0.791,-0.759 -1.56,-1.497 -2.309,-2.214 -0.042,-0.514 -0.063,-1.016 -0.063,-1.508 M 0,2.275 c 2.268,0 3.402,-0.225 3.402,-0.676 l 0,-1.999 c 0,-0.431 -0.01,-0.657 -0.031,-0.677 C 3.309,-2.553 3.007,-3.681 2.466,-4.46 2.049,-5.096 1.186,-5.526 -0.125,-5.752 c -0.292,-0.061 -1.301,-0.153 -3.028,-0.276 -1.186,-0.082 -3.548,-0.123 -7.086,-0.123 -3.142,0 -5.119,0.02 -5.931,0.061 -0.957,0.041 -1.602,0.123 -1.935,0.246 -0.645,0.246 -0.999,0.707 -1.062,1.384 -0.104,1.046 -0.041,2.553 0.188,4.522 0.375,3.341 0.551,7.657 0.53,12.947 -0.021,1.763 -0.135,4.562 -0.343,8.396 -0.208,3.629 -0.302,6.417 -0.281,8.366 0.021,3.669 0.198,6.089 0.531,7.257 0.062,0.534 1.103,0.8 3.121,0.8 1.02,0 1.925,-0.072 2.716,-0.215 0.853,-0.165 1.249,-0.349 1.186,-0.553 -0.437,-1.785 -0.676,-3.137 -0.718,-4.06 -0.104,-1.702 -0.042,-4.706 0.188,-9.012 0.374,-7.114 0.426,-13.593 0.155,-19.436 -0.041,-0.781 -0.124,-1.764 -0.249,-2.953 -0.146,-1.703 -0.229,-2.686 -0.25,-2.953 -0.146,-1.845 -0.177,-2.932 -0.093,-3.259 0.312,0 1.841,-0.093 4.588,-0.278 0.708,-0.041 1.176,-0.061 1.405,-0.061 1.665,0 2.601,0.615 2.809,1.846 0.167,1.065 0.281,2.172 0.344,3.321 0,-0.123 0.01,0.338 0.031,1.384 0,0.451 1.103,0.676 3.309,0.676" /></g><g
           transform="translate(114.7105,2.3087)"
           id="g40"><path
             id="path42"
             style="fill:#6a6a6a;fill-opacity:1;fill-rule:nonzero;stroke:none"
             d="M 0,0 C 0.375,0.349 0.593,0.563 0.655,0.646 0.697,1.117 0.718,1.589 0.718,2.061 -0.365,1.015 -1.051,0.338 -1.342,0.03 -1.051,0.01 -0.76,0 -0.468,0 L 0,0 Z m -1.655,2.46 0,-1.384 c 0.874,0.861 1.676,1.661 2.404,2.4 C 0.77,3.906 0.78,4.356 0.78,4.828 -0.302,3.783 -1.114,2.993 -1.655,2.46 m -0.031,2.645 c 0.02,-0.307 0.031,-0.738 0.031,-1.292 0.77,0.759 1.582,1.548 2.435,2.369 C 0.759,6.653 0.749,7.084 0.749,7.474 -0.021,6.735 -0.833,5.945 -1.686,5.105 m 2.373,11.81 c -0.042,0.328 -0.063,0.462 -0.063,0.4 -0.166,0.102 -0.468,0.185 -0.905,0.247 0.145,0.163 -0.333,-0.319 -1.436,-1.447 0.041,-0.471 0.051,-0.973 0.031,-1.507 0.707,0.698 1.499,1.466 2.373,2.307 M 0.655,10.149 C 0.385,9.883 -0.021,9.493 -0.562,8.98 -1.104,8.447 -1.509,8.047 -1.779,7.781 -1.759,7.678 -1.748,7.504 -1.748,7.258 l 0,-0.523 0.031,-0.276 c 0.645,0.635 1.456,1.435 2.435,2.398 -0.021,0.39 -0.042,0.8 -0.063,1.231 l 0,0.061 z M -1.811,9.072 c 0.687,0.677 1.509,1.487 2.466,2.43 0,0.39 0.011,0.851 0.032,1.385 -1.27,-1.231 -2.103,-2.041 -2.498,-2.43 l 0,-0.031 0,-0.431 0,-0.923 z m 2.56,5.229 0,1.353 C -0.437,14.526 -1.27,13.727 -1.748,13.256 -1.79,12.702 -1.811,12.22 -1.811,11.81 c 0.77,0.758 1.624,1.588 2.56,2.491 m -2.091,3.384 c -0.188,0 -0.386,0.009 -0.594,0.03 0.042,-0.144 0.073,-0.319 0.094,-0.523 0.229,0.204 0.395,0.37 0.5,0.493 m 0,21.804 c -0.271,0 -0.521,-0.01 -0.75,-0.03 -0.021,-0.246 -0.042,-0.544 -0.062,-0.893 0.083,0.082 0.239,0.236 0.468,0.462 0.187,0.204 0.344,0.359 0.468,0.461 l -0.062,0 -0.062,0 z m -0.843,-2.06 c -0.021,-0.328 -0.031,-0.821 -0.031,-1.477 l 0,-0.184 c 0.749,0.717 1.477,1.424 2.185,2.122 l 0,1.538 -0.094,0 c -0.458,-0.431 -1.145,-1.097 -2.06,-1.999 m 2.154,-0.892 c -1.083,-1.046 -1.822,-1.764 -2.217,-2.153 -0.021,-0.595 -0.052,-1.076 -0.093,-1.446 0.874,0.841 1.633,1.58 2.279,2.215 0.02,0.451 0.031,0.912 0.031,1.384 m -0.063,-2.768 c -0.978,-0.964 -1.81,-1.784 -2.497,-2.46 -0.125,-0.616 -0.302,-1.231 -0.531,-1.846 0.77,0.759 1.353,1.323 1.748,1.691 l 1.187,1.2 0,0.031 c 0.041,0.369 0.062,0.553 0.062,0.553 0,0 0.01,0.278 0.031,0.831 m -4.089,-6.705 c -0.25,-0.451 -0.489,-0.851 -0.718,-1.199 1.998,1.496 3.371,3.014 4.12,4.552 -0.249,-0.267 -1.384,-1.385 -3.402,-3.353 m -12.174,12.364 c 0.02,0.041 -0.156,-0.134 -0.531,-0.523 -0.062,-0.43 -0.104,-0.913 -0.125,-1.445 0.458,0.471 1.103,1.117 1.936,1.937 -0.271,0.02 -0.542,0.031 -0.812,0.031 l -0.468,0 z m 1.561,-30.94 c -1.27,-1.23 -2.029,-1.967 -2.279,-2.214 l 0,-1.384 c 0.624,0.594 1.384,1.333 2.279,2.214 l 0,1.384 z m -2.279,0.431 0,-1.322 c 0.79,0.778 1.54,1.516 2.247,2.214 0,0.389 -0.01,0.82 -0.031,1.292 -0.728,-0.739 -1.467,-1.466 -2.216,-2.184 m 2.279,-3.168 c -0.812,-0.8 -1.572,-1.548 -2.279,-2.245 -0.021,-0.533 -0.031,-1.005 -0.031,-1.414 0.416,0.429 1.175,1.188 2.278,2.275 0.021,0.451 0.032,0.912 0.032,1.384 m -2.31,5.905 c 0,-0.246 0.01,-0.707 0.031,-1.384 0.874,0.861 1.602,1.588 2.185,2.184 0,0.492 -0.011,0.933 -0.031,1.322 -1.457,-1.415 -2.185,-2.122 -2.185,-2.122 m 2.122,4.737 c -0.957,-0.923 -1.675,-1.621 -2.154,-2.092 0.021,-0.451 0.032,-0.892 0.032,-1.322 0.416,0.41 1.134,1.107 2.153,2.091 -0.021,0.409 -0.031,0.851 -0.031,1.323 m 0.531,22.235 c -0.895,-0.882 -1.779,-1.753 -2.653,-2.614 -0.021,-0.43 -0.032,-0.892 -0.032,-1.384 0.895,0.861 1.78,1.723 2.654,2.584 0.02,0.45 0.031,0.922 0.031,1.414 m -2.685,-22.974 c 0.313,0.308 1.041,1.026 2.185,2.153 l 0.094,1.415 c -0.791,-0.78 -1.56,-1.528 -2.31,-2.245 l 0,-0.092 c 0.021,-0.513 0.031,-0.913 0.031,-1.2 l 0,-0.031 z m -0.031,2.676 c 0.666,0.656 1.467,1.455 2.404,2.399 l -0.031,0.461 c 0,0.02 -0.011,0.287 -0.032,0.8 l -2.372,-2.306 0,-0.093 0.031,-1.261 z m 2.248,6.305 c -0.812,-0.821 -1.572,-1.579 -2.279,-2.277 l 0,-1.352 c 0.562,0.554 1.331,1.311 2.31,2.275 -0.021,0.492 -0.031,0.944 -0.031,1.354 m 0.374,11.164 c -0.811,-0.8 -1.696,-1.661 -2.653,-2.583 l 0,-1.385 c 0.978,0.984 1.831,1.835 2.56,2.553 0.02,0.225 0.051,0.697 0.093,1.415 m -0.406,-9.842 c 0,0.41 0.011,0.861 0.032,1.354 -0.146,-0.124 -0.531,-0.503 -1.155,-1.138 -0.479,-0.473 -0.864,-0.852 -1.155,-1.139 l 0,-1.322 c 0.728,0.697 1.487,1.445 2.278,2.245 m 0.125,4.183 c -0.936,-0.923 -1.737,-1.712 -2.403,-2.369 l 0,-1.383 c 0.707,0.717 1.487,1.486 2.341,2.306 0.02,0.472 0.041,0.953 0.062,1.446 m 0.125,2.798 c -0.874,-0.84 -1.716,-1.661 -2.528,-2.459 l 0,-1.385 c 0.77,0.759 1.592,1.569 2.466,2.429 0.02,0.636 0.041,1.108 0.062,1.415 M -17.2,0.707 C -17.221,0.461 -17.242,0.246 -17.262,0.062 -17.034,0.021 -16.794,0 -16.544,0 l 0.312,0 c 0.125,0.123 0.332,0.328 0.624,0.615 0.27,0.266 0.489,0.472 0.655,0.615 0.042,0.471 0.073,1.056 0.094,1.753 L -17.2,0.707 Z M 2.934,17.746 C 3.059,16.803 3.101,15.541 3.059,13.963 2.997,11.912 2.976,10.651 2.997,10.18 3.163,5.607 3.132,1.824 2.903,-1.169 2.84,-1.928 1.717,-2.307 -0.468,-2.307 c -0.979,0 -1.822,0.103 -2.529,0.308 -0.749,0.205 -1.113,0.481 -1.092,0.83 0.125,1.743 0.135,4.295 0.031,7.658 -0.105,3.424 -0.105,5.967 0,7.627 0.062,0.759 0.052,1.518 -0.031,2.277 -0.105,1.003 -0.302,1.516 -0.594,1.537 -3.184,-0.184 -5.525,-0.277 -7.023,-0.277 -0.5,0 -0.833,0.021 -0.999,0.062 0.291,-10.58 0.229,-16.68 -0.187,-18.299 -0.146,-0.534 -0.583,-0.964 -1.311,-1.292 -0.687,-0.287 -1.467,-0.431 -2.341,-0.431 -0.979,0 -1.769,0.185 -2.373,0.554 -0.666,0.41 -0.905,0.974 -0.718,1.691 0.229,0.841 0.27,7.105 0.125,18.791 -0.125,11.974 0.031,19.192 0.468,21.652 0.042,0.902 1.093,1.353 3.153,1.353 0.999,0 1.873,-0.123 2.622,-0.369 0.812,-0.266 1.218,-0.594 1.218,-0.984 -0.25,-13.061 -0.386,-19.396 -0.406,-19.006 1.165,0.738 2.392,1.814 3.683,3.229 2.414,2.666 3.777,5.433 4.089,8.304 0.042,0.431 0.094,1.783 0.157,4.06 0.041,1.947 0.145,3.28 0.312,3.998 0.145,0.554 1.103,0.83 2.872,0.83 0.853,0 1.664,-0.062 2.434,-0.185 0.77,-0.143 1.156,-0.276 1.156,-0.399 C 2.351,37.049 2.31,34.035 2.123,32.17 1.706,27.741 -2.633,23.661 -10.895,19.93 c 1.062,0.122 2.935,0.183 5.62,0.183 0.936,0 1.612,-0.02 2.028,-0.061 2.31,-0.164 3.538,-0.256 3.684,-0.277 1.498,-0.307 2.33,-0.984 2.497,-2.029" /></g><g
           transform="translate(176.999,38.8458)"
           id="g44"><path
             id="path46"
             style="fill:#6a6a6a;fill-opacity:1;fill-rule:nonzero;stroke:none"
             d="M 0,0 C -0.062,-0.062 -0.156,-0.154 -0.281,-0.277 -0.406,-0.4 -0.489,-0.492 -0.531,-0.554 l 0.5,0 0,0.277 C -0.011,-0.154 0,-0.062 0,0 M -1.873,2.645 C -1.894,2.501 -1.915,2.316 -1.936,2.091 c 0.042,0.041 0.229,0.225 0.562,0.554 l -0.499,0 z m -0.281,-3.137 0.406,-0.031 c 0.207,0.184 0.52,0.492 0.936,0.922 0.416,0.411 0.729,0.728 0.937,0.954 C 0.167,1.845 0.198,2.234 0.219,2.521 0.135,2.542 0.021,2.553 -0.125,2.553 -0.146,2.532 -0.198,2.491 -0.281,2.43 -0.343,2.348 -0.385,2.296 -0.406,2.275 -0.968,1.722 -1.52,1.179 -2.06,0.646 -2.081,0.604 -2.091,0.522 -2.091,0.399 c 0,-0.102 -0.011,-0.184 -0.032,-0.246 l 0,-0.369 c 0,0 -0.01,-0.092 -0.031,-0.276 M -14.89,-36.568 c 0.104,0 0.198,0.01 0.281,0.031 l 0,0.431 c -0.042,-0.041 -0.115,-0.114 -0.219,-0.216 -0.104,-0.103 -0.176,-0.174 -0.218,-0.215 0.187,-0.021 0.239,-0.031 0.156,-0.031 m -1.124,13.963 c 0.666,0.635 1.374,1.323 2.123,2.06 l 0,1.6 c -0.354,-0.349 -1.061,-1.026 -2.123,-2.031 l 0,-1.629 z m 0,2.707 c 0.812,0.778 1.519,1.465 2.123,2.06 l 0,1.015 -0.031,0.338 0,0.061 c -0.854,-0.841 -1.551,-1.537 -2.092,-2.091 l 0,-1.046 0,-0.337 z m 2.092,-3.353 c 0.02,0.349 0.031,0.819 0.031,1.415 -0.479,-0.473 -1.186,-1.169 -2.123,-2.092 -0.021,-0.451 -0.031,-0.932 -0.031,-1.445 0.853,0.841 1.561,1.548 2.123,2.122 m -2.185,7.351 c 0.02,-0.452 0.041,-0.903 0.062,-1.354 0.791,0.779 1.488,1.466 2.091,2.061 l 0,0.738 c -0.021,0.082 -0.031,0.184 -0.031,0.308 l 0,0.307 c -0.832,-0.8 -1.54,-1.487 -2.122,-2.06 m 2.122,-10.15 c 0.021,0.287 0.031,0.769 0.031,1.446 -0.499,-0.493 -1.217,-1.2 -2.153,-2.123 -0.021,-0.533 -0.042,-1.025 -0.063,-1.475 0.895,0.86 1.624,1.578 2.185,2.152 m -0.062,13.502 c -0.021,0.696 -0.031,1.148 -0.031,1.353 -0.25,-0.246 -0.604,-0.595 -1.062,-1.045 -0.479,-0.473 -0.842,-0.831 -1.092,-1.077 0.02,-0.185 0.051,-0.625 0.093,-1.323 0.75,0.739 1.447,1.435 2.092,2.092 m -2.216,-17.039 c -0.021,-0.553 -0.052,-1.066 -0.094,-1.537 0.999,0.984 1.748,1.732 2.248,2.245 0.02,0.308 0.041,0.605 0.062,0.892 l 0,0.307 0,0.277 c -0.52,-0.534 -1.26,-1.261 -2.216,-2.184 m 2.06,20.976 c -0.958,-0.944 -1.675,-1.652 -2.154,-2.122 0,-0.062 0.01,-0.185 0.031,-0.37 l 0,-0.338 c 0,0.082 0.011,-0.123 0.032,-0.616 0.874,0.862 1.591,1.559 2.153,2.092 -0.042,0.985 -0.062,1.415 -0.062,1.292 l 0,0.062 z m -2.216,-0.862 c 0.79,0.758 1.508,1.455 2.153,2.091 -0.021,0.431 -0.052,0.872 -0.093,1.323 -0.791,-0.78 -1.498,-1.476 -2.123,-2.091 0.021,-0.718 0.042,-1.159 0.063,-1.323 m 1.966,6.029 c -0.791,-0.759 -1.498,-1.456 -2.123,-2.092 0,-0.595 0.011,-1.035 0.032,-1.322 0.79,0.778 1.498,1.475 2.122,2.09 0,0.493 -0.011,0.933 -0.031,1.324 m -2.154,4.582 c 0.645,0.656 1.155,1.169 1.53,1.538 -0.542,-0.042 -0.989,-0.082 -1.342,-0.123 -0.105,-0.35 -0.167,-0.821 -0.188,-1.415 m 2.154,-1.846 c -0.791,-0.779 -1.519,-1.496 -2.185,-2.152 0,-0.287 0.01,-0.749 0.031,-1.384 0.75,0.738 1.467,1.434 2.154,2.091 -0.021,0.492 -0.021,0.973 0,1.445 m -2.091,-32.139 c -0.042,-0.451 -0.084,-0.871 -0.125,-1.26 0.812,0.779 1.581,1.527 2.31,2.245 l 0,0.123 0,0.092 c 0.062,0.533 0.104,0.984 0.125,1.353 -0.708,-0.677 -1.468,-1.404 -2.279,-2.184 l 0,-0.184 c -0.021,-0.082 -0.031,-0.144 -0.031,-0.185 m -0.094,31.279 c 0.874,0.86 1.623,1.598 2.247,2.214 l 0,0.031 0,0.584 c -0.021,0.389 -0.021,0.738 0,1.046 -0.249,-0.246 -0.624,-0.616 -1.123,-1.108 -0.5,-0.492 -0.885,-0.861 -1.155,-1.107 0,-0.431 0.01,-0.974 0.031,-1.63 l 0,-0.03 z m 0.344,-34.908 c 0.749,0.758 1.321,1.323 1.716,1.692 0,0.43 0.011,0.748 0.032,0.953 l 0.062,0.554 c -0.749,-0.739 -1.509,-1.487 -2.279,-2.245 -0.021,-0.349 -0.021,-0.657 0,-0.923 0.125,-0.021 0.281,-0.031 0.469,-0.031 M -1.124,4.921 C 0.167,4.817 0.937,4.736 1.186,4.675 2.143,4.429 2.601,3.937 2.56,3.198 2.476,1.25 2.32,-0.544 2.091,-2.184 2.029,-2.635 1.113,-2.86 -0.656,-2.86 c -0.978,0 -1.893,0.071 -2.746,0.214 -0.874,0.124 -1.301,0.278 -1.28,0.462 -0.021,-0.184 0.103,1.108 0.374,3.875 0.083,0.862 0.114,1.364 0.094,1.507 l 0,0.031 c -0.25,-0.021 -0.583,-0.031 -0.999,-0.031 -2.58,0 -4.787,0.113 -6.618,0.338 -0.042,-0.02 -0.125,-1.015 -0.25,-2.982 -0.104,-1.723 -0.042,-4.757 0.188,-9.104 0.104,-1.928 0.187,-3.875 0.249,-5.844 l 0.656,0 c 0.707,0 2.112,0.01 4.214,0.032 2.123,0.019 3.257,0.03 3.403,0.03 l 0.062,0 c 1.165,-0.041 1.748,-0.738 1.748,-2.092 0,-0.595 -0.135,-1.076 -0.406,-1.445 -0.291,-0.39 -0.666,-0.605 -1.123,-0.646 -0.708,-0.041 -2.31,-0.102 -4.807,-0.184 -2.394,-0.062 -3.611,-0.092 -3.653,-0.092 0.021,-3.261 -0.042,-6.356 -0.187,-9.288 -0.042,-0.78 -0.115,-1.775 -0.219,-2.983 -0.167,-1.703 -0.26,-2.687 -0.28,-2.954 0,-0.164 -0.011,-0.656 -0.032,-1.475 0,-0.8 -0.021,-1.405 -0.062,-1.815 -0.125,-1.025 -0.979,-1.538 -2.56,-1.538 -0.104,0 -0.489,0.021 -1.155,0.062 -0.957,0.041 -1.602,0.123 -1.935,0.246 -0.645,0.225 -0.999,0.686 -1.062,1.384 -0.104,1.046 -0.041,2.562 0.188,4.551 0.375,3.363 0.551,7.709 0.53,13.04 -0.021,1.764 -0.135,4.573 -0.343,8.427 -0.208,3.65 -0.302,6.459 -0.281,8.427 0,0.061 -0.01,0.626 -0.031,1.692 -0.021,0.799 -0.011,1.465 0.031,1.999 0.063,1.62 0.344,2.788 0.843,3.506 0.291,0.389 3.101,0.584 8.428,0.584 4.121,0 6.971,-0.052 8.553,-0.153" /></g><g
           transform="translate(211.5991,2.2774)"
           id="g48"><path
             id="path50"
             style="fill:#6a6a6a;fill-opacity:1;fill-rule:nonzero;stroke:none"
             d="M 0,0 C 0.395,0.062 0.624,0.113 0.687,0.154 0.749,0.216 0.738,0.359 0.655,0.585 0.697,0.626 0.479,0.431 0,0 m 0.687,34.569 c 0.666,0.574 0.884,1.241 0.655,1.999 -1.29,-1.271 -1.997,-1.958 -2.122,-2.06 -0.355,-0.288 -0.48,-0.893 -0.375,-1.815 1.124,1.168 1.737,1.794 1.842,1.876 m 0.031,-5.382 c 0.624,0.512 0.843,1.179 0.655,1.999 -1.332,-1.312 -2.06,-2.02 -2.185,-2.123 -0.292,-0.266 -0.417,-0.85 -0.375,-1.752 1.187,1.168 1.822,1.793 1.905,1.876 m -1.342,2.737 c -0.521,-0.41 -0.698,-1.026 -0.531,-1.845 1.249,1.23 1.925,1.886 2.029,1.968 0.457,0.369 0.624,0.994 0.499,1.876 -1.227,-1.23 -1.894,-1.897 -1.997,-1.999 M 1.03,24.051 c 0.354,0.307 0.479,0.891 0.374,1.753 -1.248,-1.251 -1.935,-1.928 -2.059,-2.03 -0.5,-0.411 -0.667,-1.036 -0.5,-1.876 1.332,1.332 2.06,2.05 2.185,2.153 M 0.874,18.484 c 0.52,0.431 0.687,1.056 0.499,1.876 -1.332,-1.333 -2.06,-2.05 -2.185,-2.153 -0.333,-0.287 -0.468,-0.882 -0.406,-1.783 1.27,1.27 1.967,1.958 2.092,2.06 m 0,8.12 c 0.457,0.369 0.624,1.003 0.499,1.907 -1.165,-1.19 -1.8,-1.816 -1.904,-1.876 -0.624,-0.534 -0.832,-1.2 -0.624,-2 1.249,1.23 1.925,1.886 2.029,1.969 M 1.03,21.345 c 0.332,0.286 0.457,0.871 0.374,1.753 -1.227,-1.251 -1.893,-1.918 -1.997,-1.999 -0.52,-0.411 -0.729,-1.067 -0.625,-1.969 1.374,1.374 2.123,2.111 2.248,2.215 m 0,17.622 c -1.041,-1.005 -1.572,-1.518 -1.592,-1.537 -0.604,-0.473 -0.812,-1.139 -0.625,-1.999 1.27,1.27 1.967,1.967 2.092,2.09 0.416,0.37 0.582,0.8 0.499,1.292 -0.02,0.205 -0.042,0.308 -0.062,0.308 C 1.279,39.162 1.176,39.11 1.03,38.967 m -1.155,0.246 c -0.604,0.041 -0.957,0.011 -1.062,-0.092 -0.104,-0.103 -0.093,-0.38 0.032,-0.831 0.27,0.246 0.613,0.554 1.03,0.923 M 0.78,15.654 c 0.499,0.431 0.698,1.087 0.593,1.969 -1.248,-1.23 -1.925,-1.896 -2.028,-1.999 -0.563,-0.472 -0.771,-1.138 -0.625,-1.999 1.269,1.271 1.956,1.947 2.06,2.029 M 0.655,12.856 c 0.563,0.471 0.77,1.118 0.624,1.938 -1.31,-1.272 -2.018,-1.948 -2.122,-2.03 -0.417,-0.349 -0.614,-1.005 -0.594,-1.968 1.291,1.291 1.988,1.977 2.092,2.06 M 0.593,10.058 c 0.5,0.43 0.697,1.076 0.594,1.937 C -0.187,10.642 -0.937,9.903 -1.062,9.78 -1.374,9.534 -1.52,8.971 -1.498,8.089 -1.27,8.294 -0.916,8.622 -0.437,9.073 0,9.524 0.343,9.853 0.593,10.058 M 0.437,7.197 C 0.957,7.607 1.165,8.273 1.062,9.196 -0.25,7.904 -0.958,7.207 -1.062,7.104 -1.498,6.756 -1.748,6.06 -1.811,5.014 -0.417,6.367 0.333,7.095 0.437,7.197 M 0.219,4.275 C 0.843,4.809 1.071,5.485 0.905,6.306 -0.511,4.911 -1.28,4.152 -1.405,4.029 -1.759,3.742 -1.956,3.096 -1.998,2.092 -0.646,3.445 0.094,4.173 0.219,4.275 M 0.125,1.477 C 0.666,1.887 0.884,2.553 0.78,3.476 -0.697,2.02 -1.551,1.158 -1.779,0.893 -2.071,0.626 -2.081,0.349 -1.811,0.062 c 0.188,-0.165 0.416,-0.103 0.687,0.184 0.687,0.697 1.103,1.108 1.249,1.231 m -3.559,17.591 c 0.021,2.584 0.021,8.601 0,18.054 -1.915,-0.738 -3.278,-1.221 -4.089,-1.446 -3.122,-0.841 -5.318,-1.528 -6.586,-2.061 0.041,-10.681 0.051,-16.719 0.031,-18.114 0.499,-0.062 0.968,-0.134 1.404,-0.215 0.666,-0.165 3.57,-0.216 8.709,-0.154 l 0.469,0 c 0.041,1.496 0.062,2.808 0.062,3.936 m -15.764,12.21 c 0.187,0.205 0.635,0.646 1.343,1.323 0.541,0.553 0.977,1.014 1.311,1.383 -1.041,-0.225 -1.749,-0.502 -2.123,-0.83 -0.458,-0.41 -0.635,-1.035 -0.531,-1.876 m 2.029,-14.3 c 0.479,0.409 0.666,1.044 0.563,1.906 -1.332,-1.333 -2.061,-2.04 -2.186,-2.122 -0.395,-0.328 -0.541,-0.944 -0.437,-1.845 1.269,1.291 1.956,1.979 2.06,2.061 m -0.031,2.675 c 0.52,0.451 0.707,1.107 0.562,1.968 -1.311,-1.333 -2.029,-2.051 -2.154,-2.152 -0.395,-0.328 -0.541,-0.923 -0.437,-1.784 1.249,1.23 1.924,1.885 2.029,1.968 M -19.291,0.031 c 1.519,-0.328 2.185,0.318 1.997,1.938 -0.603,-0.615 -0.936,-0.953 -0.999,-1.015 -0.02,-0.02 -0.353,-0.328 -0.998,-0.923 m 2.091,22.328 c 0.541,0.472 0.728,1.108 0.562,1.908 -1.311,-1.292 -2.029,-1.99 -2.154,-2.092 -0.395,-0.328 -0.562,-0.953 -0.499,-1.876 1.269,1.292 1.966,1.978 2.091,2.06 m -0.031,2.706 c 0.541,0.472 0.728,1.118 0.562,1.938 -1.394,-1.395 -2.154,-2.152 -2.279,-2.275 -0.271,-0.226 -0.396,-0.811 -0.374,-1.753 1.29,1.292 1.986,1.988 2.091,2.09 m -0.218,-11.071 c 0.686,0.573 0.946,1.292 0.78,2.152 -1.311,-1.312 -2.029,-2.019 -2.154,-2.122 -0.416,-0.348 -0.583,-0.973 -0.499,-1.876 1.165,1.169 1.789,1.785 1.873,1.846 m -1.468,16.208 c -0.27,-0.226 -0.416,-0.82 -0.437,-1.784 1.374,1.353 2.123,2.081 2.248,2.184 0.395,0.328 0.551,0.891 0.468,1.691 -0.084,-0.021 -0.24,-0.134 -0.468,-0.338 -1.248,-1.21 -1.853,-1.795 -1.811,-1.753 m -0.031,-2.737 c -0.354,-0.308 -0.489,-0.892 -0.406,-1.753 1.228,1.209 1.905,1.855 2.029,1.937 0.666,0.574 0.874,1.25 0.625,2.03 -1.374,-1.353 -2.123,-2.091 -2.248,-2.214 m 1.499,-16.208 c 0.644,0.554 0.874,1.25 0.686,2.091 -1.291,-1.312 -1.998,-2.009 -2.123,-2.091 -0.436,-0.369 -0.624,-1.015 -0.561,-1.938 1.227,1.209 1.893,1.856 1.998,1.938 m 0,-2.706 c 0.499,0.409 0.696,1.086 0.593,2.029 -1.374,-1.394 -2.123,-2.142 -2.248,-2.245 -0.354,-0.308 -0.51,-0.943 -0.468,-1.906 1.31,1.332 2.018,2.039 2.123,2.122 m -0.063,-2.738 c 0.354,0.287 0.54,0.922 0.562,1.907 -1.395,-1.395 -2.144,-2.143 -2.248,-2.245 -0.457,-0.37 -0.698,-1.046 -0.718,-2.03 1.478,1.455 2.279,2.245 2.404,2.368 m -0.343,-3.106 c 0.582,0.512 0.811,1.199 0.686,2.061 -1.415,-1.415 -2.195,-2.174 -2.341,-2.277 -0.417,-0.368 -0.573,-0.994 -0.469,-1.876 1.291,1.313 1.999,2.01 2.124,2.092 M 3.933,40.597 C 3.933,23.866 3.912,15.501 3.871,15.501 3.829,13.532 3.735,11.042 3.59,8.027 3.382,3.25 3.288,0.595 3.309,0.062 3.288,-0.983 2.663,-1.681 1.436,-2.029 c -0.77,-0.226 -1.634,-0.297 -2.591,-0.216 -1.665,0.123 -2.56,0.472 -2.685,1.046 -0.187,0.779 -0.156,3.977 0.094,9.595 0.083,1.927 0.156,3.64 0.219,5.136 l -0.438,0 c -5.639,-0.061 -9.042,-0.03 -10.207,0.093 -0.042,-1.764 -0.136,-3.957 -0.281,-6.582 -0.208,-4.326 -0.302,-6.725 -0.281,-7.196 -0.021,-0.964 -0.645,-1.6 -1.872,-1.908 -0.771,-0.184 -1.635,-0.245 -2.592,-0.184 -1.665,0.123 -2.56,0.431 -2.684,0.923 -0.187,0.718 -0.156,3.608 0.093,8.673 0.187,3.895 0.292,7.104 0.312,9.627 0.021,0.839 0,2.501 -0.062,4.982 -0.042,2.501 -0.063,4.407 -0.063,5.72 0.042,4.51 0.416,6.951 1.124,7.32 1.166,0.615 4.308,1.671 9.427,3.167 0.749,0.226 2.019,0.687 3.809,1.385 1.623,0.614 2.913,1.045 3.871,1.291 0.269,0.553 1.477,0.831 3.621,0.831 2.455,0 3.683,-0.36 3.683,-1.077" /></g><g
           transform="translate(244.0132,2.3389)"
           id="g52"><path
             id="path54"
             style="fill:#6a6a6a;fill-opacity:1;fill-rule:nonzero;stroke:none"
             d="m 0,0 c 0.146,0.144 0.26,0.257 0.344,0.339 0.02,0.45 0.02,0.942 0,1.476 -0.624,-0.595 -1.249,-1.21 -1.873,-1.845 0.187,-0.021 0.322,-0.032 0.405,-0.032 0.395,0 0.77,0.021 1.124,0.062 M 0.25,4.429 C -0.646,3.568 -1.498,2.728 -2.31,1.907 -2.289,1.292 -2.278,0.789 -2.278,0.4 c 0.311,0.287 0.749,0.707 1.31,1.261 0.583,0.574 1.01,0.994 1.28,1.261 0,0.492 -0.021,0.994 -0.062,1.507 M 0.094,6.981 C -0.718,6.202 -1.529,5.402 -2.341,4.583 -2.32,4.111 -2.31,3.66 -2.31,3.229 c 0.812,0.78 1.644,1.6 2.497,2.461 -0.02,0.348 -0.051,0.758 -0.093,1.23 l 0,0.061 z M -2.341,5.905 C -1.675,6.541 -0.895,7.31 0,8.212 -0.021,8.622 -0.042,9.073 -0.062,9.565 -0.854,8.786 -1.612,8.027 -2.341,7.289 l 0,-1.384 z m 0,2.707 c 0.25,0.245 0.624,0.615 1.124,1.107 0.499,0.512 0.874,0.882 1.123,1.107 -0.02,0.513 -0.042,0.953 -0.062,1.322 -0.729,-0.717 -1.456,-1.435 -2.185,-2.152 l 0,-1.384 z m 0,2.706 c 0.77,0.758 1.478,1.446 2.122,2.061 -0.041,0.472 -0.083,0.902 -0.124,1.292 -0.562,-0.534 -1.228,-1.19 -1.998,-1.969 l 0,-1.384 z m 1.404,5.444 c -0.228,-0.226 -0.697,-0.687 -1.404,-1.384 l 0,-0.123 0,-0.584 0,-0.647 c 0.77,0.739 1.362,1.324 1.779,1.753 -0.104,0.39 -0.229,0.718 -0.375,0.985 M -1.529,17.5 c -0.083,0.062 -0.157,0.112 -0.219,0.154 -0.25,0.122 -0.479,0.236 -0.687,0.338 0.083,-0.246 0.125,-0.522 0.125,-0.83 l 0,-0.431 c 0.041,0.062 0.166,0.185 0.374,0.37 0.167,0.163 0.302,0.296 0.407,0.399 m -1.093,20.514 1.093,1.076 c -0.167,0 -0.292,0.011 -0.375,0.031 -0.105,0 -0.312,0.01 -0.624,0.03 0,-0.205 -0.021,-0.481 -0.063,-0.83 -0.02,-0.143 -0.031,-0.246 -0.031,-0.307 m 2.185,1.014 c -0.52,-0.512 -1.291,-1.26 -2.31,-2.245 l 0,-0.153 -0.063,-0.647 c 0.271,-0.02 0.594,-0.03 0.968,-0.03 0.146,0.123 0.354,0.328 0.625,0.615 0.291,0.287 0.51,0.502 0.655,0.646 0.041,0.636 0.083,1.24 0.125,1.814 M -14.234,25.281 c -0.312,-0.287 -0.49,-0.462 -0.531,-0.523 0.271,-0.185 0.562,-0.368 0.874,-0.553 l 0.188,0.215 c -0.209,0.287 -0.386,0.574 -0.531,0.861 m -0.188,-24.85 0,0.154 c -0.02,0.081 -0.031,0.143 -0.031,0.185 -0.041,-0.062 -0.114,-0.134 -0.218,-0.216 -0.084,-0.103 -0.146,-0.174 -0.187,-0.215 0.166,-0.021 0.322,-0.041 0.467,-0.062 0,0.062 -0.01,0.113 -0.031,0.154 m -1.779,25.619 c 0.187,-0.246 0.416,-0.482 0.687,-0.707 0.499,0.492 0.801,0.789 0.906,0.891 -0.105,0.37 -0.178,0.759 -0.219,1.169 -0.5,-0.492 -0.958,-0.943 -1.374,-1.353 M -16.638,1.292 c 0.063,-0.226 0.146,-0.41 0.25,-0.554 0.104,-0.082 0.291,-0.153 0.562,-0.215 0.125,0.123 0.333,0.328 0.624,0.616 0.27,0.265 0.478,0.481 0.625,0.645 -0.063,0.41 -0.105,0.882 -0.125,1.415 -0.147,-0.143 -0.469,-0.462 -0.968,-0.954 -0.395,-0.39 -0.718,-0.707 -0.968,-0.953 m -0.281,1.661 c 0.021,-0.164 0.042,-0.349 0.063,-0.554 0.333,0.329 0.842,0.83 1.529,1.507 l -0.499,0 c -0.375,0 -0.739,-0.01 -1.093,-0.03 l 0,-0.308 0,-0.184 0,-0.216 0,-0.215 z m 0.031,24.635 c 0.021,-0.226 0.083,-0.462 0.188,-0.708 0.395,0.41 0.999,1.016 1.81,1.815 0,0.307 -0.01,0.748 -0.031,1.323 -0.603,-0.595 -1.269,-1.251 -1.998,-1.969 0.021,-0.185 0.031,-0.338 0.031,-0.461 m 1.905,5.013 c -0.646,-0.616 -1.311,-1.261 -1.998,-1.938 0.02,-0.513 0.031,-0.953 0.031,-1.322 0.666,0.635 1.332,1.281 1.998,1.937 -0.021,0.472 -0.031,0.912 -0.031,1.323 m -0.032,2.675 c -0.708,-0.697 -1.363,-1.353 -1.966,-1.967 l 0,-1.324 c 0.708,0.677 1.374,1.324 1.998,1.938 -0.021,0.472 -0.032,0.923 -0.032,1.353 m -1.529,4.03 c -0.104,-0.104 -0.25,-0.257 -0.437,-0.462 l 0,-1.476 c 0.645,0.635 1.3,1.28 1.966,1.938 -0.229,0.019 -0.458,0.03 -0.686,0.03 -0.23,0 -0.511,-0.011 -0.843,-0.03 m -0.469,-4.614 c 0.75,0.717 1.415,1.364 1.998,1.938 0,0.615 0.011,1.138 0.032,1.568 -0.895,-0.902 -1.561,-1.579 -1.998,-2.03 l -0.032,-1.476 z M -0.655,19.653 c 1.393,-0.758 2.258,-2.276 2.591,-4.551 0.103,-0.8 0.187,-1.99 0.25,-3.569 C 2.269,9.401 2.342,7.986 2.404,7.289 2.695,3.106 2.736,0.277 2.528,-1.199 2.424,-1.958 1.207,-2.337 -1.124,-2.337 c -0.624,0 -1.217,0.041 -1.779,0.123 -1.145,-0.02 -2.258,-0.031 -3.34,-0.031 -3.08,0 -5.224,0.041 -6.431,0.123 -1.727,0.123 -2.736,0.216 -3.027,0.277 -1.312,0.226 -2.186,0.657 -2.622,1.292 -0.521,0.799 -0.823,1.927 -0.906,3.383 0,0.021 -0.01,0.256 -0.031,0.707 0.021,-0.143 0.031,0.524 0.031,1.999 0,0.431 1.134,0.647 3.403,0.647 2.206,0 3.319,-0.216 3.34,-0.647 0.02,-1.005 0.031,-1.466 0.031,-1.384 0.042,-1.148 0.156,-2.265 0.344,-3.352 0.125,-0.718 0.363,-1.22 0.717,-1.507 0.291,-0.226 0.729,-0.338 1.312,-0.338 0.124,0 0.54,0.02 1.248,0.062 2.622,0.163 4.059,0.255 4.308,0.276 -0.083,0.8 -0.125,6.756 -0.125,17.869 0,0.471 -0.729,1.004 -2.185,1.599 -0.437,0.184 -1.197,0.471 -2.279,0.861 -1.123,0.431 -1.997,0.769 -2.622,1.015 -4.786,1.968 -7.273,4.234 -7.46,6.797 -0.166,2.522 -0.198,7.053 -0.094,13.593 0.02,0.144 0.405,0.278 1.155,0.401 0.77,0.123 1.581,0.184 2.435,0.184 0.624,0 1.144,-0.042 1.56,-0.123 1.103,0.04 2.383,0.062 3.84,0.062 4.12,0 6.971,-0.052 8.553,-0.155 1.269,-0.102 2.039,-0.184 2.31,-0.246 C 1.499,40.904 1.946,40.412 1.904,39.675 1.821,37.727 1.665,35.933 1.437,34.292 1.374,33.861 0.458,33.646 -1.311,33.646 c -0.978,0 -1.883,0.062 -2.715,0.185 -0.874,0.144 -1.301,0.297 -1.281,0.461 -0.02,-0.164 0.105,1.139 0.375,3.906 0.063,0.841 0.094,1.332 0.094,1.477 l 0,0.03 c -0.25,-0.02 -0.583,-0.03 -0.999,-0.03 -2.559,0 -4.766,0.112 -6.618,0.338 -0.146,-0.082 -0.219,-2.471 -0.219,-7.166 0,-0.451 0.021,-1.302 0.063,-2.553 0.042,-0.984 0.062,-1.682 0.062,-2.091 0,-1.866 1.207,-3.434 3.621,-4.706 0.604,-0.308 1.873,-0.882 3.809,-1.722 1.851,-0.799 3.34,-1.507 4.464,-2.122" /></g><g
           transform="translate(278.1128,2.3702)"
           id="g56"><path
             id="path58"
             style="fill:#6a6a6a;fill-opacity:1;fill-rule:nonzero;stroke:none"
             d="m 0,0 0,0.03 0,1.077 -1.187,-1.169 0.063,0 0.031,0 0.563,0 c 0,0 0.176,0.021 0.53,0.062 m -2.061,19.099 c 1.207,1.189 2.123,2.091 2.748,2.707 l 0,1.753 c -1.395,-1.374 -2.238,-2.205 -2.529,-2.492 0.063,0.041 -0.011,-0.042 -0.219,-0.246 l 0,-1.722 z m 0,3.136 c 0.604,0.595 1.52,1.487 2.748,2.676 l 0,1.385 c -1.52,-1.497 -2.425,-2.39 -2.716,-2.676 0,-0.02 -0.011,-0.031 -0.032,-0.031 l 0,-1.354 z m 2.748,6.767 c -1.333,-1.333 -2.227,-2.225 -2.685,-2.676 -0.021,0 -0.031,-0.011 -0.031,-0.03 l -0.032,0 0,-1.323 c 0.729,0.697 1.644,1.589 2.748,2.675 l 0,1.354 z m 0,2.676 c -0.958,-0.944 -1.874,-1.835 -2.748,-2.676 l 0,-1.354 c 0.895,0.862 1.811,1.753 2.748,2.676 l 0,1.354 z m -0.032,1.568 0,0.646 0,0.646 C -0.843,33.082 -1.748,32.2 -2.061,31.893 l 0,-1.507 c 1.02,1.005 1.925,1.896 2.716,2.676 l 0,0.184 z m -2.716,-0.153 c 0.583,0.594 1.489,1.486 2.716,2.675 l 0,1.384 c -1.352,-1.333 -2.258,-2.225 -2.716,-2.675 l 0,-1.384 z m 2.311,6.335 c -0.791,-0.78 -1.562,-1.538 -2.311,-2.276 l 0,-1.323 c 0.916,0.882 1.822,1.774 2.716,2.676 l 0,0.892 c -0.104,0.02 -0.239,0.031 -0.405,0.031 m -1.405,0.031 C -1.488,39.438 -1.79,39.417 -2.061,39.397 l 0,-0.4 0,-0.431 c 0.271,0.247 0.573,0.543 0.906,0.893 M -2.061,16.792 c 0.729,0.718 1.634,1.609 2.716,2.676 l 0,0.707 c 0,0.328 0.011,0.554 0.032,0.677 -0.937,-0.903 -1.863,-1.815 -2.779,-2.738 l 0,-0.737 0.031,0 0,-0.585 z m -0.062,-2.799 c 0.603,0.595 1.509,1.486 2.716,2.676 0.02,0.595 0.042,1.056 0.062,1.384 -0.999,-0.984 -1.915,-1.876 -2.747,-2.675 -0.02,-0.473 -0.031,-0.934 -0.031,-1.385 m -0.125,-2.829 c 0.936,0.923 1.862,1.824 2.778,2.706 0,0.287 0.011,0.759 0.032,1.415 -1.374,-1.353 -2.238,-2.214 -2.591,-2.583 -0.021,0 -0.052,-0.021 -0.094,-0.061 -0.021,-0.022 -0.042,-0.042 -0.063,-0.062 -0.02,-0.451 -0.042,-0.923 -0.062,-1.415 m -0.124,-2.86 c 0.874,0.861 1.81,1.784 2.809,2.767 0.02,0.472 0.031,0.944 0.031,1.415 C -0.76,11.256 -1.686,10.334 -2.31,9.719 -2.352,9.083 -2.372,8.611 -2.372,8.304 m -0.25,-2.922 c 0.666,0.636 1.654,1.589 2.966,2.86 0,0.349 0.01,0.821 0.031,1.415 C -0.812,8.468 -1.571,7.699 -1.904,7.351 -1.925,7.33 -2.112,7.146 -2.466,6.797 -2.508,6.469 -2.55,6.038 -2.591,5.505 l 0,-0.062 c 0,-0.041 -0.011,-0.061 -0.031,-0.061 M -2.278,0 c 1.081,1.046 1.851,1.804 2.309,2.275 0.021,0.554 0.041,1.097 0.063,1.631 -1.291,-1.271 -2.259,-2.225 -2.904,-2.86 0.021,-0.39 0.052,-0.729 0.094,-1.016 0.125,0 0.271,-0.009 0.438,-0.03 m 2.434,5.32 c 0.021,0.041 0.031,0.123 0.031,0.246 l 0,0.278 C 0.208,5.967 0.219,6.12 0.219,6.305 0.239,6.551 0.25,6.715 0.25,6.797 -1.415,5.177 -2.414,4.203 -2.747,3.875 -2.789,3.342 -2.81,2.85 -2.81,2.398 c 0.333,0.329 0.832,0.811 1.498,1.447 0.666,0.655 1.156,1.147 1.468,1.475 m -17.169,-5.167 0,0.524 C -17.075,0.615 -17.189,0.502 -17.356,0.338 -17.502,0.194 -17.616,0.082 -17.699,0 c 0.291,0.041 0.519,0.092 0.686,0.153 m -2.029,23.036 0,-1.383 c 0.979,0.983 1.884,1.885 2.716,2.706 l 0,0.676 0,0.677 c -0.895,-0.902 -1.8,-1.795 -2.716,-2.676 m 2.716,5.382 c -0.957,-0.943 -1.675,-1.661 -2.153,-2.152 -0.313,-0.288 -0.5,-0.462 -0.563,-0.523 l 0,-1.354 c 0.999,0.984 1.904,1.877 2.716,2.676 l 0,1.353 z m 0,1.384 0,0.677 0,0.645 c -1.248,-1.229 -1.997,-1.967 -2.247,-2.214 -0.063,-0.061 -0.146,-0.143 -0.25,-0.246 -0.105,-0.102 -0.177,-0.174 -0.219,-0.214 l 0,-1.354 c 0.916,0.901 1.821,1.804 2.716,2.706 m 0,3.291 0,0.769 c -0.021,0 -0.926,-0.903 -2.716,-2.706 l 0,-1.323 c 0.854,0.84 1.759,1.733 2.716,2.676 l 0,0.584 z m 0,-11.472 0,1.354 c -0.604,-0.595 -1.509,-1.497 -2.716,-2.707 l -0.031,-0.676 0,-0.677 c 1.061,1.045 1.593,1.569 1.593,1.569 0,0 0.384,0.379 1.154,1.137 m -2.716,10.888 c 0.333,0.348 0.781,0.799 1.343,1.353 0.707,0.676 1.165,1.117 1.373,1.323 0,0.163 -0.011,0.399 -0.031,0.707 l 0,0.677 c -1.79,-1.764 -2.696,-2.657 -2.716,-2.676 l 0.031,-1.076 0,-0.308 z m 2.685,6.735 -0.032,0 c -0.707,-0.718 -1.602,-1.599 -2.684,-2.645 l 0,-1.322 c 0.812,0.779 1.717,1.671 2.716,2.675 l 0,1.292 z m -2.716,-1.261 c 0.791,0.779 1.238,1.219 1.343,1.323 -0.521,0 -0.968,-0.021 -1.343,-0.062 l 0,-1.261 z m 0,-20.451 c -0.021,-0.862 -0.031,-1.313 -0.031,-1.354 0.978,0.963 1.893,1.865 2.747,2.706 l 0,0.062 c 0.02,0.164 0.031,0.379 0.031,0.646 l 0,0.646 c -0.624,-0.595 -1.54,-1.497 -2.747,-2.706 m -0.093,-4.153 c 0.895,0.881 1.82,1.794 2.777,2.738 l 0.032,1.014 0,0.369 c -1.228,-1.23 -2.154,-2.142 -2.779,-2.737 -0.02,-0.861 -0.03,-1.322 -0.03,-1.384 m -0.125,-2.829 c 0.978,0.963 1.924,1.896 2.84,2.798 0,0.451 0.011,0.995 0.031,1.631 -0.311,-0.308 -0.78,-0.77 -1.404,-1.385 -0.624,-0.614 -1.093,-1.076 -1.405,-1.384 -0.021,-0.902 -0.042,-1.456 -0.062,-1.66 m 2.716,-0.093 c 0.02,0.452 0.041,0.933 0.062,1.446 l -2.841,-2.768 0,-0.522 c -0.021,-0.227 -0.031,-0.401 -0.031,-0.524 0,-0.041 -0.011,-0.113 -0.031,-0.215 l 0,-0.215 c 1.269,1.251 2.216,2.183 2.841,2.798 m -3.029,-5.105 c 0,-0.123 -0.02,-0.328 -0.062,-0.615 0.937,0.922 1.925,1.896 2.966,2.922 l 0,0.154 c 0,0.061 0.01,0.101 0.031,0.123 l 0,0.584 c 0.021,0.287 0.031,0.472 0.031,0.554 -1.061,-1.067 -2.029,-2.02 -2.903,-2.861 -0.042,-0.554 -0.063,-0.841 -0.063,-0.861 m 0.656,-5.536 c 0.25,0.246 0.572,0.564 0.968,0.954 0.52,0.512 0.853,0.83 0.999,0.953 0,0.513 0.02,1.046 0.062,1.6 -1.727,-1.703 -2.685,-2.646 -2.872,-2.83 0.02,-0.206 0.052,-0.411 0.094,-0.616 0.166,-0.02 0.375,-0.041 0.624,-0.061 l 0.125,0 z m -0.843,3.414 c -0.021,-0.513 -0.031,-0.985 -0.031,-1.414 0.832,0.819 1.821,1.793 2.966,2.921 0,0.082 0.009,0.235 0.031,0.462 0,0.204 0.01,0.369 0.031,0.492 l 0,0.246 c 0,0.101 0.01,0.184 0.031,0.246 -0.666,-0.636 -1.675,-1.62 -3.028,-2.953 m 19.104,38.383 c 2.456,0 3.684,-0.36 3.684,-1.078 l 0,-21.62 C 3.018,17.243 2.903,13.553 2.653,7.996 2.445,3.219 2.341,0.554 2.341,0 2.278,-1.477 1.779,-2.215 0.843,-2.215 l -0.094,0 c -0.583,-0.102 -1.197,-0.153 -1.842,-0.153 -0.333,0 -0.677,0.01 -1.03,0.03 -1.665,0.144 -2.57,0.492 -2.716,1.046 -0.166,0.779 -0.124,3.998 0.125,9.657 0.167,3.691 0.26,6.059 0.281,7.105 -0.417,0.082 -2.04,0.123 -4.87,0.123 -2.539,0 -3.923,-0.021 -4.151,-0.062 -0.167,0 -0.374,-0.02 -0.624,-0.061 -0.042,-1.949 -0.136,-4.44 -0.281,-7.474 -0.208,-4.777 -0.313,-7.442 -0.313,-7.996 0,-1.559 -1.259,-2.338 -3.776,-2.338 l -0.656,0 c -1.686,0.144 -2.591,0.492 -2.715,1.046 -0.188,0.779 -0.157,3.998 0.092,9.657 0.188,4.326 0.292,7.884 0.313,10.672 0.02,0.205 0.02,7.259 0,21.159 l 0,0.492 c 0,0.718 1.238,1.078 3.715,1.078 2.455,0 3.683,-0.36 3.683,-1.078 l 0,-21.62 c 0.728,0.081 1.353,0.123 1.873,0.123 l 0.812,0 c 0.499,0.02 0.946,0.031 1.342,0.031 2.83,0 4.692,-0.123 5.588,-0.369 l 0,21.343 0,0.492 c 0,0.718 1.227,1.078 3.683,1.078 l 0.031,0 z" /></g><g
           transform="translate(304.5962,38.63)"
           id="g60"><path
             id="path62"
             style="fill:#6a6a6a;fill-opacity:1;fill-rule:nonzero;stroke:none"
             d="M 0,0 C -0.021,0.615 -0.062,1.158 -0.125,1.63 -0.354,1.404 -0.697,1.056 -1.155,0.585 -1.613,0.134 -1.956,-0.205 -2.186,-0.431 l 0,-1.691 C -1.353,-1.322 -0.624,-0.615 0,0 m -0.031,-1.66 0,0.338 c -0.854,-0.841 -1.572,-1.548 -2.155,-2.122 -0.02,-0.452 -0.042,-0.934 -0.061,-1.446 0.852,0.82 1.592,1.538 2.216,2.153 l 0,1.077 z M -2.31,-6.243 c -0.021,-0.451 -0.042,-0.933 -0.062,-1.445 l 0,-0.031 c 0.936,0.902 1.706,1.66 2.31,2.276 l 0,1.383 C -0.957,-4.941 -1.707,-5.669 -2.31,-6.243 m 0.063,6.828 0,-0.093 c 0.727,0.697 1.383,1.333 1.966,1.907 l -0.187,0.616 -0.812,0 C -1.404,2.871 -1.592,2.676 -1.842,2.43 -2.112,2.184 -2.31,1.999 -2.435,1.876 -2.331,1.281 -2.269,0.851 -2.247,0.585 m -0.375,-11.226 c 0.894,0.862 1.706,1.651 2.435,2.369 0.041,0.573 0.062,1.065 0.062,1.475 -0.937,-0.943 -1.737,-1.732 -2.403,-2.368 l 0,-0.246 c -0.042,-0.513 -0.074,-0.922 -0.094,-1.23 m 0,13.624 c 0,-0.061 0.01,-0.112 0.031,-0.153 0.021,0.02 0.041,0.041 0.063,0.062 0.041,0.041 0.072,0.071 0.093,0.091 l -0.187,0 z m 1.404,-39.336 c 0.042,0.041 0.105,0.103 0.188,0.185 0.062,0.082 0.114,0.144 0.156,0.185 -0.083,0.492 -0.156,0.912 -0.219,1.261 -0.666,-0.657 -1.207,-1.2 -1.623,-1.631 l 1.498,0 z m 0.906,25.282 c 0.02,0.634 0.041,1.117 0.062,1.445 -0.937,-0.923 -1.748,-1.723 -2.435,-2.398 -0.02,-0.493 -0.031,-0.965 -0.031,-1.415 0.854,0.819 1.654,1.609 2.404,2.368 m -0.094,-1.415 c -0.874,-0.862 -1.655,-1.63 -2.341,-2.307 -0.021,-0.636 -0.031,-1.107 -0.031,-1.415 0.894,0.861 1.665,1.609 2.31,2.245 0.02,0.533 0.041,1.025 0.062,1.477 m -0.124,-2.829 c -0.874,-0.841 -1.645,-1.59 -2.311,-2.246 0,-0.451 -0.02,-0.933 -0.062,-1.445 0.874,0.86 1.643,1.619 2.31,2.276 0.021,0.553 0.041,1.025 0.063,1.415 m -0.094,-2.799 c -0.896,-0.862 -1.676,-1.62 -2.342,-2.277 -0.02,-0.389 -0.042,-0.871 -0.062,-1.445 0.811,0.8 1.602,1.579 2.373,2.338 0,0.431 0.009,0.892 0.031,1.384 m -0.156,-2.829 c -0.874,-0.842 -1.655,-1.6 -2.342,-2.277 -0.021,-0.348 -0.041,-0.83 -0.062,-1.445 0.832,0.8 1.613,1.558 2.341,2.275 0.021,0.534 0.041,1.016 0.063,1.447 m -0.125,-2.83 c -0.791,-0.759 -1.572,-1.528 -2.341,-2.307 -0.022,-0.205 -0.042,-0.677 -0.063,-1.414 0.707,0.676 1.478,1.434 2.31,2.275 0,0.062 0.011,0.144 0.031,0.246 l 0,0.246 c 0.021,0.349 0.042,0.666 0.063,0.954 M -3.34,-34.261 c 0.021,-0.533 0.063,-1.005 0.125,-1.415 0.687,0.677 1.373,1.343 2.06,1.999 -0.042,0.533 -0.063,1.046 -0.063,1.538 -0.686,-0.656 -1.394,-1.363 -2.122,-2.122 m 2.278,7.658 c -0.874,-0.861 -1.633,-1.61 -2.278,-2.245 l 0,-1.383 c 0.604,0.593 1.342,1.322 2.216,2.183 0.02,0.45 0.042,0.933 0.062,1.445 m -2.309,-6.366 c 0.624,0.615 1.342,1.323 2.153,2.122 0,0.451 0.011,0.923 0.031,1.414 -0.707,-0.697 -1.435,-1.404 -2.184,-2.122 l 0,-0.153 0,-0.123 0,-1.138 z M 8.428,5.075 c 1.644,0 2.445,-0.451 2.404,-1.353 0,-0.575 -1.676,-0.862 -5.026,-0.862 -0.458,0 -1.748,0.032 -3.87,0.093 0.208,-0.677 0.322,-2.604 0.342,-5.782 0,-1.456 -0.155,-5.341 -0.467,-11.656 -0.022,-0.534 -0.053,-1.333 -0.094,-2.399 -0.042,-1.107 -0.063,-2.06 -0.063,-2.86 0,-0.288 -0.031,-0.524 -0.093,-0.708 -0.105,-2.091 -0.177,-3.557 -0.219,-4.398 -0.229,-4.346 -0.291,-7.38 -0.187,-9.103 0.021,-0.431 0.157,-1.21 0.406,-2.338 1.374,0.062 2.528,0.093 3.464,0.093 3.33,0 4.996,-0.287 4.996,-0.862 0.041,-0.902 -0.76,-1.353 -2.405,-1.353 l -0.436,0 -0.438,0 c -0.208,-0.021 -0.478,-0.03 -0.811,-0.03 -1.311,-0.123 -3.32,-0.185 -6.025,-0.185 l -1.56,0 -1.623,0 c -2.519,0 -4.495,0.051 -5.932,0.153 -0.104,0 -0.343,-0.009 -0.718,-0.03 -0.353,-0.02 -0.645,-0.031 -0.874,-0.031 -0.666,0 -1.197,0.082 -1.592,0.246 -1.269,0.164 -1.882,0.646 -1.841,1.446 0,0.123 0.333,0.204 0.999,0.246 0.353,0.102 1.227,0.154 2.622,0.154 0.333,0 1.914,-0.041 4.745,-0.123 l 0.031,0.123 c 0.124,-0.041 0.229,-0.062 0.312,-0.062 l 0.062,0 0.063,0 c -0.167,0.677 -0.25,2.614 -0.25,5.813 -0.021,1.968 0.073,4.787 0.281,8.458 0.208,3.875 0.312,6.704 0.312,8.488 0.021,0.923 0.115,2.747 0.281,5.475 0,0.041 0.02,0.081 0.062,0.123 0.208,3.956 0.26,6.816 0.156,8.58 C -4.6,1.025 -4.766,1.958 -5.057,3.229 -7.866,3.147 -9.458,3.106 -9.833,3.106 c -1.853,0 -2.778,0.093 -2.778,0.278 0,1.209 0.874,1.814 2.622,1.814 0.228,0 0.52,-0.011 0.874,-0.031 0.353,-0.021 0.594,-0.03 0.718,-0.03 -0.083,0 0.999,0.03 3.247,0.092 2.247,0.041 4.203,0.061 5.868,0.061 2.726,0 4.734,-0.061 6.024,-0.185 0.146,0 0.239,-0.01 0.281,-0.03 l 0.375,0 0.499,0 0.344,0 0.187,0 z" /></g><g
           transform="translate(344.9399,29.2501)"
           id="g64"><path
             id="path66"
             style="fill:#6a6a6a;fill-opacity:1;fill-rule:nonzero;stroke:none"
             d="M 0,0 0,1.261 C -0.583,0.687 -1.166,0.103 -1.748,-0.492 l 0,-1.231 C -1.353,-1.333 -0.77,-0.759 0,0 m -1.748,3.69 c 0.228,0.226 0.791,0.78 1.686,1.662 0,0.47 -0.011,0.922 -0.032,1.352 C -1.238,5.577 -1.79,5.033 -1.748,5.074 l 0,-0.707 0,-0.677 z m 1.717,-0.984 0,1.323 C -1.238,2.84 -1.811,2.275 -1.748,2.337 l 0,-1.322 c 0.582,0.553 1.155,1.117 1.717,1.691 M 0,-1.322 c -0.104,-0.123 -0.396,-0.411 -0.874,-0.862 -0.354,-0.369 -0.646,-0.656 -0.874,-0.861 0,-0.513 -0.011,-0.974 -0.031,-1.384 0.603,0.595 1.196,1.179 1.779,1.753 l 0,1.354 z m -1.811,-5.844 c 0.666,0.656 1.27,1.25 1.811,1.784 l 0,1.414 c -1.29,-1.229 -1.884,-1.803 -1.779,-1.721 0,-0.39 -0.011,-0.78 -0.032,-1.169 l 0,-0.308 z m 0.032,13.532 c 0.395,0.39 0.947,0.933 1.654,1.63 -0.021,0.472 -0.031,0.902 -0.031,1.292 -0.499,-0.472 -1.051,-1.005 -1.655,-1.6 0.021,-0.389 0.032,-0.83 0.032,-1.322 M -1.842,-9.903 c 0.604,0.615 1.207,1.219 1.811,1.814 0,0.492 0.01,0.943 0.031,1.354 -0.708,-0.698 -1.321,-1.303 -1.842,-1.815 l 0,-1.353 z m -0.062,-2.738 c 0.437,0.431 1.05,1.026 1.842,1.785 l 0,1.353 c -0.125,-0.123 -0.427,-0.421 -0.906,-0.893 -0.374,-0.369 -0.676,-0.666 -0.905,-0.891 -0.021,-0.41 -0.031,-0.861 -0.031,-1.354 m 1.623,24.02 c -0.083,0.041 -0.198,0.093 -0.343,0.154 -0.333,-0.348 -0.78,-0.8 -1.343,-1.353 0.042,-0.246 0.083,-0.646 0.125,-1.2 0.604,0.595 1.145,1.127 1.623,1.6 -0.02,0.307 -0.042,0.573 -0.062,0.799 m -1.717,-26.818 c 0.832,0.82 1.457,1.435 1.873,1.845 0,0.349 0.011,0.81 0.031,1.384 l -1.873,-1.845 c 0,-0.43 -0.011,-0.892 -0.031,-1.384 m -0.124,-2.83 c 0.207,0.206 0.843,0.831 1.903,1.876 0.021,0.513 0.032,0.974 0.032,1.384 -1.041,-1.025 -1.666,-1.64 -1.874,-1.845 -0.02,-0.594 -0.041,-1.066 -0.061,-1.415 m 1.779,-0.953 c 0.021,0.451 0.041,0.923 0.062,1.414 -0.957,-0.943 -1.592,-1.568 -1.904,-1.876 -0.021,-0.492 -0.052,-0.973 -0.093,-1.445 l 0.031,0.031 c 0,0.02 0.01,0.031 0.031,0.031 0.166,0.164 0.479,0.471 0.937,0.922 0.394,0.39 0.592,0.584 0.592,0.584 0,0 0.115,0.113 0.344,0.339 m -0.219,-3.199 c 0.041,0.554 0.083,1.128 0.125,1.723 -0.25,-0.226 -0.583,-0.543 -0.999,-0.953 -0.479,-0.472 -0.811,-0.8 -0.999,-0.985 -0.084,-0.861 -0.187,-1.497 -0.312,-1.907 1.103,1.087 1.831,1.794 2.185,2.122 m -0.125,-1.199 -2.309,-2.276 c 0.832,0.226 1.508,0.451 2.028,0.677 0.021,0.02 0.042,0.04 0.063,0.062 0.062,0.368 0.135,0.881 0.218,1.537 m -1.685,34.784 c 0.062,0.062 0.177,0.174 0.343,0.338 0.145,0.144 0.26,0.267 0.343,0.369 -0.333,0.082 -0.697,0.154 -1.092,0.216 -0.042,-0.021 -0.094,-0.062 -0.157,-0.123 -0.061,-0.062 -0.114,-0.113 -0.155,-0.154 0.229,-0.164 0.416,-0.329 0.562,-0.493 l 0.156,-0.153 z m -2.311,-37.49 0.063,0.03 0.062,0 0.032,0.031 -0.188,-0.061 0.031,0 z m 0.407,36.137 c -0.23,0.287 -0.781,0.574 -1.655,0.861 -0.999,0.307 -1.966,0.461 -2.903,0.461 -1.873,0 -3.184,-0.646 -3.933,-1.938 -0.354,-0.369 -0.645,-5.761 -0.874,-16.176 -0.25,-10.334 -0.24,-15.901 0.031,-16.701 0.042,-0.574 1.394,-0.861 4.058,-0.861 2.81,0 4.328,0.205 4.558,0.615 0.436,0.759 0.727,6.459 0.874,17.1 0.166,10.477 0.114,16.023 -0.156,16.639 M -14.515,-26.48 c -0.084,-0.082 -0.167,-0.165 -0.25,-0.247 l 0.157,0 c 0.332,-0.041 0.499,-0.05 0.499,-0.03 0.02,-0.041 -0.115,0.051 -0.406,0.277 m -1.717,37.49 c 0.145,0.143 0.478,0.471 0.999,0.984 -0.312,-0.082 -0.552,-0.153 -0.718,-0.215 -0.083,-0.184 -0.177,-0.441 -0.281,-0.769 m 3.34,1.323 c -0.209,-0.02 -0.437,-0.052 -0.687,-0.093 -0.895,-0.902 -1.903,-1.886 -3.027,-2.952 -0.063,-0.472 -0.136,-0.984 -0.219,-1.538 0.874,0.861 1.446,1.425 1.717,1.691 0.125,0.493 0.27,0.851 0.437,1.078 0.457,0.737 1.05,1.341 1.779,1.814 m -2.778,-37.214 c -0.542,-0.533 -0.947,-0.923 -1.218,-1.169 0.271,-0.164 0.594,-0.307 0.968,-0.43 0.083,0.102 0.197,0.225 0.344,0.369 0.186,0.184 0.301,0.297 0.343,0.339 -0.187,0.265 -0.333,0.563 -0.437,0.891 m -1.499,29.556 c 0.75,0.738 1.312,1.302 1.687,1.691 0.041,0.554 0.092,1.035 0.155,1.446 -0.707,-0.677 -1.27,-1.22 -1.686,-1.63 -0.062,-0.493 -0.114,-0.995 -0.156,-1.507 m -0.155,-1.507 c -0.022,-0.472 -0.053,-0.943 -0.094,-1.415 1.082,1.046 1.675,1.63 1.779,1.753 0.021,0.472 0.041,0.932 0.063,1.384 -0.583,-0.575 -1.166,-1.149 -1.748,-1.722 m 1.623,-1.139 c -0.624,-0.614 -1.229,-1.188 -1.811,-1.721 -0.021,-0.411 -0.042,-0.882 -0.062,-1.415 1.04,1.004 1.643,1.588 1.81,1.753 0.021,0.533 0.041,0.994 0.063,1.383 m -0.344,-24.542 c -0.624,-0.615 -1.165,-1.148 -1.623,-1.599 0.042,-0.554 0.083,-0.984 0.125,-1.291 0.166,0.184 0.426,0.45 0.78,0.799 0.375,0.348 0.645,0.604 0.812,0.769 -0.042,0.287 -0.073,0.728 -0.094,1.322 m 0.25,21.806 -1.873,-1.784 c -0.02,-0.492 -0.031,-0.974 -0.031,-1.446 0.644,0.635 1.259,1.241 1.842,1.815 0.02,0.45 0.041,0.923 0.062,1.415 m -0.312,-19.191 c -1.123,-1.067 -1.686,-1.611 -1.686,-1.63 0.021,-0.451 0.042,-0.893 0.063,-1.323 0.728,0.717 1.28,1.25 1.654,1.599 -0.021,0.431 -0.031,0.882 -0.031,1.354 m 0.218,16.422 c -0.686,-0.656 -1.31,-1.271 -1.873,-1.844 -0.02,-0.492 -0.031,-0.964 -0.031,-1.415 0.77,0.738 1.395,1.353 1.873,1.845 0,0.43 0.011,0.902 0.031,1.414 m -1.966,-15.469 c 0,-0.451 0.01,-0.882 0.031,-1.292 1.082,1.066 1.654,1.631 1.717,1.692 l 0,1.322 c -0.624,-0.615 -1.207,-1.189 -1.748,-1.722 m 1.904,12.671 c -0.604,-0.616 -1.238,-1.23 -1.904,-1.845 l 0,-1.384 c 0.728,0.717 1.352,1.332 1.873,1.845 l 0,0.738 c 0,-0.041 0.01,0.174 0.031,0.646 m -0.156,-8.273 c -0.666,-0.697 -1.259,-1.323 -1.78,-1.876 l 0,-1.2 c 0.167,0.164 0.469,0.451 0.906,0.861 0.375,0.369 0.666,0.666 0.874,0.892 l 0,1.323 z m -1.811,-0.369 c 1.228,1.169 1.842,1.763 1.842,1.783 l 0,1.354 c -0.083,-0.082 -0.697,-0.677 -1.842,-1.784 l 0,-1.353 z m 0.031,4.06 c 0,-0.493 -0.01,-0.944 -0.031,-1.354 1.124,1.066 1.748,1.671 1.873,1.814 0.021,0.452 0.031,0.913 0.031,1.384 -0.208,-0.205 -0.52,-0.512 -0.936,-0.922 -0.416,-0.411 -0.729,-0.718 -0.937,-0.922 m 9.303,25.68 c 6.014,0 9.51,-0.8 10.488,-2.399 C 2.3,11.256 2.424,4.644 2.279,-7.412 2.154,-19.816 1.696,-26.275 0.905,-26.788 c -1.831,-1.21 -4.734,-1.988 -8.709,-2.337 -1.061,-0.082 -2.029,-0.123 -2.903,-0.123 -1.041,0 -2.414,0.082 -4.12,0.246 -2.186,0.205 -3.788,0.994 -4.808,2.368 -0.665,0.881 -0.832,7.474 -0.499,19.776 0.332,12.65 1.217,19.457 2.654,20.421 1.061,0.84 4.026,1.261 8.896,1.261" /></g><g
           transform="translate(382.0054,2.3389)"
           id="g68"><path
             id="path70"
             style="fill:#6a6a6a;fill-opacity:1;fill-rule:nonzero;stroke:none"
             d="m 0,0 c 0.291,-0.021 0.635,-0.03 1.03,-0.03 l 0.499,0 c 0.146,0.143 0.365,0.358 0.657,0.645 l 0,1.538 C 1.353,1.333 0.624,0.615 0,0 M 2.092,15.716 C 1.238,14.896 0.468,14.137 -0.219,13.44 l 0,-1.383 c 0.812,0.799 1.592,1.568 2.342,2.306 l 0,0.677 c -0.021,0.327 -0.031,0.553 -0.031,0.676 m -2.311,-0.922 c 0.895,0.881 1.665,1.64 2.311,2.275 l 0,1.384 C 1.238,17.612 0.468,16.854 -0.219,16.178 l 0,-1.384 z m 0,-4.06 C -0.239,10.283 -0.25,9.812 -0.25,9.319 c 0.812,0.8 1.603,1.569 2.373,2.307 l 0,1.384 C 1.228,12.148 0.447,11.39 -0.219,10.734 M 2.123,10.272 C 1.603,9.76 0.812,8.98 -0.25,7.936 -0.25,7.463 -0.261,7.002 -0.281,6.552 0.801,7.597 1.612,8.386 2.154,8.919 2.133,9.411 2.123,9.862 2.123,10.272 m -2.404,8.612 c 0.02,-0.472 0.031,-0.933 0.031,-1.384 0.854,0.82 1.634,1.579 2.342,2.276 l 0,1.414 C 1.238,20.37 0.447,19.602 -0.281,18.884 M 2.154,7.566 C 1.03,6.479 0.219,5.68 -0.281,5.167 L -0.312,3.753 c 1.499,1.496 2.206,2.193 2.123,2.091 l 0.343,0.339 0,0.675 0,0.708 z m -2.466,31.955 0,-0.277 c 0.02,0.02 0.062,0.071 0.125,0.153 0.062,0.041 0.114,0.082 0.156,0.124 l -0.281,0 z M -0.344,1.016 c 1.395,1.373 2.238,2.203 2.53,2.491 l -0.032,0.369 0,0.983 C 0.968,3.691 0.146,2.881 -0.312,2.43 L -0.344,1.016 Z m 2.436,21.497 0,1.384 c -0.854,-0.82 -1.666,-1.61 -2.436,-2.368 0,-0.43 0.011,-0.81 0.032,-1.138 l 0,-0.092 0,-0.123 c 0.874,0.841 1.674,1.619 2.404,2.337 M -0.344,33.8 c 1.041,1.025 1.853,1.825 2.436,2.399 0,0.554 0.01,1.025 0.031,1.415 -0.667,-0.635 -1.488,-1.435 -2.467,-2.399 l 0,-1.415 z m 2.467,5.137 0,0.492 -0.999,0.061 C 0.957,39.325 0.718,39.09 0.406,38.782 0.072,38.454 -0.167,38.219 -0.312,38.075 l -0.032,-1.538 c 0.895,0.861 1.717,1.661 2.467,2.4 m -0.031,-5.506 0,1.415 C 1.051,33.82 0.239,33.021 -0.344,32.447 l -0.031,-1.415 c 1.062,1.026 1.884,1.824 2.467,2.399 M 2.061,26.604 c -0.874,-0.862 -1.697,-1.671 -2.467,-2.43 0,-0.492 0.01,-0.944 0.031,-1.354 0.874,0.882 1.687,1.692 2.436,2.43 l 0,1.354 z m 0.031,5.504 C 1.009,31.063 0.187,30.264 -0.375,29.71 l 0,-0.8 c 0,-0.123 -0.011,-0.328 -0.031,-0.615 0.978,0.943 1.8,1.753 2.467,2.43 l 0.031,1.383 z m -0.031,-4.151 0,1.414 c -0.958,-0.964 -1.78,-1.783 -2.467,-2.46 -0.021,-0.431 -0.021,-0.891 0,-1.384 0.894,0.881 1.718,1.692 2.467,2.43 m -20.697,13.501 0.032,-0.03 c -0.022,0.019 -0.032,0.03 -0.032,0.03 M -20.728,0.093 c 0,0.594 -0.01,1.025 -0.031,1.292 C -21.3,0.851 -21.747,0.41 -22.101,0.062 l 0.125,0 c 0.457,0 0.874,0.01 1.248,0.031 m -2.465,8.458 c 0.874,0.84 1.643,1.598 2.309,2.275 l 0,1.354 c -0.894,-0.841 -1.665,-1.59 -2.309,-2.245 l 0,-1.384 z m 0,2.706 c 0.874,0.841 1.633,1.589 2.279,2.245 0,0.451 -0.011,0.902 -0.031,1.353 -0.771,-0.758 -1.52,-1.497 -2.248,-2.214 l 0,-1.384 z m 0,2.767 c 0.811,0.78 1.56,1.507 2.248,2.184 l 0,0.031 c 0,0.185 -0.011,0.625 -0.032,1.323 -0.833,-0.8 -1.572,-1.528 -2.216,-2.184 l 0,-1.354 z m 0,2.676 c 0.791,0.779 1.529,1.507 2.216,2.184 -0.021,0.861 -0.031,1.322 -0.031,1.384 -0.791,-0.78 -1.519,-1.497 -2.185,-2.153 l 0,-1.415 z m 2.154,4.891 0,1.384 c -0.812,-0.8 -1.53,-1.507 -2.154,-2.122 l 0,-1.384 c 0.791,0.778 1.508,1.486 2.154,2.122 m -0.031,2.706 0,1.384 c -0.791,-0.8 -1.499,-1.507 -2.123,-2.122 l 0,-1.384 c 0.811,0.819 1.518,1.527 2.123,2.122 m -2.123,0.615 c 0.894,0.881 1.602,1.578 2.123,2.091 -0.022,0.492 -0.032,0.954 -0.032,1.385 -0.874,-0.862 -1.572,-1.549 -2.091,-2.061 l 0,-1.415 z m 2.434,-22.175 c -0.02,0.636 -0.031,1.087 -0.031,1.354 -0.874,-0.841 -1.686,-1.63 -2.435,-2.368 l 0,-1.415 c 0.666,0.656 1.488,1.465 2.466,2.429 m -2.466,0.308 c 0.937,0.902 1.748,1.691 2.435,2.368 0,0.164 -0.011,0.39 -0.031,0.677 l 0,0.707 C -21.778,5.875 -22.58,5.085 -23.225,4.429 l 0,-1.384 z m 0,2.737 c 0.895,0.862 1.686,1.641 2.372,2.338 l 0,0.677 0,0.676 c -0.935,-0.903 -1.716,-1.671 -2.34,-2.307 l -0.032,-1.384 z m 2.123,23.928 0,1.384 c -0.936,-0.923 -1.644,-1.61 -2.123,-2.061 l 0.032,-1.384 c 0.916,0.902 1.612,1.589 2.091,2.061 m -2.123,0.677 c 0.979,0.922 1.686,1.609 2.123,2.06 l 0,1.384 c -1.186,-1.169 -1.894,-1.866 -2.123,-2.092 l 0,-1.076 0,-0.276 z m 0,2.706 c 1.02,1.004 1.748,1.722 2.186,2.153 l 0.094,1.476 c -1.666,-1.641 -2.436,-2.389 -2.311,-2.245 0.021,-0.554 0.031,-1.015 0.031,-1.384 m 2.404,6.459 -0.249,0 c -0.979,-0.965 -1.717,-1.682 -2.217,-2.154 0.02,-0.492 0.031,-1.025 0.031,-1.599 0.895,0.861 1.686,1.631 2.372,2.306 l 0.063,1.447 z m -1.342,0.03 -0.063,0 -1.092,0 c 0,-0.246 0.01,-0.513 0.031,-0.8 l 0,-0.153 0,-0.154 c 0.375,0.369 0.749,0.738 1.124,1.107 M 1.093,41.797 C 2.674,41.714 3.86,41.652 4.651,41.612 4.63,41.509 4.599,41.335 4.558,41.089 4.433,40.33 4.391,33.052 4.433,19.253 4.495,5.598 4.536,-1.229 4.558,-1.229 4.516,-1.333 4.484,-1.445 4.464,-1.568 4.318,-2.081 3.173,-2.337 1.03,-2.337 c -2.143,0 -3.267,0.256 -3.371,0.769 l 0,0.061 c -0.021,0 -0.031,0.031 -0.031,0.093 -0.896,1.393 -3.736,7.452 -8.523,18.176 -4.828,10.867 -7.439,16.618 -7.834,17.254 -0.063,-1.313 -0.021,-7.228 0.125,-17.746 0.166,-11.564 0.25,-17.551 0.25,-17.961 0,-0.37 -1.208,-0.554 -3.622,-0.554 -2.393,0 -3.589,0.184 -3.589,0.554 0.083,28.746 0.009,43.119 -0.219,43.119 0.208,0.307 1.393,0.461 3.558,0.461 2.164,-0.021 3.361,-0.175 3.59,-0.461 -0.062,0 1.883,-4.583 5.837,-13.748 4.309,-10.026 7.7,-17.326 10.177,-21.898 0.083,6.644 0.072,11.482 -0.031,14.517 -0.125,3.321 -0.146,6.222 -0.063,8.703 l 0.063,12.087 c 0.103,0.492 1.019,0.738 2.747,0.738 l 0.436,0 c 0,0 0.188,-0.011 0.563,-0.03" /></g><g
           transform="translate(280.4108,61.4374)"
           id="g72"><path
             id="path74"
             style="fill:#6a6a6a;fill-opacity:1;fill-rule:nonzero;stroke:none"
             d="m 0,0 -37.5,0 c -0.467,0 -0.845,0.506 -0.845,1.129 0,0.623 0.378,1.129 0.845,1.129 l 37.5,0 C 0.467,2.258 0.845,1.752 0.845,1.129 0.845,0.506 0.467,0 0,0" /></g><g
           transform="translate(231.7124,61.5223)"
           id="g76"><path
             id="path78"
             style="fill:#6a6a6a;fill-opacity:1;fill-rule:nonzero;stroke:none"
             d="m 0,0 -51.56,0 c -0.326,0 -0.591,0.506 -0.591,1.129 0,0.623 0.265,1.129 0.591,1.129 L 0,2.258 C 0.327,2.258 0.592,1.752 0.592,1.129 0.592,0.506 0.327,0 0,0" /></g><g
           transform="translate(335.6839,61.4374)"
           id="g80"><path
             id="path82"
             style="fill:#6a6a6a;fill-opacity:1;fill-rule:nonzero;stroke:none"
             d="m 0,0 -45.344,0 c -0.624,0 -1.129,0.506 -1.129,1.129 0,0.623 0.505,1.129 1.129,1.129 L 0,2.258 C 0.624,2.258 1.129,1.752 1.129,1.129 1.129,0.506 0.624,0 0,0" /></g><g
           transform="translate(383.6264,61.4374)"
           id="g84"><path
             id="path86"
             style="fill:#6a6a6a;fill-opacity:1;fill-rule:nonzero;stroke:none"
             d="m 0,0 -37.191,0 c -0.623,0 -1.129,0.506 -1.129,1.129 0,0.623 0.506,1.129 1.129,1.129 L 0,2.258 C 0.624,2.258 1.129,1.752 1.129,1.129 1.129,0.506 0.624,0 0,0" /></g><g
           transform="translate(379.4721,62.5663)"
           id="g88"><path
             id="path90"
             style="fill:#6a6a6a;fill-opacity:1;fill-rule:nonzero;stroke:none"
             d="m 0,0 6.96,-4.018 0,8.036 L 0,0 Z" /></g><g
           transform="translate(373.2357,61.4374)"
           id="g92"><path
             id="path94"
             style="fill:#6a6a6a;fill-opacity:1;fill-rule:nonzero;stroke:none"
             d="m 0,0 c -0.292,0 -0.584,0.112 -0.805,0.337 l -5.024,5.105 c -0.438,0.444 -0.432,1.159 0.012,1.596 0.444,0.437 1.159,0.432 1.597,-0.013 L 0.805,1.921 C 1.242,1.477 1.236,0.762 0.792,0.324 0.572,0.108 0.286,0 0,0" /></g><g
           transform="translate(368.2108,56.3326)"
           id="g96"><path
             id="path98"
             style="fill:#6a6a6a;fill-opacity:1;fill-rule:nonzero;stroke:none"
             d="m 0,0 c -0.286,0 -0.572,0.108 -0.792,0.324 -0.444,0.438 -0.45,1.153 -0.013,1.597 L 4.22,7.026 C 4.658,7.471 5.372,7.476 5.817,7.038 6.261,6.601 6.267,5.886 5.829,5.442 L 0.805,0.337 C 0.584,0.112 0.292,0 0,0" /></g><g
           transform="translate(263.2366,61.446)"
           id="g100"><path
             id="path102"
             style="fill:#6a6a6a;fill-opacity:1;fill-rule:nonzero;stroke:none"
             d="m 0,0 c -0.292,0 -0.584,0.112 -0.805,0.337 l -5.024,5.105 c -0.438,0.444 -0.432,1.159 0.012,1.596 0.444,0.437 1.159,0.432 1.597,-0.013 L 0.805,1.921 C 1.242,1.477 1.236,0.762 0.792,0.324 0.572,0.108 0.286,0 0,0" /></g><g
           transform="translate(258.2117,56.3412)"
           id="g104"><path
             id="path106"
             style="fill:#6a6a6a;fill-opacity:1;fill-rule:nonzero;stroke:none"
             d="m 0,0 c -0.286,0 -0.572,0.108 -0.792,0.324 -0.444,0.438 -0.45,1.153 -0.013,1.597 L 4.22,7.026 C 4.658,7.471 5.372,7.476 5.817,7.038 6.261,6.601 6.267,5.886 5.829,5.442 L 0.805,0.337 C 0.584,0.112 0.292,0 0,0" /></g><g
           transform="translate(316.2193,61.4374)"
           id="g108"><path
             id="path110"
             style="fill:#6a6a6a;fill-opacity:1;fill-rule:nonzero;stroke:none"
             d="m 0,0 c -0.292,0 -0.584,0.112 -0.805,0.337 l -5.024,5.105 c -0.438,0.444 -0.432,1.159 0.012,1.596 0.444,0.437 1.159,0.432 1.597,-0.013 L 0.805,1.921 C 1.242,1.477 1.236,0.762 0.792,0.324 0.572,0.108 0.286,0 0,0" /></g><g
           transform="translate(311.1944,56.3326)"
           id="g112"><path
             id="path114"
             style="fill:#6a6a6a;fill-opacity:1;fill-rule:nonzero;stroke:none"
             d="m 0,0 c -0.286,0 -0.572,0.108 -0.792,0.324 -0.444,0.438 -0.45,1.153 -0.013,1.597 L 4.22,7.026 C 4.658,7.471 5.372,7.476 5.817,7.038 6.261,6.601 6.267,5.886 5.829,5.442 L 0.805,0.337 C 0.584,0.112 0.292,0 0,0" /></g><g
           transform="translate(310.102,61.4374)"
           id="g116"><path
             id="path118"
             style="fill:#6a6a6a;fill-opacity:1;fill-rule:nonzero;stroke:none"
             d="m 0,0 c -0.292,0 -0.584,0.112 -0.805,0.337 l -5.024,5.105 c -0.438,0.444 -0.432,1.159 0.012,1.596 0.444,0.437 1.159,0.432 1.597,-0.013 L 0.805,1.921 C 1.242,1.477 1.236,0.762 0.792,0.324 0.572,0.108 0.286,0 0,0" /></g><g
           transform="translate(305.0771,56.3326)"
           id="g120"><path
             id="path122"
             style="fill:#6a6a6a;fill-opacity:1;fill-rule:nonzero;stroke:none"
             d="m 0,0 c -0.286,0 -0.572,0.108 -0.792,0.324 -0.444,0.438 -0.45,1.153 -0.013,1.597 L 4.22,7.026 C 4.658,7.471 5.373,7.476 5.817,7.038 6.261,6.601 6.267,5.886 5.829,5.442 L 0.805,0.337 C 0.584,0.112 0.292,0 0,0" /></g><g
           transform="translate(212.1023,61.4376)"
           id="g124"><path
             id="path126"
             style="fill:#6a6a6a;fill-opacity:1;fill-rule:nonzero;stroke:none"
             d="m 0,0 c -0.292,0 -0.584,0.112 -0.805,0.337 l -5.024,5.105 c -0.438,0.444 -0.432,1.159 0.012,1.596 0.444,0.437 1.159,0.432 1.597,-0.013 L 0.805,1.921 C 1.242,1.477 1.236,0.762 0.792,0.324 0.572,0.108 0.286,0 0,0" /></g><g
           transform="translate(207.0774,56.3327)"
           id="g128"><path
             id="path130"
             style="fill:#6a6a6a;fill-opacity:1;fill-rule:nonzero;stroke:none"
             d="m 0,0 c -0.286,0 -0.572,0.108 -0.792,0.324 -0.444,0.438 -0.45,1.153 -0.013,1.597 L 4.22,7.026 C 4.658,7.471 5.372,7.476 5.817,7.038 6.261,6.601 6.267,5.886 5.829,5.442 L 0.805,0.337 C 0.584,0.112 0.292,0 0,0" /></g><g
           transform="translate(205.9848,61.4376)"
           id="g132"><path
             id="path134"
             style="fill:#6a6a6a;fill-opacity:1;fill-rule:nonzero;stroke:none"
             d="m 0,0 c -0.292,0 -0.584,0.112 -0.805,0.337 l -5.024,5.105 c -0.438,0.444 -0.432,1.159 0.012,1.596 0.444,0.437 1.159,0.432 1.597,-0.013 L 0.805,1.921 C 1.242,1.477 1.236,0.762 0.792,0.324 0.572,0.108 0.286,0 0,0" /></g><g
           transform="translate(200.9599,56.3327)"
           id="g136"><path
             id="path138"
             style="fill:#6a6a6a;fill-opacity:1;fill-rule:nonzero;stroke:none"
             d="m 0,0 c -0.286,0 -0.572,0.108 -0.792,0.324 -0.444,0.438 -0.45,1.153 -0.013,1.597 L 4.22,7.026 C 4.658,7.471 5.372,7.476 5.817,7.038 6.261,6.601 6.267,5.886 5.829,5.442 L 0.805,0.337 C 0.584,0.112 0.292,0 0,0" /></g><g
           transform="translate(199.8675,61.4376)"
           id="g140"><path
             id="path142"
             style="fill:#6a6a6a;fill-opacity:1;fill-rule:nonzero;stroke:none"
             d="m 0,0 c -0.292,0 -0.584,0.112 -0.805,0.337 l -5.024,5.105 c -0.438,0.444 -0.432,1.159 0.012,1.596 0.444,0.437 1.159,0.432 1.597,-0.013 L 0.805,1.921 C 1.242,1.477 1.236,0.762 0.792,0.324 0.572,0.108 0.286,0 0,0" /></g><g
           transform="translate(194.8427,56.3327)"
           id="g144"><path
             id="path146"
             style="fill:#6a6a6a;fill-opacity:1;fill-rule:nonzero;stroke:none"
             d="m 0,0 c -0.286,0 -0.572,0.108 -0.792,0.324 -0.444,0.438 -0.45,1.153 -0.013,1.597 L 4.22,7.026 C 4.658,7.471 5.373,7.476 5.817,7.038 6.261,6.601 6.267,5.886 5.829,5.442 L 0.805,0.337 C 0.584,0.112 0.292,0 0,0" /></g><g
           transform="translate(281.6542,55.8289)"
           id="g148"><path
             id="path150"
             style="fill:#6a6a6a;fill-opacity:1;fill-rule:nonzero;stroke:none"
             d="m 0,0 c 2.326,0.747 6.835,2.714 6.835,6.738 0,4.533 -4.508,6.648 -6.835,7.438 L 0,0 Z m -1.844,-2.352 c -0.262,0.215 -0.414,0.535 -0.414,0.874 l 0,17.149 c 0,0.338 0.152,0.659 0.414,0.873 0.262,0.215 0.606,0.301 0.938,0.233 0.409,-0.082 9.999,-2.108 9.999,-10.039 0,-7.222 -9.59,-9.24 -9.999,-9.323 -0.074,-0.015 -0.149,-0.022 -0.223,-0.022 -0.258,0 -0.512,0.089 -0.715,0.255" /></g><g
           transform="translate(280.5253,68.4774)"
           id="g152"><path
             id="path154"
             style="fill:#6a6a6a;fill-opacity:1;fill-rule:nonzero;stroke:none"
             d="m 0,0 5.759,0 c 0.267,0 0.484,0.217 0.484,0.484 0,0.267 -0.217,0.484 -0.484,0.484 L 0,0.968 C -0.267,0.968 -0.484,0.751 -0.484,0.484 -0.484,0.217 -0.267,0 0,0" /></g><g
           transform="translate(280.5253,66.4834)"
           id="g156"><path
             id="path158"
             style="fill:#6a6a6a;fill-opacity:1;fill-rule:nonzero;stroke:none"
             d="m 0,0 7.258,0 c 0.267,0 0.484,0.217 0.484,0.484 0,0.267 -0.217,0.484 -0.484,0.484 L 0,0.968 C -0.267,0.968 -0.484,0.751 -0.484,0.484 -0.484,0.217 -0.267,0 0,0" /></g><g
           transform="translate(280.5253,64.4895)"
           id="g160"><path
             id="path162"
             style="fill:#6a6a6a;fill-opacity:1;fill-rule:nonzero;stroke:none"
             d="m 0,0 8.657,0 c 0.267,0 0.484,0.217 0.484,0.484 0,0.267 -0.217,0.484 -0.484,0.484 L 0,0.968 C -0.267,0.968 -0.484,0.751 -0.484,0.484 -0.484,0.217 -0.267,0 0,0" /></g><g
           transform="translate(280.5253,62.5223)"
           id="g164"><path
             id="path166"
             style="fill:#6a6a6a;fill-opacity:1;fill-rule:nonzero;stroke:none"
             d="m 0,0 8.259,0 c 0.267,0 0.483,0.217 0.483,0.484 0,0.267 -0.216,0.484 -0.483,0.484 L 0,0.968 C -0.267,0.968 -0.484,0.751 -0.484,0.484 -0.484,0.217 -0.267,0 0,0" /></g><g
           transform="translate(280.5253,60.5013)"
           id="g168"><path
             id="path170"
             style="fill:#6a6a6a;fill-opacity:1;fill-rule:nonzero;stroke:none"
             d="m 0,0 8.259,0 c 0.267,0 0.483,0.217 0.483,0.484 0,0.267 -0.216,0.484 -0.483,0.484 L 0,0.968 C -0.267,0.968 -0.484,0.751 -0.484,0.484 -0.484,0.217 -0.267,0 0,0" /></g><g
           transform="translate(280.5253,58.5073)"
           id="g172"><path
             id="path174"
             style="fill:#6a6a6a;fill-opacity:1;fill-rule:nonzero;stroke:none"
             d="m 0,0 7.258,0 c 0.267,0 0.484,0.217 0.484,0.484 0,0.267 -0.217,0.484 -0.484,0.484 L 0,0.968 C -0.267,0.968 -0.484,0.751 -0.484,0.484 -0.484,0.217 -0.267,0 0,0" /></g><g
           transform="translate(280.5253,56.5134)"
           id="g176"><path
             id="path178"
             style="fill:#6a6a6a;fill-opacity:1;fill-rule:nonzero;stroke:none"
             d="m 0,0 5.968,0 c 0.267,0 0.484,0.217 0.484,0.484 0,0.267 -0.217,0.484 -0.484,0.484 L 0,0.968 C -0.267,0.968 -0.484,0.751 -0.484,0.484 -0.484,0.217 -0.267,0 0,0" /></g><g
           transform="translate(344.4596,66.8318)"
           id="g180"><path
             id="path182"
             style="fill:#6a6a6a;fill-opacity:1;fill-rule:nonzero;stroke:none"
             d="m 0,0 -5.759,0 c -0.267,0 -0.483,0.217 -0.483,0.484 0,0.267 0.216,0.484 0.483,0.484 L 0,0.968 C 0.267,0.968 0.484,0.751 0.484,0.484 0.484,0.217 0.267,0 0,0" /></g><g
           transform="translate(344.4596,64.8375)"
           id="g184"><path
             id="path186"
             style="fill:#6a6a6a;fill-opacity:1;fill-rule:nonzero;stroke:none"
             d="m 0,0 -7.258,0 c -0.267,0 -0.484,0.217 -0.484,0.484 0,0.267 0.217,0.484 0.484,0.484 L 0,0.968 C 0.267,0.968 0.484,0.751 0.484,0.484 0.484,0.217 0.267,0 0,0" /></g><g
           transform="translate(345.1047,62.8436)"
           id="g188"><path
             id="path190"
             style="fill:#6a6a6a;fill-opacity:1;fill-rule:nonzero;stroke:none"
             d="m 0,0 -8.657,0 c -0.267,0 -0.483,0.217 -0.483,0.484 0,0.267 0.216,0.484 0.483,0.484 L 0,0.968 C 0.267,0.968 0.484,0.751 0.484,0.484 0.484,0.217 0.267,0 0,0" /></g><g
           transform="translate(345.4273,60.8767)"
           id="g192"><path
             id="path194"
             style="fill:#6a6a6a;fill-opacity:1;fill-rule:nonzero;stroke:none"
             d="m 0,0 -8.259,0 c -0.267,0 -0.483,0.217 -0.483,0.484 0,0.267 0.216,0.484 0.483,0.484 L 0,0.968 C 0.267,0.968 0.484,0.751 0.484,0.484 0.484,0.217 0.267,0 0,0" /></g><g
           transform="translate(344.4596,58.8557)"
           id="g196"><path
             id="path198"
             style="fill:#6a6a6a;fill-opacity:1;fill-rule:nonzero;stroke:none"
             d="m 0,0 -8.258,0 c -0.268,0 -0.484,0.217 -0.484,0.484 0,0.267 0.216,0.484 0.484,0.484 L 0,0.968 C 0.267,0.968 0.484,0.751 0.484,0.484 0.484,0.217 0.267,0 0,0" /></g><g
           transform="translate(242.7349,61.4684)"
           id="g200"><path
             id="path202"
             style="fill:#6a6a6a;fill-opacity:1;fill-rule:nonzero;stroke:none"
             d="m 0,0 c -0.301,0 -0.602,0.12 -0.825,0.358 l -5.019,5.363 -5.317,-5.385 c -0.438,-0.443 -1.153,-0.448 -1.596,-0.011 -0.444,0.439 -0.449,1.153 -0.011,1.597 l 6.142,6.221 c 0.216,0.219 0.5,0.341 0.819,0.336 C -5.5,8.475 -5.208,8.346 -4.998,8.122 L 0.824,1.9 C 1.25,1.445 1.226,0.731 0.771,0.305 0.554,0.101 0.276,0 0,0" /></g><g
           transform="translate(236.9123,55.2472)"
           id="g204"><path
             id="path206"
             style="fill:#6a6a6a;fill-opacity:1;fill-rule:nonzero;stroke:none"
             d="m 0,0 c -0.302,0 -0.591,0.121 -0.803,0.336 l -6.142,6.221 c -0.438,0.444 -0.433,1.159 0.01,1.597 0.444,0.438 1.159,0.433 1.597,-0.011 l 5.316,-5.385 5.02,5.364 C 5.424,8.577 6.139,8.601 6.594,8.175 7.049,7.748 7.073,7.034 6.647,6.579 L 0.824,0.358 C 0.614,0.133 0.322,0.004 0.015,0 L 0,0 Z" /></g><g
           transform="translate(241.2306,64.1343)"
           id="g208"><path
             id="path210"
             style="fill:#6a6a6a;fill-opacity:1;fill-rule:nonzero;stroke:none"
             d="M 0,0 -7.816,0 C -8.084,0 -8.3,0.217 -8.3,0.484 c 0,0.267 0.216,0.484 0.484,0.484 L 0,0.968 C 0.267,0.968 0.484,0.751 0.484,0.484 0.484,0.217 0.267,0 0,0" /></g><g
           transform="translate(242.7347,62.1674)"
           id="g212"><path
             id="path214"
             style="fill:#6a6a6a;fill-opacity:1;fill-rule:nonzero;stroke:none"
             d="m 0,0 -11.025,0 c -0.267,0 -0.483,0.217 -0.483,0.484 0,0.267 0.216,0.484 0.483,0.484 L 0,0.968 C 0.267,0.968 0.484,0.751 0.484,0.484 0.484,0.217 0.267,0 0,0" /></g><g
           transform="translate(239.9687,60.1464)"
           id="g216"><path
             id="path218"
             style="fill:#6a6a6a;fill-opacity:1;fill-rule:nonzero;stroke:none"
             d="m 0,0 -6.253,0 c -0.267,0 -0.484,0.217 -0.484,0.484 0,0.267 0.217,0.484 0.484,0.484 L 0,0.968 C 0.267,0.968 0.484,0.751 0.484,0.484 0.484,0.217 0.267,0 0,0" /></g><g
           transform="translate(341.0989,66.542)"
           id="g220"><path
             id="path222"
             style="fill:#6a6a6a;fill-opacity:1;fill-rule:nonzero;stroke:none"
             d="m 0,0 c -2.32,0 -4.208,-1.888 -4.208,-4.208 0,-2.32 1.888,-4.208 4.208,-4.208 2.32,0 4.208,1.888 4.208,4.208 C 4.208,-1.888 2.32,0 0,0 m 0,-10.674 c -3.565,0 -6.466,2.901 -6.466,6.466 0,3.565 2.901,6.466 6.466,6.466 3.565,0 6.466,-2.901 6.466,-6.466 0,-3.565 -2.901,-6.466 -6.466,-6.466" /></g><g
           transform="translate(50.8907,61.5159)"
           id="g224"><path
             id="path226"
             style="fill:#6a6a6a;fill-opacity:1;fill-rule:nonzero;stroke:none"
             d="m 0,0 45.344,0 c 0.624,0 1.129,0.506 1.129,1.129 0,0.623 -0.505,1.129 -1.129,1.129 L 0,2.258 C -0.624,2.258 -1.129,1.752 -1.129,1.129 -1.129,0.506 -0.624,0 0,0" /></g><g
           transform="translate(2.9482,61.5159)"
           id="g228"><path
             id="path230"
             style="fill:#6a6a6a;fill-opacity:1;fill-rule:nonzero;stroke:none"
             d="m 0,0 37.191,0 c 0.623,0 1.129,0.506 1.129,1.129 0,0.623 -0.506,1.129 -1.129,1.129 L 0,2.258 C -0.624,2.258 -1.129,1.752 -1.129,1.129 -1.129,0.506 -0.624,0 0,0" /></g><g
           transform="translate(7.1025,62.6447)"
           id="g232"><path
             id="path234"
             style="fill:#6a6a6a;fill-opacity:1;fill-rule:nonzero;stroke:none"
             d="m 0,0 -6.96,-4.018 0,8.036 L 0,0 Z" /></g><g
           transform="translate(13.339,61.5159)"
           id="g236"><path
             id="path238"
             style="fill:#6a6a6a;fill-opacity:1;fill-rule:nonzero;stroke:none"
             d="M 0,0 C 0.292,0 0.584,0.112 0.805,0.337 L 5.829,5.442 C 6.267,5.886 6.261,6.601 5.817,7.038 5.373,7.475 4.658,7.47 4.22,7.025 L -0.805,1.921 C -1.242,1.477 -1.236,0.762 -0.792,0.324 -0.572,0.108 -0.286,0 0,0" /></g><g
           transform="translate(18.3638,56.411)"
           id="g240"><path
             id="path242"
             style="fill:#6a6a6a;fill-opacity:1;fill-rule:nonzero;stroke:none"
             d="m 0,0 c 0.286,0 0.572,0.108 0.792,0.324 0.444,0.438 0.45,1.153 0.013,1.597 L -4.22,7.026 C -4.658,7.471 -5.372,7.476 -5.817,7.038 -6.261,6.601 -6.267,5.886 -5.829,5.442 L -0.805,0.337 C -0.584,0.112 -0.292,0 0,0" /></g><g
           transform="translate(70.3553,61.5159)"
           id="g244"><path
             id="path246"
             style="fill:#6a6a6a;fill-opacity:1;fill-rule:nonzero;stroke:none"
             d="M 0,0 C 0.292,0 0.584,0.112 0.805,0.337 L 5.829,5.442 C 6.267,5.886 6.261,6.601 5.817,7.038 5.373,7.475 4.658,7.47 4.22,7.025 L -0.805,1.921 C -1.242,1.477 -1.236,0.762 -0.792,0.324 -0.572,0.108 -0.286,0 0,0" /></g><g
           transform="translate(75.3802,56.411)"
           id="g248"><path
             id="path250"
             style="fill:#6a6a6a;fill-opacity:1;fill-rule:nonzero;stroke:none"
             d="m 0,0 c 0.286,0 0.572,0.108 0.792,0.324 0.444,0.438 0.45,1.153 0.013,1.597 L -4.22,7.026 C -4.658,7.471 -5.372,7.476 -5.817,7.038 -6.261,6.601 -6.267,5.886 -5.829,5.442 L -0.805,0.337 C -0.584,0.112 -0.292,0 0,0" /></g><g
           transform="translate(76.4726,61.5159)"
           id="g252"><path
             id="path254"
             style="fill:#6a6a6a;fill-opacity:1;fill-rule:nonzero;stroke:none"
             d="M 0,0 C 0.292,0 0.584,0.112 0.805,0.337 L 5.829,5.442 C 6.267,5.886 6.261,6.601 5.817,7.038 5.373,7.475 4.658,7.47 4.22,7.025 L -0.805,1.921 C -1.242,1.477 -1.236,0.762 -0.792,0.324 -0.572,0.108 -0.286,0 0,0" /></g><g
           transform="translate(81.4975,56.411)"
           id="g256"><path
             id="path258"
             style="fill:#6a6a6a;fill-opacity:1;fill-rule:nonzero;stroke:none"
             d="m 0,0 c 0.286,0 0.572,0.108 0.792,0.324 0.444,0.438 0.45,1.153 0.013,1.597 L -4.22,7.026 C -4.658,7.471 -5.373,7.476 -5.817,7.038 -6.261,6.601 -6.267,5.886 -5.829,5.442 L -0.805,0.337 C -0.584,0.112 -0.292,0 0,0" /></g><g
           transform="translate(42.115,66.9102)"
           id="g260"><path
             id="path262"
             style="fill:#6a6a6a;fill-opacity:1;fill-rule:nonzero;stroke:none"
             d="m 0,0 5.759,0 c 0.267,0 0.483,0.217 0.483,0.484 0,0.267 -0.216,0.484 -0.483,0.484 L 0,0.968 C -0.267,0.968 -0.484,0.751 -0.484,0.484 -0.484,0.217 -0.267,0 0,0" /></g><g
           transform="translate(42.115,64.916)"
           id="g264"><path
             id="path266"
             style="fill:#6a6a6a;fill-opacity:1;fill-rule:nonzero;stroke:none"
             d="m 0,0 7.258,0 c 0.267,0 0.484,0.217 0.484,0.484 0,0.267 -0.217,0.484 -0.484,0.484 L 0,0.968 C -0.267,0.968 -0.484,0.751 -0.484,0.484 -0.484,0.217 -0.267,0 0,0" /></g><g
           transform="translate(41.4699,62.922)"
           id="g268"><path
             id="path270"
             style="fill:#6a6a6a;fill-opacity:1;fill-rule:nonzero;stroke:none"
             d="m 0,0 8.657,0 c 0.267,0 0.484,0.217 0.484,0.484 0,0.267 -0.217,0.484 -0.484,0.484 L 0,0.968 C -0.267,0.968 -0.484,0.751 -0.484,0.484 -0.484,0.217 -0.267,0 0,0" /></g><g
           transform="translate(41.1473,60.9552)"
           id="g272"><path
             id="path274"
             style="fill:#6a6a6a;fill-opacity:1;fill-rule:nonzero;stroke:none"
             d="m 0,0 8.258,0 c 0.268,0 0.484,0.217 0.484,0.484 0,0.267 -0.216,0.484 -0.484,0.484 L 0,0.968 C -0.267,0.968 -0.484,0.751 -0.484,0.484 -0.484,0.217 -0.267,0 0,0" /></g><g
           transform="translate(42.115,58.9341)"
           id="g276"><path
             id="path278"
             style="fill:#6a6a6a;fill-opacity:1;fill-rule:nonzero;stroke:none"
             d="m 0,0 8.258,0 c 0.268,0 0.484,0.217 0.484,0.484 0,0.267 -0.216,0.484 -0.484,0.484 L 0,0.968 C -0.267,0.968 -0.484,0.751 -0.484,0.484 -0.484,0.217 -0.267,0 0,0" /></g><g
           transform="translate(41.2678,62.4124)"
           id="g280"><path
             id="path282"
             style="fill:#6a6a6a;fill-opacity:1;fill-rule:nonzero;stroke:none"
             d="m 0,0 c 0,-2.32 1.888,-4.208 4.208,-4.208 2.32,0 4.208,1.888 4.208,4.208 0,2.32 -1.888,4.208 -4.208,4.208 C 1.888,4.208 0,2.32 0,0 m -2.258,0 c 0,3.565 2.901,6.466 6.466,6.466 3.565,0 6.466,-2.901 6.466,-6.466 0,-3.565 -2.901,-6.466 -6.466,-6.466 -3.565,0 -6.466,2.901 -6.466,6.466" /></g><g
           transform="translate(145.435,61.158)"
           id="g284"><path
             id="path286"
             style="fill:#6a6a6a;fill-opacity:1;fill-rule:nonzero;stroke:none"
             d="m 0,0 -0.384,-0.007 -5.842,0 0,1.042 0.575,0 c 0.02,0 0.037,0.009 0.057,0.012 l 6.895,0 L 0,0 Z m -2.488,-2.001 -3.738,0 0,1.027 5.015,0 -1.277,-1.027 z m -2.478,-1.995 -1.26,0 0,1.027 2.535,0 -1.275,-1.027 z m -1.26,-1.013 0,0.046 0.057,0 -0.057,-0.046 z m 0,8.023 6.243,0 1.232,-1 -7.475,0 0,1 z m 0,1.994 3.785,0 1.265,-1.026 -5.05,0 0,1.026 z m 0,2.011 c 0.028,-0.005 0.053,-0.016 0.082,-0.016 l 1.246,0 1.265,-1.027 -2.593,0 0,1.043 z m 0,1.061 0.135,-0.11 -0.053,0 c -0.029,0 -0.054,-0.011 -0.082,-0.016 l 0,0.126 z m -2.258,-2.115 -2.177,0 1.265,1.026 0.912,0 0,-1.026 z m 0,-1.995 -4.635,0 1.265,1.027 3.37,0 0,-1.027 z m 0,-1.956 -0.16,0 c -0.02,0 -0.037,-0.009 -0.056,-0.011 l -6.843,0 1.231,0.999 5.828,0 0,-0.988 z m 0,-2.032 -5.802,0 -1.31,1.053 7.112,0 0,-1.053 z m 0,-1.995 -3.323,0 -1.276,1.027 4.599,0 0,-1.027 z m 0,-1.994 -0.845,0 -1.275,1.027 2.12,0 0,-1.027 z m 0.063,23.448 C -8.459,19.23 -8.484,19.008 -8.484,18.773 l 0,-5.958 -5.823,6.952 c -0.401,0.479 -1.112,0.541 -1.591,0.141 -0.478,-0.401 -0.541,-1.113 -0.14,-1.591 l 6.885,-8.22 -2.672,-2.168 C -11.934,7.892 -12.021,7.818 -12.08,7.721 l -6.285,-5.1 -9.464,0 3.134,3.184 c 0.437,0.445 0.432,1.16 -0.012,1.597 -0.445,0.437 -1.16,0.432 -1.597,-0.012 l -4.694,-4.769 -19.423,0 0,-2.258 19.423,0 4.694,-4.768 c 0.221,-0.225 0.512,-0.338 0.804,-0.338 0.286,0 0.573,0.109 0.793,0.325 0.444,0.437 0.449,1.152 0.012,1.597 l -3.135,3.184 9.468,0 9.878,-7.947 0,-8.805 -4.871,-4.795 c -0.445,-0.438 -0.45,-1.153 -0.013,-1.597 0.437,-0.445 1.152,-0.45 1.597,-0.013 l 3.287,3.236 0,-2.95 -4.871,-4.795 c -0.445,-0.438 -0.45,-1.153 -0.013,-1.597 0.437,-0.444 1.152,-0.45 1.597,-0.012 l 3.287,3.236 0,-2.95 -4.871,-4.795 c -0.445,-0.438 -0.45,-1.153 -0.013,-1.597 0.437,-0.444 1.152,-0.45 1.597,-0.013 l 3.287,3.236 0,-22.532 c 0,-0.186 0.017,-0.363 0.041,-0.535 l -3.686,-4.401 c -0.401,-0.478 -0.338,-1.19 0.14,-1.591 0.478,-0.4 1.19,-0.337 1.591,0.141 l 3.043,3.634 3.043,-3.634 c 0.224,-0.266 0.544,-0.404 0.867,-0.404 0.255,0 0.513,0.086 0.724,0.263 0.478,0.401 0.541,1.113 0.14,1.591 l -3.686,4.401 c 0.024,0.172 0.041,0.349 0.041,0.535 l 0,22.33 3.082,-3.034 c 0.444,-0.437 1.159,-0.431 1.596,0.013 0.217,0.22 0.325,0.506 0.325,0.792 0,0.292 -0.113,0.584 -0.337,0.805 l -4.666,4.592 0,2.95 3.082,-3.033 c 0.444,-0.438 1.159,-0.432 1.596,0.012 0.217,0.22 0.325,0.506 0.325,0.792 0,0.292 -0.113,0.584 -0.337,0.805 l -4.666,4.593 0,2.949 3.082,-3.033 c 0.444,-0.437 1.159,-0.432 1.596,0.013 0.217,0.22 0.325,0.506 0.325,0.792 0,0.292 -0.113,0.584 -0.337,0.805 l -4.666,4.592 0,8.685 10.279,8.27 9.959,0 -3.135,-3.184 c -0.437,-0.445 -0.432,-1.16 0.013,-1.597 0.22,-0.216 0.506,-0.325 0.792,-0.325 0.292,0 0.584,0.113 0.805,0.338 l 4.693,4.768 20.868,0 0,2.258 -20.868,0 -4.693,4.769 C 12.049,7.834 11.334,7.839 10.89,7.402 10.445,6.965 10.44,6.25 10.877,5.805 l 3.135,-3.184 -9.927,0 -6.3,5.112 C -2.274,7.83 -2.36,7.903 -2.469,7.94 l -2.882,2.338 c -0.011,0.009 -0.025,0.012 -0.037,0.021 l 6.716,8.018 c 0.401,0.478 0.338,1.19 -0.14,1.591 -0.479,0.4 -1.19,0.338 -1.591,-0.141 l -5.823,-6.952 0,5.958 c 0,0.235 -0.025,0.457 -0.063,0.668 l -2.132,0 z" /></g><g
           transform="translate(138.0757,78.3468)"
           id="g288"><path
             id="path290"
             style="fill:#6a6a6a;fill-opacity:1;fill-rule:nonzero;stroke:none"
             d="m 0,0 -4.018,6.96 8.036,0 L 0,0 Z" /></g></g></g></g></svg>