<?xml version="1.0" encoding="UTF-8" standalone="no"?>
<svg
   xmlns:dc="http://purl.org/dc/elements/1.1/"
   xmlns:cc="http://creativecommons.org/ns#"
   xmlns:rdf="http://www.w3.org/1999/02/22-rdf-syntax-ns#"
   xmlns:svg="http://www.w3.org/2000/svg"
   xmlns="http://www.w3.org/2000/svg"
   viewBox="0 0 232.23 60.775124"
   height="60.775124"
   width="232.23"
   xml:space="preserve"
   version="1.1"
   id="svg2"><metadata
     id="metadata8"><rdf:RDF><cc:Work
         rdf:about=""><dc:format>image/svg+xml</dc:format><dc:type
           rdf:resource="http://purl.org/dc/dcmitype/StillImage" /></cc:Work></rdf:RDF></metadata><defs
     id="defs6"><clipPath
       id="clipPath16"
       clipPathUnits="userSpaceOnUse"><path
         id="path18"
         d="m 0,48.62 185.784,0 0,-48.62 L 0,0 0,48.62 Z" /></clipPath></defs><g
     transform="matrix(1.25,0,0,-1.25,0,60.775125)"
     id="g10"><g
       id="g12"><g
         clip-path="url(#clipPath16)"
         id="g14"><g
           transform="translate(21.1367,26.978)"
           id="g20"><path
             id="path22"
             style="fill:#d9313f;fill-opacity:1;fill-rule:nonzero;stroke:none"
             d="m 0,0 c -1.352,-0.609 -2.482,-1.503 -3.401,-2.667 l -3.201,6.494 -3.129,-6.473 c -0.971,1.156 -2.147,2.029 -3.53,2.62 l 5.123,5.066 -7.116,0.919 c 0.807,1.215 1.29,2.592 1.454,4.121 l 6.386,-3.342 -1.398,7.033 c 0.972,-0.233 1.696,-0.354 2.179,-0.354 0.504,0 1.259,0.131 2.266,0.38 l -1.208,-7.036 6.381,3.37 C 0.878,8.623 1.3,7.231 2.075,5.959 L -5.041,5.04 0,0 Z m -21.137,21.642 0,-36.49 14.586,-12.13 14.591,12.13 0,36.49 -29.177,0 z" /></g><g
           transform="translate(107.6445,26.1093)"
           id="g24"><path
             id="path26"
             style="fill:#233c6b;fill-opacity:1;fill-rule:nonzero;stroke:none"
             d="m 0,0 c -0.098,-0.503 -0.339,-0.894 -0.719,-1.179 -0.38,-0.277 -0.853,-0.419 -1.423,-0.419 -0.56,0 -1.033,0.137 -1.397,0.416 -0.371,0.278 -0.612,0.658 -0.725,1.151 -0.108,0.489 -0.165,1.485 -0.165,2.996 0,1.497 0.047,2.486 0.134,2.967 0.092,0.48 0.329,0.868 0.704,1.155 0.38,0.289 0.863,0.432 1.449,0.432 0.622,0 1.104,-0.139 1.464,-0.416 C -0.329,6.818 -0.098,6.437 0,5.958 0.108,5.477 0.154,4.485 0.154,2.985 0.154,1.495 0.108,0.501 0,0 m -2.117,8.074 c -1.433,0 -2.635,-0.493 -3.606,-1.487 -0.971,-0.992 -1.454,-2.191 -1.454,-3.602 0,-0.252 0.02,-0.49 0.051,-0.727 -0.467,-1.23 -1.13,-1.934 -1.819,-2.523 -0.863,-0.742 -1.787,-1.112 -2.769,-1.112 -0.755,0 -1.438,0.209 -2.065,0.622 -0.627,0.411 -1.064,1.102 -1.321,2.052 -0.251,0.958 -0.379,2.767 -0.379,5.429 0,3.231 0.292,5.348 0.878,6.357 0.596,1.005 1.531,1.513 2.815,1.513 2.39,0 3.869,-1.487 4.444,-4.459 l 0.525,0 0,4.886 -0.525,0 c -0.164,-0.386 -0.405,-0.832 -0.729,-1.336 -1.084,1.02 -2.343,1.531 -3.766,1.531 -1.849,0 -3.478,-0.845 -4.886,-2.533 -1.402,-1.69 -2.107,-3.748 -2.107,-6.181 0,-2.381 0.715,-4.395 2.143,-6.039 1.434,-1.647 3.016,-2.466 4.752,-2.466 1.197,0 2.343,0.377 3.432,1.272 0.766,0.57 1.29,1.31 1.624,1.926 0.241,-0.688 0.632,-1.31 1.181,-1.857 0.987,-0.991 2.159,-1.487 3.504,-1.487 1.383,0 2.574,0.508 3.587,1.521 1.006,1.014 1.51,2.25 1.51,3.709 0,1.428 -0.483,2.615 -1.459,3.565 -0.976,0.951 -2.163,1.426 -3.561,1.426" /></g><g
           transform="translate(121.3057,30.0244)"
           id="g28"><path
             id="path30"
             style="fill:#233c6b;fill-opacity:1;fill-rule:nonzero;stroke:none"
             d="m 0,0 c 0,1.043 -0.082,1.813 -0.247,2.31 -0.169,0.501 -0.483,0.929 -0.94,1.294 -0.462,0.368 -1.053,0.555 -1.767,0.555 -1.536,0 -2.718,-0.837 -3.555,-2.507 l -0.052,0 0,2.381 C -7.455,3.913 -8.457,3.854 -9.556,3.854 l -1.11,0 0,-0.627 1.737,0 0,-8.359 -1.737,0 0,-0.625 5.708,0 0,0.625 -1.603,0 0,4.105 c 0,1.371 0.313,2.461 0.951,3.272 0.627,0.809 1.34,1.215 2.132,1.215 0.493,0 0.801,-0.182 0.919,-0.539 0.118,-0.357 0.18,-1.004 0.18,-1.942 l 0,-6.111 -1.628,0 0,-0.625 5.918,0 0,0.625 L 0,-5.132 0,0 Z" /></g><g
           transform="translate(127.2139,30.623)"
           id="g32"><path
             id="path34"
             style="fill:#233c6b;fill-opacity:1;fill-rule:nonzero;stroke:none"
             d="m 0,0 c -1.109,0.146 -1.813,0.324 -2.106,0.532 -0.303,0.208 -0.447,0.49 -0.447,0.85 0,0.424 0.205,0.804 0.627,1.13 0.421,0.332 0.945,0.493 1.572,0.493 1.448,0 2.363,-0.791 2.733,-2.383 l 0.509,0 0,2.743 -0.381,0 C 2.333,3.044 2.168,2.8 2.004,2.628 1.367,3.247 0.586,3.561 -0.354,3.561 -1.243,3.561 -1.993,3.275 -2.61,2.71 -3.226,2.145 -3.535,1.438 -3.535,0.604 c 0,-1.706 1.146,-2.726 3.437,-3.057 1.342,-0.201 2.169,-0.411 2.477,-0.64 0.303,-0.229 0.457,-0.565 0.457,-1.012 0,-0.537 -0.257,-1.007 -0.771,-1.405 -0.513,-0.401 -1.084,-0.601 -1.711,-0.601 -1.654,0 -2.83,1.155 -3.534,3.457 l -0.426,0 0,-3.604 0.426,0 0.858,0.735 c 0.863,-0.758 1.757,-1.138 2.676,-1.138 0.936,0 1.722,0.321 2.354,0.953 0.632,0.64 0.945,1.431 0.945,2.381 C 3.653,-1.408 2.436,-0.303 0,0" /></g><g
           transform="translate(141.5327,33.8779)"
           id="g36"><path
             id="path38"
             style="fill:#233c6b;fill-opacity:1;fill-rule:nonzero;stroke:none"
             d="m 0,0 -4.341,0 0,-0.627 1.957,0 0,-3.679 c 0,-1.613 -0.319,-2.818 -0.955,-3.622 -0.632,-0.804 -1.326,-1.207 -2.076,-1.207 -0.509,0 -0.817,0.195 -0.945,0.583 -0.119,0.388 -0.18,1.087 -0.18,2.094 l 0,6.458 -4.157,0 0,-0.627 1.773,0 0,-5.4 c 0,-1.534 0.278,-2.535 0.822,-3.015 0.555,-0.476 1.279,-0.717 2.183,-0.717 1.572,0 2.729,0.758 3.463,2.279 l 0.046,0 0,-2.279 c 0.334,0.103 1.136,0.149 2.41,0.149 l 1.649,0 0,0.624 L 0,-8.986 0,0 Z" /></g><g
           transform="translate(147.4819,40.8442)"
           id="g40"><path
             id="path42"
             style="fill:#233c6b;fill-opacity:1;fill-rule:nonzero;stroke:none"
             d="m 0,0 c -0.508,-0.125 -1.331,-0.185 -2.456,-0.185 l -1.67,0 0,-0.624 1.742,0 0,-15.143 -1.742,0 0,-0.625 6.289,0 0,0.625 -2.163,0 L 0,0 Z" /></g><g
           transform="translate(155.6767,25.2851)"
           id="g44"><path
             id="path46"
             style="fill:#233c6b;fill-opacity:1;fill-rule:nonzero;stroke:none"
             d="m 0,0 c -0.365,-0.265 -0.74,-0.393 -1.13,-0.393 -0.514,0 -0.832,0.159 -0.95,0.488 -0.119,0.326 -0.175,0.935 -0.175,1.824 l 0,6.047 2.897,0 0,0.627 -2.897,0 0,2.787 c -0.782,-0.142 -1.577,-0.208 -2.384,-0.208 l 0,-2.579 -2.173,0 0,-0.627 2.173,0 0,-5.903 c 0,-0.722 0.041,-1.3 0.128,-1.722 0.082,-0.426 0.314,-0.783 0.694,-1.068 0.37,-0.293 0.961,-0.44 1.757,-0.44 1.901,0 3.036,0.795 3.411,2.377 l -0.524,0 C 0.637,0.663 0.36,0.259 0,0" /></g><g
           transform="translate(160.0952,37.4331)"
           id="g48"><path
             id="path50"
             style="fill:#233c6b;fill-opacity:1;fill-rule:nonzero;stroke:none"
             d="M 0,0 C 0.365,0 0.678,0.126 0.935,0.377 1.197,0.629 1.331,0.948 1.331,1.333 1.331,1.698 1.197,2.009 0.93,2.268 0.668,2.525 0.355,2.651 0,2.651 -0.36,2.651 -0.668,2.522 -0.935,2.26 -1.202,1.998 -1.336,1.687 -1.336,1.333 -1.336,0.96 -1.202,0.637 -0.94,0.383 -0.684,0.131 -0.37,0 0,0" /></g><g
           transform="translate(161.2153,34.0576)"
           id="g52"><path
             id="path54"
             style="fill:#233c6b;fill-opacity:1;fill-rule:nonzero;stroke:none"
             d="m 0,0 c -0.73,-0.121 -1.511,-0.18 -2.343,-0.18 l -1.737,0 0,-0.627 1.711,0 0,-8.359 -1.711,0 0,-0.624 5.683,0 0,0.624 L 0,-9.166 0,0 Z" /></g><g
           transform="translate(169.6514,24.8921)"
           id="g56"><path
             id="path58"
             style="fill:#233c6b;fill-opacity:1;fill-rule:nonzero;stroke:none"
             d="m 0,0 0,-0.624 5.918,0 0,0.624 -1.911,0 0,5.132 c 0,1.043 -0.082,1.814 -0.246,2.31 C 3.591,7.943 3.278,8.372 2.82,8.736 2.358,9.104 1.767,9.292 1.053,9.292 c -1.531,0 -2.718,-0.838 -3.56,-2.508 l -0.047,0 0,2.382 C -3.448,9.045 -4.449,8.986 -5.549,8.986 l -1.11,0 0,-0.627 1.732,0 0,-8.359 -1.732,0 0,-0.624 5.708,0 0,0.624 -1.603,0 0,4.105 c 0,1.372 0.319,2.461 0.946,3.272 0.632,0.81 1.346,1.216 2.137,1.216 0.493,0 0.806,-0.183 0.92,-0.54 C 1.567,7.696 1.628,7.049 1.628,6.111 L 1.628,0 0,0 Z" /></g><g
           transform="translate(54.4697,28.8633)"
           id="g60"><path
             id="path62"
             style="fill:#233c6b;fill-opacity:1;fill-rule:nonzero;stroke:none"
             d="m 0,0 c -0.288,-0.794 -0.73,-1.885 -1.505,-2.726 -0.663,-0.711 -1.547,-1.24 -2.739,-1.24 l -3.437,0 0,15.256 2.749,0 0,0.629 -7.696,0 0,-0.629 2.019,0 0,-15.256 -2.019,0 0,-0.63 12.51,0 0.945,5.395 -0.519,0 C 0.236,0.617 0.123,0.334 0,0" /></g><g
           transform="translate(77.9028,26.1479)"
           id="g64"><path
             id="path66"
             style="fill:#233c6b;fill-opacity:1;fill-rule:nonzero;stroke:none"
             d="m 0,0 c -0.365,-0.57 -0.796,-0.925 -1.311,-1.053 -0.513,-0.131 -1.202,-0.198 -2.064,-0.198 l -2.318,0 0,7.702 2.245,0 c 1.568,0 2.626,-0.304 3.17,-0.905 C 0.272,4.945 0.539,3.995 0.539,2.692 0.539,1.464 0.359,0.573 0,0 m -5.693,14.005 2.528,0 c 0.796,0 1.408,-0.048 1.839,-0.151 0.432,-0.1 0.791,-0.383 1.069,-0.845 0.278,-0.46 0.416,-1.195 0.416,-2.204 0,-1.287 -0.211,-2.23 -0.642,-2.831 C -0.91,7.378 -1.886,7.075 -3.422,7.075 l -2.271,0 0,6.93 z m 4.414,-7.262 0,0.062 c 3.011,0.606 4.515,1.891 4.515,3.853 0,0.516 -0.128,1.064 -0.385,1.644 -0.257,0.578 -0.683,1.064 -1.274,1.459 -0.591,0.393 -1.207,0.64 -1.845,0.733 -0.642,0.097 -1.433,0.141 -2.363,0.141 l -7.989,0 0,-0.63 1.999,0 0,-15.256 -2.143,0 0,-0.629 8.015,0 c 1.053,0 1.927,0.056 2.621,0.169 0.693,0.111 1.371,0.391 2.039,0.848 0.663,0.447 1.146,0.981 1.449,1.6 0.308,0.622 0.457,1.213 0.457,1.768 0,2.273 -1.695,3.688 -5.096,4.238" /></g><g
           transform="translate(59.397,41.1655)"
           id="g68"><path
             id="path70"
             style="fill:#233c6b;fill-opacity:1;fill-rule:nonzero;stroke:none"
             d="m 0,0 -0.38,0 -1.3,-3.512 4.474,-12.757 -2.676,0 0,-0.629 7.331,0 0,0.629 -1.675,0 L 0,0 Z" /></g><g
           transform="translate(181.3188,28.3496)"
           id="g72"><path
             id="path74"
             style="fill:#233c6b;fill-opacity:1;fill-rule:nonzero;stroke:none"
             d="m 0,0 c -0.169,-0.398 -0.678,-0.596 -1.526,-0.596 -0.832,0 -1.336,0.195 -1.51,0.583 -0.175,0.393 -0.262,1.266 -0.262,2.618 0,0.935 0.097,1.603 0.282,2.006 0.185,0.398 0.679,0.599 1.47,0.599 0.59,0 1.043,-0.144 1.346,-0.424 C 0.108,4.506 0.257,3.884 0.257,2.921 0.257,1.374 0.175,0.401 0,0 m -1.361,-5.39 c 0.328,0.014 0.498,0.034 1.207,0.083 0.745,0.046 0.555,0.025 0.765,0.025 0.534,0 1.023,-0.138 1.454,-0.408 0.432,-0.267 0.648,-0.65 0.648,-1.148 0,-0.83 -0.432,-1.557 -1.29,-2.174 -0.858,-0.619 -1.551,-0.922 -2.872,-0.922 -2.071,0 -3.103,0.758 -3.103,2.271 0,0.704 0.211,1.285 0.627,1.739 0.051,0.054 0.38,0.337 0.673,0.499 0.786,-0.062 1.824,0.046 1.891,0.035 M 4.162,5.549 C 3.956,5.739 3.714,5.834 3.437,5.834 2.723,5.834 2.065,5.425 1.485,4.611 0.683,5.425 -0.313,5.834 -1.5,5.834 -2.589,5.834 -3.545,5.487 -4.347,4.801 -5.153,4.11 -5.559,3.257 -5.559,2.251 c 0,-0.057 0,-0.108 0.005,-0.165 l -0.005,0.005 c 0,-0.021 0.005,-0.041 0.005,-0.041 0.005,-0.074 0.005,-0.123 0.011,-0.175 0.071,-1.048 0.657,-1.865 1.715,-2.44 0.052,-0.028 0.103,-0.059 0.155,-0.09 0.041,-0.015 0.071,-0.033 0.108,-0.054 l 0,-0.072 c -0.776,-0.028 -1.228,-0.557 -1.306,-0.642 -0.395,-0.432 -0.59,-1.02 -0.59,-1.775 0,-1.051 0.549,-1.758 1.639,-2.125 0.005,-0.005 0.01,-0.005 0.01,-0.005 l -0.55,-0.311 C -5.091,-6.073 -5.569,-6.427 -5.8,-6.702 -6.052,-7.01 -6.181,-7.383 -6.181,-7.833 c 0,-0.734 0.401,-1.374 1.198,-1.913 0.791,-0.545 1.864,-0.815 3.221,-0.815 1.741,0 2.707,0.406 3.694,1.223 0.986,0.819 1.474,1.827 1.474,3.029 0,1.027 -0.267,1.813 -0.817,2.369 -0.544,0.554 -1.253,0.832 -2.121,0.832 l -3.119,-0.119 c -0.879,0 -1.428,0.072 -1.649,0.219 -0.221,0.152 -0.329,0.364 -0.329,0.65 0,0.326 0.211,0.634 0.632,0.92 0.283,0.185 0.668,0.364 1.634,0.297 0.318,-0.026 0.786,-0.041 0.786,-0.041 0.457,0 0.734,0.039 0.817,0.049 0.529,0.067 1.186,0.352 1.968,0.848 0.898,0.573 1.351,1.418 1.351,2.536 0,0.66 -0.242,1.327 -0.72,2.003 0.257,0.301 0.488,0.457 0.694,0.457 0.108,0 0.231,-0.146 0.385,-0.434 0.149,-0.285 0.38,-0.426 0.688,-0.426 0.211,0 0.412,0.085 0.591,0.252 0.175,0.167 0.268,0.393 0.268,0.675 0,0.324 -0.103,0.586 -0.303,0.771" /></g><path
           id="path76"
           style="fill:#687176;fill-opacity:1;fill-rule:nonzero;stroke:none"
           d="m 44.467,12.202 -0.637,0 0,5.559 0.637,0 0,-5.559 z" /><g
           transform="translate(49.1523,14.5317)"
           id="g78"><path
             id="path80"
             style="fill:#687176;fill-opacity:1;fill-rule:nonzero;stroke:none"
             d="m 0,0 0,-2.33 -0.591,0 0,2.132 c 0,0.722 -0.395,1.141 -1.084,1.141 -0.632,0 -1.156,-0.437 -1.156,-1.153 l 0,-2.12 -0.591,0 0,3.761 0.586,0 0,-0.537 c 0.303,0.45 0.807,0.614 1.269,0.614 C -0.642,1.508 0,0.912 0,0" /></g><g
           transform="translate(52.4658,14.082)"
           id="g82"><path
             id="path84"
             style="fill:#687176;fill-opacity:1;fill-rule:nonzero;stroke:none"
             d="m 0,0 c 0,-0.809 0.591,-1.402 1.372,-1.402 0.781,0 1.372,0.593 1.372,1.402 0,0.812 -0.591,1.403 -1.372,1.403 C 0.591,1.403 0,0.812 0,0 m 3.355,0 c 0,-1.115 -0.853,-1.955 -1.983,-1.955 -1.136,0 -1.978,0.84 -1.978,1.955 0,1.112 0.842,1.957 1.978,1.957 1.13,0 1.983,-0.845 1.983,-1.957" /></g><g
           transform="translate(59.0835,15.9111)"
           id="g86"><path
             id="path88"
             style="fill:#687176;fill-opacity:1;fill-rule:nonzero;stroke:none"
             d="m 0,0 -0.144,-0.583 c -0.18,0.098 -0.432,0.151 -0.652,0.151 -0.586,0 -1.008,-0.464 -1.008,-1.173 l 0,-2.105 -0.591,0 0,3.761 0.591,0 0,-0.529 c 0.252,0.388 0.653,0.606 1.115,0.606 C -0.421,0.128 -0.195,0.093 0,0" /></g><g
           transform="translate(59.9053,14.082)"
           id="g90"><path
             id="path92"
             style="fill:#687176;fill-opacity:1;fill-rule:nonzero;stroke:none"
             d="m 0,0 c 0,-0.775 0.55,-1.402 1.346,-1.402 0.786,0 1.341,0.603 1.341,1.402 0,0.796 -0.555,1.403 -1.341,1.403 C 0.54,1.403 0,0.776 0,0 m 2.651,1.321 0,2.517 0.591,0 0,-5.718 -0.591,0 0,0.56 C 2.353,-1.706 1.896,-1.955 1.274,-1.955 c -1.053,0 -1.875,0.825 -1.875,1.955 0,1.128 0.822,1.957 1.875,1.957 0.622,0 1.079,-0.254 1.377,-0.636" /></g><g
           transform="translate(64.6318,14.3545)"
           id="g94"><path
             id="path96"
             style="fill:#687176;fill-opacity:1;fill-rule:nonzero;stroke:none"
             d="M 0,0 2.415,0 C 2.343,0.704 1.876,1.156 1.238,1.156 0.545,1.156 0.098,0.678 0,0 m 3.021,-0.257 c 0,-0.077 -0.005,-0.157 -0.015,-0.223 l -3.011,0 c 0.082,-0.812 0.648,-1.228 1.326,-1.228 0.467,0 0.873,0.18 1.192,0.475 L 2.831,-1.642 C 2.363,-2.091 1.839,-2.227 1.29,-2.227 c -1.115,0 -1.906,0.789 -1.906,1.952 0,1.153 0.796,1.96 1.87,1.96 1.017,0 1.757,-0.801 1.767,-1.942" /></g><g
           transform="translate(70.9155,15.9111)"
           id="g98"><path
             id="path100"
             style="fill:#687176;fill-opacity:1;fill-rule:nonzero;stroke:none"
             d="m 0,0 -0.144,-0.583 c -0.185,0.098 -0.437,0.151 -0.652,0.151 -0.591,0 -1.007,-0.464 -1.007,-1.173 l 0,-2.105 -0.596,0 0,3.761 0.59,0 0,-0.529 c 0.257,0.388 0.653,0.606 1.115,0.606 C -0.421,0.128 -0.201,0.093 0,0" /></g><g
           transform="translate(75.8628,15.4258)"
           id="g102"><path
             id="path104"
             style="fill:#687176;fill-opacity:1;fill-rule:nonzero;stroke:none"
             d="m 0,0 -1.628,0 0,-1.898 c 0,-0.586 0.313,-0.848 0.75,-0.848 0.287,0 0.57,0.11 0.791,0.267 l 0.272,-0.447 c -0.277,-0.216 -0.652,-0.372 -1.115,-0.372 -0.806,0 -1.289,0.441 -1.289,1.384 l 0,1.914 -0.823,0 0,0.537 0.823,0 0,1.197 0.591,0 0,-1.197 L 0,0.537 0,0 Z" /></g><g
           transform="translate(76.9726,14.082)"
           id="g106"><path
             id="path108"
             style="fill:#687176;fill-opacity:1;fill-rule:nonzero;stroke:none"
             d="m 0,0 c 0,-0.809 0.591,-1.402 1.377,-1.402 0.776,0 1.372,0.593 1.372,1.402 0,0.812 -0.596,1.403 -1.372,1.403 C 0.591,1.403 0,0.812 0,0 m 3.36,0 c 0,-1.115 -0.853,-1.955 -1.983,-1.955 -1.13,0 -1.978,0.84 -1.978,1.955 0,1.112 0.848,1.957 1.978,1.957 C 2.507,1.957 3.36,1.112 3.36,0" /></g><g
           transform="translate(85.6094,15.1635)"
           id="g110"><path
             id="path112"
             style="fill:#687176;fill-opacity:1;fill-rule:nonzero;stroke:none"
             d="m 0,0 c -0.242,0.167 -0.725,0.357 -1.233,0.357 -0.535,0 -0.889,-0.231 -0.889,-0.593 0,-0.314 0.272,-0.47 0.765,-0.527 l 0.447,-0.061 c 0.797,-0.103 1.265,-0.432 1.265,-1.048 0,-0.714 -0.648,-1.162 -1.66,-1.162 -0.483,0 -1.095,0.119 -1.567,0.481 l 0.272,0.444 c 0.288,-0.22 0.668,-0.408 1.305,-0.408 0.632,0 1.033,0.21 1.033,0.608 0,0.301 -0.252,0.483 -0.781,0.55 l -0.452,0.049 c -0.848,0.103 -1.244,0.481 -1.244,1.04 0,0.712 0.601,1.141 1.501,1.141 0.595,0 1.135,-0.164 1.495,-0.409 L 0,0 Z" /></g><g
           transform="translate(90.1406,13.7739)"
           id="g114"><path
             id="path116"
             style="fill:#687176;fill-opacity:1;fill-rule:nonzero;stroke:none"
             d="m 0,0 c 0,-1.12 -0.802,-1.646 -1.711,-1.646 -0.909,0 -1.706,0.526 -1.706,1.646 l 0,2.189 0.591,0 0,-2.138 c 0,-0.778 0.473,-1.145 1.115,-1.145 0.642,0 1.115,0.367 1.115,1.145 l 0,2.138 L 0,2.189 0,0 Z" /></g><g
           transform="translate(94.3071,15.4463)"
           id="g118"><path
             id="path120"
             style="fill:#687176;fill-opacity:1;fill-rule:nonzero;stroke:none"
             d="m 0,0 -0.385,-0.401 c -0.283,0.275 -0.622,0.44 -1.028,0.44 -0.755,0 -1.331,-0.591 -1.331,-1.403 0,-0.809 0.576,-1.403 1.331,-1.403 0.406,0 0.776,0.185 1.038,0.445 L 0,-2.73 c -0.344,-0.383 -0.842,-0.589 -1.397,-0.589 -1.156,0 -1.948,0.84 -1.948,1.955 0,1.112 0.792,1.957 1.948,1.957 C -0.842,0.593 -0.339,0.388 0,0" /></g><g
           transform="translate(98.0679,15.4463)"
           id="g122"><path
             id="path124"
             style="fill:#687176;fill-opacity:1;fill-rule:nonzero;stroke:none"
             d="m 0,0 -0.38,-0.401 c -0.288,0.275 -0.622,0.44 -1.028,0.44 -0.76,0 -1.33,-0.591 -1.33,-1.403 0,-0.809 0.57,-1.403 1.33,-1.403 0.406,0 0.771,0.185 1.038,0.445 L 0,-2.73 c -0.344,-0.383 -0.837,-0.589 -1.392,-0.589 -1.161,0 -1.953,0.84 -1.953,1.955 0,1.112 0.792,1.957 1.953,1.957 C -0.837,0.593 -0.334,0.388 0,0" /></g><g
           transform="translate(99.1059,14.3545)"
           id="g126"><path
             id="path128"
             style="fill:#687176;fill-opacity:1;fill-rule:nonzero;stroke:none"
             d="M 0,0 2.415,0 C 2.337,0.704 1.875,1.156 1.238,1.156 0.544,1.156 0.092,0.678 0,0 m 3.016,-0.257 c 0,-0.077 0,-0.157 -0.011,-0.223 l -3.015,0 c 0.087,-0.812 0.652,-1.228 1.335,-1.228 0.463,0 0.863,0.18 1.187,0.475 L 2.831,-1.642 C 2.363,-2.091 1.839,-2.227 1.284,-2.227 c -1.11,0 -1.906,0.789 -1.906,1.952 0,1.153 0.796,1.96 1.875,1.96 1.018,0 1.758,-0.801 1.763,-1.942" /></g><g
           transform="translate(103.3188,14.3545)"
           id="g130"><path
             id="path132"
             style="fill:#687176;fill-opacity:1;fill-rule:nonzero;stroke:none"
             d="M 0,0 2.415,0 C 2.343,0.704 1.88,1.156 1.243,1.156 0.545,1.156 0.098,0.678 0,0 m 3.021,-0.257 c 0,-0.077 -0.005,-0.157 -0.01,-0.223 l -3.016,0 c 0.082,-0.812 0.647,-1.228 1.33,-1.228 0.463,0 0.869,0.18 1.192,0.475 L 2.836,-1.642 C 2.363,-2.091 1.844,-2.227 1.284,-2.227 c -1.11,0 -1.901,0.789 -1.901,1.952 0,1.153 0.797,1.96 1.871,1.96 1.022,0 1.762,-0.801 1.767,-1.942" /></g><g
           transform="translate(107.5264,14.082)"
           id="g134"><path
             id="path136"
             style="fill:#687176;fill-opacity:1;fill-rule:nonzero;stroke:none"
             d="m 0,0 c 0,-0.775 0.545,-1.402 1.346,-1.402 0.781,0 1.341,0.603 1.341,1.402 0,0.796 -0.56,1.403 -1.341,1.403 C 0.539,1.403 0,0.776 0,0 m 2.651,1.321 0,2.517 0.586,0 0,-5.718 -0.586,0 0,0.56 C 2.353,-1.706 1.896,-1.955 1.274,-1.955 c -1.058,0 -1.88,0.825 -1.88,1.955 0,1.128 0.822,1.957 1.88,1.957 0.622,0 1.079,-0.254 1.377,-0.636" /></g></g></g></g></svg>