<?xml version="1.0" encoding="UTF-8" standalone="no"?>
<svg
   xmlns:dc="http://purl.org/dc/elements/1.1/"
   xmlns:cc="http://creativecommons.org/ns#"
   xmlns:rdf="http://www.w3.org/1999/02/22-rdf-syntax-ns#"
   xmlns:svg="http://www.w3.org/2000/svg"
   xmlns="http://www.w3.org/2000/svg"
   viewBox="0 0 728.51752 101.4095"
   height="101.4095"
   width="728.51752"
   xml:space="preserve"
   version="1.1"
   id="svg2"><metadata
     id="metadata8"><rdf:RDF><cc:Work
         rdf:about=""><dc:format>image/svg+xml</dc:format><dc:type
           rdf:resource="http://purl.org/dc/dcmitype/StillImage" /></cc:Work></rdf:RDF></metadata><defs
     id="defs6"><clipPath
       id="clipPath16"
       clipPathUnits="userSpaceOnUse"><path
         id="path18"
         d="m 0,81.128 582.814,0 L 582.814,0 0,0 0,81.128 Z" /></clipPath></defs><g
     transform="matrix(1.25,0,0,-1.25,0,101.4095)"
     id="g10"><g
       id="g12"><g
         clip-path="url(#clipPath16)"
         id="g14"><g
           transform="translate(48.8183,73.5574)"
           id="g20"><path
             id="path22"
             style="fill:#1c1b18;fill-opacity:1;fill-rule:evenodd;stroke:none"
             d="m 0,0 33.926,0 0,-1.905 c 0,-1.155 -0.955,-1.973 -2.103,-2.103 l -11.51,-1.296 0,-55.379 11.51,-1.297 c 1.149,-0.129 2.103,-0.947 2.103,-2.103 l 0,-1.904 -33.926,0 0,1.904 c 0,1.157 0.954,1.974 2.103,2.103 l 11.51,1.297 0,55.379 -11.51,1.296 C 0.955,-3.878 0,-3.061 0,-1.905 L 0,0 Z m -41.248,0 33.926,0 0,-1.905 c 0,-1.155 -0.955,-1.973 -2.103,-2.103 l -11.51,-1.296 0,-55.379 11.51,-1.297 c 1.149,-0.129 2.103,-0.947 2.103,-2.103 l 0,-1.904 -33.926,0 0,1.904 c 0,1.157 0.954,1.974 2.103,2.103 l 11.51,1.297 0,55.379 -11.51,1.296 c -1.148,0.13 -2.103,0.947 -2.103,2.103 l 0,1.905 z" /></g><g
           transform="translate(33.8097,43.1362)"
           id="g24"><path
             id="path26"
             style="fill:#1c1b18;fill-opacity:1;fill-rule:evenodd;stroke:none"
             d="m 0,0 22.695,0 c 0.771,0 1.402,-0.631 1.402,-1.402 l 0,-2.341 c 0,-0.771 -0.631,-1.402 -1.402,-1.402 L 0,-5.145 c -0.771,0 -1.402,0.631 -1.402,1.402 l 0,2.341 C -1.402,-0.631 -0.771,0 0,0" /></g><path
           id="path28"
           style="fill:#1c1b18;fill-opacity:1;fill-rule:evenodd;stroke:none"
           d="m 0,81.128 90.314,0 L 90.314,0 0,0 0,81.128 Z m 3.785,-3.785 82.744,0 0,-73.557 -82.744,0 0,73.557 z" /><g
           transform="translate(120.0142,55.0848)"
           id="g30"><path
             id="path32"
             style="fill:#1c1b18;fill-opacity:1;fill-rule:nonzero;stroke:none"
             d="m 0,0 0,-13.246 3.28,0 0,29.435 -3.28,0 0,-13.246 -7.233,0 0,13.246 -3.279,0 0,-29.435 3.279,0 L -7.233,0 0,0 Z m 17.577,10.176 0,-23.422 2.944,0 0,29.435 -3.659,0 -4.289,-12.657 -3.027,-9.293 0,21.95 -2.902,0 0,-29.435 3.406,0 4.373,13.666 3.154,9.756 z m 17.577,-23.422 3.364,0 -7.695,16.021 7.443,13.414 -3.322,0 -7.822,-14.213 0,14.213 -3.28,0 0,-29.435 3.28,0 0,9.882 1.724,2.902 6.308,-12.784 z m 5.634,7.107 c 0,-4.458 2.229,-7.401 6.728,-7.401 4.542,0 6.77,2.943 6.77,7.401 l 0,15.222 c 0,4.499 -2.228,7.401 -6.77,7.401 -4.499,0 -6.728,-2.902 -6.728,-7.401 l 0,-15.222 z m 3.239,15.39 c 0,2.649 1.135,4.247 3.489,4.247 2.397,0 3.491,-1.598 3.491,-4.247 l 0,-15.558 c 0,-2.692 -1.094,-4.247 -3.491,-4.247 -2.354,0 -3.489,1.555 -3.489,4.247 l 0,15.558 z m 25.271,3.953 0,-26.45 3.28,0 0,29.435 -11.984,0 -0.799,-22.286 c -0.084,-2.818 -0.547,-4.205 -3.28,-4.205 l 0,-2.986 0.547,0 c 4.499,0.042 5.761,2.691 5.929,7.359 l 0.672,19.133 5.635,0 z m 17.535,-20.521 1.135,-5.929 3.28,0 -5.634,29.435 -4.752,0 -5.635,-29.435 3.028,0 1.135,5.929 7.443,0 z m -3.784,19.806 3.321,-16.988 -6.559,0 3.238,16.988 z m 14.044,-9.335 0,10.05 8.831,0 0,2.985 -12.111,0 0,-29.435 12.111,0 0,2.986 -8.831,0 0,10.47 7.191,0 0,2.944 -7.191,0 z m 11.858,13.035 0,-29.435 6.77,0 c 4.584,0 6.728,2.481 6.728,6.896 l 0,2.481 c 0,3.238 -1.093,5.509 -3.952,6.308 2.565,0.799 3.448,2.733 3.448,5.845 l 0,1.387 c 0,4.332 -1.809,6.518 -6.392,6.518 l -6.602,0 z m 3.28,-12.489 0,9.504 3.238,0 c 2.355,0 3.238,-1.262 3.238,-3.869 l 0,-1.724 c 0,-3.07 -1.346,-3.911 -3.953,-3.911 l -2.523,0 z m 0,-13.96 0,10.975 2.859,0 c 2.818,0 4.121,-1.093 4.121,-4.373 l 0,-2.608 c 0,-2.733 -1.093,-3.994 -3.49,-3.994 l -3.49,0 z m 23.716,23.464 0,-26.45 3.28,0 0,29.435 -13.792,0 0,-29.435 3.28,0 0,26.45 7.232,0 z m 6.644,2.985 0,-29.435 3.28,0 0,11.606 2.901,0 c 4.668,0 6.855,2.439 6.855,7.107 l 0,3.532 c 0,4.457 -1.977,7.19 -6.602,7.19 l -6.434,0 z m 3.28,-14.885 0,11.9 3.154,0 c 2.397,0 3.363,-1.346 3.363,-4.037 l 0,-3.911 c 0,-2.817 -1.177,-3.952 -3.616,-3.952 l -2.901,0 z m 12.068,-7.443 c 0,-4.458 2.229,-7.401 6.728,-7.401 4.542,0 6.77,2.943 6.77,7.401 l 0,15.222 c 0,4.499 -2.228,7.401 -6.77,7.401 -4.499,0 -6.728,-2.902 -6.728,-7.401 l 0,-15.222 z m 3.238,15.39 c 0,2.649 1.135,4.247 3.49,4.247 2.397,0 3.491,-1.598 3.491,-4.247 l 0,-15.558 c 0,-2.692 -1.094,-4.247 -3.491,-4.247 -2.355,0 -3.49,1.555 -3.49,4.247 l 0,15.558 z m 28.888,1.177 0,-23.674 3.112,0 0,29.435 -4.584,0 -4.667,-23.506 -4.836,23.506 -4.583,0 0,-29.435 2.859,0 0,23.464 4.878,-23.422 3.154,0 4.667,23.632 z m 12.825,6.056 c -4.499,0 -6.602,-2.944 -6.602,-7.401 l 0,-15.222 c 0,-4.458 2.103,-7.401 6.602,-7.401 4.542,0 6.644,2.943 6.644,7.401 l 0,3.658 -3.111,0 0,-3.826 c 0,-2.65 -1.052,-4.247 -3.449,-4.247 -2.354,0 -3.448,1.597 -3.448,4.247 l 0,15.558 c 0,2.649 1.094,4.247 3.448,4.247 2.397,0 3.449,-1.598 3.449,-4.247 l 0,-2.817 3.111,0 0,2.649 c 0,4.457 -2.102,7.401 -6.644,7.401 m 17.409,-29.73 0,26.45 5.424,0 0,2.985 -14.128,0 0,-2.985 5.424,0 0,-26.45 3.28,0 z m 18.628,5.929 1.136,-5.929 3.279,0 -5.634,29.435 -4.752,0 -5.635,-29.435 3.028,0 1.135,5.929 7.443,0 z m -3.784,19.806 3.322,-16.988 -6.56,0 3.238,16.988 z m 22.664,0.715 0,-26.45 3.28,0 0,29.435 -11.984,0 -0.799,-22.286 c -0.084,-2.818 -0.547,-4.205 -3.28,-4.205 l 0,-2.986 0.547,0 c 4.499,0.042 5.761,2.691 5.929,7.359 l 0.673,19.133 5.634,0 z m 10.05,-8.621 0,11.606 -3.28,0 0,-29.435 6.434,0 c 4.584,0 6.602,2.733 6.602,7.191 l 0,3.532 c 0,4.667 -2.187,7.106 -6.854,7.106 l -2.902,0 z m 0,-14.843 0,11.9 2.902,0 c 2.439,0 3.616,-1.093 3.616,-3.953 l 0,-3.91 c 0,-2.692 -0.967,-4.037 -3.364,-4.037 l -3.154,0 z m 24.053,-2.986 3.364,0 -7.695,16.021 7.443,13.414 -3.322,0 -7.822,-14.213 0,14.213 -3.28,0 0,-29.435 3.28,0 0,9.882 1.724,2.902 6.308,-12.784 z m 5.635,7.107 c 0,-4.458 2.228,-7.401 6.727,-7.401 4.542,0 6.771,2.943 6.771,7.401 l 0,15.222 c 0,4.499 -2.229,7.401 -6.771,7.401 -4.499,0 -6.727,-2.902 -6.727,-7.401 l 0,-15.222 z m 3.237,15.39 c 0,2.649 1.136,4.247 3.49,4.247 2.397,0 3.491,-1.598 3.491,-4.247 l 0,-15.558 c 0,-2.692 -1.094,-4.247 -3.491,-4.247 -2.354,0 -3.49,1.555 -3.49,4.247 l 0,15.558 z M 324.667,0 l 0,-13.246 3.279,0 0,29.435 -3.279,0 0,-13.246 -7.233,0 0,13.246 -3.28,0 0,-29.435 3.28,0 0,13.246 7.233,0 z m 12.993,16.484 c -4.499,0 -6.602,-2.944 -6.602,-7.401 l 0,-15.222 c 0,-4.458 2.103,-7.401 6.602,-7.401 4.541,0 6.644,2.943 6.644,7.401 l 0,3.658 -3.112,0 0,-3.826 c 0,-2.65 -1.051,-4.247 -3.448,-4.247 -2.355,0 -3.448,1.597 -3.448,4.247 l 0,15.558 c 0,2.649 1.093,4.247 3.448,4.247 2.397,0 3.448,-1.598 3.448,-4.247 l 0,-2.817 3.112,0 0,2.649 c 0,4.457 -2.103,7.401 -6.644,7.401 m 17.409,-29.73 0,26.45 5.424,0 0,2.985 -14.129,0 0,-2.985 5.425,0 0,-26.45 3.28,0 z m 7.863,29.435 0,-29.435 3.28,0 0,11.606 2.901,0 c 4.668,0 6.854,2.439 6.854,7.107 l 0,3.532 c 0,4.457 -1.976,7.19 -6.601,7.19 l -6.434,0 z m 3.28,-14.885 0,11.9 3.154,0 c 2.397,0 3.364,-1.346 3.364,-4.037 l 0,-3.911 c 0,-2.817 -1.178,-3.952 -3.617,-3.952 l -2.901,0 z m 27.459,14.885 -3.407,0 -2.649,-10.218 -1.724,-7.401 -2.018,7.401 -2.986,10.218 -3.28,0 6.771,-21.698 -0.673,-1.934 c -0.547,-2.228 -1.682,-3.027 -4.205,-2.901 l 0,-2.944 c 5.34,-0.252 6.854,2.103 7.863,6.518 l 6.308,22.959 z m 13.708,-29.435 3.363,0 -7.694,16.021 7.442,13.414 -3.322,0 -7.821,-14.213 0,14.213 -3.28,0 0,-29.435 3.28,0 0,9.882 1.724,2.902 6.308,-12.784 z m 22.202,-3.952 0,6.854 -2.228,0 0,26.533 -3.323,0 0,-26.449 -7.232,0 0,26.449 -3.238,0 0,-29.435 12.825,0 0,-3.952 3.196,0 z m 13.75,27.374 0,-23.422 2.944,0 0,29.435 -3.659,0 -4.289,-12.657 -3.027,-9.293 0,21.95 -2.902,0 0,-29.435 3.406,0 4.373,13.666 3.154,9.756 z m 16.19,-10.849 0,-12.573 3.279,0 0,29.435 -6.559,0 c -4.626,0 -6.56,-2.355 -6.56,-6.728 l 0,-2.396 c 0,-3.239 1.135,-5.257 3.616,-6.056 -2.649,-0.799 -3.658,-2.985 -3.658,-6.139 l 0,-4.584 c 0,-1.303 -0.084,-2.522 -0.589,-3.532 l 3.322,0 c 0.378,0.841 0.546,1.598 0.546,3.575 l 0,4.625 c 0,3.322 1.556,4.373 4.29,4.373 l 2.313,0 z m 0,13.877 0,-10.891 -2.482,0 c -2.565,0 -4.121,0.841 -4.121,4.036 l 0,2.818 c 0,2.649 0.968,4.037 3.407,4.037 l 3.196,0 z" /></g><g
           transform="translate(217.5136,16.4465)"
           id="g34"><path
             id="path36"
             style="fill:#2b2b2a;fill-opacity:1;fill-rule:nonzero;stroke:none"
             d="M 0,0 C 1.056,0 1.812,0.222 2.27,0.665 2.727,1.108 2.955,1.837 2.955,2.85 2.955,3.905 2.727,4.662 2.27,5.119 1.812,5.576 1.056,5.806 0,5.806 l -1.479,0 0,1.477 1.267,0 c 0.957,0 1.654,0.215 2.091,0.644 0.435,0.429 0.654,1.094 0.654,1.995 0,0.844 -0.219,1.477 -0.654,1.9 -0.437,0.422 -1.134,0.633 -2.091,0.633 l -2.533,0 0,0.95 c 0.155,0.056 0.345,0.109 0.57,0.158 0.225,0.05 0.465,0.095 0.718,0.138 0.253,0.042 0.507,0.073 0.76,0.095 0.254,0.021 0.485,0.031 0.697,0.031 1.59,0 2.727,-0.32 3.409,-0.96 C 4.092,12.226 4.433,11.245 4.433,9.922 4.433,9.078 4.274,8.402 3.958,7.896 3.642,7.389 3.166,6.987 2.533,6.692 l 0,-0.085 C 3.377,6.368 3.976,5.907 4.327,5.225 4.679,4.542 4.855,3.75 4.855,2.85 4.855,2.104 4.771,1.467 4.602,0.939 4.433,0.411 4.158,-0.024 3.778,-0.369 3.398,-0.715 2.898,-0.968 2.279,-1.13 1.66,-1.291 0.9,-1.372 0,-1.372 c -0.535,0 -1.081,0.042 -1.637,0.127 -0.555,0.084 -0.995,0.183 -1.319,0.295 L -2.956,0 0,0 Z" /></g><g
           transform="translate(229.166,27.9519)"
           id="g38"><path
             id="path40"
             style="fill:#2b2b2a;fill-opacity:1;fill-rule:nonzero;stroke:none"
             d="m 0,0 -0.085,0 -1.752,-7.389 3.589,0 L 0,0 Z m -2.153,-8.867 -0.951,-3.8 -1.9,0 3.589,14.778 2.744,0 3.589,-14.778 -1.899,0 -0.951,3.8 -4.221,0 z" /></g><g
           transform="translate(238.4121,22.3577)"
           id="g42"><path
             id="path44"
             style="fill:#2b2b2a;fill-opacity:1;fill-rule:nonzero;stroke:none"
             d="m 0,0 0,-5.911 1.478,0 c 1.055,0 1.811,0.222 2.269,0.665 0.457,0.443 0.686,1.172 0.686,2.184 0,1.113 -0.229,1.901 -0.686,2.365 C 3.289,-0.232 2.533,0 1.478,0 L 0,0 Z M 1.267,1.372 C 2.955,1.372 3.8,2.251 3.8,4.011 3.8,5.7 2.955,6.544 1.267,6.544 l -1.267,0 0,-5.172 1.267,0 z m 2.744,-0.57 c 0.844,-0.24 1.442,-0.704 1.794,-1.394 0.352,-0.689 0.528,-1.512 0.528,-2.47 0,-0.746 -0.085,-1.382 -0.254,-1.91 C 5.911,-5.5 5.637,-5.936 5.256,-6.28 4.876,-6.626 4.377,-6.879 3.758,-7.041 c -0.62,-0.161 -1.38,-0.242 -2.28,-0.242 -0.634,0 -1.221,0.031 -1.763,0.095 -0.542,0.063 -1.08,0.171 -1.615,0.327 l 0,14.355 c 0.535,0.154 1.073,0.264 1.615,0.327 0.542,0.064 1.129,0.095 1.763,0.095 1.491,0 2.568,-0.32 3.229,-0.96 C 5.369,6.315 5.699,5.333 5.699,4.011 5.699,3.377 5.576,2.786 5.33,2.237 5.084,1.688 4.645,1.238 4.011,0.886 l 0,-0.084 z" /></g><g
           transform="translate(251.7128,16.3411)"
           id="g46"><path
             id="path48"
             style="fill:#2b2b2a;fill-opacity:1;fill-rule:nonzero;stroke:none"
             d="M 0,0 C 0.337,0 0.668,0.091 0.992,0.274 1.315,0.457 1.597,0.788 1.836,1.267 2.075,1.745 2.269,2.393 2.417,3.209 2.564,4.024 2.639,5.066 2.639,6.333 2.639,7.6 2.564,8.641 2.417,9.458 2.269,10.273 2.075,10.921 1.836,11.399 1.597,11.878 1.315,12.208 0.992,12.392 0.668,12.574 0.337,12.666 0,12.666 c -0.338,0 -0.669,-0.092 -0.992,-0.274 C -1.316,12.208 -1.598,11.878 -1.837,11.399 -2.076,10.921 -2.27,10.273 -2.418,9.458 -2.565,8.641 -2.64,7.6 -2.64,6.333 -2.64,5.066 -2.565,4.024 -2.418,3.209 -2.27,2.393 -2.076,1.745 -1.837,1.267 -1.598,0.788 -1.316,0.457 -0.992,0.274 -0.669,0.091 -0.338,0 0,0 m 0,13.933 c 0.718,0 1.354,-0.12 1.91,-0.359 C 2.466,13.334 2.94,12.926 3.335,12.35 3.729,11.772 4.028,10.995 4.232,10.017 4.437,9.039 4.538,7.811 4.538,6.333 4.538,4.855 4.437,3.627 4.232,2.649 4.028,1.671 3.729,0.894 3.335,0.316 2.94,-0.261 2.466,-0.669 1.91,-0.908 1.354,-1.147 0.718,-1.267 0,-1.267 c -0.718,0 -1.355,0.12 -1.911,0.359 -0.556,0.239 -1.031,0.647 -1.425,1.224 -0.394,0.578 -0.693,1.355 -0.897,2.333 -0.204,0.978 -0.306,2.206 -0.306,3.684 0,1.478 0.102,2.706 0.306,3.684 0.204,0.978 0.503,1.755 0.897,2.333 0.394,0.576 0.869,0.984 1.425,1.224 0.556,0.239 1.193,0.359 1.911,0.359" /></g><g
           transform="translate(265.3281,16.7629)"
           id="g50"><path
             id="path52"
             style="fill:#2b2b2a;fill-opacity:1;fill-rule:nonzero;stroke:none"
             d="m 0,0 0,11.822 -3.124,0 -0.359,-7.494 C -3.512,3.61 -3.582,2.983 -3.694,2.449 -3.807,1.914 -3.927,1.464 -4.053,1.098 -4.208,0.676 -4.369,0.31 -4.538,0 L 0,0 Z M -5.699,-1.478 C -5.812,-2.744 -6.023,-3.8 -6.333,-4.645 l -1.161,0 0,4.645 1.056,0 c 0.168,0.31 0.33,0.676 0.485,1.098 0.127,0.366 0.246,0.816 0.359,1.351 0.113,0.534 0.183,1.161 0.211,1.879 l 0.422,8.972 6.861,0 0,-13.3 1.372,0 0,-4.645 -1.161,0 C 1.787,-3.8 1.576,-2.744 1.478,-1.478 l -7.177,0 z" /></g><g
           transform="translate(282.3222,17.1858)"
           id="g54"><path
             id="path56"
             style="fill:#2b2b2a;fill-opacity:1;fill-rule:nonzero;stroke:none"
             d="m 0,0 -3.062,9.077 -0.105,0 -0.634,-10.977 -1.899,0 0.845,14.777 2.322,0 3.44,-10.133 0.085,0 3.441,10.133 2.322,0 L 7.6,-1.9 5.699,-1.9 5.066,9.077 4.961,9.077 1.899,0 0,0 Z" /></g><g
           transform="translate(294.9882,16.7629)"
           id="g58"><path
             id="path60"
             style="fill:#2b2b2a;fill-opacity:1;fill-rule:nonzero;stroke:none"
             d="m 0,0 5.277,0 0,-1.478 -7.177,0 0,14.778 7.177,0 0,-1.478 -5.277,0 0,-4.855 4.645,0 0,-1.478 L 0,5.489 0,0 Z" /></g><g
           transform="translate(301.8486,30.0627)"
           id="g62"><path
             id="path64"
             style="fill:#2b2b2a;fill-opacity:1;fill-rule:nonzero;stroke:none"
             d="m 0,0 8.655,0 0,-1.478 -3.378,0 0,-13.299 -1.899,0 0,13.299 L 0,-1.478 0,0 Z" /></g><g
           transform="translate(315.6132,27.9519)"
           id="g66"><path
             id="path68"
             style="fill:#2b2b2a;fill-opacity:1;fill-rule:nonzero;stroke:none"
             d="m 0,0 -0.085,0 -1.752,-7.389 3.589,0 L 0,0 Z m -2.153,-8.867 -0.951,-3.8 -1.9,0 3.589,14.778 2.744,0 3.589,-14.778 -1.899,0 -0.951,3.8 -4.221,0 z" /></g><g
           transform="translate(322.748,15.0745)"
           id="g70"><path
             id="path72"
             style="fill:#2b2b2a;fill-opacity:1;fill-rule:nonzero;stroke:none"
             d="m 0,0 c -0.352,0 -0.654,0.035 -0.908,0.105 -0.141,0.029 -0.26,0.064 -0.359,0.106 l 0,0.95 c 0.296,0 0.563,0.056 0.802,0.169 0.239,0.112 0.451,0.306 0.634,0.58 0.183,0.275 0.334,0.634 0.454,1.077 0.119,0.444 0.193,0.995 0.222,1.658 l 0.527,10.343 7.072,0 0,-14.777 -1.9,0 0,13.3 -3.335,0 L 2.744,4.645 C 2.702,3.8 2.6,3.082 2.438,2.491 2.276,1.899 2.072,1.421 1.826,1.056 1.58,0.689 1.298,0.422 0.981,0.253 0.665,0.084 0.338,0 0,0" /></g><g
           transform="translate(334.4648,15.0745)"
           id="g74"><path
             id="path76"
             style="fill:#2b2b2a;fill-opacity:1;fill-rule:nonzero;stroke:none"
             d="m 0,0 c -0.352,0 -0.654,0.035 -0.908,0.105 -0.141,0.029 -0.26,0.064 -0.359,0.106 l 0,0.95 c 0.296,0 0.563,0.056 0.802,0.169 0.239,0.112 0.451,0.306 0.634,0.58 0.183,0.275 0.334,0.634 0.454,1.077 0.119,0.444 0.193,0.995 0.222,1.658 l 0.527,10.343 7.072,0 0,-14.777 -1.9,0 0,13.3 -3.335,0 L 2.744,4.645 C 2.702,3.8 2.6,3.082 2.438,2.491 2.276,1.899 2.072,1.421 1.826,1.056 1.58,0.689 1.298,0.422 0.981,0.253 0.665,0.084 0.338,0 0,0" /></g><g
           transform="translate(350.5087,16.3411)"
           id="g78"><path
             id="path80"
             style="fill:#2b2b2a;fill-opacity:1;fill-rule:nonzero;stroke:none"
             d="M 0,0 C 0.337,0 0.668,0.091 0.992,0.274 1.315,0.457 1.597,0.788 1.836,1.267 2.075,1.745 2.269,2.393 2.417,3.209 2.564,4.024 2.639,5.066 2.639,6.333 2.639,7.6 2.564,8.641 2.417,9.458 2.269,10.273 2.075,10.921 1.836,11.399 1.597,11.878 1.315,12.208 0.992,12.392 0.668,12.574 0.337,12.666 0,12.666 c -0.338,0 -0.669,-0.092 -0.992,-0.274 C -1.316,12.208 -1.598,11.878 -1.837,11.399 -2.076,10.921 -2.27,10.273 -2.418,9.458 -2.565,8.641 -2.64,7.6 -2.64,6.333 -2.64,5.066 -2.565,4.024 -2.418,3.209 -2.27,2.393 -2.076,1.745 -1.837,1.267 -1.598,0.788 -1.316,0.457 -0.992,0.274 -0.669,0.091 -0.338,0 0,0 m 0,13.933 c 0.718,0 1.354,-0.12 1.91,-0.359 C 2.466,13.334 2.94,12.926 3.335,12.35 3.729,11.772 4.028,10.995 4.232,10.017 4.437,9.039 4.538,7.811 4.538,6.333 4.538,4.855 4.437,3.627 4.232,2.649 4.028,1.671 3.729,0.894 3.335,0.316 2.94,-0.261 2.466,-0.669 1.91,-0.908 1.354,-1.147 0.718,-1.267 0,-1.267 c -0.718,0 -1.355,0.12 -1.911,0.359 -0.556,0.239 -1.031,0.647 -1.425,1.224 -0.394,0.578 -0.693,1.355 -0.897,2.333 -0.204,0.978 -0.306,2.206 -0.306,3.684 0,1.478 0.102,2.706 0.306,3.684 0.204,0.978 0.503,1.755 0.897,2.333 0.394,0.576 0.869,0.984 1.425,1.224 0.556,0.239 1.193,0.359 1.911,0.359" /></g><g
           transform="translate(362.6474,22.9485)"
           id="g82"><path
             id="path84"
             style="fill:#2b2b2a;fill-opacity:1;fill-rule:nonzero;stroke:none"
             d="m 0,0 c 0.267,-0.071 0.51,-0.162 0.729,-0.274 0.217,-0.114 0.415,-0.268 0.59,-0.465 0.176,-0.198 0.33,-0.447 0.465,-0.749 0.133,-0.303 0.242,-0.672 0.327,-1.109 l 0.528,-2.744 c 0.07,-0.366 0.235,-0.686 0.496,-0.961 0.261,-0.274 0.658,-0.411 1.192,-0.411 l 0,-0.95 C 4.229,-7.705 4.109,-7.74 3.969,-7.769 3.716,-7.839 3.412,-7.874 3.061,-7.874 c -0.633,0 -1.158,0.211 -1.573,0.633 -0.415,0.423 -0.7,1.055 -0.855,1.9 l -0.528,2.744 c -0.14,0.746 -0.39,1.249 -0.749,1.51 -0.359,0.26 -0.778,0.391 -1.256,0.391 l -0.739,0 0,-6.967 -1.9,0 0,14.777 1.9,0 0,-6.333 0.739,0 c 0.366,0 0.711,0.134 1.035,0.401 0.323,0.267 0.576,0.767 0.76,1.499 L 0.422,4.792 C 0.845,6.481 1.653,7.325 2.85,7.325 3.032,7.325 3.201,7.315 3.356,7.294 3.511,7.272 3.645,7.248 3.758,7.22 3.898,7.178 4.018,7.142 4.116,7.114 l 0,-0.95 C 3.581,6.164 3.194,6.041 2.955,5.795 2.716,5.548 2.54,5.214 2.428,4.792 L 1.899,2.681 C 1.787,2.245 1.671,1.875 1.552,1.573 1.432,1.27 1.295,1.02 1.14,0.823 0.984,0.626 0.816,0.471 0.633,0.359 0.45,0.246 0.239,0.155 0,0.084 L 0,0 Z" /></g><g
           transform="translate(372.9921,16.3411)"
           id="g86"><path
             id="path88"
             style="fill:#2b2b2a;fill-opacity:1;fill-rule:nonzero;stroke:none"
             d="M 0,0 C 0.337,0 0.668,0.091 0.992,0.274 1.315,0.457 1.597,0.788 1.836,1.267 2.075,1.745 2.269,2.393 2.417,3.209 2.564,4.024 2.639,5.066 2.639,6.333 2.639,7.6 2.564,8.641 2.417,9.458 2.269,10.273 2.075,10.921 1.836,11.399 1.597,11.878 1.315,12.208 0.992,12.392 0.668,12.574 0.337,12.666 0,12.666 c -0.338,0 -0.669,-0.092 -0.992,-0.274 C -1.316,12.208 -1.598,11.878 -1.837,11.399 -2.076,10.921 -2.27,10.273 -2.418,9.458 -2.565,8.641 -2.64,7.6 -2.64,6.333 -2.64,5.066 -2.565,4.024 -2.418,3.209 -2.27,2.393 -2.076,1.745 -1.837,1.267 -1.598,0.788 -1.316,0.457 -0.992,0.274 -0.669,0.091 -0.338,0 0,0 m 0,13.933 c 0.718,0 1.354,-0.12 1.91,-0.359 C 2.466,13.334 2.94,12.926 3.335,12.35 3.729,11.772 4.028,10.995 4.232,10.017 4.437,9.039 4.538,7.811 4.538,6.333 4.538,4.855 4.437,3.627 4.232,2.649 4.028,1.671 3.729,0.894 3.335,0.316 2.94,-0.261 2.466,-0.669 1.91,-0.908 1.354,-1.147 0.718,-1.267 0,-1.267 c -0.718,0 -1.355,0.12 -1.911,0.359 -0.556,0.239 -1.031,0.647 -1.425,1.224 -0.394,0.578 -0.693,1.355 -0.897,2.333 -0.204,0.978 -0.306,2.206 -0.306,3.684 0,1.478 0.102,2.706 0.306,3.684 0.204,0.978 0.503,1.755 0.897,2.333 0.394,0.576 0.869,0.984 1.425,1.224 0.556,0.239 1.193,0.359 1.911,0.359" /></g><g
           transform="translate(388.8242,30.0627)"
           id="g90"><path
             id="path92"
             style="fill:#2b2b2a;fill-opacity:1;fill-rule:nonzero;stroke:none"
             d="m 0,0 0,-14.777 -1.9,0 0,6.755 -4.433,0 0,-6.755 -1.9,0 0,14.777 1.9,0 0,-6.544 4.433,0 L -1.9,0 0,0 Z" /></g><g
           transform="translate(396.5302,15.0745)"
           id="g94"><path
             id="path96"
             style="fill:#2b2b2a;fill-opacity:1;fill-rule:nonzero;stroke:none"
             d="m 0,0 c -0.746,0 -1.404,0.119 -1.975,0.358 -0.569,0.24 -1.054,0.648 -1.456,1.225 -0.401,0.577 -0.704,1.355 -0.908,2.333 -0.204,0.978 -0.306,2.206 -0.306,3.684 0,1.477 0.102,2.705 0.306,3.683 0.204,0.978 0.496,1.756 0.876,2.333 0.381,0.577 0.845,0.985 1.394,1.224 0.548,0.24 1.168,0.359 1.857,0.359 0.634,0 1.238,-0.042 1.816,-0.126 0.577,-0.085 1.027,-0.183 1.351,-0.296 l 0,-0.95 -2.744,0 c -0.423,0 -0.813,-0.092 -1.172,-0.274 C -1.319,13.37 -1.633,13.042 -1.9,12.571 -2.168,12.1 -2.375,11.463 -2.523,10.661 -2.671,9.858 -2.745,8.838 -2.745,7.6 -2.745,6.361 -2.668,5.341 -2.513,4.539 -2.357,3.736 -2.144,3.1 -1.868,2.628 -1.594,2.156 -1.264,1.829 -0.876,1.646 -0.489,1.464 -0.057,1.372 0.422,1.372 l 2.744,0 0,-0.95 C 2.843,0.31 2.392,0.211 1.815,0.127 1.238,0.042 0.633,0 0,0" /></g><g
           transform="translate(400.7519,30.0627)"
           id="g98"><path
             id="path100"
             style="fill:#2b2b2a;fill-opacity:1;fill-rule:nonzero;stroke:none"
             d="m 0,0 8.655,0 0,-1.478 -3.378,0 0,-13.299 -1.899,0 0,13.299 L 0,-1.478 0,0 Z" /></g><g
           transform="translate(415.0009,21.0911)"
           id="g102"><path
             id="path104"
             style="fill:#2b2b2a;fill-opacity:1;fill-rule:nonzero;stroke:none"
             d="m 0,0 c 0.479,0 0.89,0.06 1.235,0.179 0.345,0.12 0.629,0.328 0.855,0.623 0.224,0.296 0.39,0.697 0.496,1.203 0.105,0.507 0.158,1.14 0.158,1.9 0,0.76 -0.053,1.393 -0.158,1.9 C 2.48,6.312 2.314,6.713 2.09,7.008 1.864,7.304 1.58,7.511 1.235,7.631 0.89,7.75 0.479,7.811 0,7.811 l -1.478,0 L -1.478,0 0,0 Z m -1.478,-5.806 -1.9,0 0,14.567 c 0.535,0.154 1.073,0.263 1.615,0.327 C -1.221,9.151 -0.634,9.183 0,9.183 0.845,9.183 1.562,9.095 2.153,8.919 2.744,8.743 3.223,8.451 3.589,8.043 3.954,7.634 4.222,7.093 4.391,6.417 4.56,5.742 4.645,4.904 4.645,3.905 4.645,2.877 4.563,2.019 4.401,1.329 4.239,0.64 3.993,0.088 3.663,-0.327 3.332,-0.743 2.916,-1.038 2.417,-1.214 1.917,-1.391 1.322,-1.478 0.633,-1.478 c -0.323,0 -0.69,0.021 -1.098,0.063 -0.408,0.043 -0.746,0.092 -1.013,0.148 l 0,-4.539 z" /></g><g
           transform="translate(424.7333,15.0745)"
           id="g106"><path
             id="path108"
             style="fill:#2b2b2a;fill-opacity:1;fill-rule:nonzero;stroke:none"
             d="m 0,0 c -0.324,0 -0.676,0.042 -1.056,0.127 -0.38,0.084 -0.732,0.183 -1.055,0.295 l 0,0.95 1.477,0 c 0.281,0 0.538,0.046 0.771,0.137 0.232,0.092 0.439,0.254 0.623,0.486 0.182,0.232 0.344,0.545 0.485,0.94 0.141,0.393 0.275,0.893 0.401,1.498 -0.886,0 -1.58,0.225 -2.08,0.675 -0.499,0.451 -0.854,1.07 -1.065,1.858 l -2.217,8.022 1.901,0 L 0.4,6.966 C 0.626,6.192 1.133,5.806 1.921,5.806 l 1.857,9.182 1.901,0 L 3.377,3.589 C 3.124,2.322 2.733,1.407 2.206,0.845 1.678,0.281 0.942,0 0,0" /></g><g
           transform="translate(437.3779,22.9485)"
           id="g110"><path
             id="path112"
             style="fill:#2b2b2a;fill-opacity:1;fill-rule:nonzero;stroke:none"
             d="m 0,0 c 0.267,-0.071 0.51,-0.162 0.729,-0.274 0.217,-0.114 0.415,-0.268 0.59,-0.465 0.176,-0.198 0.33,-0.447 0.465,-0.749 0.133,-0.303 0.242,-0.672 0.327,-1.109 l 0.528,-2.744 c 0.07,-0.366 0.235,-0.686 0.496,-0.961 0.261,-0.274 0.658,-0.411 1.192,-0.411 l 0,-0.95 C 4.229,-7.705 4.109,-7.74 3.969,-7.769 3.716,-7.839 3.412,-7.874 3.061,-7.874 c -0.633,0 -1.158,0.211 -1.573,0.633 -0.415,0.423 -0.7,1.055 -0.855,1.9 l -0.528,2.744 c -0.14,0.746 -0.39,1.249 -0.749,1.51 -0.359,0.26 -0.778,0.391 -1.256,0.391 l -0.739,0 0,-6.967 -1.9,0 0,14.777 1.9,0 0,-6.333 0.739,0 c 0.366,0 0.711,0.134 1.035,0.401 0.323,0.267 0.576,0.767 0.76,1.499 L 0.422,4.792 C 0.845,6.481 1.653,7.325 2.85,7.325 3.032,7.325 3.201,7.315 3.356,7.294 3.511,7.272 3.645,7.248 3.758,7.22 3.898,7.178 4.018,7.142 4.116,7.114 l 0,-0.95 C 3.581,6.164 3.194,6.041 2.955,5.795 2.716,5.548 2.54,5.214 2.428,4.792 L 1.899,2.681 C 1.787,2.245 1.671,1.875 1.552,1.573 1.432,1.27 1.295,1.02 1.14,0.823 0.984,0.626 0.816,0.471 0.633,0.359 0.45,0.246 0.239,0.155 0,0.084 L 0,0 Z" /></g><g
           transform="translate(443.8163,15.2854)"
           id="g114"><path
             id="path116"
             style="fill:#2b2b2a;fill-opacity:1;fill-rule:nonzero;stroke:none"
             d="m 0,0 0,14.777 1.9,0 0,-13.299 4.222,0 0,13.299 1.9,0 0,-13.299 1.373,0 0,-4.645 -1.162,0 C 7.909,-2.322 7.698,-1.267 7.6,0 L 0,0 Z" /></g><g
           transform="translate(462.288,26.2629)"
           id="g118"><path
             id="path120"
             style="fill:#2b2b2a;fill-opacity:1;fill-rule:nonzero;stroke:none"
             d="m 0,0 -0.106,0 -4.328,-10.978 -2.111,0 0,14.778 1.9,0 0,-10.978 0.106,0 4.222,10.978 2.216,0 0,-14.778 -1.899,0 L 0,0 Z" /></g><g
           transform="translate(471.8935,32.8069)"
           id="g122"><path
             id="path124"
             style="fill:#2b2b2a;fill-opacity:1;fill-rule:nonzero;stroke:none"
             d="M 0,0 C 0.478,0 0.896,0.106 1.256,0.317 1.614,0.528 1.899,0.739 2.11,0.95 L 2.955,0.106 C 2.688,-0.373 2.301,-0.756 1.794,-1.045 1.287,-1.333 0.689,-1.478 0,-1.478 c -0.69,0 -1.288,0.145 -1.795,0.433 -0.507,0.289 -0.893,0.672 -1.161,1.151 L -2.111,0.95 C -1.9,0.739 -1.615,0.528 -1.257,0.317 -0.897,0.106 -0.479,0 0,0 m 2.322,-6.544 -0.106,0 -4.327,-10.977 -2.112,0 0,14.777 1.901,0 0,-10.978 0.105,0 4.222,10.978 2.217,0 0,-14.777 -1.9,0 0,10.977 z" /></g></g></g></g></svg>