<?xml version="1.0" encoding="utf-8"?>
<!-- Generator: Adobe Illustrator 19.1.1, SVG Export Plug-In . SVG Version: 6.00 Build 0)  -->
<svg version="1.1" id="Слой_1" xmlns="http://www.w3.org/2000/svg" xmlns:xlink="http://www.w3.org/1999/xlink" x="0px" y="0px"
	 viewBox="0 0 116 104" style="enable-background:new 0 0 116 104;" xml:space="preserve">
<style type="text/css">
	.st0{fill:#FFFFFF;}
</style>
<g>
	<g>
		<g>
			<path class="st0" d="M47,25.5l-5.7-5.8l-0.1-0.1L41,19.5l0,0l-0.1,0l-0.1-0.1l0,0l0,0l0,0l0,0l0,0l0,0l0,0v0l-0.1,0v0
				c-0.1-0.1-0.2-0.2-0.3-0.2l0,0l0,0v0l0,0l0,0l-0.1-0.1v0l-0.1-0.1v0c-0.2-0.1-0.4-0.2-0.6-0.3l0,0l0,0l-0.2-0.1l-0.1,0
				c-0.2-0.1-0.5-0.1-0.7-0.2h0l0,0v0c-0.2,0-0.5-0.1-0.7-0.1c-0.2,0-0.5,0-0.7,0c-1.2,0.1-2.5,0.6-3.4,1.6l0,0l-0.2,0.2l-0.1,0.1
				c-0.2,0.2-0.4,0.5-0.5,0.7v0l-0.1,0.2l0,0L32.6,21v0c-0.1,0.3-0.3,0.5-0.3,0.8l0,0l0,0c-0.1,0.3-0.2,0.5-0.2,0.8l0,0
				c-0.1,0.3-0.1,0.6-0.1,0.8c0,1.4,0.5,2.9,1.6,4v0l0.5,0.4c0.1,0.1,0.2,0.2,0.3,0.2l1.4,0.9l1,0.7l-1,0.7l-1.3,1l0,0l-0.1,0.1l0,0
				l0,0l-0.1,0.1l-0.1,0L34,31.7l0,0l0,0l-0.1,0.1v0l-0.1,0.1h0l-0.1,0.1l-0.2,0.2l0,0l-0.2,0.2c-0.1,0.1-0.2,0.2-0.2,0.3v0
				c-0.1,0.2-0.2,0.3-0.3,0.5c-0.5,0.9-0.8,1.9-0.8,2.9v0h0c0,0.7,0.1,1.4,0.4,2v0c0,0.1,0.1,0.2,0.1,0.3v0c0.2,0.5,0.5,0.9,0.9,1.3
				l0.2,0.2l0,0l0,0l0.2,0.2c0.1,0.1,0.2,0.2,0.3,0.2l0,0c0.2,0.1,0.3,0.2,0.5,0.3c0.9,0.5,1.9,0.8,2.9,0.8h0v0c0.7,0,1.4-0.1,2-0.4
				c0.1,0,0.2-0.1,0.3-0.1c0.5-0.2,1-0.6,1.4-1l0,0l0,0l0,0l0,0l0.6-0.6l0,0l9.4-9.4L47,25.5L47,25.5z M44.2,16.8l5.7,5.8l5.8,5.8
				l0.8,0.8l0.6,0.6l-0.6,0.6l-0.8,0.8L44.4,42.5l-0.2,0.2l0,0l0,0l0,0L44,42.8l0,0l0,0c-0.2,0.2-0.4,0.4-0.7,0.6
				c-0.3,0.2-0.6,0.4-0.9,0.6v0c-1.5,1-3.3,1.5-5.1,1.5h0v0c-1.2,0-2.5-0.2-3.6-0.7c-0.2-0.1-0.4-0.2-0.6-0.2
				c-0.8-0.4-1.6-0.9-2.3-1.6h0l-0.3-0.3l0,0l0,0l-0.3-0.3v0c-0.2-0.2-0.3-0.4-0.5-0.6c-0.2-0.3-0.4-0.6-0.6-0.9
				c-1-1.5-1.5-3.3-1.5-5.1c0-2.2,0.8-4.4,2.3-6.2c-0.2-0.2-0.3-0.4-0.5-0.6c-0.3-0.4-0.6-0.9-0.8-1.3c-1.2-2.3-1.3-5-0.5-7.4v0l0,0
				c0-0.1,0.1-0.2,0.1-0.3c0-0.1,0.1-0.2,0.1-0.3c0.2-0.5,0.4-0.9,0.7-1.3v0l0,0c0-0.1,0.1-0.2,0.2-0.2c0.1-0.1,0.1-0.2,0.2-0.2
				c0.2-0.3,0.5-0.6,0.8-0.9v0l0.3-0.3l0,0l0,0h0c0.3-0.3,0.7-0.6,1-0.9c0.4-0.3,0.7-0.5,1.1-0.7c2-1.1,4.3-1.4,6.4-1l0,0
				c0,0,0.1,0,0.2,0.1l0,0c0,0,0.1,0,0.2,0.1c0.4,0.1,0.8,0.2,1.2,0.4h0l0,0l0,0l0.2,0.1l0,0c0.1,0,0.2,0.1,0.2,0.1v0
				c0.4,0.2,0.8,0.4,1.2,0.6l0,0l0,0l0,0l0,0l0,0l0,0l0.1,0.1l0,0l0,0l0,0l0.1,0.1l0,0c0.2,0.1,0.3,0.2,0.5,0.4l0,0l0.1,0.1l0.1,0.1
				l0,0l0,0l0,0l0,0l0.1,0.1l0.1,0.1l0.1,0.1l0,0l0,0v0l0,0v0l0,0L44.2,16.8L44.2,16.8L44.2,16.8L44.2,16.8L44.2,16.8z"/>
		</g>
	</g>
</g>
<g>
	<g>
		<g>
			<path class="st0" d="M68.1,25.5l-4.3,4.3l9.4,9.4l0,0l0.6,0.6l0,0l0,0l0,0l0,0c0.4,0.4,0.9,0.7,1.4,1c0.1,0,0.2,0.1,0.3,0.1
				c0.7,0.3,1.4,0.4,2,0.4v0h0c1,0,2-0.3,2.9-0.8c0.2-0.1,0.3-0.2,0.5-0.3l0,0c0.1-0.1,0.2-0.2,0.3-0.2l0.2-0.2l0,0l0,0l0.2-0.2
				c0.4-0.4,0.6-0.8,0.9-1.3v0c0.1-0.1,0.1-0.2,0.1-0.3v0c0.3-0.7,0.4-1.4,0.4-2h0v0c0-1-0.3-2-0.8-2.9c-0.1-0.2-0.2-0.3-0.3-0.5v0
				c-0.1-0.1-0.2-0.2-0.2-0.3l-0.2-0.2l0,0l-0.2-0.2l-0.1-0.1h0l-0.1-0.1v0l-0.1-0.1l0,0l0,0L81,31.6l-0.1,0l-0.1-0.1l0,0l0,0
				l-0.1-0.1l0,0l-1.3-1l-1-0.7l1-0.7l1.4-0.9c0.1-0.1,0.2-0.2,0.3-0.2l0.5-0.4v0c1.1-1.1,1.6-2.6,1.6-4c0-0.3,0-0.6-0.1-0.8l0,0
				c-0.1-0.3-0.1-0.6-0.2-0.8l0,0l0,0c-0.1-0.3-0.2-0.5-0.3-0.8v0l-0.1-0.1l0,0l-0.1-0.2v0c-0.2-0.2-0.3-0.5-0.5-0.7l-0.1-0.1
				l-0.2-0.2l0,0c-1-1-2.2-1.5-3.4-1.6c-0.3,0-0.5,0-0.7,0c-0.2,0-0.5,0-0.7,0.1v0l0,0h0c-0.2,0-0.5,0.1-0.7,0.2l-0.1,0l-0.2,0.1
				l0,0l0,0c-0.2,0.1-0.4,0.2-0.6,0.3v0l-0.1,0.1v0L74.8,19l0,0l0,0v0l0,0l0,0c-0.1,0.1-0.2,0.1-0.3,0.2v0l-0.1,0v0l0,0l0,0l0,0l0,0
				l0,0l0,0l0,0l-0.1,0.1l-0.1,0l0,0L74,19.6l-0.1,0.1L68.1,25.5L68.1,25.5z M71,16.8L71,16.8L71,16.8L71,16.8l0.2-0.2l0,0v0l0,0v0
				l0,0l0,0l0.1-0.1l0.1-0.1l0.1-0.1l0,0l0,0l0,0l0,0l0.1-0.1l0.1-0.1l0,0c0.2-0.1,0.3-0.3,0.5-0.4l0,0l0.1-0.1l0,0l0,0l0,0l0.1-0.1
				l0,0l0,0l0,0l0,0l0,0l0,0c0.4-0.2,0.7-0.4,1.2-0.6v0c0.1,0,0.1-0.1,0.2-0.1l0,0l0.2-0.1l0,0l0,0h0c0.4-0.2,0.8-0.3,1.2-0.4
				c0.1,0,0.2,0,0.2-0.1l0,0c0.1,0,0.2,0,0.2-0.1l0,0c2.2-0.4,4.5-0.1,6.4,1c0.4,0.2,0.8,0.4,1.1,0.7c0.4,0.3,0.7,0.6,1,0.9h0l0,0
				l0,0l0.3,0.3v0c0.3,0.3,0.5,0.6,0.8,0.9c0,0,0.1,0.1,0.2,0.2c0.1,0.1,0.1,0.2,0.2,0.2l0,0v0c0.3,0.4,0.5,0.9,0.7,1.3
				c0,0.1,0.1,0.2,0.1,0.3c0,0.1,0.1,0.2,0.1,0.3l0,0v0c0.8,2.4,0.7,5.1-0.5,7.4c-0.2,0.5-0.5,0.9-0.8,1.3c-0.2,0.2-0.3,0.4-0.5,0.6
				c1.5,1.8,2.3,4,2.3,6.2c0,1.8-0.5,3.5-1.5,5.1c-0.2,0.3-0.4,0.6-0.6,0.9c-0.1,0.2-0.3,0.4-0.5,0.6v0l-0.3,0.3l0,0l0,0L84.2,43h0
				c-0.7,0.7-1.5,1.2-2.3,1.6c-0.2,0.1-0.4,0.2-0.6,0.2c-1.1,0.5-2.4,0.7-3.6,0.7v0h0c-1.8,0-3.5-0.5-5.1-1.5v0
				c-0.3-0.2-0.6-0.4-0.9-0.6c-0.2-0.2-0.5-0.4-0.7-0.6l0,0l0,0L71,42.7l0,0l0,0l0,0l-0.2-0.2L59.5,31.2l-0.8-0.8L58,29.8l0.6-0.6
				l0.8-0.8l5.8-5.8L71,16.8L71,16.8z"/>
		</g>
	</g>
</g>
<g>
	<g>
		<g>
			<path class="st0" d="M53.3,40.3L47.5,46l-0.1,0.1l-0.1,0.1l0,0l0,0.1l-0.1,0.1l0,0l0,0l0,0l0,0l0,0l0,0l0,0h0l0,0.1l0,0
				c-0.1,0.1-0.2,0.2-0.2,0.3l0,0l0,0l0,0l0,0l0,0l-0.1,0.1v0l-0.1,0.1h0c-0.1,0.2-0.2,0.4-0.3,0.6l0,0l0,0L46.2,48l0,0.1
				c-0.1,0.2-0.1,0.5-0.2,0.7v0l0,0h0c0,0.2-0.1,0.5-0.1,0.7c0,0.2,0,0.5,0,0.7c0.1,1.2,0.6,2.5,1.6,3.4l0,0l0.2,0.2l0.1,0.1
				c0.2,0.2,0.5,0.4,0.7,0.5l0,0l0.2,0.1v0l0.1,0.1l0,0c0.3,0.1,0.5,0.3,0.8,0.3l0,0l0,0c0.3,0.1,0.5,0.2,0.8,0.2l0,0
				c0.3,0.1,0.6,0.1,0.8,0.1c1.4,0,2.9-0.5,4-1.6h0l0.4-0.5c0.1-0.1,0.2-0.2,0.2-0.3l0.9-1.4l0.7-1l0.7,1l1,1.3l0,0l0.1,0.1l0,0l0,0
				l0.1,0.1l0,0.1l0.1,0.1l0,0l0,0l0.1,0.1h0l0.1,0.1v0l0.1,0.1l0.2,0.2l0,0l0.2,0.2c0.1,0.1,0.2,0.2,0.3,0.2h0
				c0.2,0.1,0.3,0.2,0.5,0.3c0.9,0.5,1.9,0.8,2.9,0.8h0v0c0.7,0,1.4-0.1,2-0.4h0c0.1,0,0.2-0.1,0.3-0.1h0c0.5-0.2,0.9-0.5,1.3-0.9
				l0.2-0.2l0,0l0,0l0.2-0.2c0.1-0.1,0.2-0.2,0.2-0.3l0,0c0.1-0.2,0.2-0.3,0.3-0.5c0.5-0.9,0.8-1.9,0.8-2.9v0h0c0-0.7-0.1-1.4-0.4-2
				c0-0.1-0.1-0.2-0.1-0.3c-0.2-0.5-0.6-1-1-1.4l0,0l0,0l0,0l0,0L67,45.4l0,0L57.6,36L53.3,40.3L53.3,40.3z M44.6,43.1l5.8-5.7
				l5.8-5.8l0.8-0.8l0.6-0.6l0.6,0.6l0.8,0.8l11.3,11.3l0.2,0.2l0,0l0,0l0,0l0.1,0.1l0,0l0,0c0.2,0.2,0.4,0.4,0.6,0.7
				c0.2,0.3,0.4,0.6,0.6,0.9h0c1,1.5,1.5,3.3,1.5,5.1v0h0c0,1.2-0.2,2.5-0.7,3.6c-0.1,0.2-0.2,0.4-0.2,0.6c-0.4,0.8-0.9,1.6-1.6,2.3
				v0l-0.3,0.3l0,0l0,0l-0.3,0.3h0c-0.2,0.2-0.4,0.3-0.6,0.5c-0.3,0.2-0.6,0.4-0.9,0.6c-1.5,1-3.3,1.4-5.1,1.4
				c-2.2,0-4.4-0.8-6.2-2.3c-0.2,0.2-0.4,0.3-0.6,0.5c-0.4,0.3-0.9,0.6-1.3,0.8c-2.3,1.2-5,1.3-7.4,0.5h0l0,0
				c-0.1,0-0.2-0.1-0.3-0.1c-0.1,0-0.2-0.1-0.3-0.1c-0.5-0.2-0.9-0.4-1.3-0.7v0l0,0c-0.1,0-0.2-0.1-0.2-0.2
				c-0.1-0.1-0.2-0.1-0.2-0.2c-0.3-0.2-0.6-0.5-0.9-0.8h0l-0.3-0.3l0,0l0,0v0c-0.3-0.3-0.6-0.7-0.9-1c-0.3-0.4-0.5-0.7-0.7-1.1
				c-1.1-2-1.4-4.3-1-6.4l0,0c0,0,0-0.1,0.1-0.2l0,0c0,0,0-0.1,0.1-0.2c0.1-0.4,0.2-0.8,0.4-1.2v0v0l0,0l0.1-0.2l0,0
				c0-0.1,0.1-0.2,0.1-0.2h0c0.2-0.4,0.4-0.8,0.6-1.2l0,0l0,0l0,0h0l0,0l0,0l0.1-0.1l0,0l0,0l0,0l0.1-0.1l0,0
				c0.1-0.2,0.2-0.3,0.4-0.5l0,0l0.1-0.1l0.1-0.1l0,0l0,0l0,0l0,0l0.1-0.1l0.1-0.1l0.1-0.1l0,0l0,0h0l0,0v0l0,0L44.6,43.1L44.6,43.1
				L44.6,43.1L44.6,43.1L44.6,43.1z"/>
		</g>
	</g>
</g>
<g>
	<g>
		<g>
			<path class="st0" d="M53.3,19.2l-5.8-5.7l-0.1-0.1l-0.1-0.1l0,0l0-0.1l-0.1-0.1l0,0l0,0l0,0l0,0l0,0l0,0l0,0l0,0l0-0.1l0,0
				c-0.1-0.1-0.2-0.2-0.2-0.3l0,0l0,0h0l0,0l0,0l-0.1-0.1v0l-0.1-0.1l0,0c-0.1-0.2-0.2-0.4-0.3-0.6v0l0,0l-0.1-0.2l0-0.1
				c-0.1-0.2-0.1-0.5-0.2-0.7v0l0,0h0c0-0.2-0.1-0.5-0.1-0.7c0-0.2,0-0.5,0-0.7c0.1-1.2,0.6-2.5,1.6-3.4l0,0l0.2-0.2l0.1-0.1
				C48,5.3,48.2,5.1,48.4,5l0,0l0.2-0.1v0l0.1-0.1l0,0c0.3-0.1,0.5-0.3,0.8-0.3v0l0,0c0.3-0.1,0.5-0.2,0.8-0.2v0
				c0.3,0,0.6-0.1,0.8-0.1c1.4,0,2.9,0.5,4,1.6l0,0l0.4,0.5c0.1,0.1,0.2,0.2,0.2,0.3l0.9,1.4l0.7,1l0.7-1l1-1.3l0,0l0.1-0.1l0,0l0,0
				l0.1-0.1l0-0.1l0.1-0.1l0,0l0,0l0.1-0.1l0,0l0.1-0.1l0,0l0.1-0.1l0.2-0.2l0,0l0.2-0.2c0.1-0.1,0.2-0.2,0.3-0.2h0
				c0.2-0.1,0.3-0.2,0.5-0.3c0.9-0.5,1.9-0.8,2.9-0.8h0v0c0.7,0,1.4,0.1,2,0.4h0c0.1,0,0.2,0.1,0.3,0.1h0c0.5,0.2,0.9,0.5,1.3,0.9
				l0.2,0.2l0,0l0,0l0.2,0.2C67.9,6,67.9,6.1,68,6.2l0,0c0.1,0.2,0.2,0.3,0.3,0.5c0.5,0.9,0.8,1.9,0.8,2.9v0h0c0,0.7-0.1,1.4-0.4,2
				c0,0.1-0.1,0.2-0.1,0.3c-0.2,0.5-0.6,1-1,1.4l0,0l0,0l0,0l0,0L67,14.1l0,0l-9.4,9.4L53.3,19.2L53.3,19.2z M44.6,16.4l5.8,5.7
				l5.8,5.8l0.8,0.8l0.6,0.6l0.6-0.6l0.8-0.8l11.3-11.3l0.2-0.2l0,0l0,0l0,0l0.1-0.1l0,0l0,0c0.2-0.2,0.4-0.4,0.6-0.7
				c0.2-0.3,0.4-0.6,0.6-0.9h0c1-1.5,1.5-3.3,1.5-5.1v0h0c0-1.2-0.2-2.5-0.7-3.6c-0.1-0.2-0.2-0.4-0.2-0.6c-0.4-0.8-0.9-1.6-1.6-2.3
				v0l-0.3-0.3l0,0l0,0l-0.3-0.3h0c-0.2-0.2-0.4-0.3-0.6-0.5c-0.3-0.2-0.6-0.4-0.9-0.6c-1.5-1-3.3-1.4-5.1-1.4
				c-2.2,0-4.4,0.8-6.2,2.3c-0.2-0.2-0.4-0.3-0.6-0.5c-0.4-0.3-0.9-0.6-1.3-0.8c-2.3-1.2-5-1.3-7.4-0.5h0l0,0
				c-0.1,0-0.2,0.1-0.3,0.1c-0.1,0-0.2,0.1-0.3,0.1c-0.5,0.2-0.9,0.4-1.3,0.7v0l0,0c-0.1,0-0.2,0.1-0.2,0.2
				c-0.1,0.1-0.2,0.1-0.2,0.2c-0.3,0.2-0.6,0.5-0.9,0.8h0l-0.3,0.3l0,0l0,0v0c-0.3,0.3-0.6,0.7-0.9,1c-0.3,0.4-0.5,0.7-0.7,1.1
				c-1.1,2-1.4,4.3-1,6.4l0,0c0,0,0,0.1,0.1,0.2l0,0c0,0,0,0.1,0.1,0.2c0.1,0.4,0.2,0.8,0.4,1.2v0v0l0,0l0.1,0.2l0,0
				c0,0.1,0.1,0.2,0.1,0.2l0,0c0.2,0.4,0.4,0.8,0.6,1.2l0,0l0,0l0,0h0l0,0l0,0l0.1,0.1l0,0l0,0l0,0l0.1,0.1l0,0
				c0.1,0.2,0.2,0.3,0.4,0.5l0,0l0.1,0.1l0.1,0.1l0,0l0,0l0,0l0,0l0.1,0.1l0.1,0.1l0.1,0.1l0,0l0,0l0,0l0,0v0l0,0L44.6,16.4
				L44.6,16.4L44.6,16.4L44.6,16.4L44.6,16.4z"/>
		</g>
	</g>
</g>
<g>
	<g>
		<g>
			<g>
				<path class="st0" d="M0,94.2l0-25.1h9c1.9,0,3.6,0.1,5.2,0.4c1.6,0.2,2.9,0.8,4,1.7c1.1,0.9,1.9,2.1,2.5,3.8
					c0.6,1.6,0.9,3.8,0.9,6.6c0,2.8-0.3,5-0.8,6.7c-0.5,1.7-1.3,3-2.4,3.8c-1,0.9-2.3,1.5-3.8,1.7c-1.5,0.3-3.3,0.4-5.2,0.4H0
					L0,94.2z M102.9,82.6h8v-9.1h-3.8c-1.1,0-2.1,0.1-3,0.2c-0.9,0.1-1.7,0.4-2.4,0.9c-0.7,0.5-1.2,1.3-1.6,2.4
					c-0.4,1.1-0.6,2.7-0.6,4.6v0.2v0.2v0.2v12.2h-5.2V82.4c0-0.2,0-0.4,0-0.6c0-2.8,0.3-5,0.9-6.6c0.6-1.6,1.4-2.9,2.5-3.8
					c1.1-0.9,2.4-1.4,4-1.7c1.6-0.2,3.3-0.4,5.2-0.4h9v25.1h-1.3h-3.8v-4.2v-3.1h-8V82.6L102.9,82.6z M9,90c1.4,0,2.5-0.1,3.5-0.3
					c0.9-0.2,1.7-0.5,2.3-1.1c0.6-0.6,1-1.4,1.2-2.6c0.2-1.1,0.4-2.7,0.4-4.6c0-2-0.2-3.5-0.6-4.6c-0.4-1.1-0.9-1.9-1.6-2.4
					c-0.7-0.5-1.5-0.8-2.4-0.9c-0.9-0.1-1.9-0.2-3-0.2H5.2V90H9L9,90z M24.8,94.2V69.1h18.8l-0.4,4.2H30v5.8h10.3v4.2H30V90h13.6
					l-0.4,4.2H24.8L24.8,94.2z"/>
			</g>
		</g>
		<g>
			<g>
				<g>
					<g>
						<polygon class="st0" points="86.4,69.3 86.4,82.6 75.1,82.6 75.1,73.5 75.1,69.3 70,69.3 70,94.4 71.3,94.4 75.1,94.4 
							75.1,90.2 75.1,87.1 86.4,87.1 86.4,94.4 87.7,94.4 91.6,94.4 91.6,90.2 91.6,83.2 91.6,73.5 91.5,69.3 						"/>
					</g>
				</g>
			</g>
			<g>
				<g>
					<path class="st0" d="M102.9,81.8"/>
				</g>
			</g>
			<g>
				<g>
					<g>
						<path class="st0" d="M46.7,75c0.6-1.6,1.4-2.9,2.5-3.8c1.1-0.9,2.4-1.4,4-1.7c1.6-0.2,3.3-0.4,5.2-0.4h9v4.2h-6.5v0h-2.4
							c-1.1,0-2.1,0.1-3,0.2c-0.9,0.1-1.7,0.4-2.4,0.9c-0.7,0.5-1.2,1.3-1.6,2.4C51.2,78,51,79.6,51,81.6c0,1.9,0.1,3.4,0.4,4.6
							c0.2,1.1,0.7,2,1.2,2.6c0.6,0.6,1.3,1,2.3,1.1c1,0.2,2.1,0.3,3.5,0.3h9v4.2H58c-2,0-3.7-0.1-5.2-0.4C51.3,93.6,50,93,49,92.1
							c-1-0.9-1.8-2.2-2.4-3.8c-0.5-1.7-0.8-3.9-0.8-6.7C45.8,78.8,46.1,76.6,46.7,75z"/>
					</g>
				</g>
			</g>
		</g>
	</g>
</g>
<path class="st0" d="M31.5,102.5l0.5,0.1c-0.2,0.8-0.7,1.2-1.5,1.2c-0.6,0-1-0.2-1.3-0.6c-0.3-0.4-0.4-0.8-0.4-1.4
	c0-0.6,0.2-1.1,0.5-1.4c0.3-0.3,0.8-0.5,1.3-0.5c0.8,0,1.3,0.4,1.5,1.1l-0.5,0.1c-0.2-0.5-0.5-0.8-1-0.8c-0.4,0-0.7,0.1-0.9,0.4
	c-0.2,0.3-0.3,0.6-0.3,1.1c0,0.5,0.1,0.9,0.3,1.2c0.2,0.2,0.5,0.4,0.9,0.4C31,103.4,31.3,103.1,31.5,102.5L31.5,102.5z M32.4,101.9
	c0-0.4,0.1-0.7,0.2-1c0.1-0.3,0.3-0.5,0.6-0.7c0.3-0.2,0.6-0.3,1-0.3c0.3,0,0.5,0,0.7,0.1c0.2,0.1,0.4,0.2,0.6,0.4
	c0.2,0.2,0.3,0.4,0.4,0.6c0.1,0.2,0.1,0.5,0.1,0.8c0,0.4-0.1,0.7-0.2,1c-0.1,0.3-0.4,0.5-0.6,0.7c-0.3,0.2-0.6,0.2-0.9,0.2
	c-0.3,0-0.7-0.1-0.9-0.2c-0.3-0.2-0.5-0.4-0.6-0.7C32.5,102.6,32.4,102.3,32.4,101.9L32.4,101.9z M32.9,102c0,0.3,0.1,0.6,0.2,0.8
	c0.1,0.2,0.3,0.4,0.4,0.5c0.2,0.1,0.4,0.2,0.7,0.2c0.4,0,0.7-0.1,0.9-0.4c0.2-0.3,0.3-0.6,0.3-1.1c0-0.3-0.1-0.6-0.2-0.8
	c-0.1-0.2-0.3-0.4-0.4-0.5c-0.2-0.1-0.4-0.2-0.7-0.2c-0.2,0-0.4,0-0.6,0.1c-0.2,0.1-0.3,0.2-0.4,0.3c-0.1,0.1-0.2,0.3-0.2,0.5
	C32.9,101.5,32.9,101.7,32.9,102L32.9,102z M36.6,103.8V100h0.5l2,2.9V100h0.5v3.7H39l-2-2.9v2.9H36.6L36.6,103.8z M40.4,103.8V100
	h2.5v0.4h-2v1.2h1.8v0.4h-1.8v1.7H40.4L40.4,103.8z M43.6,103.8V100h2.7v0.4h-2.2v1.1h2.1v0.4h-2.1v1.3h2.3v0.4H43.6L43.6,103.8z
	 M49.7,102.5l0.5,0.1c-0.2,0.8-0.7,1.2-1.5,1.2c-0.6,0-1-0.2-1.3-0.6c-0.3-0.4-0.4-0.8-0.4-1.4c0-0.6,0.2-1.1,0.5-1.4
	c0.3-0.3,0.8-0.5,1.3-0.5c0.8,0,1.3,0.4,1.5,1.1l-0.5,0.1c-0.2-0.5-0.5-0.8-1-0.8c-0.4,0-0.7,0.1-0.9,0.4c-0.2,0.3-0.3,0.6-0.3,1.1
	c0,0.5,0.1,0.9,0.3,1.2c0.2,0.2,0.5,0.4,0.9,0.4C49.2,103.4,49.6,103.1,49.7,102.5L49.7,102.5z M51.8,103.8v-3.3h-1.2V100h3v0.4
	h-1.2v3.3H51.8L51.8,103.8z M54.1,103.8V100h0.5v3.7H54.1L54.1,103.8z M55.3,101.9c0-0.4,0.1-0.7,0.2-1c0.1-0.3,0.3-0.5,0.6-0.7
	c0.3-0.2,0.6-0.3,1-0.3c0.3,0,0.5,0,0.7,0.1c0.2,0.1,0.4,0.2,0.6,0.4c0.2,0.2,0.3,0.4,0.4,0.6c0.1,0.2,0.1,0.5,0.1,0.8
	c0,0.4-0.1,0.7-0.2,1c-0.1,0.3-0.4,0.5-0.6,0.7c-0.3,0.2-0.6,0.2-0.9,0.2c-0.3,0-0.7-0.1-0.9-0.2c-0.3-0.2-0.5-0.4-0.6-0.7
	C55.4,102.6,55.3,102.3,55.3,101.9L55.3,101.9z M55.8,102c0,0.3,0.1,0.6,0.2,0.8c0.1,0.2,0.3,0.4,0.4,0.5c0.2,0.1,0.4,0.2,0.7,0.2
	c0.4,0,0.7-0.1,0.9-0.4c0.2-0.3,0.3-0.6,0.3-1.1c0-0.3-0.1-0.6-0.2-0.8c-0.1-0.2-0.3-0.4-0.4-0.5c-0.2-0.1-0.4-0.2-0.7-0.2
	c-0.2,0-0.4,0-0.6,0.1c-0.2,0.1-0.3,0.2-0.4,0.3c-0.1,0.1-0.2,0.3-0.2,0.5C55.8,101.5,55.8,101.7,55.8,102L55.8,102z M59.5,103.8
	V100H60l2,2.9V100h0.5v3.7h-0.5l-2-2.9v2.9H59.5L59.5,103.8z M62.9,103.8l1.4-3.7h0.5l1.5,3.7h-0.6l-0.4-1.1h-1.6l-0.4,1.1H62.9
	L62.9,103.8z M63.9,102.2h1.3l-0.4-1c-0.1-0.3-0.2-0.6-0.3-0.8c0,0.2-0.1,0.5-0.2,0.7L63.9,102.2L63.9,102.2z M66.8,103.8V100h1.7
	c0.3,0,0.5,0,0.7,0.1c0.1,0,0.2,0.1,0.3,0.2c0.1,0.1,0.2,0.2,0.2,0.3c0.1,0.1,0.1,0.3,0.1,0.5c0,0.6-0.4,0.9-1,1
	c0.1,0.1,0.3,0.2,0.4,0.3c0.1,0.1,0.2,0.3,0.3,0.4l0.7,1h-0.6l-0.5-0.8c-0.1-0.2-0.2-0.3-0.3-0.5c-0.1-0.1-0.2-0.2-0.3-0.3
	c-0.1-0.1-0.2-0.1-0.2-0.1c-0.1,0-0.2,0-0.3,0h-0.6v1.7H66.8L66.8,103.8z M67.2,101.7h1.1c0.3,0,0.6-0.1,0.7-0.2
	c0.1-0.1,0.2-0.3,0.2-0.5c0-0.4-0.3-0.6-0.8-0.6h-1.2V101.7L67.2,101.7z M71.6,103.8v-1.6l-1.4-2.2h0.6l0.7,1.1
	c0.1,0.2,0.2,0.4,0.4,0.6c0.1-0.3,0.3-0.5,0.4-0.7L73,100h0.6l-1.5,2.2v1.6H71.6L71.6,103.8z M75.8,103.8V100h2.5v0.4h-2v1.2H78v0.4
	h-1.8v1.7H75.8L75.8,103.8z M78.5,103.8L80,100h0.5l1.5,3.7h-0.6l-0.4-1.1h-1.6l-0.4,1.1H78.5L78.5,103.8z M79.6,102.2h1.3l-0.4-1
	c-0.1-0.3-0.2-0.6-0.3-0.8c0,0.2-0.1,0.5-0.2,0.7L79.6,102.2L79.6,102.2z M85.1,102.5l0.5,0.1c-0.2,0.8-0.7,1.2-1.5,1.2
	c-0.6,0-1-0.2-1.3-0.6c-0.3-0.4-0.4-0.8-0.4-1.4c0-0.6,0.2-1.1,0.5-1.4c0.3-0.3,0.8-0.5,1.3-0.5c0.8,0,1.3,0.4,1.5,1.1l-0.5,0.1
	c-0.2-0.5-0.5-0.8-1-0.8c-0.4,0-0.7,0.1-0.9,0.4c-0.2,0.3-0.3,0.6-0.3,1.1c0,0.5,0.1,0.9,0.3,1.2c0.2,0.2,0.5,0.4,0.9,0.4
	C84.6,103.4,84.9,103.1,85.1,102.5L85.1,102.5z M87.1,103.8v-3.3h-1.2V100h3v0.4h-1.2v3.3H87.1L87.1,103.8z M89.2,101.9
	c0-0.4,0.1-0.7,0.2-1c0.1-0.3,0.3-0.5,0.6-0.7c0.3-0.2,0.6-0.3,1-0.3c0.3,0,0.5,0,0.7,0.1c0.2,0.1,0.4,0.2,0.6,0.4
	c0.2,0.2,0.3,0.4,0.4,0.6c0.1,0.2,0.1,0.5,0.1,0.8c0,0.4-0.1,0.7-0.2,1c-0.1,0.3-0.4,0.5-0.6,0.7c-0.3,0.2-0.6,0.2-0.9,0.2
	c-0.3,0-0.7-0.1-0.9-0.2c-0.3-0.2-0.5-0.4-0.6-0.7C89.3,102.6,89.2,102.3,89.2,101.9L89.2,101.9z M89.7,102c0,0.3,0.1,0.6,0.2,0.8
	s0.3,0.4,0.4,0.5c0.2,0.1,0.4,0.2,0.7,0.2c0.4,0,0.7-0.1,0.9-0.4c0.2-0.3,0.3-0.6,0.3-1.1c0-0.3-0.1-0.6-0.2-0.8
	c-0.1-0.2-0.3-0.4-0.4-0.5c-0.2-0.1-0.4-0.2-0.7-0.2c-0.2,0-0.4,0-0.6,0.1c-0.2,0.1-0.3,0.2-0.4,0.3c-0.1,0.1-0.2,0.3-0.2,0.5
	C89.8,101.5,89.7,101.7,89.7,102L89.7,102z M93.4,103.8V100h1.7c0.3,0,0.5,0,0.7,0.1c0.1,0,0.2,0.1,0.3,0.2c0.1,0.1,0.2,0.2,0.2,0.3
	c0.1,0.1,0.1,0.3,0.1,0.5c0,0.6-0.4,0.9-1,1c0.1,0.1,0.3,0.2,0.4,0.3c0.1,0.1,0.2,0.3,0.3,0.4l0.7,1h-0.6l-0.5-0.8
	c-0.1-0.2-0.2-0.3-0.3-0.5c-0.1-0.1-0.2-0.2-0.3-0.3c-0.1-0.1-0.2-0.1-0.2-0.1c-0.1,0-0.2,0-0.3,0h-0.6v1.7H93.4L93.4,103.8z
	 M93.9,101.7H95c0.3,0,0.6-0.1,0.7-0.2c0.1-0.1,0.2-0.3,0.2-0.5c0-0.4-0.3-0.6-0.8-0.6h-1.2V101.7L93.9,101.7z M98.2,103.8v-1.6
	l-1.4-2.2h0.6l0.7,1.1c0.1,0.2,0.2,0.4,0.4,0.6c0.1-0.3,0.3-0.5,0.4-0.7l0.7-1.1h0.6l-1.5,2.2v1.6H98.2L98.2,103.8z"/>
<g>
	<g>
		<path class="st0" d="M17.1,103.9v-3.8h0.5v3.3h1.9v0.4H17.1z"/>
		<path class="st0" d="M20.1,103.9v-3.8h0.5v3.3h1.9v0.4H20.1z"/>
		<path class="st0" d="M25.7,102.6l0.5,0.1c-0.1,0.4-0.3,0.7-0.6,0.9c-0.3,0.2-0.6,0.3-1,0.3c-0.4,0-0.7-0.1-1-0.3
			c-0.3-0.2-0.5-0.4-0.6-0.7c-0.1-0.3-0.2-0.7-0.2-1c0-0.4,0.1-0.7,0.2-1c0.2-0.3,0.4-0.5,0.6-0.7c0.3-0.2,0.6-0.2,0.9-0.2
			c0.4,0,0.7,0.1,1,0.3s0.4,0.5,0.5,0.8l-0.5,0.1c-0.1-0.3-0.2-0.5-0.4-0.6c-0.2-0.1-0.4-0.2-0.6-0.2c-0.3,0-0.5,0.1-0.7,0.2
			c-0.2,0.1-0.3,0.3-0.4,0.6c-0.1,0.2-0.1,0.5-0.1,0.7c0,0.3,0,0.6,0.1,0.8s0.2,0.4,0.4,0.5c0.2,0.1,0.4,0.2,0.6,0.2
			c0.3,0,0.5-0.1,0.7-0.2C25.5,103.1,25.7,102.9,25.7,102.6z"/>
	</g>
</g>
</svg>
