<?xml version="1.0" encoding="utf-8"?>
<!-- Generator: Adobe Illustrator 19.1.1, SVG Export Plug-In . SVG Version: 6.00 Build 0)  -->
<svg version="1.1" id="Layer_2" xmlns="http://www.w3.org/2000/svg" xmlns:xlink="http://www.w3.org/1999/xlink" x="0px" y="0px"
	 viewBox="0 0 206.3 49" style="enable-background:new 0 0 206.3 49;" xml:space="preserve">
<style type="text/css">
	.st0{fill:#FFFFFF;}
</style>
<g>
	<path class="st0" d="M53.2,19.7H39.4v2.6c0,3.4-0.4,6.5-1.1,9.2c-0.7,2.7-1.8,5.1-3.3,7.1h-1.7V46h4.4v-4.4h14.1V46h4.4v-7.5h-3
		V19.7z M48.8,38.5h-9.3c1.2-1.6,2.2-3.8,2.9-6.6c0.7-2.8,1.1-5.8,1.1-8.9v-0.4h5.3V38.5z"/>
	<path class="st0" d="M66.8,25c-2.6,0-4.6,0.8-6.1,2.3c-1.5,1.5-2.3,3.6-2.3,6.2c0,2.6,0.7,4.7,2.2,6.2c1.5,1.5,3.5,2.3,6,2.3
		c2.7,0,4.7-0.8,6.2-2.3c1.5-1.5,2.3-3.6,2.3-6.3c0-2.6-0.8-4.7-2.3-6.2C71.4,25.8,69.4,25,66.8,25z M66.8,39.3
		c-1.1,0-2-0.5-2.7-1.6c-0.7-1-1-2.4-1-4.2c0-1.8,0.3-3.2,1-4.2c0.7-1,1.6-1.5,2.7-1.5c1.2,0,2.1,0.5,2.7,1.5c0.7,1,1,2.4,1,4.2
		C70.5,37.3,69.3,39.3,66.8,39.3z"/>
	<path class="st0" d="M84.2,37.6c-0.9-1-1.3-2.4-1.3-4.1c0-1.7,0.4-3,1.2-4c0.8-1,1.9-1.5,3.2-1.5c1.1,0,2.5,0.3,4.3,0.9v-3.2
		C89.8,25.2,88.3,25,87,25c-2.7,0-4.9,0.8-6.4,2.2c-1.5,1.5-2.3,3.6-2.3,6.2c0,2.6,0.8,4.7,2.3,6.2C82,41.3,84,42,86.6,42
		c1.5,0,3.2-0.2,5-0.7v-3c-1.4,0.6-2.7,0.9-4.1,0.9C86.2,39.1,85,38.6,84.2,37.6z"/>
	<polygon class="st0" points="94.2,28.3 99.3,28.3 99.3,41.6 103.7,41.6 103.7,28.3 108.8,28.3 108.8,25.4 94.2,25.4 	"/>
	<path class="st0" d="M125.5,39.2c-0.8,0-1.2-0.6-1.2-1.9v-7.2c0-3.4-2.1-5.1-6.4-5.1c-1.9,0-3.9,0.4-5.9,1.1v3
		c1.7-1,3.5-1.5,5.2-1.5c1.9,0,2.9,0.8,2.9,2.5v1.5h-1.2c-2.7,0-4.7,0.5-6.2,1.5c-1.4,1-2.2,2.4-2.2,4.2c0,1.4,0.4,2.5,1.3,3.4
		c0.9,0.9,2,1.3,3.5,1.3c1.7,0,3.2-0.7,4.7-2.1h0.2c0.5,1.4,1.7,2.1,3.5,2.1c0.7,0,1.5-0.1,2.5-0.4l-0.1-2.5
		C125.8,39.2,125.6,39.2,125.5,39.2z M120,37.5c-1.1,1-2.1,1.5-3.2,1.5c-0.6,0-1.1-0.2-1.5-0.6c-0.4-0.4-0.6-0.9-0.6-1.5
		c0-1.8,1.4-2.7,4.2-2.7h1V37.5z"/>
	<path class="st0" d="M139.3,33.1c1.2-0.4,2.1-0.9,2.7-1.5c0.6-0.7,0.9-1.5,0.9-2.5c0-1.2-0.5-2.2-1.6-2.8c-1.1-0.6-2.7-0.9-4.9-0.9
		h-6.4v16.3h7c2.3,0,4-0.3,5.1-1c1-0.6,1.6-1.7,1.6-3.2c0-1.1-0.4-2-1.1-2.7C141.7,34,140.7,33.5,139.3,33.1z M133.9,28h1.4
		c1.1,0,1.9,0.1,2.4,0.4c0.5,0.3,0.8,0.7,0.8,1.3c0,0.7-0.3,1.3-0.8,1.7c-0.6,0.4-1.4,0.6-2.5,0.6h-1.3V28z M138.3,38.6
		c-0.5,0.3-1.6,0.4-3.3,0.4h-1.1v-4.5h1.3c1.3,0,2.3,0.2,2.9,0.6c0.7,0.4,1,1.1,1,1.9C139.1,37.8,138.9,38.4,138.3,38.6z"/>
	<path class="st0" d="M160.2,39.2l-0.8-1.3l-0.5-0.9c-0.7-1.2-1.3-2.1-1.8-2.6c-0.5-0.5-1.3-0.8-2.2-1.1c1.1-0.4,1.9-1,2.4-2
		l0.5-0.8l0.4-0.8c0.4-0.7,0.7-1.2,1-1.4c0.3-0.2,0.6-0.3,1.2-0.3h0.4v-2.7l-0.7,0c-1.3,0-2.3,0.2-2.9,0.5c-0.6,0.4-1.2,1.2-1.9,2.4
		l-0.4,0.8c-0.8,1.4-1.3,2.3-1.7,2.6c-0.4,0.3-1,0.5-1.9,0.5v-6.7h-4.1v16.3h4.1v-6.7h1.5c1,0.9,2,2.6,3.3,4.8l0.7,1.3
		c0.1,0.1,0.2,0.3,0.4,0.7h4.6c-0.3-0.5-0.5-0.8-0.6-0.9L160.2,39.2z"/>
	<path class="st0" d="M178.7,39.2c-0.8,0-1.2-0.6-1.2-1.9v-7.2c0-3.4-2.1-5.1-6.4-5.1c-1.9,0-3.9,0.4-5.9,1.1v3
		c1.7-1,3.5-1.5,5.2-1.5c1.9,0,2.9,0.8,2.9,2.5v1.5h-1.2c-2.7,0-4.7,0.5-6.2,1.5c-1.4,1-2.2,2.4-2.2,4.2c0,1.4,0.4,2.5,1.3,3.4
		c0.9,0.9,2,1.3,3.5,1.3c1.7,0,3.2-0.7,4.7-2.1h0.2c0.5,1.4,1.7,2.1,3.5,2.1c0.7,0,1.5-0.1,2.5-0.4l-0.1-2.5
		C179,39.2,178.8,39.2,178.7,39.2z M173.2,37.5c-1.1,1-2.1,1.5-3.2,1.5c-0.6,0-1.1-0.2-1.5-0.6c-0.4-0.4-0.6-0.9-0.6-1.5
		c0-1.8,1.4-2.7,4.2-2.7h1V37.5z"/>
	<path class="st0" d="M33.5,24.5c0-1-0.8-1.8-1.8-1.8h-6.6c-1,0-1.8,0.8-1.8,1.8v3.4h-1l-3.9-5c1.4-0.4,2.4-1.7,2.4-3.2
		c0-1.8-1.5-3.3-3.3-3.3c-1.8,0-3.3,1.5-3.3,3.3c0,0.9,0.4,1.7,1,2.3H7.4c-0.7,0-1.4,0.4-1.8,1l-2.7,4.9c-0.3,0.5-0.3,1-0.2,1.5
		c0.1,0.5,0.5,0.9,1,1.2c0.9,0.5,2.2,0.1,2.7-0.8l2.1-3.9h2.3l-2.5,5.8l0,0c-0.1,0.2-0.1,0.3-0.1,0.5l-0.6,6.4L2,38.7
		c-1.1,0-2,0.9-2,2c0,1.1,0.8,2,1.9,2.1L9.5,43h0.1c1,0,1.9-0.8,2-1.8l0.5-5.5l5.9,12.2c0.3,0.7,1,1.1,1.8,1.1
		c0.3,0,0.6-0.1,0.9-0.2c0.5-0.2,0.9-0.6,1-1.1c0.2-0.5,0.2-1.1-0.1-1.5l-6.1-12.7l2.2-5l2.2,2.7c0.4,0.5,1,0.8,1.6,0.8h4.1
		c1.1,0,2-0.9,2-2l0-0.1h4.2c1,0,1.8-0.8,1.8-1.8V24.5z"/>
	<polygon class="st0" points="197.8,15.2 197.8,10.2 193.8,15.2 	"/>
	<path class="st0" d="M191.5,0c-8.2,0-14.8,6.6-14.8,14.8s6.6,14.8,14.8,14.8s14.8-6.6,14.8-14.8S199.6,0,191.5,0z M189.9,18.5v2
		h-8.5v-2l0.1-0.2c0.7-0.9,1.4-1.7,2.1-2.3l1-0.9c1.7-1.5,2.6-2.9,2.6-4c0-1.3-0.8-2-2.3-2c-0.9,0-2,0.3-3.3,0.9V8.2
		c1.3-0.5,2.6-0.7,3.8-0.7c1.4,0,2.4,0.3,3.3,1c0.8,0.6,1.2,1.5,1.2,2.6c0,0.7-0.2,1.4-0.6,2c-0.4,0.6-1.1,1.3-2.1,2.1l-0.9,0.7
		c-1.2,1-1.9,1.9-2.1,2.7H189.9z M201.5,17.2H200v3.4h-2.2v-3.4h-6v-1.9l5.9-7.4h2.3v7.4h1.5V17.2z"/>
</g>
</svg>
