<?xml version="1.0" encoding="utf-8"?>
<!-- Generator: Adobe Illustrator 19.1.1, SVG Export Plug-In . SVG Version: 6.00 Build 0)  -->
<svg version="1.1" id="Слой_1" xmlns="http://www.w3.org/2000/svg" xmlns:xlink="http://www.w3.org/1999/xlink" x="0px" y="0px"
	 viewBox="0 0 208.3 60.9" style="enable-background:new 0 0 208.3 60.9;" xml:space="preserve">
<style type="text/css">
	.st0{fill:#FFFFFF;}
</style>
<path class="st0" d="M64.1,11.6h8.7l1.1,1.5c0.1,0.2,0.3,0.2,0.5,0.2c0.1,0,0.3,0,0.4-0.1c0.3-0.2,0.3-0.6,0.1-0.9l-0.7-0.9
	c2.6-0.6,4.4-2.8,4.6-3.1c0.6-0.6,1.4-2,1.6-3.6L82.2,4l-1.8-0.8C80,1.5,78.7,0,76.7,0c-2.4,0-3.4,2-3.6,2.4l-1.9,2.8
	C71.1,5.3,71,5.4,71,5.5l-1.3,1.9h-3.6c-0.2,0-0.4,0.1-0.5,0.3l-2,3c-0.1,0.2-0.1,0.4,0,0.6C63.7,11.5,63.9,11.6,64.1,11.6z
	 M65.6,9.7h2.5l-0.4,0.7h-2.6L65.6,9.7z M69.5,9.9h1.4c-0.5,0.1-1,0.3-1.6,0.3L69.5,9.9z M72.4,9.4h-2.6l0.3-0.5h3.2
	C73.1,9.1,72.8,9.2,72.4,9.4z M72.1,6h3.3c0,0,0,0,0,0c0,0.1,0,0.1,0,0.2c0,0.1,0,0.2,0,0.3h-3.6L72.1,6z M72.6,5.5
	c0.4-0.3,1-0.6,1.9-0.5c0.4,0,0.6,0.2,0.8,0.5H72.6z M71.5,6.9h3.8c-0.1,0.2-0.2,0.3-0.3,0.5h-3.8L71.5,6.9z M74.6,7.9
	c-0.1,0.1-0.3,0.3-0.5,0.4h-3.6l0,0l0.3-0.4H74.6z M74.1,3c0,0,0-0.1,0.1-0.1c0-0.1,0.7-1.7,2.5-1.7c1.9,0,2.6,1.8,2.6,3
	c0,1.5-0.9,2.9-1.4,3.4c0,0,0,0,0,0c0,0-2,2.6-4.7,2.7c2.3-1.1,3.4-2.7,3.5-4.2c0-1.3-0.8-2.2-2-2.4c-0.4-0.1-0.7-0.1-1.1,0L74.1,3z
	 M66.4,8.6h2.5l-0.4,0.6H66L66.4,8.6z"/>
<circle class="st0" cx="77.3" cy="3.3" r="0.7"/>
<g>
	<path class="st0" d="M9.7,37.3c0.7,0.1,1.1,0.1,1.2,0.1c0.5,0.1,0.8,0.4,0.7,0.8c0,1-0.1,2-0.3,2.9c0,0.2-0.5,0.4-1.5,0.4
		c-0.5,0-1,0-1.5-0.1c-0.5-0.1-0.7-0.1-0.7-0.2c0,0.1,0.1-0.6,0.2-2.1C8,38.6,8,38.3,8,38.2v0c-0.1,0-0.3,0-0.5,0
		c-1.4,0-2.6-0.1-3.6-0.2c0,0-0.1,0.5-0.1,1.6c-0.1,0.9,0,2.6,0.1,4.9c0.1,1,0.1,2.1,0.1,3.1c0,0,0.1,0,0.4,0c0.4,0,1.1,0,2.3,0
		c1.1,0,1.8,0,1.8,0h0c0.6,0,0.9,0.4,0.9,1.1c0,0.3-0.1,0.6-0.2,0.8c-0.2,0.2-0.4,0.3-0.6,0.3C8.2,50,7.4,50,6,50c-1.3,0-1.9,0-2,0
		c0,1.8,0,3.4-0.1,5c0,0.4-0.1,1-0.1,1.6c-0.1,0.9-0.1,1.4-0.2,1.6c0,0.1,0,0.4,0,0.8c0,0.4,0,0.8,0,1c-0.1,0.6-0.5,0.8-1.4,0.8
		c-0.1,0-0.3,0-0.6,0c-0.5,0-0.9-0.1-1-0.1C0.3,60.6,0.1,60.4,0,60c-0.1-0.6,0-1.4,0.1-2.5c0.2-1.8,0.3-4.2,0.3-7
		c0-1-0.1-2.5-0.2-4.5c-0.1-2-0.2-3.5-0.2-4.5c0,0,0-0.3,0-0.9c0-0.4,0-0.8,0-1.1c0-0.9,0.2-1.5,0.5-1.9c0.2-0.2,1.7-0.3,4.5-0.3
		C7.3,37.2,8.8,37.3,9.7,37.3z M1.5,59.6c0.4-0.4,0.7-0.7,0.9-0.9c0-0.2,0-0.4,0-0.5l0-0.3c-0.4,0.4-0.8,0.8-1.2,1.2
		c0,0.2,0,0.4,0,0.5C1.3,59.6,1.4,59.6,1.5,59.6z M1.3,40.8c0.5-0.5,0.9-0.9,1.2-1.2v0c0,0,0-0.1,0-0.3c0-0.2,0-0.4,0-0.6
		c-0.1,0.1-0.3,0.3-0.6,0.6s-0.5,0.5-0.6,0.6C1.3,40.1,1.3,40.4,1.3,40.8L1.3,40.8z M1.4,57.7c0,0.2,0,0.5-0.1,0.7
		c0.4-0.4,0.9-0.8,1.2-1.2c0,0,0,0,0-0.1c0,0,0,0,0,0c0-0.3,0.1-0.5,0.1-0.7c-0.4,0.4-0.8,0.8-1.2,1.2C1.4,57.5,1.4,57.5,1.4,57.7
		C1.4,57.6,1.4,57.6,1.4,57.7z M2.5,40.3c-0.4,0.4-0.8,0.8-1.2,1.2c0,0.2,0,0.4,0,0.7c0.4-0.4,0.8-0.8,1.2-1.1
		C2.5,40.9,2.5,40.6,2.5,40.3z M1.3,39.3C1.7,39,2,38.7,2.2,38.5c-0.3,0-0.5,0-0.7,0.1C1.4,38.8,1.3,39,1.3,39.3z M2.5,41.8
		c-0.4,0.4-0.8,0.8-1.1,1.1c0,0.3,0,0.6,0,0.7c0.4-0.4,0.8-0.8,1.1-1.1C2.5,42.3,2.5,42,2.5,41.8z M1.4,45.1
		c0.4-0.4,0.8-0.8,1.2-1.1c0-0.2,0-0.5-0.1-0.7c-0.4,0.4-0.8,0.8-1.1,1.1C1.4,44.7,1.4,45,1.4,45.1z M2.6,44.6
		c-0.5,0.5-0.9,0.9-1.2,1.1c0,0,0,0.1,0,0.2c0,0.1,0,0.1,0,0.2c0,0,0,0.1,0,0.3C2,46,2.4,45.6,2.7,45.3C2.6,44.8,2.6,44.6,2.6,44.6
		L2.6,44.6z M1.5,55.9c0,0.3,0,0.6-0.1,0.8c0.5-0.5,0.9-0.9,1.2-1.2c0-0.2,0-0.3,0-0.5c0,0,0-0.1,0-0.2s0-0.1,0-0.1
		C2.4,55,2,55.4,1.5,55.9z M2.7,46.7c0-0.4,0-0.6,0-0.7c-0.1,0.1-0.3,0.3-0.6,0.6c-0.3,0.3-0.5,0.4-0.6,0.6c0,0.1,0,0.3,0.1,0.7
		C2,47.5,2.4,47.1,2.7,46.7z M2.8,54c0-0.2,0-0.4,0-0.8c-0.3,0.3-0.7,0.6-1.2,1.1c0,0.3,0,0.6,0,0.8C2.1,54.7,2.4,54.3,2.8,54z
		 M1.6,48.5c0,0.2,0,0.5,0,0.7c0.4-0.4,0.8-0.8,1.1-1.1v-0.4c0,0,0-0.1,0-0.2c0-0.1,0-0.1,0-0.2C2.3,47.8,1.9,48.2,1.6,48.5z
		 M2.8,52.5c0-0.2,0-0.4,0-0.8c-0.3,0.3-0.6,0.6-1.1,1.1c0,0.2,0,0.5,0,0.8C2.1,53.2,2.5,52.8,2.8,52.5z M1.7,50.7
		c0.4-0.4,0.8-0.8,1.1-1.1V49l0-0.2v0c-0.5,0.5-0.8,0.8-1.1,1.1v0.6V50.7z M1.7,52.1C2,51.8,2.4,51.4,2.8,51v-0.9
		c-0.2,0.2-0.6,0.6-1.1,1.1C1.7,51.6,1.7,51.9,1.7,52.1z M2.3,59.7c0.1,0,0.1,0,0.2,0c0,0,0-0.1,0-0.2c0,0-0.1,0.1-0.1,0.1
		C2.2,59.6,2.2,59.6,2.3,59.7C2.3,59.7,2.3,59.7,2.3,59.7z M9.1,40.2l0.2,0c0.1-0.1,0.3-0.3,0.5-0.5c0.2-0.2,0.4-0.4,0.5-0.5
		c0-0.3,0-0.5,0.1-0.6c0,0-0.1,0-0.2,0c0,0,0,0-0.1,0.1c0,0-0.1,0.1-0.1,0.1c-0.3,0.3-0.6,0.6-0.9,0.9c0,0,0,0.1,0,0.1
		c0,0.1,0,0.1,0,0.1c0,0.1,0,0.2,0,0.2S9.1,40.1,9.1,40.2z M9.3,38.5c0,0.1,0,0.2,0,0.3c0,0,0.1-0.1,0.3-0.3
		C9.5,38.5,9.4,38.5,9.3,38.5z M10.3,40c0,0-0.1,0.1-0.2,0.1c-0.1,0.1-0.1,0.1-0.1,0.1c0.1,0,0.2,0,0.3,0c0,0,0-0.1,0-0.1
		C10.3,40,10.3,40,10.3,40z"/>
	<path class="st0" d="M23.2,37.1c3.2,0,5.1,0.4,5.7,1.3c0.2,0.6,0.3,4.2,0.2,10.7c-0.1,6.7-0.3,10.2-0.7,10.4
		c-1,0.7-2.6,1.1-4.7,1.3c-0.6,0-1.1,0.1-1.6,0.1c-0.6,0-1.3,0-2.2-0.1c-1.2-0.1-2-0.5-2.6-1.3c-0.4-0.5-0.4-4-0.3-10.7
		c0.2-6.8,0.7-10.5,1.4-11C19,37.4,20.6,37.1,23.2,37.1z M18.2,51c0,0.3,0,0.5,0,0.7c0.6-0.6,0.9-0.9,1-1c0-0.2,0-0.5,0-0.7
		c-0.1,0.1-0.3,0.3-0.5,0.5C18.5,50.7,18.3,50.9,18.2,51z M18.2,53.2c0.7-0.6,1-0.9,1-1c0-0.2,0-0.5,0-0.7c0,0-0.4,0.4-1,1V53.2z
		 M19.2,53c-0.4,0.4-0.7,0.7-1,1c0,0.2,0,0.4,0,0.6c0.1-0.1,0.3-0.2,0.5-0.5c0.2-0.2,0.4-0.4,0.5-0.5C19.2,53.4,19.2,53.2,19.2,53z
		 M19.2,48.5c-0.3,0.3-0.7,0.7-1,1c0,0.3,0,0.5,0,0.7c0.4-0.4,0.7-0.7,1-1c0-0.3,0-0.4,0-0.4C19.2,48.9,19.2,48.8,19.2,48.5z
		 M18.2,55.3c0,0.2,0,0.5,0,0.7c0.6-0.6,0.9-0.9,0.9-0.9v-0.7C18.8,54.7,18.5,55.1,18.2,55.3z M19.3,47c-0.4,0.4-0.7,0.7-1,1
		c0,0.3,0,0.5,0,0.8c0.4-0.4,0.8-0.7,1-1C19.3,47.5,19.3,47.3,19.3,47z M19.2,55.9c-0.6,0.6-0.9,0.9-0.9,0.9c0,0.2,0,0.5,0,0.7
		c0.4-0.4,0.7-0.7,0.9-0.9C19.2,56.3,19.2,56.1,19.2,55.9z M19.3,45.5l-1,1c0,0.3,0,0.5,0,0.8c0.3-0.3,0.7-0.7,1-1
		C19.3,46,19.3,45.8,19.3,45.5z M19.2,57.3c-0.3,0.3-0.6,0.6-0.9,0.9c0,0.3,0,0.5,0.1,0.7c0.1-0.1,0.2-0.2,0.4-0.4
		c0.2-0.2,0.3-0.3,0.4-0.4C19.2,57.8,19.2,57.6,19.2,57.3z M19.4,44c-0.3,0.3-0.7,0.6-1,0.9c0,0.2,0,0.5,0,0.8
		c0.6-0.5,0.9-0.9,1-0.9C19.4,44.5,19.4,44.2,19.4,44z M18.5,43.4c0,0.3,0,0.5-0.1,0.8c0.6-0.6,0.9-0.9,1-0.9c0-0.3,0-0.5,0-0.7
		C19.1,42.8,18.8,43.1,18.5,43.4z M18.6,42.6c0.4-0.4,0.7-0.7,0.9-0.9c0-0.3,0.1-0.6,0.1-0.8c-0.4,0.4-0.7,0.7-0.9,0.9
		C18.6,42.1,18.6,42.3,18.6,42.6z M19.4,58.5c-0.3,0.3-0.5,0.5-0.7,0.6c0.1,0.1,0.3,0.2,0.5,0.2c0-0.1,0.1-0.1,0.2-0.2
		c0.1-0.1,0.2-0.2,0.2-0.2C19.5,58.9,19.4,58.7,19.4,58.5z M20.9,38.5c-0.1,0-0.2,0-0.4,0c-0.5,0.5-1,1-1.6,1.6
		c0,0.3-0.1,0.5-0.1,0.8c0.5-0.5,0.8-0.8,0.9-0.9c0.1-0.3,0.1-0.5,0.2-0.6C20.2,39.1,20.5,38.7,20.9,38.5z M19.1,39.2
		c0.1-0.1,0.3-0.3,0.5-0.5c-0.2,0-0.3,0.1-0.4,0.1C19.2,38.9,19.1,39,19.1,39.2z M20,59.4c0,0-0.1,0.1-0.1,0.1c0.1,0,0.1,0,0.1,0
		c0.2,0,0.3,0,0.3,0C20.2,59.6,20.2,59.5,20,59.4z M25.5,39.8c-0.1-0.2-0.4-0.3-0.9-0.5c-0.5-0.2-1.1-0.2-1.6-0.2
		c-1,0-1.7,0.3-2.1,1c-0.2,0.2-0.3,3.1-0.5,8.7c-0.1,5.6-0.1,8.6,0,9c0,0.3,0.8,0.5,2.2,0.5c1.5,0,2.3-0.1,2.5-0.3
		c0.2-0.4,0.4-3.5,0.5-9.2C25.7,43.2,25.7,40.2,25.5,39.8z M25.3,59.3L25.3,59.3C25.4,59.3,25.4,59.3,25.3,59.3L25.3,59.3
		C25.3,59.3,25.3,59.3,25.3,59.3C25.3,59.3,25.3,59.3,25.3,59.3z M26.6,39.1c0,0,0.1-0.1,0.2-0.2c0.1-0.1,0.1-0.1,0.2-0.2
		c-0.2,0-0.4-0.1-0.6-0.1c0,0-0.1,0-0.1,0.1c0,0-0.1,0.1-0.1,0.1C26.3,38.9,26.4,38.9,26.6,39.1L26.6,39.1z M27.5,57.9l-1.2,1.2
		c0.4-0.1,0.8-0.2,1.1-0.4c0,0,0,0,0,0C27.4,58.5,27.4,58.2,27.5,57.9z M27.5,57.2c0-0.3,0-0.6,0.1-0.9c-0.1,0.1-0.3,0.3-0.5,0.5
		c-0.3,0.3-0.4,0.4-0.5,0.5c0,0.5-0.1,0.8-0.2,1C26.9,57.8,27.3,57.4,27.5,57.2z M27.6,55.5c0-0.2,0-0.5,0-0.8c-0.5,0.5-0.9,0.8-1,1
		c0,0.3,0,0.5-0.1,0.8l0,0c0,0,0,0,0,0c0.1-0.1,0.3-0.3,0.5-0.5c0.2-0.2,0.3-0.3,0.3-0.3S27.5,55.6,27.6,55.5z M26.7,55
		c0.1-0.1,0.5-0.4,1-1c0-0.3,0-0.5,0-0.7c-0.6,0.6-0.9,0.9-1,1C26.7,54.5,26.7,54.8,26.7,55z M26.8,53.4c0.4-0.4,0.8-0.8,1-1
		c0-0.2,0-0.4,0-0.7l-1,1C26.8,52.9,26.8,53.2,26.8,53.4z M27.7,39c0,0-0.1,0-0.2-0.1c-0.2,0.2-0.4,0.4-0.7,0.7c0,0.1,0,0.3,0.1,0.6
		c0.3-0.3,0.6-0.6,0.9-0.9C27.7,39.3,27.7,39.1,27.7,39z M26.8,51.9c0.2-0.2,0.6-0.6,1-1c0-0.2,0-0.5,0-0.7
		c-0.1,0.1-0.2,0.2-0.5,0.5c-0.2,0.2-0.4,0.4-0.5,0.5C26.8,51.4,26.8,51.7,26.8,51.9z M26.8,50.5c0.3-0.3,0.7-0.7,1-1
		c0-0.3,0-0.5,0-0.7c-0.4,0.4-0.7,0.7-1,1C26.8,50,26.8,50.2,26.8,50.5z M26.9,41.7c0.2-0.2,0.5-0.5,0.9-0.9c0-0.3,0-0.5,0-0.7
		c-0.3,0.3-0.6,0.5-0.9,0.9C26.9,41.2,26.9,41.4,26.9,41.7z M26.9,49c0.4-0.4,0.7-0.7,1-1c0-0.2,0-0.5,0-0.8c-0.7,0.7-1,1-1,0.9
		c0,0.2,0,0.4,0,0.6C26.9,48.9,26.9,49,26.9,49z M27.8,45.8c-0.1,0.1-0.2,0.2-0.5,0.5c-0.2,0.2-0.3,0.4-0.5,0.5c0,0.3,0,0.5,0,0.7
		c0.3-0.3,0.6-0.6,1-0.9V45.8z M27.8,43.7c0-0.2,0-0.5,0-0.7c-0.7,0.6-1,0.9-0.9,0.9c0,0.3,0,0.5,0,0.7C27.2,44.3,27.5,44,27.8,43.7
		z M26.9,43.1c0.1-0.1,0.4-0.4,0.9-0.9c0-0.3,0-0.5,0-0.7c-0.6,0.6-0.9,0.9-0.9,0.9c0,0.1,0,0.2,0,0.4
		C26.9,42.8,26.9,42.9,26.9,43.1z M27.8,45.1c0-0.2,0-0.5,0-0.7c-0.3,0.3-0.6,0.6-0.9,0.9c0,0.1,0,0.4,0,0.7
		C27.1,45.8,27.4,45.5,27.8,45.1z"/>
	<path class="st0" d="M44.3,56.3c1.2,0,1.8,0.1,1.8,0.4c0,0.8,0,1.2,0,1.1c0,0.2,0,0.4,0,0.4c0,0.8-0.2,1.4-0.5,1.8
		c-0.2,0.3-0.7,0.6-1.4,0.7c-0.2,0-0.7,0.1-1.6,0.1c-0.6,0-1.9,0.1-3.8,0.1c-1.7,0-2.8,0-3.2,0c-0.5,0-0.9-0.1-1-0.1
		c-0.3-0.1-0.5-0.4-0.6-0.7c-0.1-0.6,0-1.4,0.1-2.4c0.2-1.8,0.3-4.1,0.3-7c0-1-0.1-2.5-0.2-4.5c-0.1-2-0.2-3.5-0.2-4.5
		c0-2,0.1-3.3,0.3-3.9c0-0.3,0.6-0.4,1.7-0.4c0.5,0,1,0,1.5,0.1c0.5,0.1,0.7,0.2,0.6,0.3c-0.2,1-0.4,1.7-0.4,2.2
		c-0.1,0.9,0,2.5,0.1,4.9C38,48.5,38,52,37.9,55.1c0,0.4-0.1,1-0.1,1.6c-0.1,0.9-0.1,1.4-0.1,1.6c-0.1,1-0.1,1.6-0.1,1.8
		c0.2,0,1,0,2.5,0.1c0.4,0,0.6,0,0.8,0c0.9,0,1.4-0.3,1.5-1c0.1-0.6,0.2-1.2,0.2-1.8c0,0.1,0-0.2,0-0.7
		C42.5,56.5,43.1,56.3,44.3,56.3z M35.2,59.3c0.2-0.2,0.4-0.4,0.6-0.6c0.1-0.1,0.2-0.2,0.3-0.3c0.1-0.1,0.2-0.2,0.3-0.3
		c0-0.2,0.1-0.5,0.1-0.8c-0.4,0.4-0.8,0.8-1.2,1.2C35.2,58.8,35.2,59.1,35.2,59.3z M35.2,41.7c0,0.1,0,0.1,0,0.1
		c0.4-0.4,0.8-0.8,1.2-1.1c0-0.3,0-0.5,0-0.8c-0.4,0.4-0.8,0.8-1.2,1.2c0,0.1,0,0.2,0,0.4V41.7z M36.4,41.4
		c-0.4,0.4-0.8,0.8-1.2,1.1c0,0.2,0,0.4,0,0.7c0.4-0.4,0.8-0.8,1.1-1.1C36.4,41.9,36.4,41.6,36.4,41.4z M36.4,38.4
		c-0.1,0.1-0.3,0.3-0.6,0.5c-0.2,0.2-0.4,0.4-0.6,0.5c0,0.3,0,0.6,0,0.9c0.4-0.4,0.9-0.8,1.2-1.2c0-0.2,0.1-0.4,0.1-0.7
		C36.6,38.4,36.5,38.4,36.4,38.4z M35.3,57.8c0.4-0.4,0.8-0.8,1.2-1.2c0-0.3,0-0.6,0.1-0.8c-0.4,0.4-0.8,0.8-1.2,1.2
		c0,0.3-0.1,0.5-0.1,0.7C35.3,57.7,35.3,57.7,35.3,57.8C35.3,57.8,35.3,57.8,35.3,57.8z M36.5,43.6c0-0.2,0-0.5,0-0.7
		c-0.4,0.4-0.8,0.8-1.1,1.1c0,0.1,0,0.4,0,0.7C35.7,44.3,36.1,43.9,36.5,43.6z M35.3,38.9c0.1-0.1,0.3-0.3,0.4-0.4
		c-0.1,0-0.3,0-0.4,0C35.4,38.6,35.4,38.7,35.3,38.9z M35.4,46c0.4-0.4,0.8-0.8,1.1-1.1c0,0,0,0,0-0.1c0,0,0-0.1,0-0.1
		c0-0.2,0-0.3,0-0.5c-0.4,0.4-0.8,0.8-1.1,1.1C35.4,45.6,35.4,45.9,35.4,46z M35.5,47.4c0.4-0.4,0.8-0.8,1.1-1.1c0-0.1,0-0.3,0-0.7
		c-0.5,0.5-0.8,0.8-1.1,1.1C35.4,47,35.5,47.2,35.5,47.4z M35.4,56.2c0.4-0.4,0.8-0.8,1.2-1.2c0-0.2,0-0.4,0-0.8
		c-0.4,0.4-0.8,0.8-1.2,1.1C35.5,55.6,35.4,55.9,35.4,56.2z M35.5,48.8c0.4-0.4,0.8-0.8,1.1-1.1c0-0.1,0-0.4,0-0.7
		c-0.4,0.4-0.8,0.8-1.1,1.1C35.5,48.3,35.5,48.5,35.5,48.8z M36.7,53.5c0-0.4,0-0.6,0-0.8c-0.4,0.4-0.8,0.8-1.1,1.1
		c0,0.2,0,0.5,0,0.8C35.9,54.2,36.3,53.9,36.7,53.5z M35.6,50.2c0.5-0.5,0.8-0.8,1.1-1.1c0-0.2,0-0.4,0-0.7
		c-0.4,0.4-0.8,0.8-1.1,1.1C35.6,49.6,35.6,49.9,35.6,50.2z M36.7,52c0-0.4,0-0.6,0-0.7c-0.2,0.2-0.6,0.6-1.1,1.1c0,0.3,0,0.5,0,0.7
		C36,52.7,36.4,52.3,36.7,52z M35.6,51.7c0.4-0.4,0.8-0.8,1.1-1.1c0-0.3,0-0.5,0-0.7c-0.4,0.4-0.8,0.8-1.1,1.1
		C35.6,51.1,35.6,51.4,35.6,51.7z M35.6,59.6c0.1,0,0.3,0,0.6,0c0-0.2,0-0.4,0-0.7C36,59.2,35.8,59.4,35.6,59.6L35.6,59.6z
		 M43.9,59.5c0.1-0.1,0.3-0.2,0.5-0.4c0.2-0.2,0.4-0.4,0.5-0.5c0-0.1,0-0.3,0.1-0.5V58v0c0,0,0,0,0-0.1v-0.1v0
		c-0.2,0.2-0.6,0.6-1.3,1.3c0,0.3-0.1,0.4-0.1,0.4c0,0,0,0.1,0,0.1C43.6,59.5,43.8,59.5,43.9,59.5z M44.3,57.6c-0.2,0-0.4,0-0.6,0
		c0,0.1,0,0.3-0.1,0.6C43.7,58.1,44,57.9,44.3,57.6L44.3,57.6z"/>
	<path class="st0" d="M63.4,50.1c0.1,0.5,0.1,1.2,0.1,2c0,1.1,0,1.8,0,2c0.1,2.5,0.1,4.5-0.1,6.1c0,0.4-0.6,0.6-1.8,0.6
		c-0.5,0-1-0.1-1.4-0.2c-0.4-0.1-0.6-0.3-0.6-0.4c0.1-0.9,0.1-2.3,0-4.1c-0.1-1.8-0.1-3.2,0-4.1c0-0.4,0-0.8,0-1.2
		c-0.1-0.5-0.2-0.8-0.3-0.8c-1.7,0.1-3,0.1-3.8,0.1c-0.3,0-0.4,0-0.5,0c0.2,5.7,0.1,9-0.1,9.9c-0.1,0.3-0.3,0.5-0.7,0.7
		c-0.4,0.2-0.8,0.2-1.3,0.2c-0.5,0-1-0.1-1.3-0.3c-0.4-0.2-0.5-0.5-0.4-0.9c0.1-0.5,0.1-3.8,0.1-10.1c-0.1-6.5,0-10.3,0.3-11.7
		c0-0.5,0.6-0.7,1.7-0.7c0.5,0,1,0.1,1.4,0.2c0.4,0.1,0.7,0.3,0.7,0.5c-0.1,7-0.2,10.5-0.2,10.2c0.6-0.4,1.3-1,2-1.7
		c1.3-1.4,2-2.9,2.2-4.5c0-0.2,0.1-1,0.1-2.2c0-1,0.1-1.8,0.2-2.2c0.1-0.3,0.6-0.4,1.5-0.4c0.5,0,0.9,0,1.3,0.1
		c0.4,0.1,0.6,0.1,0.6,0.2c0.1,2.2,0,3.9-0.1,4.9c-0.2,2.4-2.6,4.6-7,6.6c0.6-0.1,1.6-0.1,3-0.1c0.5,0,0.9,0,1.1,0
		c1.2,0.1,1.9,0.1,2,0.1C62.8,49.2,63.3,49.5,63.4,50.1z M52.5,59.3c0,0.1,0,0.2,0,0.3c0.1,0,0.3,0,0.4,0c0,0,0.1,0,0.2,0
		c0.1-0.1,0.2-0.2,0.3-0.3c0.1-0.1,0.3-0.3,0.4-0.3c0-0.3,0-0.6,0.1-0.9L52.5,59.3z M53.9,41.9c-0.5,0.5-0.9,0.9-1.4,1.3
		c0,0.2,0,0.5,0,0.7c0.4-0.4,0.9-0.8,1.3-1.3C53.9,42.3,53.9,42.1,53.9,41.9z M53.8,43.4c-0.5,0.5-0.9,0.9-1.3,1.3v0.7
		c0.4-0.4,0.8-0.8,1.3-1.2C53.8,43.9,53.8,43.7,53.8,43.4z M53.7,45.7c0-0.2,0-0.5,0-0.7c-0.1,0.1-0.3,0.3-0.6,0.6
		c-0.3,0.3-0.5,0.5-0.6,0.6c0,0.3,0,0.6,0,0.7C52.9,46.5,53.3,46.1,53.7,45.7z M54,40.4c-0.4,0.4-0.9,0.9-1.4,1.4c0,0.3,0,0.5,0,0.7
		c0.5-0.5,1-1,1.4-1.4C53.9,41,53.9,40.7,54,40.4z M53.8,46.4c-0.4,0.4-0.8,0.9-1.2,1.2c0,0.2,0,0.4,0,0.7c0.3-0.3,0.7-0.7,1.2-1.2
		C53.8,46.8,53.8,46.6,53.8,46.4z M52.6,49.8c0.4-0.4,0.8-0.8,1.3-1.3l0-0.2c0,0,0-0.2,0-0.4L52.5,49v0L52.6,49.8z M52.6,51.2
		c0.2-0.2,0.6-0.6,1.2-1.2l0.1-0.8c-0.4,0.4-0.8,0.8-1.2,1.2v0C52.6,50.8,52.6,51,52.6,51.2L52.6,51.2z M54,38.8
		c-0.5,0.5-1,0.9-1.4,1.4c0,0.2,0,0.5,0,0.7c0.5-0.5,1-0.9,1.4-1.4C54,39.4,54,39.1,54,38.8z M53.7,50.8c-0.5,0.5-0.9,0.9-1.2,1.1
		c0,0.2,0,0.5,0,0.7c0.2-0.2,0.6-0.6,1.2-1.1C53.7,51.3,53.7,51.1,53.7,50.8z M52.6,53.4c0,0.1,0,0.4,0,0.7c0.5-0.5,0.9-0.9,1.2-1.2
		c0-0.3,0-0.5,0-0.7C53,53,52.6,53.4,52.6,53.4z M53.8,56.5c-0.4,0.4-0.8,0.8-1.2,1.2c0,0.3,0,0.5,0,0.8c0.2-0.2,0.6-0.6,1.2-1.2
		C53.8,57.1,53.8,56.8,53.8,56.5z M52.6,54.8c0,0.4,0,0.6,0,0.7c0.4-0.4,0.8-0.8,1.2-1.2c0-0.2,0-0.4,0-0.7
		C53.4,54.1,53,54.5,52.6,54.8z M53.8,55.1c-0.7,0.7-1.1,1.1-1.2,1.2c0,0.3,0,0.5,0,0.7c0.3-0.3,0.7-0.7,1.2-1.2
		C53.8,55.6,53.8,55.3,53.8,55.1z M53,38.4c0,0-0.1,0.1-0.3,0.3c0,0.2-0.1,0.5-0.1,0.8c0.2-0.3,0.6-0.6,1-1c-0.1,0-0.3,0-0.4,0
		C53.2,38.4,53.1,38.4,53,38.4z M59.6,45.1c-0.1,0.2-0.3,0.5-0.4,0.6c1.1-0.8,1.8-1.6,2.2-2.5C61.2,43.4,60.6,44,59.6,45.1z
		 M61.8,41.5c-0.5,0.5-1,1-1.3,1.3c-0.1,0.3-0.2,0.7-0.3,1c0.4-0.4,0.7-0.7,0.9-0.9l0.6-0.6v0c0-0.2,0-0.3,0-0.3
		S61.7,41.8,61.8,41.5z M61.8,40c-0.6,0.6-1,1-1.2,1.2c0,0.3,0,0.6-0.1,0.8c0.5-0.5,0.9-0.9,1.2-1.2C61.8,40.5,61.8,40.2,61.8,40z
		 M60.6,39.5c0,0.2,0,0.4,0,0.8c0,0,0,0.1,0,0.1c0.4-0.4,0.8-0.8,1.2-1.1c0-0.3,0-0.5,0-0.8c0,0,0,0-0.1,0
		C61.5,38.6,61.1,39,60.6,39.5z M61.1,38.4c-0.1,0-0.3,0-0.4,0c0,0.1,0,0.3,0,0.5c0,0,0.1-0.1,0.3-0.2C61,38.5,61.1,38.4,61.1,38.4
		C61.1,38.4,61.1,38.4,61.1,38.4L61.1,38.4z M61.1,50.1c-0.1,0-0.2,0-0.3,0c0,0.1,0,0.2,0.1,0.3C60.9,50.3,61,50.2,61.1,50.1z
		 M62.2,51.9c0-0.2,0-0.5,0-0.7c-0.6,0.6-1.1,1-1.3,1.3c0,0.3,0,0.6,0,0.8C61.2,52.9,61.7,52.4,62.2,51.9z M60.8,54.8
		c0.4-0.4,0.8-0.8,1.3-1.3c0-0.2,0-0.5,0-0.7c-0.7,0.7-1.1,1.1-1.3,1.3v0c0,0.2,0,0.2,0,0.2S60.8,54.4,60.8,54.8z M62.2,54.2
		c-0.1,0.1-0.4,0.4-0.7,0.6c-0.3,0.3-0.5,0.5-0.7,0.6c0,0.1,0,0.1,0,0.3c0,0.1,0,0.2,0,0.3l0,0.1c0.3-0.3,0.8-0.8,1.3-1.3
		C62.2,54.7,62.2,54.4,62.2,54.2L62.2,54.2z M62.2,50.5c0-0.2,0-0.2,0-0.2c-0.1-0.1-0.3-0.1-0.5-0.1c0.1-0.1-0.2,0.2-0.8,0.8
		c0,0.3,0,0.5,0,0.8C61.3,51.4,61.7,51,62.2,50.5z M60.9,56.9c0,0.2,0,0.4,0,0.7c0.4-0.4,0.9-0.8,1.3-1.3c0-0.3,0-0.5,0-0.7
		C61.8,56,61.4,56.4,60.9,56.9z M60.9,58.3c0,0.2,0,0.5,0,0.7c0.5-0.5,0.9-0.9,1.3-1.3c0-0.2,0-0.5,0-0.7
		C61.6,57.6,61.2,58,60.9,58.3z M61.8,59.6c0.2-0.2,0.3-0.3,0.4-0.3c0-0.3,0-0.5,0-0.8c-0.6,0.6-1,0.9-1.1,1.1c0.2,0,0.3,0,0.5,0
		C61.6,59.6,61.7,59.6,61.8,59.6z"/>
	<path class="st0" d="M94.8,37.3c0.7,0.1,1.1,0.1,1.2,0.1c0.5,0.1,0.8,0.4,0.7,0.8c0,1-0.1,2-0.3,2.9c0,0.2-0.5,0.4-1.5,0.4
		c-0.5,0-1,0-1.5-0.1c-0.5-0.1-0.7-0.1-0.7-0.2c0,0.1,0.1-0.6,0.2-2.1c0-0.5,0.1-0.7,0.1-0.8v0c-0.1,0-0.3,0-0.5,0
		c-1.4,0-2.6-0.1-3.6-0.2c0,0-0.1,0.5-0.1,1.6c-0.1,0.9,0,2.6,0.1,4.9c0.1,1,0.1,2.1,0.1,3.1c0,0,0.1,0,0.4,0c0.4,0,1.1,0,2.3,0
		c1.1,0,1.8,0,1.8,0h0c0.6,0,0.9,0.4,0.9,1.1c0,0.3-0.1,0.6-0.2,0.8c-0.2,0.2-0.4,0.3-0.6,0.3c-0.4,0-1.2,0.1-2.6,0.1
		c-1.3,0-1.9,0-2,0c0,1.8,0,3.4-0.1,5c0,0.4-0.1,1-0.1,1.6c-0.1,0.9-0.1,1.4-0.2,1.6c0,0.1,0,0.4,0,0.8c0,0.4,0,0.8,0,1
		c-0.1,0.6-0.5,0.8-1.4,0.8c-0.1,0-0.3,0-0.6,0c-0.5,0-0.9-0.1-1-0.1c-0.3-0.1-0.5-0.4-0.6-0.7c-0.1-0.6,0-1.4,0.1-2.5
		c0.2-1.8,0.3-4.2,0.3-7c0-1-0.1-2.5-0.2-4.5c-0.1-2-0.2-3.5-0.2-4.5c0,0,0-0.3,0-0.9c0-0.4,0-0.8,0-1.1c0-0.9,0.2-1.5,0.5-1.9
		c0.2-0.2,1.7-0.3,4.5-0.3C92.4,37.2,93.9,37.3,94.8,37.3z M86.6,59.6c0.4-0.4,0.7-0.7,0.9-0.9c0-0.2,0-0.4,0-0.5l0-0.3
		c-0.4,0.4-0.8,0.8-1.2,1.2c0,0.2,0,0.4,0,0.5C86.4,59.6,86.5,59.6,86.6,59.6z M86.4,40.8c0.5-0.5,0.9-0.9,1.2-1.2v0
		c0,0,0-0.1,0-0.3c0-0.2,0-0.4,0-0.6c-0.1,0.1-0.3,0.3-0.6,0.6c-0.3,0.3-0.5,0.5-0.6,0.6C86.4,40.1,86.4,40.4,86.4,40.8L86.4,40.8z
		 M86.5,57.7c0,0.2,0,0.5-0.1,0.7c0.4-0.4,0.9-0.8,1.2-1.2c0,0,0,0,0-0.1c0,0,0,0,0,0c0-0.3,0.1-0.5,0.1-0.7
		c-0.4,0.4-0.8,0.8-1.2,1.2C86.5,57.5,86.5,57.5,86.5,57.7C86.5,57.6,86.5,57.6,86.5,57.7z M87.6,40.3c-0.4,0.4-0.8,0.8-1.2,1.2
		c0,0.2,0,0.4,0,0.7c0.4-0.4,0.8-0.8,1.2-1.1C87.6,40.9,87.6,40.6,87.6,40.3z M86.4,39.3c0.3-0.4,0.6-0.6,0.8-0.8
		c-0.3,0-0.5,0-0.7,0.1C86.5,38.8,86.4,39,86.4,39.3z M87.6,41.8c-0.4,0.4-0.8,0.8-1.1,1.1c0,0.3,0,0.6,0,0.7
		c0.4-0.4,0.8-0.8,1.1-1.1C87.6,42.3,87.6,42,87.6,41.8z M86.5,45.1c0.4-0.4,0.8-0.8,1.2-1.1c0-0.2,0-0.5-0.1-0.7
		c-0.4,0.4-0.8,0.8-1.1,1.1C86.5,44.7,86.5,45,86.5,45.1z M87.7,44.6c-0.5,0.5-0.9,0.9-1.2,1.1c0,0,0,0.1,0,0.2c0,0.1,0,0.1,0,0.2
		c0,0,0,0.1,0,0.3c0.5-0.5,0.9-0.8,1.2-1.1C87.7,44.8,87.7,44.6,87.7,44.6L87.7,44.6z M86.6,55.9c0,0.3,0,0.6-0.1,0.8
		c0.5-0.5,0.9-0.9,1.2-1.2c0-0.2,0-0.3,0-0.5c0,0,0-0.1,0-0.2s0-0.1,0-0.1C87.5,55,87.1,55.4,86.6,55.9z M87.8,46.7
		c0-0.4,0-0.6,0-0.7c-0.1,0.1-0.3,0.3-0.6,0.6c-0.3,0.3-0.5,0.4-0.6,0.6c0,0.1,0,0.3,0.1,0.7C87.1,47.5,87.4,47.1,87.8,46.7z
		 M87.8,54c0-0.2,0-0.4,0-0.8c-0.3,0.3-0.7,0.6-1.2,1.1c0,0.3,0,0.6,0,0.8C87.1,54.7,87.5,54.3,87.8,54z M86.7,48.5
		c0,0.2,0,0.5,0,0.7c0.4-0.4,0.8-0.8,1.1-1.1v-0.4c0,0,0-0.1,0-0.2c0-0.1,0-0.1,0-0.2C87.4,47.8,87,48.2,86.7,48.5z M87.9,52.5
		c0-0.2,0-0.4,0-0.8c-0.3,0.3-0.6,0.6-1.1,1.1c0,0.2,0,0.5,0,0.8C87.2,53.2,87.6,52.8,87.9,52.5z M86.7,50.7
		c0.4-0.4,0.8-0.8,1.1-1.1V49l0-0.2v0c-0.5,0.5-0.8,0.8-1.1,1.1v0.6V50.7z M86.7,52.1c0.4-0.3,0.7-0.7,1.1-1.1v-0.9
		c-0.2,0.2-0.6,0.6-1.1,1.1C86.7,51.6,86.7,51.9,86.7,52.1z M87.3,59.7c0.1,0,0.1,0,0.2,0c0,0,0-0.1,0-0.2c0,0-0.1,0.1-0.1,0.1
		C87.3,59.6,87.3,59.6,87.3,59.7C87.4,59.7,87.4,59.7,87.3,59.7z M94.2,40.2l0.2,0c0.1-0.1,0.3-0.3,0.5-0.5c0.2-0.2,0.4-0.4,0.5-0.5
		c0-0.3,0-0.5,0.1-0.6c0,0-0.1,0-0.2,0c0,0,0,0-0.1,0.1c0,0-0.1,0.1-0.1,0.1c-0.3,0.3-0.6,0.6-0.9,0.9c0,0,0,0.1,0,0.1
		c0,0.1,0,0.1,0,0.1c0,0.1,0,0.2,0,0.2S94.2,40.1,94.2,40.2z M94.4,38.5c0,0.1,0,0.2,0,0.3c0,0,0.1-0.1,0.3-0.3
		C94.5,38.5,94.5,38.5,94.4,38.5z M95.4,40c0,0-0.1,0.1-0.2,0.1c-0.1,0.1-0.1,0.1-0.1,0.1c0.1,0,0.2,0,0.3,0c0,0,0-0.1,0-0.1
		C95.4,40,95.4,40,95.4,40z"/>
	<path class="st0" d="M116.1,37.8c0,9,0,13.5,0,13.5c0,1.1-0.1,2.4-0.2,4c-0.1,2.6-0.2,4-0.2,4.3c0,0.6-0.3,0.9-1,1.1
		c-0.4,0.1-0.9,0.2-1.4,0.1c-0.9-0.1-1.4-0.3-1.4-0.6c-0.1-0.4-0.1-2.1,0.1-5.2c0-1,0.1-2,0.1-2.8h-0.2c-3,0-4.9,0-5.5,0
		c0,1-0.1,2.1-0.2,3.5c-0.1,2.3-0.2,3.6-0.2,3.9c0,0.5-0.3,0.9-1,1c-0.4,0.1-0.9,0.1-1.4,0.1c-0.9-0.1-1.4-0.2-1.4-0.5
		c-0.1-0.4-0.1-1.9,0-4.7c0.1-2.1,0.2-3.8,0.2-5.2c0-0.5,0-1.3,0-2.7c0-1.3,0-2.4,0-3.1c0-2.4,0.2-3.7,0.6-3.9
		c0.6-0.3,2.3-0.9,5.1-1.7c0.4-0.1,1.1-0.4,2.1-0.7c0.9-0.3,1.6-0.6,2.1-0.7c0.1-0.3,0.8-0.4,2-0.4
		C115.5,37.2,116.1,37.4,116.1,37.8z M104.4,58.2c0.3-0.3,0.4-0.6,0.4-1.1c-0.8,0.8-1.2,1.2-1.3,1.2c-0.2,0.2-0.3,0.5-0.3,1
		C103.9,58.6,104.3,58.2,104.4,58.2z M104.6,56.5c0.2-0.2,0.3-0.5,0.3-1c-0.8,0.8-1.2,1.2-1.2,1.2c-0.2,0.2-0.4,0.6-0.4,1.1
		C104.1,57,104.5,56.6,104.6,56.5z M104.6,55.1c0.3-0.2,0.4-0.6,0.3-1.1c-0.7,0.8-1.1,1.2-1.2,1.2c-0.2,0.2-0.3,0.5-0.3,1
		C104.2,55.5,104.6,55.1,104.6,55.1z M104.6,53.6c0.3-0.3,0.5-0.7,0.4-1.1c-0.7,0.7-1.1,1.1-1.1,1.1c-0.2,0.2-0.3,0.5-0.3,1
		C104.2,54,104.6,53.6,104.6,53.6z M103.8,44.9c-0.2,0.2-0.3,0.5-0.2,0.9c0.7-0.7,1-1,1.1-1c0.4-0.3,0.5-0.7,0.3-1.1
		C104.3,44.4,103.9,44.8,103.8,44.9z M103.8,43.4c-0.1,0.1-0.2,0.4-0.2,1c0.7-0.7,1.1-1.1,1.2-1.2c0.2-0.2,0.3-0.5,0.3-0.9
		c0,0-0.1,0.1-0.3,0.2C104.1,43.1,103.8,43.4,103.8,43.4z M104.6,52.1c0.4-0.3,0.5-0.7,0.4-1.2c-0.7,0.7-1.1,1.1-1.2,1.1
		c-0.2,0.2-0.3,0.5-0.3,1C104.2,52.5,104.6,52.2,104.6,52.1z M104.7,46.2c0.3-0.3,0.4-0.6,0.3-1c-0.8,0.8-1.2,1.2-1.2,1.2
		c-0.1,0.1-0.2,0.4-0.2,0.9C104.3,46.6,104.7,46.2,104.7,46.2z M104.7,47.6c0.3-0.3,0.4-0.6,0.3-1c-0.7,0.7-1.1,1.1-1.2,1.1
		c-0.2,0.2-0.3,0.5-0.3,1C104.3,48,104.7,47.7,104.7,47.6z M103.6,59.6c0.8,0.2,1.2-0.2,1.1-1c-0.3,0.3-0.5,0.5-0.5,0.5
		C104.1,59.2,104,59.3,103.6,59.6z M104.7,49.1c0.3-0.2,0.4-0.6,0.3-1.1c-0.7,0.7-1.1,1.1-1.2,1.2c-0.2,0.2-0.3,0.5-0.2,1
		C104.3,49.5,104.7,49.1,104.7,49.1z M104.8,50.5c0.3-0.2,0.4-0.6,0.3-1c-0.7,0.7-1.1,1.1-1.2,1.1c-0.2,0.2-0.3,0.5-0.2,1
		C104.3,50.9,104.7,50.6,104.8,50.5z M103.7,42.8c0.1-0.1,0.3-0.3,0.7-0.7c0.3-0.3,0.5-0.5,0.7-0.7c-0.6,0.1-0.9,0.3-1.1,0.4
		C103.7,42,103.6,42.4,103.7,42.8z M112.2,49.4c0-1.4,0-4.6,0-9.7c-1,0.4-1.8,0.7-2.2,0.8c-1.7,0.5-2.9,0.8-3.5,1.1c0,5.8,0,9,0,9.8
		c0.3,0,0.5,0.1,0.8,0.1c0.4,0.1,1.9,0.1,4.7,0.1c0.1,0,0.2,0,0.3,0C112.1,50.7,112.2,50,112.2,49.4z M114.1,58.9
		c0.3-0.2,0.4-0.6,0.4-1.1c-0.8,0.8-1.3,1.2-1.4,1.4c-0.2,0.1-0.2,0.3,0,0.4c0.1,0.1,0.2,0.1,0.4-0.1
		C113.8,59.2,114,58.9,114.1,58.9z M114.1,57.4c0.3-0.3,0.5-0.7,0.4-1.1c-0.8,0.8-1.2,1.2-1.2,1.2c-0.2,0.2-0.3,0.5-0.3,1
		C113.7,57.8,114.1,57.4,114.1,57.4z M114.2,55.8c0.3-0.2,0.4-0.6,0.3-1.1c-0.7,0.7-1.1,1.1-1.1,1.1c-0.2,0.2-0.4,0.6-0.4,1.1
		C113.8,56.2,114.2,55.8,114.2,55.8z M114.3,54.2c0.3-0.2,0.4-0.6,0.3-1c-0.7,0.7-1.1,1.1-1.2,1.2c-0.2,0.1-0.2,0.4-0.2,0.9
		c0.1-0.1,0.3-0.3,0.6-0.5C114,54.5,114.2,54.4,114.3,54.2z M114.4,52.7c0.3-0.3,0.4-0.6,0.3-1c-0.7,0.7-1.1,1-1.1,1.1
		c-0.2,0.2-0.3,0.5-0.3,1.1C113.9,53.2,114.3,52.8,114.4,52.7z M114.4,51.2c0.3-0.2,0.4-0.6,0.3-1.1c-0.7,0.7-1,1-1.1,1.1
		c-0.3,0.3-0.4,0.6-0.3,1.1C114,51.6,114.4,51.3,114.4,51.2z M113.9,38.5c-0.3,0-0.5,0-0.6,0c-0.1,0.1-0.1,0.2,0,0.4
		C113.5,38.9,113.7,38.7,113.9,38.5z M114.6,38.7c-0.6,0.5-0.8,0.8-0.9,0.8c-0.3,0.3-0.4,0.6-0.3,1.1c0.7-0.7,1.1-1.1,1.1-1.1
		c0.2-0.2,0.3-0.4,0.3-0.7c0-0.1,0-0.2,0-0.2C114.7,38.6,114.6,38.6,114.6,38.7z M114.6,48.2c0.2-0.2,0.2-0.5,0.2-0.9
		c-0.7,0.7-1,1-1.1,1.1c-0.3,0.2-0.4,0.6-0.3,1.1C114.1,48.6,114.5,48.2,114.6,48.2z M114.5,45.3c0.2-0.2,0.3-0.5,0.3-1
		c-0.6,0.6-1,1-1,1c-0.3,0.3-0.4,0.6-0.3,1.1C114.1,45.7,114.4,45.4,114.5,45.3z M114.5,49.7c0.3-0.2,0.4-0.6,0.3-1
		c-0.7,0.7-1.1,1.1-1.2,1.2c-0.2,0.2-0.3,0.5-0.2,1C114,50.1,114.4,49.8,114.5,49.7z M114.6,46.7c0.2-0.2,0.3-0.5,0.2-0.9
		c-0.7,0.7-1,1-1.1,1.1c-0.3,0.2-0.4,0.6-0.3,1C114.1,47.1,114.5,46.8,114.6,46.7z M113.7,42.5c-0.3,0.2-0.4,0.6-0.3,1
		c0.7-0.7,1-1,1.1-1.1c0.2-0.2,0.3-0.5,0.3-1C114.1,42,113.7,42.4,113.7,42.5z M114.4,43.9c0.3-0.3,0.5-0.6,0.4-1.1
		c-0.7,0.7-1.1,1.1-1.2,1.1c-0.2,0.1-0.2,0.5-0.2,0.9C114,44.3,114.3,44,114.4,43.9z M114.4,41c0.4-0.3,0.5-0.7,0.4-1.1
		c-0.7,0.7-1.1,1.1-1.1,1.1c-0.2,0.2-0.3,0.5-0.2,1C114,41.4,114.3,41.1,114.4,41z M114,59.7c0.2,0,0.3-0.1,0.4-0.1c0,0,0-0.1,0-0.2
		C114.4,59.3,114.3,59.4,114,59.7z"/>
	<path class="st0" d="M131.1,49c0.8,0.4,1.2,1.2,1.4,2.5c0.1,0.4,0.1,1.1,0.1,1.9c0,1.1,0.1,1.9,0.1,2.3c0.2,2.3,0.2,3.8,0.1,4.6
		c-0.1,0.4-0.7,0.6-2,0.6c-0.3,0-0.7,0-1-0.1c-0.6,0-1.2,0-1.8,0c-1.7,0-2.8,0-3.5-0.1c-0.9-0.1-1.5-0.1-1.6-0.1
		c-0.7-0.1-1.2-0.4-1.4-0.7c-0.3-0.4-0.4-1-0.5-1.8c0,0,0-0.1,0-0.4c0,0.1,0-0.3,0-1.1c0-0.2,0.6-0.3,1.8-0.3c1.2,0,1.8,0.1,1.8,0.3
		c0,0.5,0,0.8,0,0.7c0,0.6,0.1,1.2,0.2,1.8c0.1,0.4,0.2,0.7,0.4,0.8c0.2,0.1,0.4,0.2,0.7,0.2c0.1,0,0.3,0,0.7,0
		c1.4-0.1,2.2-0.1,2.3-0.1c0-0.4-0.1-3.6-0.1-9.6c0-0.3-0.4-0.5-1.2-0.9c-0.2-0.1-0.6-0.3-1.2-0.5c-0.6-0.2-1.1-0.4-1.4-0.5
		c-2.6-1.1-3.9-2.3-4-3.7c-0.1-1.4-0.1-3.8-0.1-7.3c0-0.1,0.2-0.1,0.6-0.2c0.4-0.1,0.9-0.1,1.3-0.1c0.3,0,0.6,0,0.8,0.1
		c0.6,0,1.3,0,2.1,0c2.2,0,3.8,0,4.6,0.1c0.7,0.1,1.1,0.1,1.2,0.1c0.5,0.1,0.7,0.4,0.7,0.8c0,1-0.1,2-0.3,2.9c0,0.2-0.5,0.3-1.5,0.3
		c-0.5,0-1,0-1.5-0.1c-0.5-0.1-0.7-0.2-0.7-0.2c0,0.1,0.1-0.6,0.2-2.1c0-0.5,0.1-0.7,0.1-0.8v0c-0.1,0-0.3,0-0.5,0
		c-1.4,0-2.6-0.1-3.6-0.2c-0.1,0-0.1,1.3-0.1,3.9c0,0.2,0,0.7,0,1.4c0,0.5,0,0.9,0,1.1c0,1,0.7,1.9,2,2.5c0.3,0.2,1,0.5,2.1,0.9
		C129.7,48.3,130.5,48.7,131.1,49z M122.3,40.9c0.4-0.4,0.8-0.7,1.1-1c0-0.3,0-0.6,0-0.8c-0.5,0.5-0.8,0.9-1.1,1.1L122.3,40.9z
		 M122.6,38.5c-0.1,0.1-0.1,0.1-0.2,0.2c0,0.2,0,0.4,0,0.8c0.3-0.3,0.7-0.7,1.1-1c-0.1,0-0.2,0-0.4,0
		C122.9,38.4,122.7,38.4,122.6,38.5z M123.4,40.6c-0.4,0.4-0.7,0.7-1.1,1.1c0,0.3,0,0.6,0,0.7c0.4-0.4,0.7-0.7,1.1-1
		C123.4,41.1,123.4,40.9,123.4,40.6z M123.4,42.1c-0.3,0.3-0.7,0.7-1.1,1c0,0.3,0,0.5,0,0.7c0.4-0.3,0.7-0.7,1.1-1
		C123.4,42.5,123.4,42.3,123.4,42.1z M122.4,44.8c0,0.1,0,0.2,0.1,0.4c0.2-0.2,0.5-0.5,1-1c0-0.2,0-0.4,0-0.7
		c-0.3,0.3-0.7,0.7-1.1,1.1C122.4,44.6,122.4,44.7,122.4,44.8z M122.4,58c0,0.1,0,0.2,0,0.3c0.2-0.2,0.5-0.4,0.8-0.8
		c-0.1,0-0.2,0-0.3,0c-0.2,0-0.4,0-0.6,0c0,0.1,0,0.1,0,0.2v0.1v0.1V58z M122.5,58.9c0,0.1,0.1,0.2,0.1,0.3c0.1,0,0.2,0.1,0.3,0.1
		c0.1-0.1,0.2-0.2,0.3-0.3c0.1-0.1,0.3-0.3,0.3-0.3c0-0.2-0.1-0.5-0.1-0.8c-0.1,0.1-0.3,0.2-0.5,0.5
		C122.8,58.6,122.6,58.8,122.5,58.9z M122.7,45.6c0.1,0.1,0.2,0.3,0.4,0.4c0.3-0.3,0.4-0.4,0.5-0.5c-0.1-0.2-0.1-0.4-0.1-0.6
		C123.2,45.1,123,45.4,122.7,45.6z M123.7,59.4C123.7,59.4,123.7,59.3,123.7,59.4c0-0.1,0-0.2,0-0.2c0,0-0.1,0.1-0.1,0.1
		c0,0.1-0.1,0.1-0.1,0.1C123.6,59.5,123.6,59.5,123.7,59.4C123.7,59.4,123.7,59.4,123.7,59.4z M123.8,46c-0.2,0.2-0.3,0.2-0.3,0.3
		c0.1,0.1,0.3,0.2,0.5,0.3l0.1-0.1C124,46.3,123.9,46.2,123.8,46z M131.2,38.6c-0.3,0.3-0.7,0.7-1.2,1.2c0,0.1,0,0.1,0,0.1l0,0.3
		c0.1,0,0.3,0,0.5,0c0.1-0.1,0.2-0.2,0.3-0.3c0.2-0.2,0.3-0.3,0.4-0.3C131.2,39.2,131.2,38.9,131.2,38.6z M130.1,39.1l0.6-0.6
		c-0.1,0-0.2,0-0.2,0c-0.1,0-0.2,0-0.3,0c0,0.1,0,0.3,0,0.4C130.1,39.1,130.1,39.1,130.1,39.1z M130.6,50.2c0,0-0.1-0.1-0.1-0.1
		c-0.1-0.1-0.3-0.1-0.4-0.2c0,0.1,0.1,0.3,0.1,0.4v0.2c0,0,0.1-0.1,0.2-0.2C130.5,50.3,130.6,50.3,130.6,50.2z M131,50.6
		c-0.1,0.1-0.4,0.4-0.8,0.7v0.1c0,0.1,0,0.2,0,0.3v0.3c0.4-0.4,0.7-0.7,1-0.9C131.1,50.9,131,50.7,131,50.6z M130.2,53.5
		c0.4-0.4,0.8-0.8,1.1-1.1c0-0.3,0-0.5-0.1-0.7c-0.3,0.3-0.7,0.6-1.1,1.1V53.5z M130.2,55c0.1-0.1,0.3-0.3,0.6-0.6
		c0.3-0.3,0.5-0.5,0.6-0.6c0-0.3,0-0.5,0-0.7c-0.4,0.4-0.8,0.8-1.2,1.2V55z M130.2,56.4c0.4-0.3,0.8-0.8,1.3-1.2c0-0.2,0-0.5,0-0.7
		c-0.4,0.4-0.8,0.8-1.2,1.2V56.4z M131.5,55.9c-0.4,0.4-0.9,0.9-1.3,1.3c0,0.3,0,0.5,0,0.7c0.4-0.4,0.9-0.9,1.3-1.3
		C131.6,56.4,131.5,56.2,131.5,55.9L131.5,55.9z M131.6,57.2c-0.5,0.5-0.9,0.9-1.4,1.4c0,0.3,0,0.6,0,0.8c0.2-0.2,0.4-0.4,0.7-0.7
		c0.3-0.3,0.5-0.5,0.7-0.7C131.6,57.8,131.6,57.5,131.6,57.2z M131.5,59.6c0.1-0.1,0.1-0.1,0.2-0.2c0-0.2,0-0.5,0-0.8
		c-0.3,0.3-0.7,0.7-1,1c0.1,0,0.2,0,0.2,0C131.1,59.7,131.3,59.7,131.5,59.6z"/>
	<path class="st0" d="M149.5,37.1c1.3,0,2,0.2,2,0.6c0,8,0,11.9,0,11.6c0,1-0.1,3-0.2,6c-0.1,2.6-0.2,4-0.2,4.3
		c0,0.8-0.3,1.2-0.8,1.2c0,0,0,0-0.1,0c-0.3,0.1-0.6,0.1-1,0.1c-0.2,0-0.4,0-0.6,0c-0.9-0.1-1.4-0.3-1.5-0.6
		c-0.1-0.4-0.1-2.2,0.1-5.2c0.1-2,0.1-3.3,0.2-3.8c-0.2,0-1.1-0.1-2.6-0.1c-1.4,0-2.1,0-2.2,0c-0.1,0-0.2,0-0.3,0c0,1-0.1,2.4-0.2,4
		c-0.1,2.6-0.2,4-0.2,4.3c0,0.8-0.7,1.3-2,1.3c-0.1,0-0.2,0-0.4,0c-0.9-0.1-1.4-0.3-1.5-0.6c-0.1-0.4-0.1-2.2,0-5.2
		c0.1-2.3,0.2-4.2,0.2-5.7c0-0.1,0-3.9,0-11.4v-0.3c0-0.4,0.7-0.6,2-0.6c1.3,0,2,0.2,2,0.6c0,8,0,11.9,0,11.6c0.4,0,0.7-0.1,1-0.1
		c0,0,0.1,0,0.4,0c0.3,0,0.5,0,0.7,0c1.5,0,2.5,0.1,3,0.2c0-0.4,0-4.2,0-11.5v-0.3C147.5,37.3,148.1,37.1,149.5,37.1L149.5,37.1z
		 M139.2,57.8c0,0.3,0,0.5,0,0.8c0.4-0.4,1-1,1.6-1.6c0,0,0-0.1,0-0.2c0-0.1,0-0.2,0-0.3c0,0,0-0.1,0-0.1c0-0.1,0-0.1,0-0.1
		C140.5,56.5,139.9,57.1,139.2,57.8z M139.6,59.6c0.1-0.1,0.3-0.3,0.5-0.5c0.3-0.3,0.5-0.4,0.5-0.5c0-0.3,0-0.6,0-0.9
		c-0.9,0.9-1.4,1.4-1.5,1.5c0,0.1,0,0.2,0.1,0.3C139.3,59.6,139.4,59.6,139.6,59.6L139.6,59.6z M139.3,56.6c0,0.1,0,0.2,0,0.3
		c0.5-0.5,1-1,1.6-1.6c0,0,0,0,0-0.1c0,0,0-0.1,0-0.1c0-0.1,0-0.2,0-0.3c0-0.2,0-0.3,0-0.3c-0.6,0.6-1.1,1.1-1.6,1.5
		C139.3,56.5,139.3,56.6,139.3,56.6z M140.9,53.9c0-0.2,0-0.5,0-0.8l-1.5,1.5c0,0.1,0,0.1,0,0.3c0,0.1,0,0.2,0,0.3c0,0,0,0.1,0,0.1
		c0,0.1,0,0.1,0,0.1C140.1,54.7,140.6,54.2,140.9,53.9z M139.5,53.8c0.5-0.5,1-1,1.5-1.5c0-0.2,0-0.5,0-0.9
		c-0.2,0.2-0.4,0.4-0.8,0.7c-0.3,0.3-0.6,0.6-0.8,0.7C139.5,53.4,139.5,53.7,139.5,53.8z M139.5,52.3c0.5-0.5,1-1,1.5-1.5l0-0.5
		v-0.2c-0.7,0.7-1.2,1.2-1.5,1.5C139.5,52,139.5,52.3,139.5,52.3z M139.6,50.1c0,0.5,0,0.7,0,0.7c0.5-0.5,1-1,1.5-1.5v0
		c0-0.1,0-0.2,0-0.3c0-0.2,0-0.3,0-0.3C140.7,48.9,140.2,49.4,139.6,50.1z M139.6,39.1c0.4-0.4,0.7-0.7,0.7-0.7c-0.3,0-0.5,0-0.7,0
		V39.1z M141,38.4C141,38.4,141,38.4,141,38.4c-0.4,0.4-0.9,0.9-1.5,1.4v0.7c0.4-0.4,0.9-0.9,1.5-1.4V38.4z M139.6,42
		c0.2-0.2,0.4-0.4,0.7-0.7c0.4-0.4,0.6-0.6,0.7-0.7c0-0.1,0-0.2,0-0.4v-0.4c-1,1-1.5,1.4-1.5,1.4l0,0.6
		C139.6,41.9,139.6,42,139.6,42z M141,47.9v-0.7c-0.3,0.3-0.8,0.8-1.5,1.5l0,0.4c0,0.2,0,0.3,0,0.4c0.6-0.6,0.9-0.8,0.9-0.8
		S140.6,48.3,141,47.9z M141,41.7c0-0.2,0-0.3,0-0.4c0,0-0.5,0.5-1.5,1.5c0,0.2,0,0.4,0,0.7c0.5-0.5,0.9-0.9,1.5-1.4V41.7z
		 M141,43.5c0-0.1,0-0.2,0-0.4v-0.3c-0.7,0.7-1.1,1.1-1.2,1.2c0,0-0.1,0.1-0.1,0.1s-0.1,0.1-0.1,0.1c0,0.3,0,0.6,0,0.7
		C140.1,44.4,140.6,44,141,43.5z M141,44.2c-0.5,0.5-0.9,0.9-1.2,1.2c-0.2,0.2-0.3,0.2-0.3,0.3v0.7c0.5-0.5,1-1,1.5-1.4V44.2z
		 M139.6,47.1c0,0.2,0,0.4,0,0.7c0.5-0.5,1-1,1.5-1.5V46c0-0.2,0-0.3,0-0.4C140.6,46.2,140.1,46.6,139.6,47.1z M140.7,59.5
		c0,0,0-0.1,0-0.3c0,0-0.1,0.1-0.2,0.2c-0.1,0.1-0.1,0.1-0.2,0.2C140.5,59.6,140.6,59.6,140.7,59.5z M149.9,56.7c0,0,0-0.1,0-0.1
		c0-0.1,0-0.1,0-0.1c0-0.1,0-0.1,0-0.2c0-0.1,0-0.2,0-0.3c-0.9,0.9-1.4,1.4-1.6,1.6c0,0.3,0,0.6,0,0.8c0.2-0.2,0.4-0.4,0.8-0.8
		C149.5,57.2,149.8,56.9,149.9,56.7z M148.6,59.6c0.6-0.6,1-1,1.2-1.2c0-0.3,0-0.6,0-0.9c-0.7,0.7-1.2,1.2-1.6,1.5
		c0,0.2,0,0.4,0.1,0.5C148.4,59.6,148.5,59.6,148.6,59.6z M148.4,56.7c0.4-0.3,0.9-0.9,1.6-1.5c0-0.2,0-0.4,0-0.8
		c-0.6,0.6-1,1.1-1.2,1.2c0,0-0.1,0.1-0.3,0.3C148.5,56.1,148.5,56.4,148.4,56.7C148.4,56.7,148.4,56.7,148.4,56.7
		C148.4,56.7,148.4,56.7,148.4,56.7z M148.6,55.1c0.5-0.5,1-1,1.5-1.5c0-0.3,0-0.5,0-0.8c-0.7,0.7-1.2,1.2-1.5,1.5
		C148.6,54.7,148.6,55,148.6,55.1z M148.6,53.6c0.5-0.5,1-1,1.5-1.5c0-0.2,0-0.4,0-0.8c-0.7,0.7-1.2,1.2-1.4,1.4c0,0,0,0-0.1,0
		c0,0,0,0,0,0C148.7,53.1,148.6,53.3,148.6,53.6z M148.7,52.1c0.3-0.3,0.8-0.8,1.5-1.4c0-0.3,0-0.6,0-0.7c-0.5,0.5-1,1-1.5,1.4
		C148.7,51.6,148.7,51.8,148.7,52.1z M148.7,50.6c0.4-0.4,0.9-0.9,1.5-1.4v-0.4c0-0.2,0-0.3,0-0.4c-0.5,0.5-1,1-1.5,1.5v0.4h0V50.6z
		 M149.2,38.4c-0.2,0-0.3,0-0.5,0c0,0,0,0.1,0,0.2v0.2C148.9,38.7,149,38.5,149.2,38.4z M150,38.4c-0.4,0.4-0.8,0.8-1.2,1.2v0.7
		c0.5-0.5,1-1,1.5-1.4v-0.5C150.1,38.4,150.1,38.4,150,38.4z M148.7,41.8c0.3-0.3,0.8-0.8,1.5-1.4v-0.7c-0.7,0.7-1.2,1.2-1.5,1.4
		V41.8z M150.2,41.7c0-0.1,0-0.2,0-0.3V41c-0.8,0.8-1.3,1.3-1.5,1.4v0.8C149.3,42.7,149.8,42.2,150.2,41.7L150.2,41.7z M150.2,42.5
		c-0.5,0.5-1,1-1.5,1.4v0.7c0.5-0.5,1-0.9,1.5-1.4V42.5z M150.2,44c-0.7,0.7-1.2,1.2-1.4,1.4c0,0,0,0,0,0h0v0.7
		c0.4-0.4,0.9-0.9,1.5-1.4V44z M148.7,47.6c0.3-0.3,0.8-0.8,1.5-1.4v-0.7c-0.8,0.8-1.3,1.3-1.5,1.4c0,0,0,0,0,0V47.6z M148.7,49.3
		c0.7-0.6,1.1-1.1,1.5-1.5c0-0.4,0-0.7,0-0.9c-0.8,0.7-1.2,1.2-1.4,1.3c0,0,0,0-0.1,0.1V49.3z M149.8,59.6L149.8,59.6
		c0-0.1,0-0.3,0-0.6l-0.6,0.6h0h0c0.2,0,0.3,0,0.3,0S149.7,59.6,149.8,59.6z"/>
	<path class="st0" d="M168.7,37.3c0.9,0,1.3,0.2,1.3,0.7c0,0.3-0.9,0.5-2.7,0.5c-0.2,0-0.9,0-2.1,0c0.1,0.4,0.2,1.4,0.2,3.1
		c0,0.8-0.1,2.9-0.3,6.3c0,0.3,0,0.7-0.1,1.3c0,0.6,0,1.1,0,1.5c0,0.2,0,0.3-0.1,0.4c-0.1,1.1-0.1,1.9-0.1,2.4
		c-0.1,2.3-0.2,4-0.1,4.9c0,0.2,0.1,0.7,0.2,1.3c0.7,0,1.4,0,1.9,0c1.8,0,2.7,0.2,2.7,0.5c0,0.5-0.4,0.7-1.3,0.7c-0.1,0-0.1,0-0.2,0
		c-0.1,0-0.2,0-0.2,0c-0.1,0-0.3,0-0.4,0c-0.7,0.1-1.8,0.1-3.2,0.1c-0.3,0-0.5,0-0.8,0c-0.3,0-0.6,0-0.9,0c-1.4,0-2.4,0-3.2-0.1
		c-0.1,0-0.2,0-0.4,0c-0.2,0-0.3,0-0.5,0c-0.4,0-0.6,0-0.9-0.1c-0.7-0.1-1-0.3-1-0.8c0-0.1,0.2-0.1,0.5-0.1c0.2-0.1,0.7-0.1,1.4-0.1
		c0.2,0,1,0,2.6,0.1l0-0.1c0.1,0,0.1,0,0.2,0c0,0,0,0,0,0h0c-0.1-0.4-0.1-1.4-0.1-3.1c0-1.1,0-2.6,0.2-4.6c0.1-2.1,0.2-3.6,0.2-4.6
		c0-0.5,0.1-1.5,0.2-2.9c0,0,0,0,0-0.1c0.1-2.1,0.1-3.7,0.1-4.6c0-0.3-0.1-0.8-0.3-1.5c-1.5,0-2.4,0.1-2.6,0.1c-1,0-1.5,0-1.5-0.1
		c0-0.7,0.5-1,1.4-1c0.1,0,0.3,0,0.5,0c0.2,0,0.3,0,0.4,0c0,0,0.5,0,1.7,0c1.2,0,2.3,0,3.2,0c1.5,0,2.6,0,3.2,0.1c0.1,0,0.1,0,0.2,0
		c0.1,0,0.1,0,0.2,0c0.1,0,0.1,0,0.3,0c0.1,0,0.2,0,0.2,0S168.6,37.3,168.7,37.3z M162.3,57.8c0.3-0.3,0.7-0.7,1.2-1.1
		c0-0.2,0-0.5,0-0.8c-0.4,0.4-0.8,0.8-1.2,1.1c0,0,0,0,0,0.1v0.1C162.3,57.5,162.3,57.7,162.3,57.8z M163.5,54.4
		c-0.5,0.5-0.9,0.9-1.2,1.2c0,0.2,0,0.5,0,0.7c0.3-0.3,0.7-0.7,1.2-1.2C163.5,54.9,163.5,54.7,163.5,54.4z M162.3,58.5
		c0,0.3,0,0.5,0.1,0.8c0.4-0.4,0.7-0.7,1.1-1.1c0-0.3,0-0.6,0-0.8C163.1,57.7,162.7,58.1,162.3,58.5z M163.6,52.9
		c-0.4,0.4-0.8,0.8-1.3,1.2c0,0.1,0,0.4,0,0.8c0.4-0.4,0.8-0.8,1.2-1.2c0,0,0-0.1,0-0.1c0-0.1,0-0.1,0-0.1
		C163.6,53.2,163.6,53,163.6,52.9z M163.7,51.4c-0.5,0.5-0.9,0.9-1.3,1.2c0,0.2,0,0.4,0,0.8c0.4-0.4,0.9-0.8,1.3-1.2
		C163.7,51.9,163.7,51.6,163.7,51.4z M163.8,49.8c-0.5,0.5-0.9,0.9-1.3,1.2c0,0.2,0,0.5,0,0.8c0.4-0.4,0.9-0.9,1.3-1.3
		C163.8,50.4,163.8,50.1,163.8,49.8z M163.8,48.3c-0.5,0.5-0.9,0.9-1.2,1.2c0,0.2,0,0.5,0,0.8c0.5-0.5,0.9-0.9,1.2-1.2
		C163.8,48.8,163.8,48.5,163.8,48.3z M163.9,46.8c-0.5,0.5-0.9,0.9-1.3,1.2c0,0.3,0,0.6,0,0.8c0.5-0.5,0.9-0.9,1.2-1.2
		C163.9,47.3,163.9,47,163.9,46.8z M163.9,46c0-0.3,0-0.6,0-0.8c-0.5,0.5-0.9,0.9-1.3,1.3c0,0.3,0,0.5,0,0.8
		C163.1,46.9,163.5,46.5,163.9,46z M163.5,59.7c0,0,0.1-0.1,0.1-0.1c0,0,0.1-0.1,0.1-0.1c0-0.3-0.1-0.5-0.1-0.7
		c-0.4,0.4-0.7,0.6-0.9,0.9H163.5z M162.7,38.5C162.7,38.5,162.7,38.5,162.7,38.5C162.7,38.5,162.7,38.5,162.7,38.5
		c0.1,0,0.1,0,0.1,0H162.7z M162.7,45.8c0.5-0.5,0.9-0.9,1.3-1.3c0-0.3,0-0.6,0-0.8c-0.5,0.5-0.9,0.9-1.3,1.3v0.1
		C162.7,45.4,162.7,45.6,162.7,45.8z M162.9,39.8C162.9,39.8,162.9,39.8,162.9,39.8c0.4-0.3,0.7-0.7,1.1-1l-0.1-0.3
		c-0.1,0-0.2,0-0.4,0c-0.1,0.1-0.2,0.2-0.3,0.3c-0.1,0.1-0.3,0.2-0.3,0.3C162.9,39.4,162.9,39.6,162.9,39.8z M162.9,43.4
		c0,0.2,0,0.5,0,0.8v0c0.5-0.5,0.9-0.9,1.2-1.2c0-0.2,0-0.4,0-0.7C163.6,42.7,163.2,43.1,162.9,43.4z M164.1,41c0,0,0-0.1,0-0.2
		c-0.5,0.5-0.8,0.8-1.2,1.1c0,0.2,0,0.5,0,0.8c0.5-0.4,0.9-0.8,1.2-1.2C164.1,41.4,164.1,41.2,164.1,41z M164.1,40.1
		c0-0.3,0-0.6-0.1-0.9c-0.1,0.1-0.3,0.3-0.6,0.6c-0.2,0.2-0.4,0.4-0.6,0.5c0,0.3,0,0.6,0,0.9C163.4,40.8,163.8,40.4,164.1,40.1z"/>
	<path class="st0" d="M181.2,37.1c3.2,0,5.1,0.4,5.7,1.3c0.2,0.6,0.3,4.2,0.2,10.7c-0.1,6.7-0.3,10.2-0.7,10.4
		c-1,0.7-2.6,1.1-4.7,1.3c-0.6,0-1.1,0.1-1.6,0.1c-0.6,0-1.3,0-2.2-0.1c-1.2-0.1-2-0.5-2.6-1.3c-0.4-0.5-0.4-4-0.3-10.7
		c0.2-6.8,0.7-10.5,1.4-11C177,37.4,178.6,37.1,181.2,37.1z M176.2,51c0,0.3,0,0.5,0,0.7c0.6-0.6,0.9-0.9,1-1c0-0.2,0-0.5,0-0.7
		c-0.1,0.1-0.3,0.3-0.5,0.5C176.5,50.7,176.3,50.9,176.2,51z M176.2,53.2c0.7-0.6,1-0.9,1-1c0-0.2,0-0.5,0-0.7c0,0-0.4,0.4-1,1V53.2
		z M177.2,53c-0.4,0.4-0.7,0.7-1,1c0,0.2,0,0.4,0,0.6c0.1-0.1,0.3-0.2,0.5-0.5c0.2-0.2,0.4-0.4,0.5-0.5
		C177.2,53.4,177.2,53.2,177.2,53z M177.3,48.5c-0.3,0.3-0.7,0.7-1,1c0,0.3,0,0.5,0,0.7c0.4-0.4,0.7-0.7,1-1c0-0.3,0-0.4,0-0.4
		C177.2,48.9,177.2,48.8,177.3,48.5z M176.2,55.3c0,0.2,0,0.5,0,0.7c0.6-0.6,0.9-0.9,0.9-0.9v-0.7C176.8,54.7,176.5,55.1,176.2,55.3
		z M177.3,47c-0.4,0.4-0.7,0.7-1,1c0,0.3,0,0.5,0,0.8c0.4-0.4,0.8-0.7,1-1C177.3,47.5,177.3,47.3,177.3,47z M177.2,55.9
		c-0.6,0.6-0.9,0.9-0.9,0.9c0,0.2,0,0.5,0,0.7c0.4-0.4,0.7-0.7,0.9-0.9C177.2,56.3,177.2,56.1,177.2,55.9z M177.3,45.5l-1,1
		c0,0.3,0,0.5,0,0.8c0.3-0.3,0.7-0.7,1-1C177.3,46,177.3,45.8,177.3,45.5z M177.2,57.3c-0.3,0.3-0.6,0.6-0.9,0.9
		c0,0.3,0,0.5,0.1,0.7c0.1-0.1,0.2-0.2,0.4-0.4c0.2-0.2,0.3-0.3,0.4-0.4C177.2,57.8,177.2,57.6,177.2,57.3z M177.4,44
		c-0.3,0.3-0.7,0.6-1,0.9c0,0.2,0,0.5,0,0.8c0.6-0.5,0.9-0.9,1-0.9C177.4,44.5,177.4,44.2,177.4,44z M176.5,43.4
		c0,0.3,0,0.5-0.1,0.8c0.6-0.6,0.9-0.9,1-0.9c0-0.3,0-0.5,0-0.7C177.1,42.8,176.8,43.1,176.5,43.4z M176.6,42.6
		c0.4-0.4,0.7-0.7,0.9-0.9c0-0.3,0-0.6,0.1-0.8c-0.4,0.4-0.7,0.7-0.9,0.9C176.7,42.1,176.6,42.3,176.6,42.6z M177.4,58.5
		c-0.3,0.3-0.5,0.5-0.7,0.6c0.1,0.1,0.3,0.2,0.5,0.2c0-0.1,0.1-0.1,0.2-0.2c0.1-0.1,0.2-0.2,0.2-0.2
		C177.5,58.9,177.5,58.7,177.4,58.5z M178.9,38.5c-0.1,0-0.2,0-0.4,0c-0.5,0.5-1,1-1.6,1.6c0,0.3-0.1,0.5-0.1,0.8
		c0.5-0.5,0.8-0.8,0.9-0.9c0.1-0.3,0.1-0.5,0.2-0.6C178.2,39.1,178.5,38.7,178.9,38.5z M177.1,39.2c0.1-0.1,0.3-0.3,0.5-0.5
		c-0.2,0-0.3,0.1-0.4,0.1C177.2,38.9,177.2,39,177.1,39.2z M178,59.4c0,0-0.1,0.1-0.1,0.1c0.1,0,0.1,0,0.1,0c0.2,0,0.3,0,0.3,0
		C178.3,59.6,178.2,59.5,178,59.4z M183.5,39.8c-0.1-0.2-0.4-0.3-0.9-0.5c-0.5-0.2-1.1-0.2-1.6-0.2c-1,0-1.7,0.3-2.1,1
		c-0.2,0.2-0.3,3.1-0.5,8.7c-0.1,5.6-0.1,8.6,0,9c0,0.3,0.8,0.5,2.2,0.5c1.5,0,2.3-0.1,2.5-0.3c0.2-0.4,0.4-3.5,0.5-9.2
		C183.7,43.2,183.7,40.2,183.5,39.8z M183.3,59.3L183.3,59.3C183.4,59.3,183.4,59.3,183.3,59.3L183.3,59.3
		C183.3,59.3,183.3,59.3,183.3,59.3C183.3,59.3,183.3,59.3,183.3,59.3z M184.6,39.1c0,0,0.1-0.1,0.2-0.2c0.1-0.1,0.1-0.1,0.2-0.2
		c-0.2,0-0.4-0.1-0.6-0.1c0,0-0.1,0-0.1,0.1c0,0-0.1,0.1-0.1,0.1C184.3,38.9,184.4,38.9,184.6,39.1L184.6,39.1z M185.5,57.9
		l-1.2,1.2c0.4-0.1,0.8-0.2,1.1-0.4c0,0,0,0,0,0C185.4,58.5,185.4,58.2,185.5,57.9z M185.5,57.2c0-0.3,0-0.6,0.1-0.9
		c-0.1,0.1-0.3,0.3-0.5,0.5c-0.3,0.3-0.4,0.4-0.5,0.5c0,0.5-0.1,0.8-0.2,1C185,57.8,185.4,57.4,185.5,57.2z M185.7,55.5
		c0-0.2,0-0.5,0-0.8c-0.5,0.5-0.9,0.8-1,1c0,0.3,0,0.5-0.1,0.8l0,0c0,0,0,0,0,0c0.1-0.1,0.3-0.3,0.5-0.5c0.2-0.2,0.3-0.3,0.3-0.3
		S185.5,55.6,185.7,55.5z M184.7,55c0.1-0.1,0.5-0.4,1-1c0-0.3,0-0.5,0-0.7c-0.6,0.6-0.9,0.9-1,1C184.7,54.5,184.7,54.8,184.7,55z
		 M184.8,53.4c0.4-0.4,0.8-0.8,1-1c0-0.2,0-0.4,0-0.7l-1,1C184.8,52.9,184.8,53.2,184.8,53.4z M185.7,39c0,0-0.1,0-0.2-0.1
		c-0.2,0.2-0.4,0.4-0.7,0.7c0,0.1,0,0.3,0.1,0.6c0.3-0.3,0.6-0.6,0.9-0.9C185.7,39.3,185.7,39.1,185.7,39z M184.8,51.9
		c0.2-0.2,0.6-0.6,1-1c0-0.2,0-0.5,0-0.7c-0.1,0.1-0.2,0.2-0.5,0.5c-0.2,0.2-0.4,0.4-0.5,0.5C184.8,51.4,184.8,51.7,184.8,51.9z
		 M184.9,50.5c0.3-0.3,0.7-0.7,1-1c0-0.3,0-0.5,0-0.7c-0.4,0.4-0.7,0.7-1,1C184.9,50,184.9,50.2,184.9,50.5z M184.9,41.7
		c0.2-0.2,0.5-0.5,0.9-0.9c0-0.3,0-0.5,0-0.7c-0.3,0.3-0.6,0.5-0.9,0.9C184.9,41.2,184.9,41.4,184.9,41.7z M184.9,49
		c0.4-0.4,0.7-0.7,1-1c0-0.2,0-0.5,0-0.8c-0.7,0.7-1,1-1,0.9c0,0.2,0,0.4,0,0.6C184.9,48.9,184.9,49,184.9,49z M185.9,45.8
		c-0.1,0.1-0.2,0.2-0.5,0.5c-0.2,0.2-0.3,0.4-0.5,0.5c0,0.3,0,0.5,0,0.7c0.3-0.3,0.6-0.6,1-0.9V45.8z M185.8,43.7c0-0.2,0-0.5,0-0.7
		c-0.7,0.6-1,0.9-0.9,0.9c0,0.3,0,0.5,0,0.7C185.2,44.3,185.5,44,185.8,43.7z M184.9,43.1c0.1-0.1,0.4-0.4,0.9-0.9
		c0-0.3,0-0.5,0-0.7c-0.6,0.6-0.9,0.9-0.9,0.9c0,0.1,0,0.2,0,0.4C184.9,42.8,184.9,42.9,184.9,43.1z M185.9,45.1c0-0.2,0-0.5,0-0.7
		c-0.3,0.3-0.6,0.6-0.9,0.9c0,0.1,0,0.4,0,0.7C185.1,45.8,185.4,45.5,185.9,45.1z"/>
	<path class="st0" d="M206.4,37.1c0.9,0,1.5,0.1,1.9,0.1c0,0.1,0,0.1-0.1,0.3c-0.1,0.4-0.1,4.3-0.1,11.8c0,7.4,0.1,11,0.1,11
		c0,0.1,0,0.1-0.1,0.2c-0.1,0.3-0.7,0.4-1.8,0.4c-1.2,0-1.8-0.1-1.8-0.4v0c0,0,0,0,0,0c-0.5-0.8-2-4-4.6-9.8c-2.6-5.9-4-9-4.2-9.3
		c0,0.7,0,3.9,0.1,9.6c0.1,6.2,0.1,9.5,0.1,9.7c0,0.2-0.7,0.3-2,0.3c-1.3,0-1.9-0.1-1.9-0.3c0-15.5,0-23.2-0.1-23.2
		c0.1-0.2,0.8-0.2,1.9-0.2c1.2,0,1.8,0.1,1.9,0.2c0,0,1,2.5,3.1,7.4c2.3,5.4,4.1,9.3,5.5,11.8c0-3.6,0-6.2,0-7.8
		c-0.1-1.8-0.1-3.4,0-4.7l0-6.5c0.1-0.3,0.5-0.4,1.5-0.4c0.2,0,0.2,0,0.2,0S206.2,37.1,206.4,37.1z M193.9,38.3
		C193.9,38.3,193.9,38.3,193.9,38.3c-0.2,0-0.4,0-0.6,0c0,0.1,0,0.3,0,0.4v0.1c0,0,0,0.1,0,0.1C193.5,38.7,193.7,38.5,193.9,38.3z
		 M194.6,38.3c0,0-0.1,0-0.1,0c-0.5,0.5-0.9,0.9-1.2,1.2c0,0.3,0,0.6,0,0.9c0.5-0.5,0.9-0.9,1.3-1.2L194.6,38.3z M193.3,41.8
		c0.5-0.5,0.9-0.9,1.2-1.2l0.1-0.8c-0.9,0.9-1.3,1.3-1.2,1.2C193.3,41.4,193.3,41.6,193.3,41.8z M193.3,43.3
		c0.5-0.5,0.9-0.9,1.1-1.1c0-0.3,0-0.6,0-0.7c-0.6,0.6-1,1-1.1,1.1c0,0.2,0,0.4,0,0.6C193.3,43.2,193.3,43.2,193.3,43.3z
		 M194.5,43.6c0-0.3,0-0.6,0-0.7c-0.5,0.5-0.9,0.9-1.1,1.1l0,0.7C193.8,44.2,194.2,43.9,194.5,43.6z M193.3,56.5
		c0.5-0.5,0.9-0.9,1.3-1.3c0-0.1,0-0.2,0-0.4c0-0.2,0-0.3,0-0.4c-0.5,0.5-0.9,0.9-1.3,1.2L193.3,56.5z M193.3,58
		c0.5-0.5,0.9-0.9,1.3-1.3c0-0.1,0-0.2,0-0.4c0-0.2,0-0.3,0-0.4c-0.5,0.5-0.9,0.9-1.3,1.3V58z M194.6,58.2c0-0.3,0-0.6,0-0.7
		c-0.5,0.5-0.9,0.9-1.3,1.3v0.8C193.7,59.1,194.1,58.7,194.6,58.2z M193.3,46.2c0.5-0.5,0.9-0.9,1.1-1.1c0-0.3,0-0.5,0-0.7
		c-0.5,0.5-0.8,0.8-1.1,1.1C193.3,45.6,193.3,45.9,193.3,46.2z M194.5,46.5c0-0.3,0-0.5,0-0.7c-0.4,0.4-0.8,0.8-1.1,1.1v0.7
		C193.8,47.2,194.1,46.9,194.5,46.5z M194.5,48c0-0.5,0-0.8,0-0.7c-0.4,0.4-0.8,0.8-1.2,1.1v0.7C193.8,48.7,194.1,48.3,194.5,48z
		 M193.3,50.6c0.4-0.4,0.8-0.8,1.2-1.2c0-0.5,0-0.7,0-0.7c-0.4,0.4-0.8,0.8-1.2,1.2V50.6z M193.3,52.1c0.4-0.4,0.8-0.8,1.2-1.2v0
		c0-0.1,0-0.3,0-0.7c-0.4,0.4-0.8,0.8-1.2,1.2V52.1z M193.3,53.6c0.5-0.5,0.9-0.9,1.2-1.2c0-0.2,0-0.5,0-0.7
		c-0.4,0.4-0.8,0.8-1.2,1.2V53.6z M193.3,55c0.5-0.5,0.9-0.9,1.2-1.2c0-0.2,0-0.5,0-0.7c-0.5,0.5-0.9,0.9-1.2,1.2V55z M194.7,59.6
		c0-0.3,0-0.6,0-0.7c-0.3,0.3-0.5,0.5-0.7,0.7h0.1C194.2,59.6,194.5,59.6,194.7,59.6z M195.8,37.3L195.8,37.3
		C195.8,37.3,195.8,37.3,195.8,37.3z M206.9,44.6c0-0.3,0-0.6,0-0.8c-0.5,0.5-1,1-1.3,1.3c0,0.2,0,0.5,0,0.7
		C206.1,45.4,206.5,45,206.9,44.6z M206.9,42.3c-0.6,0.6-1,1-1.3,1.3v0.4c0,0.1,0,0.2,0,0.3c0.5-0.5,1-0.9,1.3-1.3L206.9,42.3z
		 M206.9,45.3c-0.5,0.5-0.9,0.9-1.3,1.3c0,0.3,0,0.5,0,0.7c0.5-0.5,0.9-0.9,1.3-1.3V45.3z M206.9,41.6c0-0.3,0-0.6,0-0.8
		c-0.6,0.6-1,1-1.3,1.3l0,0.8C206.2,42.4,206.6,41.9,206.9,41.6z M207,38.7c0-0.2,0-0.2,0-0.3l-0.5,0c-0.1,0.1-0.2,0.2-0.4,0.4
		c-0.2,0.2-0.3,0.3-0.4,0.4l0,0.8C206.1,39.5,206.6,39,207,38.7z M205.6,41.4c0.6-0.6,1-1,1.3-1.3c0-0.3,0-0.6,0-0.8
		c-0.4,0.3-0.8,0.8-1.3,1.3V41.4z M206.9,47.5c0-0.3,0-0.5,0-0.7c-0.5,0.4-0.9,0.9-1.3,1.3c0,0.2,0,0.4,0,0.6c0,0,0,0,0,0v0.1
		C206.1,48.3,206.6,47.9,206.9,47.5z M205.6,59.1c0.8-0.7,1.2-1.2,1.4-1.3l0-0.2c0-0.1,0-0.3,0-0.5c-0.6,0.6-1.1,1.1-1.3,1.3
		L205.6,59.1z M205.7,38.3v0.1C205.7,38.5,205.7,38.4,205.7,38.3c0.1,0,0.1,0,0.2,0H205.7z M207,55.6c-0.6,0.6-1,1-1.3,1.3l0,0.8
		c0.8-0.8,1.2-1.2,1.1-1.1l0.2-0.2c0-0.1,0-0.2,0-0.4V55.6z M205.7,49.5c0,0.3,0,0.5,0,0.7c0.5-0.4,0.9-0.9,1.3-1.2
		c0-0.4,0-0.6,0-0.8C206.5,48.7,206.1,49.1,205.7,49.5z M207,54.1c-0.3,0.3-0.7,0.7-1.3,1.3c0,0.3,0,0.5,0,0.7c0.6-0.6,1-1,1.3-1.3
		C207,54.6,207,54.3,207,54.1z M205.7,53.8c0,0.2,0,0.5,0,0.8c0.4-0.4,0.9-0.8,1.3-1.2c0-0.1,0-0.4,0-0.7
		C206.5,53.1,206.1,53.5,205.7,53.8z M205.7,51.7c0.5-0.5,0.9-0.9,1.2-1.2c0-0.3,0-0.6,0-0.7c-0.5,0.5-0.9,0.9-1.2,1.2
		C205.7,51.1,205.7,51.4,205.7,51.7z M206.9,51.2c-0.5,0.4-0.9,0.9-1.2,1.2c0,0.2,0,0.5,0,0.7c0.4-0.4,0.9-0.8,1.3-1.2
		c0-0.1,0-0.2,0-0.4C207,51.4,206.9,51.2,206.9,51.2z M205.8,59.6c0.2,0,0.3,0,0.6,0c0.1,0,0.2,0,0.3,0c0.1-0.1,0.2-0.2,0.4-0.3
		c0-0.3,0-0.5,0-0.8C206.6,58.9,206.2,59.3,205.8,59.6z"/>
</g>
<path class="st0" d="M151.1,27.8h-20.2c-0.3,0-0.5-0.3-0.5-0.6s0.2-0.6,0.5-0.6h20.2c0.3,0,0.5,0.3,0.5,0.6S151.3,27.8,151.1,27.8z"
	/>
<path class="st0" d="M124.8,27.7H97.1c-0.2,0-0.3-0.3-0.3-0.6s0.1-0.6,0.3-0.6h27.8c0.2,0,0.3,0.3,0.3,0.6S125,27.7,124.8,27.7z"/>
<path class="st0" d="M180.9,27.8h-24.4c-0.3,0-0.6-0.3-0.6-0.6s0.3-0.6,0.6-0.6h24.4c0.3,0,0.6,0.3,0.6,0.6S181.2,27.8,180.9,27.8z"
	/>
<path class="st0" d="M206.7,27.8h-20c-0.3,0-0.6-0.3-0.6-0.6s0.3-0.6,0.6-0.6h20c0.3,0,0.6,0.3,0.6,0.6S207,27.8,206.7,27.8z"/>
<polygon class="st0" points="204.5,27.2 208.2,29.3 208.2,25 "/>
<path class="st0" d="M201.1,27.8c-0.2,0-0.3-0.1-0.4-0.2l-2.7-2.8c-0.2-0.2-0.2-0.6,0-0.9c0.2-0.2,0.6-0.2,0.9,0l2.7,2.8
	c0.2,0.2,0.2,0.6,0,0.9C201.4,27.7,201.3,27.8,201.1,27.8z"/>
<path class="st0" d="M198.4,30.5c-0.2,0-0.3-0.1-0.4-0.2c-0.2-0.2-0.2-0.6,0-0.9l2.7-2.8c0.2-0.2,0.6-0.2,0.9,0
	c0.2,0.2,0.2,0.6,0,0.9l-2.7,2.8C198.7,30.5,198.5,30.5,198.4,30.5z"/>
<path class="st0" d="M141.8,27.8c-0.2,0-0.3-0.1-0.4-0.2l-2.7-2.8c-0.2-0.2-0.2-0.6,0-0.9c0.2-0.2,0.6-0.2,0.9,0l2.7,2.8
	c0.2,0.2,0.2,0.6,0,0.9C142.1,27.7,142,27.8,141.8,27.8z"/>
<path class="st0" d="M139.1,30.5c-0.2,0-0.3-0.1-0.4-0.2c-0.2-0.2-0.2-0.6,0-0.9l2.7-2.8c0.2-0.2,0.6-0.2,0.9,0
	c0.2,0.2,0.2,0.6,0,0.9l-2.7,2.8C139.4,30.5,139.3,30.5,139.1,30.5z"/>
<path class="st0" d="M170.4,27.8c-0.2,0-0.3-0.1-0.4-0.2l-2.7-2.8c-0.2-0.2-0.2-0.6,0-0.9c0.2-0.2,0.6-0.2,0.9,0l2.7,2.8
	c0.2,0.2,0.2,0.6,0,0.9C170.7,27.7,170.5,27.8,170.4,27.8z"/>
<path class="st0" d="M167.7,30.5c-0.2,0-0.3-0.1-0.4-0.2c-0.2-0.2-0.2-0.6,0-0.9l2.7-2.8c0.2-0.2,0.6-0.2,0.9,0
	c0.2,0.2,0.2,0.6,0,0.9l-2.7,2.8C168,30.5,167.8,30.5,167.7,30.5z"/>
<path class="st0" d="M167.1,27.8c-0.2,0-0.3-0.1-0.4-0.2l-2.7-2.8c-0.2-0.2-0.2-0.6,0-0.9c0.2-0.2,0.6-0.2,0.9,0l2.7,2.8
	c0.2,0.2,0.2,0.6,0,0.9C167.4,27.7,167.2,27.8,167.1,27.8z"/>
<path class="st0" d="M164.4,30.5c-0.2,0-0.3-0.1-0.4-0.2c-0.2-0.2-0.2-0.6,0-0.9l2.7-2.8c0.2-0.2,0.6-0.2,0.9,0
	c0.2,0.2,0.2,0.6,0,0.9l-2.7,2.8C164.7,30.5,164.5,30.5,164.4,30.5z"/>
<path class="st0" d="M114.3,27.8c-0.2,0-0.3-0.1-0.4-0.2l-2.7-2.8c-0.2-0.2-0.2-0.6,0-0.9c0.2-0.2,0.6-0.2,0.9,0l2.7,2.8
	c0.2,0.2,0.2,0.6,0,0.9C114.6,27.7,114.4,27.8,114.3,27.8z"/>
<path class="st0" d="M111.6,30.5c-0.2,0-0.3-0.1-0.4-0.2c-0.2-0.2-0.2-0.6,0-0.9l2.7-2.8c0.2-0.2,0.6-0.2,0.9,0
	c0.2,0.2,0.2,0.6,0,0.9l-2.7,2.8C111.9,30.5,111.7,30.5,111.6,30.5z"/>
<path class="st0" d="M111,27.8c-0.2,0-0.3-0.1-0.4-0.2l-2.7-2.8c-0.2-0.2-0.2-0.6,0-0.9c0.2-0.2,0.6-0.2,0.9,0l2.7,2.8
	c0.2,0.2,0.2,0.6,0,0.9C111.3,27.7,111.1,27.8,111,27.8z"/>
<path class="st0" d="M108.3,30.5c-0.2,0-0.3-0.1-0.4-0.2c-0.2-0.2-0.2-0.6,0-0.9l2.7-2.8c0.2-0.2,0.6-0.2,0.9,0
	c0.2,0.2,0.2,0.6,0,0.9l-2.7,2.8C108.6,30.5,108.4,30.5,108.3,30.5z"/>
<path class="st0" d="M107.7,27.8c-0.2,0-0.3-0.1-0.4-0.2l-2.7-2.8c-0.2-0.2-0.2-0.6,0-0.9c0.2-0.2,0.6-0.2,0.9,0l2.7,2.8
	c0.2,0.2,0.2,0.6,0,0.9C108,27.7,107.8,27.8,107.7,27.8z"/>
<path class="st0" d="M105,30.5c-0.2,0-0.3-0.1-0.4-0.2c-0.2-0.2-0.2-0.6,0-0.9l2.7-2.8c0.2-0.2,0.6-0.2,0.9,0c0.2,0.2,0.2,0.6,0,0.9
	l-2.7,2.8C105.3,30.5,105.1,30.5,105,30.5z"/>
<path class="st0" d="M150.8,32.1c-0.1-0.1-0.2-0.3-0.2-0.5v-9.2c0-0.2,0.1-0.4,0.2-0.5c0.1-0.1,0.3-0.2,0.5-0.1
	c0.2,0,5.4,1.1,5.4,5.4c0,3.9-5.2,5-5.4,5c0,0-0.1,0-0.1,0C151,32.2,150.9,32.2,150.8,32.1z M151.8,30.8c1.3-0.4,3.7-1.5,3.7-3.6
	c0-2.4-2.4-3.6-3.7-4V30.8z"/>
<path class="st0" d="M151.1,24h3.1c0.1,0,0.3-0.1,0.3-0.3c0-0.1-0.1-0.3-0.3-0.3h-3.1c-0.1,0-0.3,0.1-0.3,0.3
	C150.9,23.9,151,24,151.1,24z"/>
<path class="st0" d="M151.1,25.1h3.9c0.1,0,0.3-0.1,0.3-0.3c0-0.1-0.1-0.3-0.3-0.3h-3.9c-0.1,0-0.3,0.1-0.3,0.3
	C150.9,25,151,25.1,151.1,25.1z"/>
<path class="st0" d="M151.1,26.1h4.7c0.1,0,0.3-0.1,0.3-0.3c0-0.1-0.1-0.3-0.3-0.3h-4.7c-0.1,0-0.3,0.1-0.3,0.3
	C150.9,26,151,26.1,151.1,26.1z"/>
<path class="st0" d="M151.1,27.2h4.4c0.1,0,0.3-0.1,0.3-0.3c0-0.1-0.1-0.3-0.3-0.3h-4.4c-0.1,0-0.3,0.1-0.3,0.3
	C150.9,27.1,151,27.2,151.1,27.2z"/>
<path class="st0" d="M151.1,28.3h4.4c0.1,0,0.3-0.1,0.3-0.3c0-0.1-0.1-0.3-0.3-0.3h-4.4c-0.1,0-0.3,0.1-0.3,0.3
	C150.9,28.2,151,28.3,151.1,28.3z"/>
<path class="st0" d="M151.1,29.4h3.9c0.1,0,0.3-0.1,0.3-0.3c0-0.1-0.1-0.3-0.3-0.3h-3.9c-0.1,0-0.3,0.1-0.3,0.3
	C150.9,29.3,151,29.4,151.1,29.4z"/>
<path class="st0" d="M151.1,30.4h3.2c0.1,0,0.3-0.1,0.3-0.3c0-0.1-0.1-0.3-0.3-0.3h-3.2c-0.1,0-0.3,0.1-0.3,0.3
	C150.9,30.3,151,30.4,151.1,30.4z"/>
<path class="st0" d="M185.6,24.9h-3.1c-0.1,0-0.3-0.1-0.3-0.3c0-0.1,0.1-0.3,0.3-0.3h3.1c0.1,0,0.3,0.1,0.3,0.3
	C185.9,24.8,185.7,24.9,185.6,24.9z"/>
<path class="st0" d="M185.6,26h-3.9c-0.1,0-0.3-0.1-0.3-0.3c0-0.1,0.1-0.3,0.3-0.3h3.9c0.1,0,0.3,0.1,0.3,0.3
	C185.9,25.8,185.7,26,185.6,26z"/>
<path class="st0" d="M185.9,27h-4.7c-0.1,0-0.3-0.1-0.3-0.3c0-0.1,0.1-0.3,0.3-0.3h4.7c0.1,0,0.3,0.1,0.3,0.3
	C186.2,26.9,186.1,27,185.9,27z"/>
<path class="st0" d="M186.1,28.1h-4.4c-0.1,0-0.3-0.1-0.3-0.3c0-0.1,0.1-0.3,0.3-0.3h4.4c0.1,0,0.3,0.1,0.3,0.3
	C186.4,28,186.3,28.1,186.1,28.1z"/>
<path class="st0" d="M185.6,29.2h-4.4c-0.1,0-0.3-0.1-0.3-0.3s0.1-0.3,0.3-0.3h4.4c0.1,0,0.3,0.1,0.3,0.3S185.7,29.2,185.6,29.2z"/>
<path class="st0" d="M130.8,27.8c-0.2,0-0.3-0.1-0.4-0.2l-2.7-2.9l-2.9,2.9c-0.2,0.2-0.6,0.2-0.9,0c-0.2-0.2-0.2-0.6,0-0.9l3.3-3.4
	c0.1-0.1,0.3-0.2,0.4-0.2c0.2,0,0.3,0.1,0.4,0.2l3.1,3.4c0.2,0.2,0.2,0.6,0,0.9C131.1,27.7,130.9,27.8,130.8,27.8z"/>
<path class="st0" d="M127.6,31.1c-0.2,0-0.3-0.1-0.4-0.2l-3.3-3.4c-0.2-0.2-0.2-0.6,0-0.9c0.2-0.2,0.6-0.2,0.9,0l2.9,2.9l2.7-2.9
	c0.2-0.2,0.6-0.3,0.9,0c0.2,0.2,0.3,0.6,0,0.9l-3.1,3.4C128,31.1,127.8,31.1,127.6,31.1C127.7,31.1,127.6,31.1,127.6,31.1z"/>
<path class="st0" d="M130,26.3h-4.2c-0.1,0-0.3-0.1-0.3-0.3c0-0.1,0.1-0.3,0.3-0.3h4.2c0.1,0,0.3,0.1,0.3,0.3
	C130.2,26.2,130.1,26.3,130,26.3z"/>
<path class="st0" d="M130.8,27.4h-5.9c-0.1,0-0.3-0.1-0.3-0.3c0-0.1,0.1-0.3,0.3-0.3h5.9c0.1,0,0.3,0.1,0.3,0.3
	C131,27.3,130.9,27.4,130.8,27.4z"/>
<path class="st0" d="M129.3,28.5h-3.4c-0.1,0-0.3-0.1-0.3-0.3c0-0.1,0.1-0.3,0.3-0.3h3.4c0.1,0,0.3,0.1,0.3,0.3
	C129.6,28.4,129.4,28.5,129.3,28.5z"/>
<path class="st0" d="M183.8,30.8c-1.9,0-3.5-1.6-3.5-3.5c0-1.9,1.6-3.5,3.5-3.5c1.9,0,3.5,1.6,3.5,3.5
	C187.3,29.2,185.7,30.8,183.8,30.8z M183.8,25c-1.3,0-2.3,1-2.3,2.3c0,1.3,1,2.3,2.3,2.3s2.3-1,2.3-2.3C186,26.1,185,25,183.8,25z"
	/>
<path class="st0" d="M27.4,27.7h24.4c0.3,0,0.6-0.3,0.6-0.6c0-0.3-0.3-0.6-0.6-0.6H27.4c-0.3,0-0.6,0.3-0.6,0.6
	C26.8,27.5,27.1,27.7,27.4,27.7z"/>
<path class="st0" d="M1.6,27.7h20c0.3,0,0.6-0.3,0.6-0.6c0-0.3-0.3-0.6-0.6-0.6h-20c-0.3,0-0.6,0.3-0.6,0.6
	C1,27.5,1.3,27.7,1.6,27.7z"/>
<polygon class="st0" points="3.8,27.1 0.1,29.3 0.1,25 "/>
<path class="st0" d="M7.2,27.7c0.2,0,0.3-0.1,0.4-0.2l2.7-2.8c0.2-0.2,0.2-0.6,0-0.9c-0.2-0.2-0.6-0.2-0.9,0l-2.7,2.8
	c-0.2,0.2-0.2,0.6,0,0.9C6.9,27.7,7,27.7,7.2,27.7z"/>
<path class="st0" d="M9.9,30.5c0.2,0,0.3-0.1,0.4-0.2c0.2-0.2,0.2-0.6,0-0.9l-2.7-2.8c-0.2-0.2-0.6-0.2-0.9,0
	c-0.2,0.2-0.2,0.6,0,0.9l2.7,2.8C9.6,30.4,9.7,30.5,9.9,30.5z"/>
<path class="st0" d="M37.9,27.7c0.2,0,0.3-0.1,0.4-0.2l2.7-2.8c0.2-0.2,0.2-0.6,0-0.9c-0.2-0.2-0.6-0.2-0.9,0l-2.7,2.8
	c-0.2,0.2-0.2,0.6,0,0.9C37.6,27.7,37.8,27.7,37.9,27.7z"/>
<path class="st0" d="M40.6,30.5c0.2,0,0.3-0.1,0.4-0.2c0.2-0.2,0.2-0.6,0-0.9l-2.7-2.8c-0.2-0.2-0.6-0.2-0.9,0
	c-0.2,0.2-0.2,0.6,0,0.9l2.7,2.8C40.3,30.4,40.5,30.5,40.6,30.5z"/>
<path class="st0" d="M41.2,27.7c0.2,0,0.3-0.1,0.4-0.2l2.7-2.8c0.2-0.2,0.2-0.6,0-0.9c-0.2-0.2-0.6-0.2-0.9,0l-2.7,2.8
	c-0.2,0.2-0.2,0.6,0,0.9C40.9,27.7,41,27.7,41.2,27.7z"/>
<path class="st0" d="M43.9,30.5c0.2,0,0.3-0.1,0.4-0.2c0.2-0.2,0.2-0.6,0-0.9l-2.7-2.8c-0.2-0.2-0.6-0.2-0.9,0
	c-0.2,0.2-0.2,0.6,0,0.9l2.7,2.8C43.6,30.4,43.8,30.5,43.9,30.5z"/>
<path class="st0" d="M22.7,24.8h3.1c0.1,0,0.3-0.1,0.3-0.3c0-0.1-0.1-0.3-0.3-0.3h-3.1c-0.1,0-0.3,0.1-0.3,0.3
	C22.4,24.7,22.5,24.8,22.7,24.8z"/>
<path class="st0" d="M22.7,25.9h3.9c0.1,0,0.3-0.1,0.3-0.3s-0.1-0.3-0.3-0.3h-3.9c-0.1,0-0.3,0.1-0.3,0.3S22.5,25.9,22.7,25.9z"/>
<path class="st0" d="M22.3,27H27c0.1,0,0.3-0.1,0.3-0.3c0-0.1-0.1-0.3-0.3-0.3h-4.7c-0.1,0-0.3,0.1-0.3,0.3
	C22.1,26.9,22.2,27,22.3,27z"/>
<path class="st0" d="M22.2,28h4.4c0.1,0,0.3-0.1,0.3-0.3c0-0.1-0.1-0.3-0.3-0.3h-4.4c-0.1,0-0.3,0.1-0.3,0.3
	C21.9,27.9,22,28,22.2,28z"/>
<path class="st0" d="M22.7,29.1h4.4c0.1,0,0.3-0.1,0.3-0.3c0-0.1-0.1-0.3-0.3-0.3h-4.4c-0.1,0-0.3,0.1-0.3,0.3
	C22.4,29,22.5,29.1,22.7,29.1z"/>
<path class="st0" d="M21,27.3c0-1.9,1.6-3.5,3.5-3.5s3.5,1.6,3.5,3.5c0,1.9-1.6,3.5-3.5,3.5S21,29.2,21,27.3z M22.2,27.3
	c0,1.3,1,2.3,2.3,2.3s2.3-1,2.3-2.3s-1-2.3-2.3-2.3S22.2,26,22.2,27.3z"/>
<path class="st0" d="M73.8,17.5c0,0.1,0,0.2,0,0.4V21l-3.1-3.7c-0.2-0.3-0.6-0.3-0.9-0.1c-0.3,0.2-0.3,0.6-0.1,0.9l3.7,4.4L72,23.7
	c-0.1,0-0.1,0.1-0.1,0.1l-3.4,2.7h-5.1l1.7-1.7c0.2-0.2,0.2-0.6,0-0.9c-0.2-0.2-0.6-0.2-0.9,0l-2.5,2.6H51.2v1.2h10.5l2.5,2.6
	c0.1,0.1,0.3,0.2,0.4,0.2c0.2,0,0.3-0.1,0.4-0.2c0.2-0.2,0.2-0.6,0-0.9l-1.7-1.7h5.1l5.3,4.3v4.7l-2.6,2.6c-0.2,0.2-0.2,0.6,0,0.9
	c0.2,0.2,0.6,0.2,0.9,0l1.8-1.7v1.6l-2.6,2.6c-0.2,0.2-0.2,0.6,0,0.9c0.2,0.2,0.6,0.2,0.9,0l1.8-1.7v1.6l-2.6,2.6
	c-0.2,0.2-0.2,0.6,0,0.9c0.2,0.2,0.6,0.2,0.9,0l1.8-1.7v12.1c0,0.1,0,0.2,0,0.3l-2,2.4c-0.2,0.3-0.2,0.6,0.1,0.9
	c0.3,0.2,0.6,0.2,0.9-0.1l1.6-2l1.6,2c0.1,0.1,0.3,0.2,0.5,0.2c0.1,0,0.3,0,0.4-0.1c0.3-0.2,0.3-0.6,0.1-0.9l-2-2.4
	c0-0.1,0-0.2,0-0.3v-12l1.7,1.6c0.2,0.2,0.6,0.2,0.9,0c0.1-0.1,0.2-0.3,0.2-0.4c0-0.2-0.1-0.3-0.2-0.4L75,43.5v-1.6l1.7,1.6
	c0.2,0.2,0.6,0.2,0.9,0c0.1-0.1,0.2-0.3,0.2-0.4c0-0.2-0.1-0.3-0.2-0.4L75,40.2v-1.6l1.7,1.6c0.2,0.2,0.6,0.2,0.9,0
	c0.1-0.1,0.2-0.3,0.2-0.4c0-0.2-0.1-0.3-0.2-0.4L75,36.9v-4.7l5.5-4.5h5.4l-1.7,1.7c-0.2,0.2-0.2,0.6,0,0.9c0.1,0.1,0.3,0.2,0.4,0.2
	c0.2,0,0.3-0.1,0.4-0.2l2.5-2.6h11.2v-1.2H87.6L85.1,24c-0.2-0.2-0.6-0.2-0.9,0c-0.2,0.2-0.2,0.6,0,0.9l1.7,1.7h-5.3l-3.4-2.8
	c0-0.1-0.1-0.1-0.1-0.1l-1.6-1.3c0,0,0,0,0,0l3.6-4.3c0.2-0.3,0.2-0.6-0.1-0.9c-0.3-0.2-0.6-0.2-0.9,0.1L75,21v-3.2
	c0-0.1,0-0.2,0-0.4H73.8z M73.8,30.1h-0.5l-0.7-0.6h1.1V30.1z M73.8,29H72l-0.7-0.6h2.5V29z M73.8,27.9h-3.1L70,27.4h3.8V27.9z
	 M73.8,26.9L73.8,26.9c-0.1,0-0.1,0-0.1,0H70l0.7-0.5h3.1V26.9z M73.8,25.8h-2.5l0.7-0.6h1.8V25.8z M73.8,24.7h-1.2l0.7-0.6h0.5
	V24.7z M75,23.6L75,23.6L75,23.6C75,23.6,75,23.7,75,23.6L75,23.6z M75,24.2C75,24.2,75,24.2,75,24.2l0.7,0l0.7,0.6H75V24.2z
	 M75,25.2h2l0.7,0.6H75V25.2z M75,26.3h3.4l0.7,0.5h-4V26.3z M75,30.6L75,30.6L75,30.6L75,30.6z M75.7,30.1H75v-0.6h1.4L75.7,30.1z
	 M77,29h-2v-0.6h2.7L77,29z M78.4,27.9l-0.2,0H75v-0.6h0.3c0,0,0,0,0,0h3.7L78.4,27.9z"/>
<polygon class="st0" points="74.4,18.7 72.2,14.9 76.6,14.9 "/>
</svg>
