<?xml version="1.0" encoding="utf-8"?>
<!-- Generator: Adobe Illustrator 19.1.1, SVG Export Plug-In . SVG Version: 6.00 Build 0)  -->
<svg version="1.1" id="Layer_1" xmlns="http://www.w3.org/2000/svg" xmlns:xlink="http://www.w3.org/1999/xlink" x="0px" y="0px"
	 viewBox="-664.7 295.3 809.3 94.3" style="enable-background:new -664.7 295.3 809.3 94.3;" xml:space="preserve">
<style type="text/css">
	.st0{fill:#FFFFFF;}
</style>
<g>
	<path class="st0" d="M-607.4,351.9h34.9v20.5h-66.8v-58.2h66.8v6.7h20.2l0.7-0.1v-2.1c0-7.9-1.6-13.3-4.8-16.3
		c-3.2-3-9.2-4.5-18-4.5h-63.4c-8.9,0-15,1.5-18.1,4.6c-3.1,3.1-4.7,8.8-4.7,17.1v48.4c0,8.4,1.6,14.1,4.7,17.2
		c3.1,3.1,9.1,4.6,18.1,4.6h63.4c8.9,0,15-1.5,18.1-4.6c3.1-3,4.7-8.8,4.7-17.2v-31.7h-55.7V351.9z"/>
	<path class="st0" d="M-475.2,297.7l-52,91.9h21.3l10.7-20.1h58.3l11,20.1h24l-52.7-91.9H-475.2z M-486.1,352.9l20.4-37.4l19.9,37.4
		H-486.1z"/>
	<polygon class="st0" points="-53.5,349.6 -11.1,349.6 -11.1,333.9 -53.5,333.9 -53.5,313.4 19.2,313.4 19.2,297.7 -74.8,297.7 
		-74.8,389.6 20.1,389.6 20.1,372.3 -53.5,372.3 	"/>
	<path class="st0" d="M-140.9,346c0,1.2,0.1,2.8,0.2,5c0.1,2.1,0.4,5.8,0.7,10.9c-1.4-1.7-2.9-3.3-4.6-4.9c-1.7-1.6-3.6-3.3-5.8-5.1
		l-64.7-54.2h-14.6v91.9h19.2V340c0-1.8-0.1-4-0.2-6.6c-0.1-2.5-0.4-5.2-0.7-8c1,1.2,2.2,2.4,3.4,3.6c1.2,1.2,2.6,2.5,4.2,3.9
		l67.5,56.8h14.6v-91.9h-19.2V346z"/>
	<polygon class="st0" points="38.7,297.7 38.7,314.1 80.9,314.1 80.9,389.6 102.3,389.6 102.3,314.1 144.7,314.1 144.7,297.7 	"/>
	<path class="st0" d="M-293.8,354.9c7.3,0,12.6-1.4,15.9-4.2c3.3-2.8,4.9-7.3,4.9-13.5v-21.6c0-6.3-1.6-10.8-4.9-13.6
		c-3.3-2.8-8.6-4.2-15.9-4.2h-78.5v91.9h21v-34.7h20.3l37,34.7h30.7l-42.5-34.7H-293.8z M-351.3,339.2v-25.6h48
		c3.7,0,6.2,0.5,7.6,1.6c1.4,1.1,2,3,2,5.6v11.1c0,2.7-0.7,4.6-2,5.7c-1.4,1.1-3.9,1.6-7.6,1.6H-351.3z"/>
</g>
</svg>
