<?xml version="1.0" encoding="UTF-8" standalone="no"?>
<svg
   xmlns:dc="http://purl.org/dc/elements/1.1/"
   xmlns:cc="http://creativecommons.org/ns#"
   xmlns:rdf="http://www.w3.org/1999/02/22-rdf-syntax-ns#"
   xmlns:svg="http://www.w3.org/2000/svg"
   xmlns="http://www.w3.org/2000/svg"
   viewBox="0 0 513.56 115.288"
   height="115.288"
   width="513.56"
   xml:space="preserve"
   version="1.1"
   id="svg2"><metadata
     id="metadata8"><rdf:RDF><cc:Work
         rdf:about=""><dc:format>image/svg+xml</dc:format><dc:type
           rdf:resource="http://purl.org/dc/dcmitype/StillImage" /></cc:Work></rdf:RDF></metadata><defs
     id="defs6"><clipPath
       id="clipPath16"
       clipPathUnits="userSpaceOnUse"><path
         id="path18"
         d="m 0,92.23 410.848,0 0,-92.23 L 0,0 0,92.23 Z" /></clipPath><clipPath
       id="clipPath54"
       clipPathUnits="userSpaceOnUse"><path
         id="path56"
         d="m 0,92.23 410.848,0 0,-92.23 L 0,0 0,92.23 Z" /></clipPath></defs><g
     transform="matrix(1.25,0,0,-1.25,0,115.288)"
     id="g10"><g
       id="g12"><g
         clip-path="url(#clipPath16)"
         id="g14"><g
           transform="translate(5.9294,16.5625)"
           id="g20"><path
             id="path22"
             style="fill:#586060;fill-opacity:1;fill-rule:nonzero;stroke:none"
             d="m 0,0 0,-4.248 13.126,0 c 0.986,0 1.821,-0.071 2.506,-0.215 0.684,-0.143 1.224,-0.39 1.623,-0.74 0.397,-0.35 0.684,-0.835 0.859,-1.455 0.175,-0.621 0.263,-1.408 0.263,-2.363 l 0,-2.769 c 0,-0.954 -0.088,-1.734 -0.264,-2.338 -0.175,-0.605 -0.462,-1.091 -0.86,-1.456 -0.399,-0.366 -0.941,-0.621 -1.627,-0.764 -0.686,-0.143 -1.522,-0.214 -2.51,-0.214 l -13.153,0 c -1.021,0 -1.865,0.07 -2.535,0.211 -0.669,0.142 -1.211,0.393 -1.626,0.754 -0.414,0.361 -0.71,0.841 -0.885,1.437 -0.176,0.597 -0.263,1.371 -0.263,2.323 l 0,0.573 4.44,0.811 0,-2.386 14.844,0 0,4.677 -13.079,0 c -0.986,0 -1.822,0.072 -2.505,0.215 -0.685,0.143 -1.234,0.389 -1.647,0.74 -0.414,0.35 -0.709,0.835 -0.883,1.456 -0.176,0.62 -0.262,1.408 -0.262,2.362 l 0,2.243 c 0,0.955 0.086,1.743 0.262,2.363 0.174,0.621 0.469,1.106 0.883,1.456 0.413,0.35 0.962,0.597 1.647,0.74 0.683,0.143 1.519,0.215 2.505,0.215 l 11.981,0 c 1.846,0 3.189,-0.295 4.033,-0.883 0.843,-0.589 1.265,-1.759 1.265,-3.509 l 0,-0.477 L 13.89,-2.147 13.89,0 0,0 Z" /></g><path
           id="path24"
           style="fill:#586060;fill-opacity:1;fill-rule:nonzero;stroke:none"
           d="m 77.345,16.467 -16.275,0 0,-12.601 16.275,0 0,12.601 z M 56.416,17.78 c 0.175,0.62 0.468,1.114 0.883,1.479 0.414,0.366 0.955,0.613 1.623,0.741 0.668,0.126 1.496,0.19 2.482,0.19 l 15.607,0 c 0.987,0 1.815,-0.064 2.483,-0.19 0.668,-0.128 1.209,-0.375 1.623,-0.741 0.412,-0.365 0.707,-0.859 0.883,-1.479 0.174,-0.621 0.261,-1.408 0.261,-2.363 l 0,-10.644 C 82.261,3.818 82.174,3.031 82,2.411 81.824,1.79 81.529,1.304 81.117,0.955 80.703,0.604 80.162,0.358 79.494,0.215 78.826,0.072 77.998,0 77.011,0 L 61.404,0 c -1.02,0 -1.861,0.072 -2.529,0.215 -0.67,0.143 -1.203,0.389 -1.6,0.74 -0.398,0.349 -0.684,0.835 -0.859,1.456 -0.175,0.62 -0.263,1.407 -0.263,2.362 l 0,10.644 c 0,0.955 0.088,1.742 0.263,2.363" /><g
           transform="translate(114.5866,20.1904)"
           id="g26"><path
             id="path28"
             style="fill:#586060;fill-opacity:1;fill-rule:nonzero;stroke:none"
             d="m 0,0 21.432,0 0,-3.628 -16.467,0 0,-5.298 8.878,0 0,-3.723 -8.878,0 0,-7.541 L 0,-20.19 0,0 Z" /></g><g
           transform="translate(176.695,0)"
           id="g30"><path
             id="path32"
             style="fill:#586060;fill-opacity:1;fill-rule:nonzero;stroke:none"
             d="m 0,0 -4.916,0 0,16.562 -9.737,0 0,3.628 24.438,0 0,-3.628 L 0,16.562 0,0 Z" /></g><g
           transform="translate(213.8884,20.1904)"
           id="g34"><path
             id="path36"
             style="fill:#586060;fill-opacity:1;fill-rule:nonzero;stroke:none"
             d="M 0,0 5.154,0 10.453,-14.081 16.133,0 19.521,0 25.154,-14.081 30.356,0 l 4.44,0 -8.114,-20.19 -3.342,0 -5.823,14.271 -5.918,-14.271 -3.39,0 L 0,0 Z" /></g><g
           transform="translate(293.8962,8.1621)"
           id="g38"><path
             id="path40"
             style="fill:#586060;fill-opacity:1;fill-rule:nonzero;stroke:none"
             d="M 0,0 -4.726,8.4 -9.26,0 0,0 Z m -6.826,12.028 4.725,0 12.172,-20.19 -5.537,0 -2.529,4.439 -13.365,0 -2.53,-4.439 -4.917,0 11.981,20.19 z" /></g><g
           transform="translate(337.6755,16.7061)"
           id="g42"><path
             id="path44"
             style="fill:#586060;fill-opacity:1;fill-rule:nonzero;stroke:none"
             d="m 0,0 0,-5.584 11.217,0 c 0.731,0 1.289,0.102 1.671,0.31 0.382,0.206 0.572,0.644 0.572,1.312 l 0,2.339 c 0,0.668 -0.19,1.105 -0.572,1.312 C 12.506,-0.104 11.948,0 11.217,0 L 0,0 Z m -4.869,3.484 18.185,0 c 1.623,0 2.817,-0.295 3.58,-0.883 0.764,-0.589 1.146,-1.599 1.146,-3.031 l 0,-4.773 c 0,-1.401 -0.382,-2.395 -1.146,-2.983 -0.763,-0.589 -1.957,-0.883 -3.58,-0.883 l -2.767,0 9.594,-7.637 -7.065,0 -8.448,7.637 -4.63,0 0,-7.637 -4.869,0 0,20.19 z" /></g><g
           transform="translate(387.6599,20.1904)"
           id="g46"><path
             id="path48"
             style="fill:#586060;fill-opacity:1;fill-rule:nonzero;stroke:none"
             d="m 0,0 21.67,0 0,-3.58 -16.705,0 0,-4.391 9.736,0 0,-3.485 -9.736,0 0,-5.011 16.944,0 0,-3.723 L 0,-20.19 0,0 Z" /></g></g></g><g
       id="g50"><g
         clip-path="url(#clipPath54)"
         id="g52"><g
           transform="translate(389.2305,83.8744)"
           id="g58"><path
             id="path60"
             style="fill:#586060;fill-opacity:1;fill-rule:evenodd;stroke:none"
             d="m 0,0 0,-38.511 -10.9,0 0,38.511 -21.526,0 0,8.356 54.043,0 L 21.617,0 0,0 Z m -90.359,-38.511 0,46.867 47.957,0 0,-7.993 -37.058,0 0,-10.445 21.618,0 0,-7.993 -21.618,0 0,-11.626 37.512,0 0,-8.81 -48.411,0 z m -79.036,0 0,46.867 7.448,0 33,-27.627 c 1.121,-0.908 2.105,-1.771 2.968,-2.588 0.863,-0.818 1.634,-1.651 2.346,-2.513 -0.166,2.634 -0.287,4.496 -0.348,5.586 -0.06,1.105 -0.091,1.937 -0.091,2.528 l 0,24.614 9.81,0 0,-46.867 -7.448,0 -34.424,28.959 c -0.818,0.741 -1.544,1.393 -2.165,1.998 -0.621,0.59 -1.196,1.196 -1.726,1.817 0.137,-1.454 0.258,-2.816 0.333,-4.103 0.076,-1.286 0.106,-2.407 0.106,-3.345 l 0,-25.326 -9.809,0 z m -72.739,0 0,46.867 40.056,0 c 3.739,0 6.448,-0.712 8.114,-2.15 1.68,-1.422 2.512,-3.723 2.512,-6.918 l 0,-11.02 c 0,-3.164 -0.832,-5.465 -2.512,-6.903 -1.666,-1.438 -4.375,-2.165 -8.114,-2.165 l -6.116,0 21.663,-17.711 -15.653,0 -18.893,17.711 -10.339,0 0,-17.711 -10.718,0 z m 35.226,38.783 -24.508,0 0,-13.079 24.508,0 c 1.893,0 3.179,0.272 3.876,0.818 0.696,0.559 1.044,1.529 1.044,2.921 l 0,5.647 c 0,1.362 -0.348,2.316 -1.044,2.876 -0.697,0.545 -1.983,0.817 -3.876,0.817 m -114.247,-38.783 26.538,46.867 10.521,0 26.884,-46.867 -12.246,0 -5.631,10.263 -29.732,0 -5.464,-10.263 -10.87,0 z m 20.982,18.711 20.557,0 -10.127,19.073 -10.43,-19.073 z m -44.098,19.8 -34.06,0 0,-29.701 34.06,0 0,10.445 -17.802,0 0,7.993 28.43,0 0,-16.167 c 0,-4.284 -0.803,-7.206 -2.408,-8.75 -1.589,-1.559 -4.677,-2.331 -9.234,-2.331 l -32.335,0 c -4.556,0 -7.629,0.772 -9.219,2.331 -1.589,1.544 -2.391,4.466 -2.391,8.75 l 0,24.705 c 0,4.254 0.802,7.16 2.391,8.735 1.59,1.559 4.663,2.346 9.219,2.346 l 32.335,0 c 4.496,0 7.569,-0.772 9.204,-2.301 1.62,-1.544 2.438,-4.314 2.438,-8.326 l 0,-1.074 -10.628,-1.923 0,5.268 z" /></g></g></g></g></svg>