<?xml version="1.0" encoding="utf-8"?>
<!-- Generator: Adobe Illustrator 19.1.1, SVG Export Plug-In . SVG Version: 6.00 Build 0)  -->
<svg version="1.1" id="Layer_1" xmlns="http://www.w3.org/2000/svg" xmlns:xlink="http://www.w3.org/1999/xlink" x="0px" y="0px"
	 viewBox="0 0 186.7 49" style="enable-background:new 0 0 186.7 49;" xml:space="preserve">
<style type="text/css">
	.st0{fill:#FFFFFF;}
</style>
<path class="st0" d="M0.5,0v36.5l14.6,12.1l14.6-12.1V0H0.5z M21.7,21.6c-1.4,0.6-2.5,1.5-3.4,2.7l-3.2-6.5l-3.1,6.5
	c-1-1.2-2.1-2-3.5-2.6l5.1-5.1l-7.1-0.9c0.8-1.2,1.3-2.6,1.5-4.1l6.4,3.3l-1.4-7c1,0.2,1.7,0.4,2.2,0.4c0.5,0,1.3-0.1,2.3-0.4
	l-1.2,7l6.4-3.4c0.1,1.5,0.5,2.9,1.3,4.2l-7.1,0.9L21.7,21.6z"/>
<g>
	<path class="st0" d="M106.1,14.4c-1.4,0-2.6,0.5-3.6,1.5c-1,1-1.5,2.2-1.5,3.6c0,0.3,0,0.5,0.1,0.7c-0.5,1.2-1.1,1.9-1.8,2.5
		c-0.9,0.7-1.8,1.1-2.8,1.1c-0.8,0-1.4-0.2-2.1-0.6c-0.6-0.4-1.1-1.1-1.3-2.1c-0.3-1-0.4-2.8-0.4-5.4c0-3.2,0.3-5.3,0.9-6.4
		c0.6-1,1.5-1.5,2.8-1.5c2.4,0,3.9,1.5,4.4,4.5h0.5V7.5h-0.5c-0.2,0.4-0.4,0.8-0.7,1.3c-1.1-1-2.3-1.5-3.8-1.5
		c-1.8,0-3.5,0.8-4.9,2.5c-1.4,1.7-2.1,3.7-2.1,6.2c0,2.4,0.7,4.4,2.1,6c1.4,1.6,3,2.5,4.8,2.5c1.2,0,2.3-0.4,3.4-1.3
		c0.8-0.6,1.3-1.3,1.6-1.9c0.2,0.7,0.6,1.3,1.2,1.9c1,1,2.2,1.5,3.5,1.5c1.4,0,2.6-0.5,3.6-1.5c1-1,1.5-2.3,1.5-3.7
		c0-1.4-0.5-2.6-1.5-3.6C108.6,14.9,107.5,14.4,106.1,14.4z M108.2,22.5c-0.1,0.5-0.3,0.9-0.7,1.2c-0.4,0.3-0.9,0.4-1.4,0.4
		c-0.6,0-1-0.1-1.4-0.4c-0.4-0.3-0.6-0.7-0.7-1.2c-0.1-0.5-0.2-1.5-0.2-3c0-1.5,0-2.5,0.1-3c0.1-0.5,0.3-0.9,0.7-1.2
		c0.4-0.3,0.9-0.4,1.4-0.4c0.6,0,1.1,0.1,1.5,0.4c0.3,0.3,0.6,0.7,0.7,1.1c0.1,0.5,0.2,1.5,0.2,3C108.3,21,108.3,22,108.2,22.5z"/>
	<path class="st0" d="M121.8,18.6c0-1-0.1-1.8-0.2-2.3c-0.2-0.5-0.5-0.9-0.9-1.3c-0.5-0.4-1.1-0.6-1.8-0.6c-1.5,0-2.7,0.8-3.6,2.5
		h-0.1v-2.4c-0.9,0.1-1.9,0.2-3,0.2h-1.1v0.6h1.7v8.4h-1.7v0.6h5.7v-0.6h-1.6v-4.1c0-1.4,0.3-2.5,1-3.3c0.6-0.8,1.3-1.2,2.1-1.2
		c0.5,0,0.8,0.2,0.9,0.5c0.1,0.4,0.2,1,0.2,1.9v6.1h-1.6v0.6h5.9v-0.6h-1.9V18.6z"/>
	<path class="st0" d="M127.7,18c-1.1-0.1-1.8-0.3-2.1-0.5c-0.3-0.2-0.4-0.5-0.4-0.9c0-0.4,0.2-0.8,0.6-1.1c0.4-0.3,0.9-0.5,1.6-0.5
		c1.4,0,2.4,0.8,2.7,2.4h0.5v-2.7h-0.4c-0.2,0.3-0.3,0.6-0.5,0.7c-0.6-0.6-1.4-0.9-2.4-0.9c-0.9,0-1.6,0.3-2.3,0.9
		c-0.6,0.6-0.9,1.3-0.9,2.1c0,1.7,1.1,2.7,3.4,3.1c1.3,0.2,2.2,0.4,2.5,0.6c0.3,0.2,0.5,0.6,0.5,1c0,0.5-0.3,1-0.8,1.4
		c-0.5,0.4-1.1,0.6-1.7,0.6c-1.7,0-2.8-1.2-3.5-3.5h-0.4v3.6h0.4l0.9-0.7c0.9,0.8,1.8,1.1,2.7,1.1c0.9,0,1.7-0.3,2.4-1
		c0.6-0.6,0.9-1.4,0.9-2.4C131.4,19.4,130.2,18.3,127.7,18z"/>
	<path class="st0" d="M142.1,14.7h-4.3v0.6h2V19c0,1.6-0.3,2.8-1,3.6c-0.6,0.8-1.3,1.2-2.1,1.2c-0.5,0-0.8-0.2-0.9-0.6
		c-0.1-0.4-0.2-1.1-0.2-2.1v-6.5h-4.2v0.6h1.8v5.4c0,1.5,0.3,2.5,0.8,3c0.6,0.5,1.3,0.7,2.2,0.7c1.6,0,2.7-0.8,3.5-2.3h0v2.3
		c0.3-0.1,1.1-0.1,2.4-0.1h1.6v-0.6h-1.6V14.7z"/>
	<path class="st0" d="M148,7.8c-0.5,0.1-1.3,0.2-2.5,0.2h-1.7v0.6h1.7v15.1h-1.7v0.6h6.3v-0.6H148V7.8z"/>
	<path class="st0" d="M156.2,23.3c-0.4,0.3-0.7,0.4-1.1,0.4c-0.5,0-0.8-0.2-1-0.5c-0.1-0.3-0.2-0.9-0.2-1.8v-6h2.9v-0.6h-2.9V12
		c-0.8,0.1-1.6,0.2-2.4,0.2v2.6h-2.2v0.6h2.2v5.9c0,0.7,0,1.3,0.1,1.7c0.1,0.4,0.3,0.8,0.7,1.1c0.4,0.3,1,0.4,1.8,0.4
		c1.9,0,3-0.8,3.4-2.4H157C156.8,22.7,156.6,23.1,156.2,23.3z"/>
	<path class="st0" d="M160.6,11.2c0.4,0,0.7-0.1,0.9-0.4c0.3-0.3,0.4-0.6,0.4-1c0-0.4-0.1-0.7-0.4-0.9c-0.3-0.3-0.6-0.4-0.9-0.4
		c-0.4,0-0.7,0.1-0.9,0.4c-0.3,0.3-0.4,0.6-0.4,0.9c0,0.4,0.1,0.7,0.4,1C159.9,11.1,160.3,11.2,160.6,11.2z"/>
	<path class="st0" d="M161.7,14.6c-0.7,0.1-1.5,0.2-2.3,0.2h-1.7v0.6h1.7v8.4h-1.7v0.6h5.7v-0.6h-1.6V14.6z"/>
	<path class="st0" d="M170.2,23.7v0.6h5.9v-0.6h-1.9v-5.1c0-1-0.1-1.8-0.2-2.3c-0.2-0.5-0.5-0.9-0.9-1.3c-0.5-0.4-1.1-0.6-1.8-0.6
		c-1.5,0-2.7,0.8-3.6,2.5h0v-2.4c-0.9,0.1-1.9,0.2-3,0.2h-1.1v0.6h1.7v8.4h-1.7v0.6h5.7v-0.6h-1.6v-4.1c0-1.4,0.3-2.5,0.9-3.3
		c0.6-0.8,1.3-1.2,2.1-1.2c0.5,0,0.8,0.2,0.9,0.5c0.1,0.4,0.2,1,0.2,1.9v6.1H170.2z"/>
	<path class="st0" d="M55,19.8c-0.3,0.8-0.7,1.9-1.5,2.7c-0.7,0.7-1.5,1.2-2.7,1.2h-3.4V8.5h2.7V7.8h-7.7v0.6h2v15.3h-2v0.6h12.5
		l0.9-5.4h-0.5C55.2,19.1,55.1,19.4,55,19.8z"/>
	<path class="st0" d="M77.2,15.7L77.2,15.7c3-0.7,4.5-2,4.5-3.9c0-0.5-0.1-1.1-0.4-1.6C81,9.6,80.6,9.1,80,8.7
		c-0.6-0.4-1.2-0.6-1.8-0.7c-0.6-0.1-1.4-0.1-2.4-0.1h-8v0.6h2v15.3h-2.1v0.6h8c1.1,0,1.9-0.1,2.6-0.2c0.7-0.1,1.4-0.4,2-0.8
		c0.7-0.4,1.1-1,1.4-1.6c0.3-0.6,0.5-1.2,0.5-1.8C82.2,17.7,80.6,16.3,77.2,15.7z M72.7,8.5h2.5c0.8,0,1.4,0,1.8,0.2
		c0.4,0.1,0.8,0.4,1.1,0.8c0.3,0.5,0.4,1.2,0.4,2.2c0,1.3-0.2,2.2-0.6,2.8c-0.4,0.6-1.4,0.9-2.9,0.9h-2.3V8.5z M78.4,22.5
		c-0.4,0.6-0.8,0.9-1.3,1.1c-0.5,0.1-1.2,0.2-2.1,0.2h-2.3V16H75c1.6,0,2.6,0.3,3.2,0.9c0.5,0.6,0.8,1.6,0.8,2.9
		C79,21,78.8,21.9,78.4,22.5z"/>
	<polygon class="st0" points="59.9,7.5 59.5,7.5 58.2,11 62.7,23.7 60,23.7 60,24.4 67.4,24.4 67.4,23.7 65.7,23.7 	"/>
	<path class="st0" d="M186,14.7c-0.2-0.2-0.4-0.3-0.7-0.3c-0.7,0-1.4,0.4-2,1.2c-0.8-0.8-1.8-1.2-3-1.2c-1.1,0-2,0.3-2.8,1
		c-0.8,0.7-1.2,1.5-1.2,2.6c0,0.1,0,0.1,0,0.2l0,0c0,0,0,0,0,0c0,0.1,0,0.1,0,0.2c0.1,1,0.7,1.9,1.7,2.4c0.1,0,0.1,0.1,0.2,0.1
		c0,0,0.1,0,0.1,0.1v0.1c-0.8,0-1.2,0.6-1.3,0.6c-0.4,0.4-0.6,1-0.6,1.8c0,1.1,0.5,1.8,1.6,2.1c0,0,0,0,0,0l-0.5,0.3
		c-0.7,0.4-1.2,0.8-1.4,1.1c-0.3,0.3-0.4,0.7-0.4,1.1c0,0.7,0.4,1.4,1.2,1.9c0.8,0.5,1.9,0.8,3.2,0.8c1.7,0,2.7-0.4,3.7-1.2
		c1-0.8,1.5-1.8,1.5-3c0-1-0.3-1.8-0.8-2.4c-0.5-0.6-1.3-0.8-2.1-0.8l-3.1,0.1c-0.9,0-1.4-0.1-1.6-0.2c-0.2-0.2-0.3-0.4-0.3-0.6
		c0-0.3,0.2-0.6,0.6-0.9c0.3-0.2,0.7-0.4,1.6-0.3c0.3,0,0.8,0,0.8,0c0.5,0,0.7,0,0.8,0c0.5-0.1,1.2-0.4,2-0.8
		c0.9-0.6,1.4-1.4,1.4-2.5c0-0.7-0.2-1.3-0.7-2c0.3-0.3,0.5-0.5,0.7-0.5c0.1,0,0.2,0.1,0.4,0.4c0.1,0.3,0.4,0.4,0.7,0.4
		c0.2,0,0.4-0.1,0.6-0.3c0.2-0.2,0.3-0.4,0.3-0.7C186.3,15.2,186.2,14.9,186,14.7z M180.5,25.7c0.3,0,0.5,0,1.2-0.1
		c0.7,0,0.6,0,0.8,0c0.5,0,1,0.1,1.5,0.4c0.4,0.3,0.6,0.6,0.6,1.1c0,0.8-0.4,1.6-1.3,2.2c-0.9,0.6-1.6,0.9-2.9,0.9
		c-2.1,0-3.1-0.8-3.1-2.3c0-0.7,0.2-1.3,0.6-1.7c0.1-0.1,0.4-0.3,0.7-0.5C179.4,25.8,180.4,25.6,180.5,25.7z M181.8,20.3
		c-0.2,0.4-0.7,0.6-1.5,0.6c-0.8,0-1.3-0.2-1.5-0.6c-0.2-0.4-0.3-1.3-0.3-2.6c0-0.9,0.1-1.6,0.3-2c0.2-0.4,0.7-0.6,1.5-0.6
		c0.6,0,1,0.1,1.3,0.4c0.3,0.3,0.5,0.9,0.5,1.9C182.1,18.9,182,19.9,181.8,20.3z"/>
</g>
<g>
	<path class="st0" d="M45,36.4h-0.6v-5.6H45V36.4z"/>
	<path class="st0" d="M49.7,34.1v2.3h-0.6v-2.1c0-0.7-0.4-1.1-1.1-1.1c-0.6,0-1.2,0.4-1.2,1.2v2.1h-0.6v-3.8h0.6v0.5
		c0.3-0.4,0.8-0.6,1.3-0.6C49,32.6,49.7,33.2,49.7,34.1z"/>
	<path class="st0" d="M56.3,34.5c0,1.1-0.9,2-2,2c-1.1,0-2-0.8-2-2c0-1.1,0.8-2,2-2C55.5,32.6,56.3,33.4,56.3,34.5z M53,34.5
		c0,0.8,0.6,1.4,1.4,1.4c0.8,0,1.4-0.6,1.4-1.4c0-0.8-0.6-1.4-1.4-1.4C53.6,33.1,53,33.7,53,34.5z"/>
	<path class="st0" d="M59.6,32.7l-0.1,0.6c-0.2-0.1-0.4-0.2-0.7-0.2c-0.6,0-1,0.5-1,1.2v2.1h-0.6v-3.8h0.6v0.5
		c0.3-0.4,0.7-0.6,1.1-0.6C59.2,32.6,59.4,32.6,59.6,32.7z"/>
	<path class="st0" d="M63.1,33.2v-2.5h0.6v5.7h-0.6v-0.6c-0.3,0.4-0.8,0.6-1.4,0.6c-1.1,0-1.9-0.8-1.9-2c0-1.1,0.8-2,1.9-2
		C62.3,32.6,62.8,32.8,63.1,33.2z M60.4,34.5c0,0.8,0.5,1.4,1.3,1.4c0.8,0,1.3-0.6,1.3-1.4c0-0.8-0.6-1.4-1.3-1.4
		C61,33.1,60.4,33.8,60.4,34.5z"/>
	<path class="st0" d="M68.2,34.5c0,0.1,0,0.2,0,0.2h-3c0.1,0.8,0.6,1.2,1.3,1.2c0.5,0,0.9-0.2,1.2-0.5l0.3,0.4
		c-0.5,0.4-1,0.6-1.5,0.6c-1.1,0-1.9-0.8-1.9-2c0-1.2,0.8-2,1.9-2C67.4,32.6,68.2,33.4,68.2,34.5z M65.2,34.3h2.4
		c-0.1-0.7-0.5-1.2-1.2-1.2C65.7,33.1,65.3,33.6,65.2,34.3z"/>
	<path class="st0" d="M71.4,32.7l-0.1,0.6c-0.2-0.1-0.4-0.2-0.7-0.2c-0.6,0-1,0.5-1,1.2v2.1H69v-3.8h0.6v0.5
		c0.3-0.4,0.7-0.6,1.1-0.6C71,32.6,71.2,32.6,71.4,32.7z"/>
	<path class="st0" d="M76.4,33.2h-1.6v1.9c0,0.6,0.3,0.8,0.8,0.8c0.3,0,0.6-0.1,0.8-0.3l0.3,0.4c-0.3,0.2-0.7,0.4-1.1,0.4
		c-0.8,0-1.3-0.4-1.3-1.4v-1.9h-0.8v-0.5h0.8v-1.2h0.6v1.2h1.6V33.2z"/>
	<path class="st0" d="M80.9,34.5c0,1.1-0.9,2-2,2c-1.1,0-2-0.8-2-2c0-1.1,0.8-2,2-2C80,32.6,80.9,33.4,80.9,34.5z M77.5,34.5
		c0,0.8,0.6,1.4,1.4,1.4c0.8,0,1.4-0.6,1.4-1.4c0-0.8-0.6-1.4-1.4-1.4C78.1,33.1,77.5,33.7,77.5,34.5z"/>
	<path class="st0" d="M86.1,33.5c-0.2-0.2-0.7-0.4-1.2-0.4c-0.5,0-0.9,0.2-0.9,0.6c0,0.3,0.3,0.5,0.8,0.5l0.4,0.1
		c0.8,0.1,1.3,0.4,1.3,1c0,0.7-0.6,1.2-1.7,1.2c-0.5,0-1.1-0.1-1.6-0.5l0.3-0.4c0.3,0.2,0.7,0.4,1.3,0.4c0.6,0,1-0.2,1-0.6
		c0-0.3-0.3-0.5-0.8-0.5l-0.5,0c-0.8-0.1-1.2-0.5-1.2-1c0-0.7,0.6-1.1,1.5-1.1c0.6,0,1.1,0.2,1.5,0.4L86.1,33.5z"/>
	<path class="st0" d="M90.7,34.8c0,1.1-0.8,1.6-1.7,1.6s-1.7-0.5-1.7-1.6v-2.2h0.6v2.1c0,0.8,0.5,1.1,1.1,1.1s1.1-0.4,1.1-1.1v-2.1
		h0.6V34.8z"/>
	<path class="st0" d="M94.8,33.2l-0.4,0.4c-0.3-0.3-0.6-0.4-1-0.4c-0.8,0-1.3,0.6-1.3,1.4c0,0.8,0.6,1.4,1.3,1.4
		c0.4,0,0.8-0.2,1-0.4l0.4,0.4c-0.3,0.4-0.8,0.6-1.4,0.6c-1.2,0-1.9-0.8-1.9-2c0-1.1,0.8-2,1.9-2C94,32.6,94.5,32.8,94.8,33.2z"/>
	<path class="st0" d="M98.6,33.2l-0.4,0.4c-0.3-0.3-0.6-0.4-1-0.4c-0.8,0-1.3,0.6-1.3,1.4c0,0.8,0.6,1.4,1.3,1.4
		c0.4,0,0.8-0.2,1-0.4l0.4,0.4c-0.3,0.4-0.8,0.6-1.4,0.6c-1.2,0-2-0.8-2-2c0-1.1,0.8-2,2-2C97.8,32.6,98.3,32.8,98.6,33.2z"/>
	<path class="st0" d="M102.6,34.5c0,0.1,0,0.2,0,0.2h-3c0.1,0.8,0.7,1.2,1.3,1.2c0.5,0,0.9-0.2,1.2-0.5l0.3,0.4
		c-0.5,0.4-1,0.6-1.5,0.6c-1.1,0-1.9-0.8-1.9-2c0-1.2,0.8-2,1.9-2C101.9,32.6,102.6,33.4,102.6,34.5z M99.6,34.3h2.4
		c-0.1-0.7-0.5-1.2-1.2-1.2C100.2,33.1,99.7,33.6,99.6,34.3z"/>
	<path class="st0" d="M106.9,34.5c0,0.1,0,0.2,0,0.2h-3c0.1,0.8,0.6,1.2,1.3,1.2c0.5,0,0.9-0.2,1.2-0.5l0.3,0.4
		c-0.5,0.4-1,0.6-1.6,0.6c-1.1,0-1.9-0.8-1.9-2c0-1.2,0.8-2,1.9-2C106.1,32.6,106.9,33.4,106.9,34.5z M103.8,34.3h2.4
		c-0.1-0.7-0.5-1.2-1.2-1.2C104.4,33.1,103.9,33.6,103.8,34.3z"/>
	<path class="st0" d="M110.7,33.2v-2.5h0.6v5.7h-0.6v-0.6c-0.3,0.4-0.8,0.6-1.4,0.6c-1.1,0-1.9-0.8-1.9-2c0-1.1,0.8-2,1.9-2
		C110,32.6,110.4,32.8,110.7,33.2z M108.1,34.5c0,0.8,0.5,1.4,1.3,1.4c0.8,0,1.3-0.6,1.3-1.4c0-0.8-0.6-1.4-1.3-1.4
		C108.6,33.1,108.1,33.8,108.1,34.5z"/>
</g>
</svg>
