<?xml version="1.0" encoding="utf-8"?>
<!-- Generator: Adobe Illustrator 19.1.1, SVG Export Plug-In . SVG Version: 6.00 Build 0)  -->
<svg version="1.1" id="Layer_1" xmlns="http://www.w3.org/2000/svg" xmlns:xlink="http://www.w3.org/1999/xlink" x="0px" y="0px"
	 viewBox="0 0 133.2 88.4" style="enable-background:new 0 0 133.2 88.4;" xml:space="preserve">
<style type="text/css">
	.st0{fill:#FFFFFF;}
</style>
<g>
	<path class="st0" d="M38.3,77.7c-8.9,3.4-20.4-1.3-23-0.8c-2.4,21.9-27.7,7.6-7.5-1.6C7.6,59.5,2.3,34.5,0,26.2
		c4.7-0.4,9.4,0.1,9.6,1c2.7,11.1,5.8,35.5,5.8,46.9c11.5,1.4,19.2-0.7,28-5.2C42.8,74.4,42,76.2,38.3,77.7z M2.6,85.6
		c1.2,1,4.2-0.2,5.3-7.1C1.9,81.2,1.4,84.5,2.6,85.6z"/>
	<path class="st0" d="M63,57.2c-10.7,8.6-18.6,7-22.8-0.7c-1.7,5.8-5.2,10.5-10.8,10.7c-9.5,0.5-12.9-25.4-2.2-33.1
		c3.3-2.3,7.1-2.8,9.8-0.1c0.1,0.1,0.2,0.2,0.2,0.3c0.1-1,0.3-1.9,0.4-2.8c6.3,1,7.9,1.9,7.8,2.8c-1.8,22,2.5,32.3,16.6,21.6
		L63,57.2z M31.7,59.4c8.1,2.5,7.2-25.2,1.3-21.8C27.4,40.9,27.8,58.2,31.7,59.4z"/>
	<path class="st0" d="M73.5,29.9c0,0,1.9-0.4,3.6,1.1c-4.8,4-11.9,19.7-14.8,32.5c-0.6,1.1-5.1,0.1-5.8-1.9
		c-2.1-6.6-1.5-21.8,1.1-31.5c6.2,2,7.8,3.1,7.5,3.9c-1.3,3.3-3.2,13.9-3.6,21.7C63.4,49.8,70.3,33.8,73.5,29.9z"/>
	<path class="st0" d="M112.9,45.6c-2,6.2-6.6,16.9-12,20.2c-6.5,3.9-11.2-2.4-11.8-8.6c-3.8,4.7-8.8,7.6-14,5.7
		c-9-3.2-2.1-28.4,10.7-31.4c3.9-0.9,7.6,0.1,9.1,3.7c0,0.1,0.1,0.2,0.1,0.4c0.5-0.8,1-1.6,1.5-2.5c5.4,3.3,6.6,4.8,6.2,5.6
		c-16.2,31.3,0.6,32,9,6.1c-3.2-2.6-3.9-8.6,1.1-14.6l4.9,4.7c-7.5,11.2-0.3,11.6,2.2,5.1c0.9,0.5,7,4,6.3,5.5
		c-10.2,19.6-10.1,30.8,7,26.4l0.2,1.6c-20.8,6.2-25.4-8.7-16.8-27.3C115.2,46.3,114,46.2,112.9,45.6z M80.1,56.7
		c6.5,5.4,16.4-20.5,9.6-19.6C83.2,37.9,76.9,54,80.1,56.7z"/>
</g>
<path class="st0" d="M110.6,4.4C107,0.9,100.5,0.2,96.9,0C91.1-0.3,83,1.3,74.7,4.2c-4.3,1.5-8.2,3-11.5,4.4
	c-2.8,1-11.1,4.1-15.5,5.8c-5.1,1.9-10.1,2.2-16.4,1.2c-2.7-0.5-4.5-1.7-5.9-2.7c-1.6-1.1-2.9-2-4.4-0.7c-1.2,1-1.8,2.6-1.5,4.3
	c0.4,2,1.9,3.7,4.2,4.4c4.7,1.6,13.3,1.5,18.5-0.2c0.7-0.2,1.4-0.5,2.1-0.7c4.2-1.4,7.5-2.5,11.7-2.3c4.4,0.3,7.8,0.7,13.1,2
	l0.9,0.3c1.1,0.3,2.4,0.7,3.8,1.1c5.6,1.6,10.9,2.4,15.8,2.4c1.4,0,2.8-0.1,4.2-0.2c0.1,0,0.1,0,0.2,0l0.3,0
	c2.2-0.3,4.3-0.7,6.2-1.3c1.9-0.5,3.6-1.1,5-1.8c5.1-2.4,7.6-5.7,7.6-9.9C113.1,7.9,112.2,5.9,110.6,4.4z M23,16.7
	c-0.7,0-1.3-0.6-1.3-1.3c0-0.7,0.6-1.3,1.3-1.3c0.7,0,1.3,0.6,1.3,1.3C24.3,16.1,23.7,16.7,23,16.7z M75.3,5.8
	c7.1-2.6,14-4,19.4-4.1c0.1,0,0.1,0,0.2,0c0,0,0.9,0,2.2,0c4.1,0.3,6.8,1.5,7.9,3.7c0.6,1.1,0.6,2.2,0.1,3.4c-3-2.6-9.3-5.1-22.8-3
	c-7.4,1.1-14.4,3.1-19.8,4.9C65.5,9.5,69.7,7.8,75.3,5.8z M58.2,14.1c5.4-2,14.5-5.1,24.4-6.6c13.8-2.1,19.4,0.7,21.6,2.7
	c-3.2,3.4-11.4,6-19.1,6c-5.2,0-9.9-0.6-14.5-1.1c-4-0.5-7.8-1-11.6-1C58.7,14.1,58.5,14.1,58.2,14.1z M105.7,16.3
	c-0.7,1.5-2.2,2.8-4.6,3.6c-0.2,0.1-0.5,0.2-0.8,0.3c-1.9,0.5-4.1,1-6.4,1.4c-5.9,0.6-12.5-0.1-19.7-2.1h0c-1.4-0.4-2.7-0.8-3.8-1.1
	c-4.8-1.4-7.6-2.1-10.1-2.6c3.3,0.1,6.6,0.5,10.1,1c4.6,0.6,9.4,1.2,14.7,1.2c6.8,0,16.1-2.3,20.2-6.4c0.2,0.3,0.3,0.5,0.4,0.7
	C106,13,106.4,14.6,105.7,16.3z M107.1,17.2c0-0.1,0.1-0.2,0.1-0.2c1-2.2,0.4-4.4,0-5.4c-0.1-0.3-0.4-0.8-0.8-1.4
	c0-0.1,0.1-0.1,0.1-0.2c1-1.7,1-3.5,0.1-5.3c-0.3-0.5-0.6-0.9-0.9-1.3c1.6,0.6,2.8,1.3,3.7,2.2c1.3,1.2,1.9,2.8,1.9,4.6
	C111.4,12.9,109.9,15.3,107.1,17.2z"/>
</svg>
