<?xml version="1.0" encoding="UTF-8" standalone="no"?>
<svg
   xmlns:dc="http://purl.org/dc/elements/1.1/"
   xmlns:cc="http://creativecommons.org/ns#"
   xmlns:rdf="http://www.w3.org/1999/02/22-rdf-syntax-ns#"
   xmlns:svg="http://www.w3.org/2000/svg"
   xmlns="http://www.w3.org/2000/svg"
   viewBox="0 0 129.0625 139.1575"
   height="139.1575"
   width="129.0625"
   xml:space="preserve"
   version="1.1"
   id="svg2"><metadata
     id="metadata8"><rdf:RDF><cc:Work
         rdf:about=""><dc:format>image/svg+xml</dc:format><dc:type
           rdf:resource="http://purl.org/dc/dcmitype/StillImage" /></cc:Work></rdf:RDF></metadata><defs
     id="defs6"><clipPath
       id="clipPath16"
       clipPathUnits="userSpaceOnUse"><path
         id="path18"
         d="m 0,111.326 103.25,0 L 103.25,0 0,0 0,111.326 Z" /></clipPath></defs><g
     transform="matrix(1.25,0,0,-1.25,0,139.1575)"
     id="g10"><g
       id="g12"><g
         clip-path="url(#clipPath16)"
         id="g14"><g
           transform="translate(52.125,104.8256)"
           id="g20"><path
             id="path22"
             style="fill:none;stroke:#292929;stroke-width:4;stroke-linecap:butt;stroke-linejoin:round;stroke-miterlimit:10;stroke-dasharray:none;stroke-opacity:1"
             d="M 0,0 0,6.5" /></g><g
           transform="translate(37.2951,101.4344)"
           id="g24"><path
             id="path26"
             style="fill:none;stroke:#292929;stroke-width:4;stroke-linecap:butt;stroke-linejoin:round;stroke-miterlimit:10;stroke-dasharray:none;stroke-opacity:1"
             d="M 0,0 -3.788,5.282" /></g><g
           transform="translate(65.9549,101.4344)"
           id="g28"><path
             id="path30"
             style="fill:none;stroke:#292929;stroke-width:4;stroke-linecap:butt;stroke-linejoin:round;stroke-miterlimit:10;stroke-dasharray:none;stroke-opacity:1"
             d="M 0,0 3.788,5.282" /></g><g
           transform="translate(37.17,22.715)"
           id="g32"><path
             id="path34"
             style="fill:none;stroke:#292929;stroke-width:4;stroke-linecap:round;stroke-linejoin:miter;stroke-miterlimit:10;stroke-dasharray:none;stroke-opacity:1"
             d="m 0,0 0,-8.26 c 0,-2.271 1.859,-4.13 4.13,-4.13 l 20.65,0 c 2.272,0 4.13,1.859 4.13,4.13 L 28.91,0 0,0 Z" /></g><g
           transform="translate(66.08,22.715)"
           id="g36"><path
             id="path38"
             style="fill:none;stroke:#292929;stroke-width:4;stroke-linecap:butt;stroke-linejoin:round;stroke-miterlimit:10;stroke-dasharray:none;stroke-opacity:1"
             d="m 0,0 0,12.39 c 0,11.12 14.455,11.498 14.455,30.975 0,15.969 -12.943,28.91 -28.91,28.91 -15.967,0 -28.91,-12.941 -28.91,-28.91 0,-19.892 14.455,-22.079 14.455,-30.975 l 0,-12.39" /></g><g
           transform="translate(57.82,10.325)"
           id="g40"><path
             id="path42"
             style="fill:none;stroke:#292929;stroke-width:4;stroke-linecap:round;stroke-linejoin:miter;stroke-miterlimit:10;stroke-dasharray:none;stroke-opacity:1"
             d="m 0,0 c 0,-3.42 -2.775,-6.195 -6.195,-6.195 -3.42,0 -6.195,2.775 -6.195,6.195" /></g><g
           transform="translate(51.625,55.755)"
           id="g44"><path
             id="path46"
             style="fill:none;stroke:#292929;stroke-width:4;stroke-linecap:butt;stroke-linejoin:miter;stroke-miterlimit:10;stroke-dasharray:none;stroke-opacity:1"
             d="M 0,0 0,-26.845" /></g><g
           transform="translate(43.365,64.015)"
           id="g48"><path
             id="path50"
             style="fill:none;stroke:#292929;stroke-width:4;stroke-linecap:round;stroke-linejoin:miter;stroke-miterlimit:10;stroke-dasharray:none;stroke-opacity:1"
             d="M 0,0 8.26,-8.26 16.52,0" /></g></g></g></g></svg>