<?xml version="1.0" encoding="utf-8"?>
<!-- Generator: Adobe Illustrator 19.1.1, SVG Export Plug-In . SVG Version: 6.00 Build 0)  -->
<svg version="1.1" id="Livello_1" xmlns="http://www.w3.org/2000/svg" xmlns:xlink="http://www.w3.org/1999/xlink" x="0px" y="0px"
	 viewBox="-234 326.3 141.7 141.7" style="enable-background:new -234 326.3 141.7 141.7;" xml:space="preserve">
<style type="text/css">
	.st0{fill:#FFFFFF;}
</style>
<g id="Livello_110">
	<path class="st0" d="M-138.6,376.9c0,14-11.4,25.3-25.4,25.3c-14.1,0-25.4-11.3-25.4-25.3c0-14,11.4-25.3,25.4-25.3
		C-150,351.6-138.6,362.9-138.6,376.9 M-112.3,376.9c0-28-22.8-50.6-50.9-50.6c-28.1,0-50.9,22.7-50.9,50.6
		c0,12.3,4.4,23.6,11.7,32.3l39.2,56.3l39.8-57.1c1.4-1.8,2.7-3.7,3.9-5.6l0.4-0.6h-0.1C-114.7,394.8-112.3,386.1-112.3,376.9"/>
</g>
</svg>
