<?xml version="1.0" encoding="utf-8"?>
<!-- Generator: Adobe Illustrator 19.1.1, SVG Export Plug-In . SVG Version: 6.00 Build 0)  -->
<svg version="1.1" id="Layer_1" xmlns="http://www.w3.org/2000/svg" xmlns:xlink="http://www.w3.org/1999/xlink" x="0px" y="0px"
	 viewBox="0 0 113.8 84.3" style="enable-background:new 0 0 113.8 84.3;" xml:space="preserve">
<style type="text/css">
	.st0{fill:#FFFFFF;}
</style>
<path class="st0" d="M0,30.2c0-0.4,0-0.8,0-1.3c0-0.1,0.1-0.2,0.1-0.4c0.1-1.3,0.1-2.6,0.4-3.8c1.1-7,4.7-12.3,10.9-15.8
	C14.4,7.1,17.8,6,21.2,5c4.9-1.4,9.9-2.6,15-3.3c3-0.4,6-0.8,8.9-1.1c3.7-0.3,7.5-0.5,11.2-0.6c2.2-0.1,4.4,0,6.6,0.1
	c2.5,0.1,5.1,0.3,7.6,0.5c4.8,0.4,9.3,1.8,13.5,4.1c5.1,2.7,9,6.7,11.5,11.9c1.3,2.7,2.2,5.5,2.8,8.4c0.1,0.3,0.2,0.4,0.5,0.4
	c0.9,0,1.8,0,2.8,0.1c1.9,0.2,3.8,0.3,5.7,0.6c3.3,0.6,5.4,2.6,6,5.9c0.1,0.7,0.3,1.4,0.4,2.1c0,1.4,0,2.8,0,4.3
	c0,0.1-0.1,0.2-0.1,0.4c-0.3,1.9-0.5,3.8-0.8,5.7c-0.9,4.7-2.2,9.3-3.8,13.8c-1.7,4.9-3.5,9.8-5.2,14.6c-0.1,0.3-0.3,0.3-0.6,0.3
	c-2.6,0-5.1,0-7.7,0c-0.2,0-0.4,0-0.6,0c0-0.4,0-0.8,0-1.2c-0.1-1.9-0.5-3.8-1.6-5.4c-1.3-2-3.2-3.1-5.6-3.1c-1.6,0-3,0.6-4.4,1.4
	c-3,1.9-4.9,4.6-6.2,7.9c-0.1,0.4-0.3,0.5-0.7,0.5c-12,0-24,0-36.1,0c-0.2,0-0.4,0-0.6,0c0-0.3,0-0.5,0-0.7c0-1.3-0.2-2.6-0.6-3.9
	c-0.8-2.5-2.3-4.4-4.9-5c-2.1-0.5-4.1,0-5.9,1.1c-3.1,1.9-5.1,4.7-6.4,8c-0.1,0.3-0.3,0.5-0.7,0.5c-2.4,0-4.7,0-7.1,0
	c-0.7,0-1.1-0.2-1.4-0.9C8.4,62.3,4.7,51.8,1.9,40.9c-0.8-3-1.4-6-1.7-9.1C0.1,31.3,0.1,30.7,0,30.2z M54.7,42.9
	c0.1-0.1,0.2-0.1,0.4-0.2c2.9-1.3,4-4.6,2.4-7.3c-1.1-1.9-3-2.9-5.1-3.2c-1.6-0.2-3.3-0.2-4.9-0.2c-2.3,0-4.6,0.4-6.8,1
	c-0.3,0.1-0.4,0.2-0.4,0.6c0,5.2,0,10.5,0,15.7c0,2.4,1,4.2,3.2,5.1c0.6,0.2,1.3,0.4,1.9,0.5c2,0.3,4.1,0.3,6.1,0.1
	c2.1-0.2,3.9-0.9,5.4-2.5c2-2.2,2.8-6-0.4-8.5C55.9,43.5,55.3,43.2,54.7,42.9z M91.6,25.2c0-0.1,0-0.1,0-0.2
	c-0.1-0.6-0.2-1.2-0.3-1.8c-0.7-3.4-2.1-6.5-4.5-9.1c-2.3-2.5-5.2-4.1-8.5-5.2c-2.8-0.9-5.7-1.3-8.6-1.5c-0.8,0-1.6,0-2.4,0
	c0.9,5.9,1.8,11.8,2.8,17.6C77.4,25.2,84.5,25.2,91.6,25.2z M82.9,41.6c0,2.7,0,5.4,0,8.1c0,1.6,0.5,3,1.9,3.9
	c0.7,0.5,1.6,0.9,2.4,1.1c2.1,0.5,4.3,0.4,6.5,0.2c2.5-0.2,4.7-1.3,6.4-3.2c2.6-3,3.4-6.5,2.9-10.3c-0.6-4.9-4.1-8.4-9-9.2
	c-1.7-0.3-3.4-0.2-5.1-0.2c-1.8,0-3.7,0.4-5.4,0.8c-0.4,0.1-0.5,0.3-0.5,0.7C82.9,36.2,82.9,38.9,82.9,41.6z M25.4,31.7
	c-0.8,0.1-1.6,0.1-2.5,0.3c-3.7,0.7-6.5,2.7-7.9,6.3c-1.1,2.7-1.3,5.5-0.7,8.4c0.7,3.7,2.8,6.5,6.4,7.9c2.3,0.9,4.6,1,7,0.5
	c3.5-0.7,6.1-2.6,7.6-5.9c1.1-2.5,1.3-5.2,1-7.8C35.5,35.2,30.6,31.6,25.4,31.7z M77.2,41.1c-0.2,0-0.4,0-0.6,0c-2.5,0-5,0-7.5,0
	c-0.4,0-0.6-0.1-0.5-0.6c0.1-0.9,0.1-1.8,0.2-2.7c0-0.5,0.2-0.6,0.6-0.6c2.2,0,4.4,0,6.6,0c1.2,0,2.3-0.4,3-1.5
	c0.6-1.1,0.5-2.3,0.4-3.4c-0.2,0-0.3,0-0.3,0c-4,0-8.1,0-12.1,0c-2.4,0-3.7,1.3-4.1,3.6c-0.6,4-0.5,7.9-0.3,11.9
	c0.3,4.1,3.1,6.9,7.2,7.2c1.7,0.1,3.4,0.1,5.1,0.1c0.7,0,1.4-0.1,2.1-0.3c0.9-0.2,1.7-0.7,2.1-1.6c0.5-1.2,0.2-2.4,0.3-3.7
	c-0.1,0-0.1,0-0.2,0c-2.2,0.5-4.4,0.6-6.6,0.6c-0.7,0-1.5-0.1-2.2-0.2c-1.1-0.2-1.7-0.9-1.8-2.1c0-0.4,0-0.9-0.1-1.4
	c0-0.4,0.1-0.5,0.5-0.5c1.4,0,2.8,0,4.3,0c0.6,0,1.1,0,1.7-0.1c1.3-0.2,2.1-0.9,2.2-2C77.2,42.9,77.2,42,77.2,41.1z M59.6,63.1
	c0-0.6,0-1.3,0-1.9c0.4,0,0.7,0.1,0.8,0.5c0.1,0.2,0.2,0.5,0.3,0.7c0.4,0.8,1,1,1.9,0.6c-0.4-0.8-0.8-1.5-1.2-2.3
	c0.6-0.4,0.9-1,0.7-1.8c-0.1-0.6-0.7-1.1-1.5-1.2c-0.7,0-1.5,0.1-2.2,0.1c-0.3,0-0.4,0.2-0.4,0.5c0,1.2,0,2.3,0,3.5
	C58.1,63.1,58.4,63.3,59.6,63.1z M48.4,59.5c-0.6-1-1.2-2-2.7-1.5c0.5,0.8,1,1.6,1.5,2.4c-0.2,0.2-0.4,0.4-0.6,0.7
	c-0.3,0.4-0.5,0.8-0.7,1.3c-0.1,0.3,0,0.7,0.3,0.8c0.5,0.2,0.8,0,1-0.4c0.2-0.4,0.5-0.8,0.7-1.3c0.2,0.3,0.4,0.6,0.5,0.8
	c0.2,0.2,0.4,0.5,0.6,0.7c0.6,0.6,1.4,0.5,1.8-0.1c-0.6-0.7-1.2-1.4-1.8-2.1c0.3-0.4,0.6-0.7,0.8-1c0.2-0.3,0.4-0.6,0.6-1
	c0.1-0.3,0.1-0.7-0.3-0.8c-0.4-0.2-0.7,0-0.9,0.3C49,58.7,48.7,59,48.4,59.5z M67.9,57.9c-1.1,0-2.1,0-3.2,0c-0.5,0-0.7,0.4-0.7,0.8
	c0,1-0.1,2,0,3c0.1,0.8,0.6,1.3,1.4,1.5c0.5,0.1,1,0.1,1.4,0.1c0.9,0,1.2-0.4,1.1-1.2c-0.6,0-1.2,0-1.8,0c-0.6,0-0.7-0.2-0.7-0.9
	c0.4,0,0.7,0,1.1,0c0.8,0,1.1-0.4,0.8-1.2c-0.6,0-1.3,0-2,0c0-0.3,0-0.6,0.1-0.8c0.5,0,1,0,1.5,0C67.8,59.1,68,58.7,67.9,57.9z
	 M41.7,61.2c0.3,0,0.7,0,1.1,0c0.9,0,1.1-0.3,0.9-1.2c-0.6,0-1.3,0-2,0c0-0.3,0.1-0.6,0.1-0.8c0.1,0,0.1,0,0.1,0c0.5,0,0.9,0,1.4,0
	c0.8,0,1.1-0.4,0.9-1.2c-0.1,0-0.3,0-0.5,0c-0.9,0-1.7,0-2.6,0c-0.5,0-0.8,0.4-0.8,0.8c-0.1,0.9-0.1,1.9-0.1,2.8
	c0.1,1.1,0.8,1.7,2,1.8c0.3,0,0.6,0,0.9,0c0.9,0,1.2-0.4,1.1-1.2c-0.6,0-1.2,0-1.7,0C41.8,62,41.7,61.8,41.7,61.2z M69.6,61.8
	c-0.1,0.9,0.2,1.4,1.2,1.5c0.4,0,0.8,0.1,1.2,0c1-0.1,1.6-0.8,1.6-1.7c0-0.9-0.4-1.3-1.4-1.6c-0.3-0.1-0.7-0.2-1-0.3
	c-0.1,0-0.2-0.2-0.2-0.3c0-0.1,0.1-0.3,0.2-0.4c0.1-0.1,0.3-0.1,0.5-0.1c0.6,0.1,1.2,0.2,1.8,0.3c0.1-0.5,0-1-0.5-1.3
	c-0.8-0.5-2.3-0.4-3,0.3c-0.9,0.9-0.6,2.2,0.6,2.5c0.3,0.1,0.7,0.1,1,0.2c0.3,0.1,0.6,0.2,0.5,0.5c-0.1,0.2-0.4,0.4-0.6,0.4
	C70.9,62,70.2,61.9,69.6,61.8z M75.3,61.8c-0.2,0.8,0.1,1.3,1,1.5c0.5,0.1,1.1,0.1,1.6,0c0.9-0.2,1.4-0.8,1.4-1.7
	c0-0.8-0.4-1.2-1.4-1.5c-0.3-0.1-0.7-0.2-1-0.3c-0.1,0-0.3-0.2-0.3-0.3c0-0.1,0.2-0.3,0.3-0.3c0.1-0.1,0.3-0.1,0.5-0.1
	c0.6,0.1,1.2,0.2,1.8,0.3c0.1-0.5,0-1-0.5-1.3c-0.8-0.5-2.2-0.3-3,0.3c-0.9,0.9-0.7,2.2,0.5,2.6c0.4,0.1,0.7,0.2,1.1,0.3
	c0.3,0.1,0.6,0.2,0.5,0.5c-0.1,0.2-0.4,0.4-0.6,0.4C76.6,62,76,61.9,75.3,61.8z M53.9,61.4c0.4,0,0.6,0,0.9,0c1-0.1,1.7-0.9,1.7-1.9
	c0-1-0.7-1.7-1.8-1.7c-0.7,0-1.3,0.1-2,0.1c-0.3,0-0.4,0.1-0.3,0.4c0,1.3,0,2.7,0,4c0,0.4,0.2,0.7,0.6,0.8c0.3,0,0.6,0,0.9,0
	C53.9,62.6,53.9,62,53.9,61.4z"/>
<path class="st0" d="M83.2,84.3c-1.1-0.2-2-0.7-2.7-1.6c-0.8-1-1.2-2.1-1.3-3.3c-0.4-4.4,1.1-8,4.5-10.8c1-0.9,2.3-1.4,3.7-1.4
	c1.6,0,2.8,0.7,3.6,2c0.9,1.4,1.2,3.1,1.1,4.7c-0.2,3.2-1.4,5.9-3.7,8.2c-1.1,1.1-2.4,1.9-3.9,2.1c0,0-0.1,0-0.1,0.1
	C83.9,84.3,83.6,84.3,83.2,84.3z M84.4,75.4c0,0.9,0.2,1.7,1.1,2.1c0.9,0.3,1.6-0.1,2.2-0.7c0.9-0.9,1.3-2.1,1.2-3.4
	c-0.1-0.9-0.6-1.6-1.4-1.7c-0.6-0.1-1.2,0.2-1.6,0.6C85,73.1,84.5,74.2,84.4,75.4z"/>
<path class="st0" d="M28.1,84.3c-0.7-0.3-1.5-0.5-2.1-1c-1.2-0.9-1.7-2.2-1.9-3.5c-0.5-4.5,1-8.3,4.5-11.2c1.1-0.9,2.3-1.4,3.7-1.4
	c1.8,0,3.2,1.1,4,2.9c0.8,2.1,0.8,4.2,0.2,6.3c-0.7,2.7-2.1,5-4.4,6.7c-0.9,0.7-1.9,1-3,1.2C28.8,84.3,28.4,84.3,28.1,84.3z
	 M31,77.6c0.6,0,1.1-0.3,1.6-0.8c1-1.1,1.5-2.4,1.1-3.9c-0.3-1.1-1.3-1.5-2.4-1c-0.3,0.2-0.6,0.4-0.8,0.6c-0.9,1-1.4,2.2-1.1,3.6
	C29.6,77,30.2,77.6,31,77.6z"/>
<path class="st0" d="M46.4,47.2c0-0.5,0-1.1,0-1.6c0-0.3,0.1-0.4,0.4-0.4c1.2,0,2.4,0,3.6,0.1c1.5,0.1,2.1,0.8,2.1,2.3
	c0,1.2-0.8,2-2.1,2.1c-1,0.1-1.9,0.1-2.9,0c-0.7,0-1-0.4-1-1.1C46.4,48.2,46.4,47.7,46.4,47.2z"/>
<path class="st0" d="M46.4,41.1c0-1.4,0-2.6,0-3.8c0-0.1,0.2-0.3,0.3-0.3c1.2,0,2.4-0.1,3.6,0c1.2,0.1,1.8,0.7,1.8,1.8
	c0.1,1.2-0.5,2-1.7,2.2C49.1,41.1,47.8,41.1,46.4,41.1z"/>
<path class="st0" d="M89,43c0-1.8,0-3.6,0-5.4c0-0.4,0.1-0.6,0.6-0.6c2.2-0.2,4.3-0.1,5.9,1.8c1,1.2,1.3,2.6,1.5,4.1
	c0.1,1.2,0,2.5-0.4,3.7c-0.8,2.2-2.5,3.5-4.9,3.6c-0.3,0-0.6,0-0.9,0c-1.1,0-1.7-0.5-1.7-1.7C89,46.6,89,44.8,89,43z"/>
<path class="st0" d="M25.3,50.2c-2.3-0.1-3.9-1.2-4.6-3.4c-0.7-2.3-0.8-4.7,0-7c0.6-1.6,1.6-2.7,3.3-3c2.9-0.4,5.1,0.8,5.8,3.8
	c0.5,2.1,0.5,4.2-0.1,6.3c-0.5,1.6-1.5,2.9-3.3,3.3C26,50.2,25.7,50.2,25.3,50.2z"/>
<path class="st0" d="M59.6,58.9c0.4,0.1,0.8,0.2,1,0.4c0.1,0.1,0.1,0.4,0,0.6c-0.2,0.4-0.6,0.3-1,0.3C59.6,59.8,59.6,59.4,59.6,58.9
	z"/>
<path class="st0" d="M53.9,58.9c0.4,0.1,0.8,0.2,1,0.4c0.1,0.1,0.1,0.7,0,0.8c-0.2,0.2-0.6,0.2-1,0.3C53.9,59.8,53.9,59.4,53.9,58.9
	z"/>
</svg>
