<?xml version="1.0" encoding="UTF-8" standalone="no"?>
<svg
   xmlns:dc="http://purl.org/dc/elements/1.1/"
   xmlns:cc="http://creativecommons.org/ns#"
   xmlns:rdf="http://www.w3.org/1999/02/22-rdf-syntax-ns#"
   xmlns:svg="http://www.w3.org/2000/svg"
   xmlns="http://www.w3.org/2000/svg"
   viewBox="0 0 40 40"
   height="40"
   width="40"
   xml:space="preserve"
   version="1.1"
   id="svg2"><metadata
     id="metadata8"><rdf:RDF><cc:Work
         rdf:about=""><dc:format>image/svg+xml</dc:format><dc:type
           rdf:resource="http://purl.org/dc/dcmitype/StillImage" /></cc:Work></rdf:RDF></metadata><defs
     id="defs6"><clipPath
       id="clipPath16"
       clipPathUnits="userSpaceOnUse"><path
         id="path18"
         d="M 0,32 32,32 32,0 0,0 0,32 Z" /></clipPath></defs><g
     transform="matrix(1.25,0,0,-1.25,0,40)"
     id="g10"><g
       id="g12"><g
         clip-path="url(#clipPath16)"
         id="g14"><path
           id="path20"
           style="fill:#4e4e50;fill-opacity:1;fill-rule:nonzero;stroke:none"
           d="m 26,12 -4,0 0,4 4,0 0,-4 z m -4,-8 0,4 4,0 -4,-4 z m -4,7.992 -4,0 0,4 4,0 0,-4 z M 18,4 l -4,0 0,4 4,0 0,-4 z m -8,8 -4,0 0,4 4,0 0,-4 z m 0,-8 -4,0 0,4 4,0 0,-4 z m 16,24 0,-2.047 c 0,-2.211 -1.789,-4 -4,-4 -2.211,0 -4,1.789 -4,4 l 0,2.047 -4,0 0,-2.047 c 0,-2.211 -1.789,-4 -4,-4 -2.211,0 -4,1.789 -4,4 L 6,28 0,28 0,0 l 32,0 0,28 -6,0 z" /><g
           transform="translate(8,26)"
           id="g22"><path
             id="path24"
             style="fill:#4e4e50;fill-opacity:1;fill-rule:nonzero;stroke:none"
             d="M 0,0 0,4 C 0,5.105 0.895,6 2,6 3.105,6 4,5.105 4,4 L 4,0 C 4,-1.105 3.105,-2 2,-2 0.895,-2 0,-1.105 0,0" /></g><g
           transform="translate(20,26)"
           id="g26"><path
             id="path28"
             style="fill:#4e4e50;fill-opacity:1;fill-rule:nonzero;stroke:none"
             d="M 0,0 0,4 C 0,5.105 0.895,6 2,6 3.105,6 4,5.105 4,4 L 4,0 C 4,-1.105 3.105,-2 2,-2 0.895,-2 0,-1.105 0,0" /></g></g></g></g></svg>