<?xml version="1.0" encoding="UTF-8" standalone="no"?>
<svg
   xmlns:dc="http://purl.org/dc/elements/1.1/"
   xmlns:cc="http://creativecommons.org/ns#"
   xmlns:rdf="http://www.w3.org/1999/02/22-rdf-syntax-ns#"
   xmlns:svg="http://www.w3.org/2000/svg"
   xmlns="http://www.w3.org/2000/svg"
   viewBox="0 0 364.13751 37.620377"
   height="37.620377"
   width="364.13751"
   xml:space="preserve"
   version="1.1"
   id="svg2"><metadata
     id="metadata8"><rdf:RDF><cc:Work
         rdf:about=""><dc:format>image/svg+xml</dc:format><dc:type
           rdf:resource="http://purl.org/dc/dcmitype/StillImage" /></cc:Work></rdf:RDF></metadata><defs
     id="defs6"><clipPath
       id="clipPath16"
       clipPathUnits="userSpaceOnUse"><path
         id="path18"
         d="m 0,30.096 291.31,0 L 291.31,0 0,0 0,30.096 Z" /></clipPath></defs><g
     transform="matrix(1.25,0,0,-1.25,0,37.620375)"
     id="g10"><g
       id="g12"><g
         clip-path="url(#clipPath16)"
         id="g14"><g
           transform="translate(75.0768,21.9618)"
           id="g20"><path
             id="path22"
             style="fill:#3a3b3a;fill-opacity:1;fill-rule:nonzero;stroke:none"
             d="M 0,0 C 0.375,0.231 0.796,0.401 1.252,0.505 2.326,0.75 3.44,0.71 4.52,0.429 5.114,0.274 5.715,-0.013 6.307,-0.423 L 6.582,-0.614 8.552,1.358 8.163,1.631 C 7.253,2.268 6.349,2.726 5.476,2.993 3.821,3.498 2.072,3.525 0.408,3.061 -0.389,2.839 -1.115,2.494 -1.751,2.037 -2.392,1.574 -2.923,0.981 -3.328,0.276 c -0.412,-0.718 -0.621,-1.58 -0.621,-2.562 0,-1.257 0.264,-2.271 0.785,-3.015 0.511,-0.728 1.163,-1.302 1.937,-1.708 0.747,-0.392 1.565,-0.692 2.431,-0.893 0.825,-0.191 1.599,-0.406 2.302,-0.637 0.67,-0.221 1.23,-0.516 1.664,-0.877 0.384,-0.32 0.569,-0.794 0.569,-1.449 0,-0.565 -0.118,-1.075 -0.35,-1.517 -0.239,-0.454 -0.544,-0.84 -0.908,-1.148 -0.368,-0.311 -0.787,-0.553 -1.25,-0.721 -1.085,-0.392 -2.121,-0.292 -3.177,-0.003 -0.598,0.163 -1.222,0.457 -1.852,0.872 l -0.274,0.181 -1.931,-1.968 0.38,-0.271 c 0.893,-0.638 1.782,-1.1 2.645,-1.375 0.862,-0.276 1.773,-0.415 2.708,-0.415 0.955,0 1.855,0.14 2.676,0.417 0.832,0.28 1.559,0.699 2.16,1.244 0.603,0.546 1.08,1.224 1.419,2.013 0.336,0.786 0.507,1.691 0.507,2.691 0,1.208 -0.267,2.181 -0.792,2.891 -0.509,0.688 -1.158,1.241 -1.929,1.647 -0.747,0.391 -1.562,0.699 -2.425,0.917 -0.817,0.207 -1.59,0.443 -2.296,0.701 -0.672,0.246 -1.234,0.563 -1.671,0.943 -0.387,0.336 -0.575,0.821 -0.575,1.48 0,0.558 0.11,1.027 0.327,1.393 C -0.646,-0.514 -0.361,-0.222 0,0" /></g><path
           id="path24"
           style="fill:#3a3b3a;fill-opacity:1;fill-rule:nonzero;stroke:none"
           d="m 88.682,4.731 13.575,0 0,2.726 -13.575,0 0,-2.726 z" /><path
           id="path26"
           style="fill:#3a3b3a;fill-opacity:1;fill-rule:nonzero;stroke:none"
           d="m 100.462,16.38 -11.781,0 0,-2.726 11.781,0 0,2.726 z" /><path
           id="path28"
           style="fill:#3a3b3a;fill-opacity:1;fill-rule:nonzero;stroke:none"
           d="m 88.682,22.628 13.575,0 0,2.726 -13.575,0 0,-2.726 z" /><g
           transform="translate(122.7336,10.9261)"
           id="g30"><path
             id="path32"
             style="fill:#3a3b3a;fill-opacity:1;fill-rule:nonzero;stroke:none"
             d="m 0,0 -14.466,15.02 0,-22.017 2.753,3.682 0,11.549 14.465,-15.02 0,22.027 L 0,11.521 0,0 Z" /></g><g
           transform="translate(132.7112,4.7313)"
           id="g34"><path
             id="path36"
             style="fill:#3a3b3a;fill-opacity:1;fill-rule:nonzero;stroke:none"
             d="m 0,0 2.752,0 0,17.897 7.075,0 0,2.726 L 0,20.623 0,0 Z" /></g><path
           id="path38"
           style="fill:#3a3b3a;fill-opacity:1;fill-rule:nonzero;stroke:none"
           d="m 158.904,16.38 -11.781,0 0,-2.726 11.781,0 0,2.726 z" /><path
           id="path40"
           style="fill:#3a3b3a;fill-opacity:1;fill-rule:nonzero;stroke:none"
           d="m 147.123,4.731 13.575,0 0,2.726 -13.575,0 0,-2.726 z" /><path
           id="path42"
           style="fill:#3a3b3a;fill-opacity:1;fill-rule:nonzero;stroke:none"
           d="m 147.123,22.628 13.575,0 0,2.726 -13.575,0 0,-2.726 z" /><g
           transform="translate(181.175,10.9261)"
           id="g44"><path
             id="path46"
             style="fill:#3a3b3a;fill-opacity:1;fill-rule:nonzero;stroke:none"
             d="m 0,0 -14.466,15.02 0,-22.017 2.753,3.682 0,11.549 14.465,-15.02 0,22.027 L 0,11.521 0,0 Z" /></g><g
           transform="translate(203.895,22.3364)"
           id="g48"><path
             id="path50"
             style="fill:#3a3b3a;fill-opacity:1;fill-rule:nonzero;stroke:none"
             d="M 0,0 C -0.927,0.91 -2.02,1.643 -3.248,2.18 -4.479,2.717 -5.788,3 -7.143,3.018 l -6.814,0 0,-2.726 7.02,0 c 1.008,-0.016 1.963,-0.242 2.838,-0.672 0.885,-0.434 1.663,-1.009 2.312,-1.708 0.651,-0.7 1.172,-1.513 1.547,-2.416 0.374,-0.897 0.564,-1.841 0.564,-2.803 0,-1.047 -0.202,-2.036 -0.6,-2.94 -0.4,-0.909 -0.945,-1.712 -1.619,-2.386 -0.675,-0.676 -1.458,-1.222 -2.326,-1.623 -0.862,-0.397 -1.776,-0.607 -2.71,-0.623 l -7.026,0 0,-2.726 0.4,0 6.424,0 c 1.421,0.036 2.766,0.342 3.998,0.907 1.227,0.564 2.315,1.325 3.233,2.261 0.919,0.939 1.653,2.031 2.18,3.25 0.53,1.225 0.799,2.54 0.799,3.907 0,1.44 -0.283,2.8 -0.841,4.043 C 1.681,-1.999 0.929,-0.91 0,0" /></g><g
           transform="translate(227.4955,12.157)"
           id="g52"><path
             id="path54"
             style="fill:#3a3b3a;fill-opacity:1;fill-rule:nonzero;stroke:none"
             d="m 0,0 c -0.41,-0.92 -0.965,-1.737 -1.648,-2.429 -0.683,-0.692 -1.495,-1.25 -2.413,-1.658 -1.82,-0.812 -3.977,-0.812 -5.799,0 -0.917,0.408 -1.729,0.966 -2.412,1.658 -0.683,0.692 -1.238,1.508 -1.647,2.429 -0.407,0.911 -0.613,1.886 -0.613,2.899 0,1.013 0.206,1.988 0.613,2.9 0.409,0.92 0.964,1.736 1.647,2.428 0.683,0.691 1.494,1.245 2.41,1.644 0.912,0.399 1.889,0.6 2.902,0.6 1.013,0 1.99,-0.201 2.902,-0.6 0.916,-0.399 1.727,-0.952 2.41,-1.644 C -0.965,7.536 -0.41,6.718 0,5.799 0.406,4.887 0.612,3.911 0.612,2.899 0.612,1.887 0.406,0.911 0,0 m 0.344,10.177 c -0.929,0.929 -2.032,1.672 -3.279,2.209 -2.501,1.077 -5.551,1.076 -8.05,0 -1.247,-0.537 -2.35,-1.28 -3.279,-2.209 -0.928,-0.929 -1.672,-2.027 -2.209,-3.265 -0.539,-1.242 -0.812,-2.592 -0.812,-4.013 0,-1.403 0.278,-2.75 0.826,-4.001 0.545,-1.246 1.292,-2.348 2.221,-3.276 0.929,-0.929 2.031,-1.677 3.278,-2.222 1.249,-0.548 2.596,-0.826 4,-0.826 1.421,0 2.775,0.273 4.026,0.812 1.246,0.536 2.349,1.28 3.278,2.209 0.929,0.929 1.672,2.032 2.209,3.279 0.539,1.25 0.812,2.605 0.812,4.025 C 3.365,4.32 3.092,5.67 2.553,6.912 2.015,8.15 1.272,9.249 0.344,10.177" /></g><g
           transform="translate(243.3982,25.3548)"
           id="g56"><path
             id="path58"
             style="fill:#3a3b3a;fill-opacity:1;fill-rule:nonzero;stroke:none"
             d="m 0,0 -2.752,0 0,-20.623 13.575,0 0,2.726 L 0,-17.897 0,0 Z" /></g><path
           id="path60"
           style="fill:#3a3b3a;fill-opacity:1;fill-rule:nonzero;stroke:none"
           d="m 258.438,16.847 3.122,0 0,8.508 -3.122,0 0,-8.508 z" /><g
           transform="translate(277.0575,9.9566)"
           id="g62"><path
             id="path64"
             style="fill:#3a3b3a;fill-opacity:1;fill-rule:nonzero;stroke:none"
             d="m 0,0 c -0.226,-0.491 -0.527,-0.927 -0.896,-1.296 -0.368,-0.368 -0.806,-0.664 -1.303,-0.88 -0.983,-0.428 -2.138,-0.429 -3.066,-0.002 -0.47,0.213 -0.88,0.507 -1.221,0.872 -0.343,0.367 -0.618,0.801 -0.819,1.291 -0.2,0.486 -0.301,1.016 -0.301,1.577 0,0.544 0.102,1.071 0.302,1.567 0.201,0.499 0.477,0.942 0.822,1.318 0.34,0.373 0.752,0.675 1.223,0.899 0.462,0.219 0.968,0.33 1.504,0.33 0.538,0 1.06,-0.112 1.551,-0.334 C -1.706,5.117 -1.267,4.813 -0.899,4.437 -0.53,4.059 -0.227,3.614 -0.002,3.114 0.22,2.622 0.333,2.1 0.333,1.562 0.333,1.008 0.221,0.482 0,0 m -5.318,12.039 c 0.419,0.426 0.93,0.633 1.563,0.633 0.616,0 1.125,-0.208 1.552,-0.636 0.427,-0.427 0.635,-0.935 0.635,-1.551 0,-0.257 -0.058,-0.51 -0.173,-0.754 C -1.861,9.477 -2.023,9.25 -2.224,9.057 -2.429,8.86 -2.667,8.698 -2.932,8.578 -3.43,8.349 -4.049,8.352 -4.579,8.549 c -0.261,0.097 -0.486,0.234 -0.687,0.42 -0.199,0.186 -0.366,0.412 -0.492,0.674 -0.123,0.252 -0.184,0.535 -0.184,0.842 0,0.618 0.204,1.126 0.624,1.554 M 0.021,7.215 c 0.443,0.622 0.736,1.162 0.894,1.641 0.179,0.548 0.27,1.096 0.27,1.629 0,0.683 -0.126,1.33 -0.375,1.922 -0.248,0.592 -0.602,1.115 -1.052,1.557 -0.448,0.439 -0.978,0.79 -1.574,1.045 -1.202,0.516 -2.671,0.517 -3.879,0 C -6.29,14.754 -6.82,14.403 -7.268,13.964 -7.718,13.524 -8.072,13 -8.321,12.407 -8.57,11.815 -8.695,11.168 -8.695,10.485 c 0,-0.551 0.096,-1.118 0.285,-1.684 0.165,-0.498 0.48,-1.052 0.958,-1.685 -0.973,-0.817 -1.694,-1.667 -2.147,-2.531 -0.504,-0.959 -0.759,-1.976 -0.759,-3.023 0,-0.927 0.17,-1.813 0.504,-2.633 0.335,-0.817 0.802,-1.543 1.389,-2.157 0.589,-0.617 1.293,-1.109 2.093,-1.462 0.804,-0.355 1.684,-0.535 2.617,-0.535 0.913,0 1.796,0.179 2.625,0.533 0.824,0.352 1.559,0.842 2.182,1.456 0.624,0.614 1.123,1.339 1.484,2.155 0.365,0.822 0.549,1.711 0.549,2.643 0,1.082 -0.264,2.127 -0.786,3.105 C 1.826,5.552 1.062,6.408 0.021,7.215" /></g><g
           transform="translate(288.4501,17.8278)"
           id="g66"><path
             id="path68"
             style="fill:#3a3b3a;fill-opacity:1;fill-rule:nonzero;stroke:none"
             d="m 0,0 c -0.184,-0.188 -0.482,-0.284 -0.884,-0.284 -0.406,0 -0.705,0.096 -0.89,0.284 -0.348,0.357 -0.351,1.017 -0.351,1.025 l -10e-4,2.764 c 0,0.185 0.064,0.732 0.36,1.033 0.183,0.188 0.48,0.283 0.882,0.283 0.407,0 0.707,-0.095 0.891,-0.284 C 0.356,4.465 0.358,3.805 0.358,3.797 L 0.359,1.033 C 0.359,0.848 0.295,0.301 0,0 M 2.859,3.766 C 2.865,3.964 2.869,5.465 1.805,6.561 1.132,7.255 0.227,7.607 -0.884,7.607 -1.99,7.607 -2.892,7.255 -3.563,6.562 -4.662,5.431 -4.629,3.827 -4.627,3.77 l 10e-4,-2.709 c -0.004,-0.171 -0.015,-1.698 1.055,-2.8 0.674,-0.694 1.578,-1.046 2.687,-1.046 1.107,0 2.009,0.352 2.681,1.045 1.077,1.109 1.067,2.636 1.063,2.797 L 2.859,3.766 Z" /></g><g
           transform="translate(19.058,6.4825)"
           id="g70"><path
             id="path72"
             style="fill:#3a3b3a;fill-opacity:1;fill-rule:nonzero;stroke:none"
             d="M 0,0 19.182,19.503 17.214,21.438 -1.968,1.936 0,0 Z" /></g><g
           transform="translate(40.7575,23.6421)"
           id="g74"><path
             id="path76"
             style="fill:#3a3b3a;fill-opacity:1;fill-rule:nonzero;stroke:none"
             d="m 0,0 -19.182,-19.503 1.968,-1.935 L 1.968,-1.936 0,0 Z" /></g><g
           transform="translate(53.459,18.9826)"
           id="g78"><path
             id="path80"
             style="fill:#3a3b3a;fill-opacity:1;fill-rule:nonzero;stroke:none"
             d="M 0,0 -11.131,11.114 -15.037,11.113 -1.95,-1.953 0,0 Z" /></g><g
           transform="translate(57.7713,23.4361)"
           id="g82"><path
             id="path84"
             style="fill:#3a3b3a;fill-opacity:1;fill-rule:nonzero;stroke:none"
             d="m 0,0 -6.669,6.658 -3.906,0 L -1.95,-1.953 0,0 Z" /></g><g
           transform="translate(23.7492,18.9826)"
           id="g86"><path
             id="path88"
             style="fill:#3a3b3a;fill-opacity:1;fill-rule:nonzero;stroke:none"
             d="M 0,0 -11.131,11.114 -15.037,11.113 -1.95,-1.953 0,0 Z" /></g><g
           transform="translate(28.0616,23.4361)"
           id="g90"><path
             id="path92"
             style="fill:#3a3b3a;fill-opacity:1;fill-rule:nonzero;stroke:none"
             d="m 0,0 -6.669,6.658 -3.906,0 L -1.95,-1.953 0,0 Z" /></g><g
           transform="translate(51.32,0)"
           id="g94"><path
             id="path96"
             style="fill:#3a3b3a;fill-opacity:1;fill-rule:nonzero;stroke:none"
             d="M 0,0 -13.072,13.08 -15.025,11.129 -3.906,0.003 0,0 Z" /></g><g
           transform="translate(42.5458,0.0108)"
           id="g98"><path
             id="path100"
             style="fill:#3a3b3a;fill-opacity:1;fill-rule:nonzero;stroke:none"
             d="M 0,0 -8.615,8.62 -10.568,6.669 -3.906,0.004 0,0 Z" /></g><g
           transform="translate(21.0927,0)"
           id="g102"><path
             id="path104"
             style="fill:#3a3b3a;fill-opacity:1;fill-rule:nonzero;stroke:none"
             d="M 0,0 -13.072,13.08 -15.025,11.129 -3.906,0.003 0,0 Z" /></g><g
           transform="translate(1.7508,6.6799)"
           id="g106"><path
             id="path108"
             style="fill:#3a3b3a;fill-opacity:1;fill-rule:nonzero;stroke:none"
             d="M 0,0 6.661,-6.665 10.568,-6.669 1.953,1.951 0,0 Z" /></g><g
           transform="translate(48.8023,6.5401)"
           id="g110"><path
             id="path112"
             style="fill:#3a3b3a;fill-opacity:1;fill-rule:nonzero;stroke:none"
             d="m 0,0 11.047,11.232 0,3.937 L -1.968,1.936 0,0 Z" /></g><g
           transform="translate(51.32,4.197)"
           id="g114"><path
             id="path116"
             style="fill:#3a3b3a;fill-opacity:1;fill-rule:nonzero;stroke:none"
             d="M 0,0 1.968,-1.936 8.53,4.736 8.53,8.672 0,0 Z" /></g><g
           transform="translate(11.0476,23.9477)"
           id="g118"><path
             id="path120"
             style="fill:#3a3b3a;fill-opacity:1;fill-rule:nonzero;stroke:none"
             d="m 0,0 -11.047,-11.232 0,-3.937 L 1.968,-1.936 0,0 Z" /></g><g
           transform="translate(8.53,26.2908)"
           id="g122"><path
             id="path124"
             style="fill:#3a3b3a;fill-opacity:1;fill-rule:nonzero;stroke:none"
             d="m 0,0 -1.968,1.936 -6.562,-6.672 0,-3.936 L 0,0 Z" /></g></g></g></g></svg>