<?xml version="1.0" encoding="UTF-8" standalone="no"?>
<svg
   xmlns:dc="http://purl.org/dc/elements/1.1/"
   xmlns:cc="http://creativecommons.org/ns#"
   xmlns:rdf="http://www.w3.org/1999/02/22-rdf-syntax-ns#"
   xmlns:svg="http://www.w3.org/2000/svg"
   xmlns="http://www.w3.org/2000/svg"
   viewBox="0 0 160.16875 159.40125"
   height="159.40125"
   width="160.16875"
   xml:space="preserve"
   version="1.1"
   id="svg2"><metadata
     id="metadata8"><rdf:RDF><cc:Work
         rdf:about=""><dc:format>image/svg+xml</dc:format><dc:type
           rdf:resource="http://purl.org/dc/dcmitype/StillImage" /></cc:Work></rdf:RDF></metadata><defs
     id="defs6"><clipPath
       id="clipPath16"
       clipPathUnits="userSpaceOnUse"><path
         id="path18"
         d="m 0,127.521 128.135,0 L 128.135,0 0,0 0,127.521 Z" /></clipPath></defs><g
     transform="matrix(1.25,0,0,-1.25,0,159.40125)"
     id="g10"><g
       id="g12"><g
         clip-path="url(#clipPath16)"
         id="g14"><g
           transform="translate(0.103,75.2802)"
           id="g20"><path
             id="path22"
             style="fill:#000000;fill-opacity:1;fill-rule:nonzero;stroke:none"
             d="m 0,0 93.589,0 c 0.132,-1.41 0.376,-2.683 0.352,-3.952 -0.236,-12.311 -0.048,-24.657 -0.942,-36.922 -0.657,-9.019 -5.164,-16.774 -11.222,-23.489 -6.374,-7.066 -13.53,-11.738 -23.893,-10.797 -9.256,0.84 -18.652,0.033 -27.977,0.273 -2.523,0.065 -5.362,0.742 -7.466,2.073 C 8.182,-63.796 0.567,-50.714 0.063,-33.836 -0.269,-22.717 0,-11.581 0,0" /></g><g
           transform="translate(95.2344,14.011)"
           id="g24"><path
             id="path26"
             style="fill:#000000;fill-opacity:1;fill-rule:nonzero;stroke:none"
             d="m 0,0 c 1.785,4.98 3.58,8.618 8.855,10.734 10.191,4.091 16.599,16.881 15.21,27.91 -1.029,8.167 -5.729,12.357 -13.95,12.452 C 9.323,51.105 8.533,51.189 7.799,51.235 6.351,59.791 7.41,60.911 15.33,59.276 25.175,57.244 30.31,50.707 32.293,41.261 35.904,24.062 22.951,4.209 5.763,0.636 4.009,0.271 2.188,0.232 0,0" /></g><g
           transform="translate(50.3185,127.5213)"
           id="g28"><path
             id="path30"
             style="fill:#000000;fill-opacity:1;fill-rule:nonzero;stroke:none"
             d="m 0,0 7.576,0 c 6.785,-14.55 6.683,-28.847 0.091,-43.332 l -7.664,0 c 1.564,7.407 4.192,14.403 4.198,21.4 C 4.207,-14.874 1.611,-7.813 0,0" /></g><g
           transform="translate(30.4879,127.5076)"
           id="g32"><path
             id="path34"
             style="fill:#000000;fill-opacity:1;fill-rule:nonzero;stroke:none"
             d="m 0,0 7.546,0 c 6.832,-14.485 6.723,-28.796 0.102,-43.329 l -7.58,0 c 1.534,7.531 4.124,14.691 4.129,21.853 C 4.201,-14.469 1.57,-7.46 0,0" /></g></g></g></g></svg>