<?xml version="1.0" encoding="UTF-8" standalone="no"?>
<svg
   xmlns:dc="http://purl.org/dc/elements/1.1/"
   xmlns:cc="http://creativecommons.org/ns#"
   xmlns:rdf="http://www.w3.org/1999/02/22-rdf-syntax-ns#"
   xmlns:svg="http://www.w3.org/2000/svg"
   xmlns="http://www.w3.org/2000/svg"
   viewBox="0 0 107.17688 113.03425"
   height="113.03425"
   width="107.17688"
   xml:space="preserve"
   version="1.1"
   id="svg2"><metadata
     id="metadata8"><rdf:RDF><cc:Work
         rdf:about=""><dc:format>image/svg+xml</dc:format><dc:type
           rdf:resource="http://purl.org/dc/dcmitype/StillImage" /></cc:Work></rdf:RDF></metadata><defs
     id="defs6"><clipPath
       id="clipPath16"
       clipPathUnits="userSpaceOnUse"><path
         id="path18"
         d="m 0,90.427 85.741,0 L 85.741,0 0,0 0,90.427 Z" /></clipPath></defs><g
     transform="matrix(1.25,0,0,-1.25,0,113.03425)"
     id="g10"><g
       id="g12"><g
         clip-path="url(#clipPath16)"
         id="g14"><g
           transform="translate(84.5693,50.6292)"
           id="g20"><path
             id="path22"
             style="fill:#000000;fill-opacity:1;fill-rule:nonzero;stroke:none"
             d="m 0,0 c -1.562,1.562 -4.095,1.562 -5.656,0 l -22.919,-22.92 -13.85,-13.85 -0.001,0 c -7.811,-7.811 -20.473,-7.811 -28.284,0 -7.811,7.811 -7.811,20.473 0,28.284 0.002,0.002 0.005,0.006 0.007,0.008 l 13.845,13.844 11.623,11.623 11.294,11.294 c 4.688,4.688 12.285,4.688 16.971,0 4.687,-4.686 4.687,-12.283 0,-16.97 L -28.265,0.019 -45.748,-17.465 -53.74,-25.457 c -1.562,-1.562 -4.095,-1.562 -5.657,-10e-4 -1.562,1.562 -1.562,4.096 0,5.658 l 7.992,7.992 25.949,25.949 c 1.562,1.562 1.562,4.095 0.001,5.657 -1.562,1.562 -4.096,1.562 -5.658,0 l -33.94,-33.942 c -4.686,-4.686 -4.687,-12.284 0,-16.971 4.686,-4.686 12.285,-4.686 16.971,0 l 36.77,36.77 -0.001,0 c 7.811,7.811 7.812,20.474 0.001,28.284 -7.812,7.812 -20.474,7.812 -28.284,10e-4 -0.004,-0.004 -0.008,-0.008 -0.012,-0.012 L -76.354,-2.815 c -0.005,-0.006 -0.009,-0.01 -0.014,-0.014 -10.935,-10.936 -10.935,-28.665 0,-39.599 10.935,-10.935 28.663,-10.935 39.598,0 L 0,-5.658 C 1.563,-4.096 1.563,-1.563 0,0" /></g></g></g></g></svg>