<?xml version="1.0" encoding="utf-8"?>
<!-- Generator: Adobe Illustrator 19.1.1, SVG Export Plug-In . SVG Version: 6.00 Build 0)  -->
<svg version="1.1" id="Layer_1" xmlns="http://www.w3.org/2000/svg" xmlns:xlink="http://www.w3.org/1999/xlink" x="0px" y="0px"
	 viewBox="-13 330.5 584.8 133.5" style="enable-background:new -13 330.5 584.8 133.5;" xml:space="preserve">
<style type="text/css">
	.st0{fill:url(#SVGID_1_);}
	.st1{fill:#780008;fill-opacity:0.2902;}
	.st2{fill:#F40616;fill-opacity:0.4392;}
	.st3{fill:#FE665B;fill-opacity:0.7294;}
	.st4{fill:#F50715;fill-opacity:0.9294;}
	.st5{fill:#F20714;fill-opacity:0.4902;}
	.st6{fill:#FBB3AB;fill-opacity:0.4;}
	.st7{fill:#FEFEFE;fill-opacity:0.1804;}
	.st8{fill:#FEFEFE;}
	.st9{fill:#FFFFFF;}
</style>
<linearGradient id="SVGID_1_" gradientUnits="userSpaceOnUse" x1="14647.5166" y1="11803.8467" x2="14647.5166" y2="16516.959" gradientTransform="matrix(2.834645e-002 0 0 2.834645e-002 -361.4551 -4.1472)">
	<stop  offset="0" style="stop-color:#DF0613"/>
	<stop  offset="1" style="stop-color:#A72A21"/>
</linearGradient>
<polygon class="st0" points="10.6,464 96.9,464 120.5,440.5 120.5,354 96.9,330.5 10.6,330.5 -13,354 -13,440.5 "/>
<polygon class="st1" points="53.7,349.5 101.4,397.3 120.5,440.5 96.9,464 53.7,445 6,397.3 -13,354 10.6,330.5 "/>
<polygon class="st2" points="6,397.3 53.7,349.5 96.9,330.5 120.5,354 101.4,397.3 53.7,445 10.6,464 -13,440.5 "/>
<polygon class="st3" points="-13,440.5 20,431 10.6,464 "/>
<polygon class="st3" points="96.9,330.5 87.5,363.5 120.5,354 "/>
<polygon class="st4" points="-13,354 20,363.5 10.6,330.5 "/>
<polygon class="st5" points="96.9,464 87.5,431 120.5,440.5 "/>
<polygon class="st6" points="20,363.5 87.5,363.5 87.5,431 20,431 "/>
<polygon class="st7" points="6,397.3 53.7,349.5 101.4,397.3 53.7,445 "/>
<path class="st8" d="M71.5,380H36.4v32.5h35.1v-13.1H53.4v-5.7h25.5v14.5c0,4.1-0.7,6.9-2.2,8.4s-4.3,2.2-8.3,2.2H39.5
	c-4.1,0-6.9-0.7-8.3-2.2c-1.5-1.5-2.2-4.3-2.2-8.4v-23.6c0-4.1,0.7-6.8,2.2-8.3c1.4-1.5,4.2-2.2,8.3-2.2h28.9c4,0,6.8,0.7,8.3,2.2
	c1.5,1.4,2.2,4.1,2.2,7.9v1.1h-7.5L71.5,380L71.5,380z"/>
<path class="st9" d="M181.2,363.3h-36.4V395h36.4v-11.2h-19v-8.5h30.3v17.3c0,4.6-0.8,7.7-2.6,9.3c-1.7,1.7-5,2.5-9.9,2.5h-34.5
	c-4.8,0-8.1-0.8-9.8-2.5c-1.7-1.6-2.6-4.7-2.6-9.3v-26.4c0-4.5,0.9-7.7,2.6-9.3c1.7-1.7,5-2.5,9.8-2.5H180c4.8,0,8.1,0.8,9.8,2.5
	c1.7,1.6,2.6,4.6,2.6,8.9v3.2h-11.2V363.3z M228.3,384.5h21.9L239.4,364L228.3,384.5z M205.8,404.5l28.4-50h11.2l28.7,50H261
	l-6-10.9h-31.7l-5.8,10.9H205.8z M327.8,363h-26.2v14h26.2c2,0,3.4-0.3,4.1-0.9c0.7-0.6,1.1-1.6,1.1-3.1v-6c0-1.5-0.4-2.5-1.1-3.1
	C331.2,363.3,329.8,363,327.8,363z M290.2,404.5v-50H333c4,0,6.9,0.7,8.7,2.3c1.8,1.5,2.7,4,2.7,7.4V376c0,3.4-0.9,5.8-2.7,7.3
	s-4.7,2.3-8.7,2.3h-6.6l23.1,18.9h-16.6l-20.2-18.9h-11v18.9H290.2z M367.9,404.5v-50h8l35.3,29.5c1.2,1,2.2,1.9,3.2,2.8
	c0.9,0.9,1.7,1.8,2.5,2.7c-0.2-2.8-0.3-4.8-0.4-6c0-1.2-0.1-2.1-0.1-2.7v-26.3h10.5v50h-8l-36.8-30.9c-0.8-0.8-1.6-1.5-2.3-2.2
	c-0.7-0.6-1.3-1.3-1.8-1.9c0.1,1.6,0.3,3,0.4,4.4s0.1,2.6,0.1,3.6v27H367.9z M452.3,404.5v-50h51.2v8.5h-39.6v11.2H487v8.5h-23.1
	V395h40v9.4H452.3z M548.7,363.3v41.1H537v-41.1h-23v-8.9h57.7v8.9H548.7z"/>
<path class="st9" d="M149,423.2h-11.1v5H149c0.8,0,1.5-0.1,1.8-0.3c0.3-0.2,0.5-0.6,0.5-1.2v-2c0-0.5-0.2-0.9-0.5-1.1
	C150.5,423.3,149.9,423.2,149,423.2z M149,431.5h-11.1v5.3H149c0.9,0,1.5-0.1,1.9-0.4c0.3-0.3,0.5-0.7,0.5-1.5v-1.6
	c0-0.7-0.2-1.2-0.5-1.5C150.6,431.8,149.9,431.5,149,431.5z M133.1,440.7v-20.9h18c1.6,0,2.8,0.3,3.6,1c0.7,0.6,1.1,1.7,1.1,3.1v2.6
	c0,1-0.3,1.8-0.9,2.4c-0.6,0.6-1.5,1-2.7,1.1c1.2,0.1,2.2,0.6,2.8,1.3c0.6,0.7,1,1.6,1,2.7v2.7c0,1.4-0.5,2.4-1.5,3.1s-2.6,1-4.6,1
	h-16.8V440.7z M201.6,419.8v17h13.8v-17h4.8v16c0,1.9-0.4,3.2-1.1,3.9c-0.7,0.7-2.1,1.1-4.1,1.1h-13.1c-2,0-3.4-0.4-4.1-1.1
	c-0.7-0.7-1.1-2-1.1-3.9v-16H201.6z M262.3,440.7v-20.9h4.9v20.9H262.3z M309.2,440.7v-20.9h4.9v17h15.7v3.9H309.2z M373.1,436.8
	h6.3c3.3,0,5.7-0.5,7.1-1.6c1.4-1.1,2.1-2.8,2.1-5.2c0-2.1-0.6-3.7-1.7-4.8c-1.2-1.1-2.9-1.7-5.1-1.7h-8.7V436.8L373.1,436.8z
	 M368.3,440.7v-20.9h13.5c3.8,0,6.8,0.9,8.8,2.7c2.1,1.8,3.1,4.3,3.1,7.6c0,2-0.4,3.7-1.2,5.3c-0.8,1.6-1.9,2.8-3.4,3.7
	c-0.9,0.6-2.1,1-3.4,1.2c-1.4,0.3-3.1,0.4-5.2,0.4H368.3L368.3,440.7z M434,440.7v-20.9h4.8v20.9H434z M480.8,440.7v-20.9h3.3
	l14.7,12.3c0.5,0.4,1,0.8,1.3,1.1c0.4,0.4,0.7,0.7,1.1,1.1c-0.1-1.2-0.1-2-0.1-2.5s0-0.9,0-1.1v-10.9h4.4v20.9h-3.3l-15.4-12.9
	c-0.4-0.3-0.7-0.6-1-0.9s-0.5-0.5-0.7-0.8c0,0.6,0.1,1.2,0.1,1.8s0,1.1,0,1.5v11.3H480.8z M567.1,423.5h-15.2v13.3h15.2V432h-8v-3.6
	h12.7v7.2c0,1.9-0.4,3.2-1.1,3.9s-2.1,1.1-4.1,1.1h-14.4c-2.1,0-3.4-0.4-4.1-1.1s-1.1-2-1.1-3.9v-11c0-1.9,0.4-3.2,1.1-3.9
	c0.7-0.7,2.1-1,4.1-1h14.4c2,0,3.3,0.3,4.1,1c0.7,0.7,1.1,1.9,1.1,3.7v0.5l-4.7,0.9V423.5z"/>
</svg>
