<?xml version="1.0" encoding="UTF-8" standalone="no"?>
<svg
   xmlns:dc="http://purl.org/dc/elements/1.1/"
   xmlns:cc="http://creativecommons.org/ns#"
   xmlns:rdf="http://www.w3.org/1999/02/22-rdf-syntax-ns#"
   xmlns:svg="http://www.w3.org/2000/svg"
   xmlns="http://www.w3.org/2000/svg"
   viewBox="0 0 455 135"
   height="135"
   width="455"
   xml:space="preserve"
   version="1.1"
   id="svg2"><metadata
     id="metadata8"><rdf:RDF><cc:Work
         rdf:about=""><dc:format>image/svg+xml</dc:format><dc:type
           rdf:resource="http://purl.org/dc/dcmitype/StillImage" /></cc:Work></rdf:RDF></metadata><defs
     id="defs6"><clipPath
       id="clipPath16"
       clipPathUnits="userSpaceOnUse"><path
         id="path18"
         d="M 0,108 364,108 364,0 0,0 0,108 Z" /></clipPath></defs><g
     transform="matrix(1.25,0,0,-1.25,0,135)"
     id="g10"><g
       id="g12"><g
         clip-path="url(#clipPath16)"
         id="g14"><g
           transform="translate(50.2034,84.1752)"
           id="g20"><path
             id="path22"
             style="fill:#f93f26;fill-opacity:1;fill-rule:evenodd;stroke:none"
             d="m 0,0 c 18.997,0 34.49,-15.494 34.49,-34.49 0,-10.541 -4.771,-20 -12.262,-26.334 0.064,0.62 0.104,1.301 0.116,2.061 0.081,5.106 -2.186,14.862 -6.318,23.383 -3.835,7.911 -9.452,14.664 -15.682,14.883 -6.229,0.222 -11.95,-6.173 -15.889,-13.954 -4.281,-8.455 -6.717,-18.428 -6.797,-23.709 -0.014,-0.999 0.019,-1.872 0.091,-2.645 -7.477,6.335 -12.239,15.786 -12.239,26.315 C -34.49,-15.494 -18.997,0 0,0 M 10.636,-67.295 C 7.284,-68.387 3.709,-68.981 0,-68.981 c -3.884,0 -7.619,0.65 -11.107,1.842 0.003,0.324 0.007,0.648 0.012,0.974 0.034,2.429 0.278,4.537 0.711,6.373 0.449,1.906 1.1,3.543 1.953,4.955 0.855,1.416 1.941,2.622 3.295,3.504 1.329,0.867 2.923,1.383 4.746,1.383 1.777,0 3.364,-0.551 4.72,-1.476 1.384,-0.947 2.528,-2.253 3.506,-3.817 0.953,-1.526 1.677,-3.242 2.151,-5.153 0.461,-1.853 0.689,-3.94 0.658,-6.298 -0.003,-0.2 -0.006,-0.4 -0.009,-0.601 m 281.846,15.669 0.963,0 c 0.643,0 1.094,0.105 1.355,0.313 0.265,0.21 0.397,0.475 0.397,0.803 0,0.329 -0.127,0.598 -0.378,0.807 -0.254,0.206 -0.679,0.31 -1.284,0.31 l -1.053,0 0,-2.233 z m -2.219,3.787 3.992,0 c 1.132,0 1.95,-0.228 2.457,-0.684 0.505,-0.455 0.758,-1.067 0.758,-1.833 0,-0.598 -0.189,-1.117 -0.578,-1.554 -0.389,-0.437 -0.997,-0.754 -1.827,-0.952 0.345,-0.131 0.595,-0.269 0.755,-0.415 0.224,-0.204 0.463,-0.507 0.709,-0.907 0.015,-0.03 0.497,-0.889 1.446,-2.58 l -2.625,0 c -0.855,1.699 -1.427,2.715 -1.718,3.043 -0.291,0.333 -0.583,0.501 -0.874,0.501 -0.068,0 -0.156,-0.012 -0.276,-0.034 l 0,-3.51 -2.219,0 0,8.925 z m 10.524,-4.463 c 0,1.86 -0.658,3.447 -1.976,4.765 -1.314,1.315 -2.906,1.975 -4.765,1.975 -1.859,0 -3.446,-0.66 -4.765,-1.975 -1.314,-1.318 -1.972,-2.905 -1.972,-4.765 0,-1.859 0.658,-3.451 1.972,-4.765 1.319,-1.318 2.906,-1.975 4.765,-1.975 1.859,0 3.451,0.657 4.765,1.975 1.318,1.314 1.976,2.906 1.976,4.765 m 1.62,0 c 0,-1.498 -0.377,-2.89 -1.124,-4.179 -0.747,-1.292 -1.766,-2.307 -3.058,-3.054 -1.289,-0.743 -2.682,-1.116 -4.179,-1.116 -1.486,0 -2.875,0.373 -4.167,1.116 -1.292,0.747 -2.311,1.762 -3.058,3.054 -0.747,1.289 -1.121,2.681 -1.121,4.179 0,1.487 0.374,2.879 1.121,4.171 0.747,1.296 1.766,2.316 3.058,3.059 1.292,0.747 2.681,1.116 4.167,1.116 1.497,0 2.89,-0.369 4.179,-1.116 1.292,-0.743 2.311,-1.763 3.058,-3.059 0.747,-1.292 1.124,-2.684 1.124,-4.171 M 66.626,-55.008 c -0.303,-1.774 -1.091,-3.133 -2.361,-4.063 -1.278,-0.933 -2.965,-1.392 -5.064,-1.392 -2.077,0 -3.596,0.492 -4.592,1.481 -1.001,0.994 -1.323,2.381 -1.017,4.176 0.772,4.503 1.543,9.013 2.314,13.516 0.627,3.657 1.254,7.32 1.88,10.981 l -5.334,0 c -1.689,0 -2.925,0.36 -3.704,1.085 -0.778,0.726 -1.052,1.77 -0.815,3.153 0.223,1.306 0.829,2.302 1.828,2.992 0.984,0.68 2.296,1.019 3.947,1.019 l 10.54,0 c 0.525,0 1.017,-0.019 1.474,-0.054 0.015,0 0.029,0.001 0.044,0.001 2.099,0 3.621,-0.467 4.583,-1.413 0.945,-0.933 1.274,-2.288 0.974,-4.044 -0.426,-2.481 -0.848,-4.958 -1.272,-7.434 1.99,1.773 3.983,3.548 5.974,5.323 1.99,1.775 4.006,3.553 6.018,5.333 0.895,0.792 1.75,1.382 2.57,1.74 0.839,0.367 1.716,0.548 2.625,0.548 1.558,0 2.802,-0.438 3.714,-1.311 0.908,-0.874 1.247,-1.938 1.029,-3.212 -0.135,-0.79 -0.534,-1.621 -1.226,-2.488 -0.685,-0.858 -1.772,-1.888 -3.23,-3.067 -1.756,-1.421 -3.514,-2.84 -5.251,-4.26 1.226,-2.315 2.453,-4.634 3.679,-6.945 1.227,-2.311 2.462,-4.625 3.702,-6.941 0.513,-0.961 0.827,-1.817 0.973,-2.531 0.148,-0.721 0.167,-1.428 0.046,-2.137 -0.259,-1.509 -1.183,-2.832 -2.759,-3.979 -1.562,-1.136 -3.235,-1.713 -5.052,-1.713 -1.191,0 -2.202,0.298 -3.027,0.899 -0.829,0.602 -1.563,1.596 -2.263,2.963 -1.002,1.958 -2.013,3.916 -2.998,5.872 -0.984,1.956 -1.989,3.92 -2.975,5.881 -1.277,-1.027 -2.535,-2.049 -3.791,-3.072 -0.395,-2.304 -0.789,-4.606 -1.183,-6.907 m 149.453,31.745 19.126,0 c 1.883,0 3.237,-0.396 4.083,-1.181 0.854,-0.794 1.143,-1.921 0.888,-3.41 -0.245,-1.424 -0.906,-2.505 -1.985,-3.249 -1.079,-0.745 -2.529,-1.119 -4.368,-1.119 l -14.042,0 c -0.285,-1.664 -0.569,-3.323 -0.853,-4.982 l 11.209,0 c 1.882,0 3.188,-0.339 3.916,-1.015 0.727,-0.674 0.978,-1.739 0.729,-3.194 -0.247,-1.439 -0.866,-2.532 -1.857,-3.269 -0.991,-0.733 -2.309,-1.099 -3.975,-1.099 l -11.489,0 c -0.33,-1.926 -0.659,-3.85 -0.989,-5.776 l 14.691,0 c 1.86,0 3.22,-0.398 4.079,-1.195 0.858,-0.8 1.16,-1.949 0.899,-3.474 -0.247,-1.439 -0.914,-2.535 -2.015,-3.295 -1.082,-0.748 -2.528,-1.123 -4.345,-1.123 l -20.101,0 c -2.963,0 -4.932,0.511 -5.926,1.525 -0.994,1.013 -1.294,2.805 -0.854,5.378 0.672,3.924 1.344,7.848 2.014,11.772 0.672,3.924 1.345,7.849 2.016,11.772 0.443,2.593 1.359,4.394 2.7,5.406 1.342,1.014 3.485,1.528 6.449,1.528 m -63.253,-31.724 c -0.307,-1.795 -1.104,-3.182 -2.422,-4.175 -1.314,-0.99 -3.023,-1.483 -5.101,-1.483 -2.143,0 -3.7,0.467 -4.653,1.386 -0.959,0.926 -1.298,2.277 -0.991,4.07 0.778,4.539 1.554,9.08 2.331,13.617 0.777,4.538 1.554,9.08 2.332,13.621 0.307,1.794 1.126,3.181 2.445,4.175 1.314,0.989 3.023,1.482 5.1,1.482 2.143,0 3.692,-0.462 4.651,-1.398 0.949,-0.927 1.275,-2.284 0.971,-4.059 -0.777,-4.541 -1.555,-9.083 -2.331,-13.62 -0.777,-4.538 -1.554,-9.078 -2.332,-13.616 m 104.925,16.249 6.054,0 c 2.181,0 3.698,0.269 4.569,0.814 0.869,0.537 1.423,1.49 1.656,2.867 0.205,1.213 -0.073,2.07 -0.834,2.573 -0.761,0.494 -2.275,0.745 -4.544,0.745 l -5.717,0 -1.184,-6.999 z m -2.776,-16.423 c -0.295,-1.742 -1.099,-3.092 -2.414,-4.045 -1.315,-0.961 -3.029,-1.438 -5.124,-1.438 -2.066,0 -3.587,0.503 -4.561,1.499 -0.975,0.996 -1.316,2.39 -1.012,4.192 l 4.286,25.344 c 0.438,2.591 1.338,4.392 2.692,5.405 1.353,1.014 3.514,1.525 6.504,1.525 l 11.819,0 c 6.198,0 10.496,-0.832 12.895,-2.503 2.4,-1.664 3.285,-4.384 2.648,-8.151 -0.404,-2.391 -1.319,-4.339 -2.738,-5.847 -1.419,-1.516 -3.433,-2.685 -6.053,-3.516 1.93,-0.356 3.327,-0.893 4.189,-1.603 0.869,-0.71 1.42,-1.776 1.64,-3.196 0.054,-0.252 0.046,-0.979 -0.022,-2.183 -0.064,-0.883 -0.106,-1.585 -0.136,-2.105 -0.009,-0.39 -0.014,-0.935 -0.025,-1.628 0.022,-1.23 -0.012,-2.114 -0.1,-2.634 -0.241,-1.428 -1.003,-2.529 -2.282,-3.326 -1.278,-0.796 -2.95,-1.195 -5.016,-1.195 -0.923,0 -1.741,0.104 -2.463,0.321 -0.724,0.208 -1.351,0.537 -1.884,0.97 -0.964,0.831 -1.342,2.798 -1.137,5.89 0.045,0.606 0.077,1.082 0.097,1.421 0.083,1.914 -0.211,3.187 -0.861,3.836 -0.651,0.642 -1.96,0.961 -3.93,0.961 l -5.661,0 -1.351,-7.994 z m -143.497,16.423 6.054,0 c 2.182,0 3.698,0.269 4.569,0.814 0.869,0.537 1.424,1.49 1.657,2.867 0.204,1.213 -0.074,2.07 -0.835,2.573 -0.761,0.494 -2.275,0.745 -4.543,0.745 l -5.718,0 -1.184,-6.999 z m -2.776,-16.423 c -0.294,-1.742 -1.099,-3.092 -2.413,-4.045 -1.315,-0.961 -3.031,-1.438 -5.125,-1.438 -2.066,0 -3.586,0.503 -4.56,1.499 -0.976,0.996 -1.317,2.39 -1.012,4.192 l 4.285,25.344 c 0.438,2.591 1.339,4.392 2.692,5.405 1.353,1.014 3.515,1.525 6.504,1.525 l 11.82,0 c 6.198,0 10.495,-0.832 12.895,-2.503 2.399,-1.664 3.284,-4.384 2.647,-8.151 -0.405,-2.391 -1.319,-4.339 -2.738,-5.847 -1.419,-1.516 -3.433,-2.685 -6.052,-3.516 1.929,-0.356 3.327,-0.893 4.188,-1.603 0.87,-0.71 1.42,-1.776 1.641,-3.196 0.053,-0.252 0.046,-0.979 -0.023,-2.183 -0.063,-0.883 -0.105,-1.585 -0.136,-2.105 -0.008,-0.39 -0.013,-0.935 -0.025,-1.628 0.023,-1.23 -0.012,-2.114 -0.099,-2.634 -0.242,-1.428 -1.004,-2.529 -2.283,-3.326 -1.278,-0.796 -2.949,-1.195 -5.016,-1.195 -0.923,0 -1.74,0.104 -2.462,0.321 -0.725,0.208 -1.351,0.537 -1.884,0.97 -0.964,0.831 -1.343,2.798 -1.138,5.89 0.046,0.606 0.078,1.082 0.097,1.421 0.083,1.914 -0.211,3.187 -0.86,3.836 -0.651,0.642 -1.961,0.961 -3.931,0.961 l -5.66,0 -1.352,-7.994 z m 88.978,-0.515 c -0.283,-1.467 -0.903,-2.589 -1.858,-3.365 -0.953,-0.768 -2.198,-1.155 -3.732,-1.155 -1.422,0 -2.422,0.303 -2.996,0.911 -0.584,0.607 -0.77,1.534 -0.568,2.767 -1.729,-1.384 -3.686,-2.413 -5.878,-3.096 -2.181,-0.684 -4.662,-1.029 -7.422,-1.029 -5.774,0 -9.989,1.712 -12.66,5.128 -2.66,3.416 -3.419,8.097 -2.268,14.051 1.143,5.896 3.935,10.561 8.383,14.01 4.456,3.441 9.918,5.162 16.383,5.162 4.66,0 8.307,-0.835 10.949,-2.504 2.633,-1.679 3.705,-3.772 3.217,-6.293 -0.277,-1.434 -0.993,-2.573 -2.168,-3.425 -1.166,-0.851 -2.615,-1.274 -4.327,-1.274 -1.507,0 -2.882,0.583 -4.133,1.756 -0.081,0.067 -0.136,0.118 -0.167,0.151 -0.118,0.119 -0.294,0.27 -0.506,0.473 -1.437,1.383 -3.043,2.074 -4.839,2.074 -2.593,0 -4.713,-0.894 -6.342,-2.69 -1.638,-1.796 -2.804,-4.479 -3.493,-8.038 -0.636,-3.29 -0.468,-5.752 0.515,-7.389 0.987,-1.628 2.802,-2.446 5.451,-2.446 1.909,0 3.594,0.397 5.078,1.197 1.475,0.802 2.506,1.873 3.076,3.222 l -1.507,0 c -1.721,0 -2.918,0.296 -3.599,0.887 -0.68,0.599 -0.892,1.526 -0.647,2.799 0.271,1.401 0.948,2.429 2.041,3.096 1.084,0.666 2.637,1.004 4.649,1.004 l 5.342,0 c 2.479,0 4.18,-0.548 5.099,-1.645 0.921,-1.096 1.157,-2.825 0.696,-5.204 l -1.769,-9.135 z" /></g></g></g></g></svg>