<?xml version="1.0" encoding="utf-8"?>
<!-- Generator: Adobe Illustrator 19.1.1, SVG Export Plug-In . SVG Version: 6.00 Build 0)  -->
<svg version="1.1" id="Layer_1" xmlns="http://www.w3.org/2000/svg" xmlns:xlink="http://www.w3.org/1999/xlink" x="0px" y="0px"
	 viewBox="0 0 187.7 39" style="enable-background:new 0 0 187.7 39;" xml:space="preserve">
<style type="text/css">
	.st0{fill:#FFFFFF;}
</style>
<path class="st0" d="M173.5,24.7c0.2-1,0.5-2,0.6-3c0.1-4.4,0-8.8,0-13.2c0-2.5,2.2-5.8,4.6-6.7c0.1,0,0.3,0,0.4,0
	c0.3,0.2,0.5,0.4,0.8,0.7c-0.5,0.7-0.9,1.4-1.4,1.9c-0.8,0.9-1,1.8-1,3c0.1,4.2,0,8.4,0,12.5c0,0.3-0.1,0.7-0.2,1
	c-0.6,1.3-1.3,2.7-2,4c-0.2,0.4-0.2,0.7,0.1,1.1c0.9,0.9,2,1.7,3.1,2.3c0.4,0.2,0.7,0.1,0.9-0.2c0.8-1,1.4-2.1,1.8-3.3
	c0.1-0.3,0-0.8-0.2-1.1c-0.4-0.8-0.9-1.4-1.8-1.9c0.3-0.5,0.5-1,0.7-1.5c0.2,0.1,0.3,0.1,0.5,0.2c2.2,1.2,4.4,2.4,6.6,3.5
	c0.3,0.2,0.5,0.4,0.5,0.8c0.1,1.3-0.2,2.2-1.2,3.1c-1.6,1.4-3,3-4.5,4.6c-0.2,0.2-0.4,0.3-0.7,0.4c-0.8,0.3-1.6,0.5-2.5,0.3
	c-0.4-0.1-0.7-0.3-1-0.5c-1.3-1.1-2.6-2.2-3.9-3.3c-0.2-0.2-0.5-0.4-0.8-0.5c-0.5-0.3-1.1-0.5-1.7-0.2c-2.7,1-5.2,2.4-7.5,4.2
	c-0.2,0.1-0.3,0.3-0.5,0.5c-0.5-0.5-1-0.9-1.5-1.4c0.7-0.9,1.4-1.7,2.1-2.5c1.2-1.4,2.4-2.9,3.7-4.3c0.3-0.3,0.4-0.7,0.4-1.1
	c0-4.7,0-9.3,0-14c0-0.3,0.1-0.7,0.2-1c0.3-0.8,0.7-1.6,1.1-2.4c0.1-0.2,0.1-0.3,0.2-0.5c-1.9-0.9-6.2-0.6-9,2.6
	c-0.3-0.8-0.5-1.5-0.3-2.3c0.5-2.3,1.9-3.9,3.9-5c1-0.5,2-0.4,3-0.2c0.6,0.1,1.2,0.3,1.8,0.5c1.3,0.4,2.5,0.1,3.6-0.6
	c0.7-0.4,1.3-0.9,2-1.4c0.2,0.3,0.5,0.5,0.8,0.9c-0.7,0.7-1.3,1.5-2,2.2c-0.5,0.6-1.1,1.1-1.5,1.7c-0.2,0.2-0.3,0.5-0.3,0.7
	c0,6,0,12,0,18c0,0.3,0.1,0.6,0.4,0.7C172.6,24.3,173,24.5,173.5,24.7z"/>
<path class="st0" d="M115.3,28.9c1.2-0.8,2.2-1.5,3.3-2.2c0.3,0.4,0.6,0.8,0.8,1.1c-1.7,1.7-3.3,3.3-5,5c0,0-0.2-0.1-0.2-0.2
	c-0.8-0.8-1.5-1.6-2.3-2.3c-0.5-0.4-0.6-0.9-0.6-1.5c0-4.5,0-9,0-13.5c0-0.2,0-0.4,0-0.7c-0.2,0-0.3-0.1-0.4-0.1c-1,0-1.9,0-2.9,0
	c-0.4,0-0.5,0.1-0.5,0.5c0,2.3,0,4.5,0,6.8c0,2.2,0,4.4,0,6.7c0,0.4,0.1,0.6,0.6,0.6c0,0,0.1,0,0.1,0c1.4,0,1.4,0,1.2,1.4
	c0,0.1-0.1,0.3-0.2,0.4c-0.8,0.7-1.7,1.4-2.6,2.1c-0.9-1-1.9-2-2.8-3c-0.1-0.1-0.1-0.4-0.1-0.6c0-4,0-8,0-12c0-0.9,0-1.9-0.1-2.8
	c-0.9,0-1.9,0-2.8-0.1c-0.3,0-0.6,0-1,0c0,0.2,0,0.4,0,0.5c0,4.5,0,8.9,0,13.4c0,0.5,0.2,0.6,0.6,0.6c1.2,0,1.2,0,1.1,1.2
	c0,0.2-0.1,0.4-0.2,0.6c-0.8,0.7-1.7,1.4-2.6,2.2c-0.8-0.7-1.5-1.3-2.3-2c-0.6-0.6-1.3-1.1-1.9-1.7c-0.3-0.2-0.4-0.5-0.4-0.8
	c0,0,0-0.1,0-0.1c0-0.4-0.1-1,0.1-1.3c0.2-0.2,0.8-0.1,1.2-0.2c0.3,0,0.5-0.1,0.5-0.5c0-3.9,0-7.7,0-11.6c0-0.4-0.2-0.4-0.5-0.4
	c-0.9,0-1.8,0-2.7,0c-0.4,0-0.5-0.1-0.5-0.5c-0.1-0.8,0.2-1.5,0.8-2c1.3-1.2,2.5-2.4,3.8-3.7c1.3,1.3,2.6,2.6,3.8,4
	c1.3-1.4,2.5-2.6,3.8-3.9c1.4,1.4,2.7,2.7,4.1,4c1.3-1.3,2.5-2.6,3.7-3.9c0.2,0.2,0.4,0.4,0.6,0.5c1.2,1.1,2.3,2.2,3.5,3.2
	c0.5,0.4,0.7,0.8,0.6,1.5c-0.1,1.1,0.1,0.9-1,0.9c-1,0-1-0.2-1,0.9c0,4.2,0,8.5,0,12.7C115.2,28.4,115.3,28.6,115.3,28.9z"/>
<path class="st0" d="M31,23c0.2,0.3,0.4,0.5,0.6,0.8c-0.7,0.8-1.4,1.5-2.1,2.3c-1.3,1.4-2.6,2.7-3.8,4.1c-0.3,0.3-0.5,0.4-0.9,0.3
	c-1.9-0.5-3.5-1.3-4.4-3.2c-0.2-0.4-0.3-0.9-0.4-1.3c-0.5-2.1-1.9-3.6-3.6-4.8c-0.3-0.2-0.6-0.4-0.9-0.6c-0.2,0.4-0.4,0.7-0.6,1
	c-0.2,0.4-0.4,0.8-0.6,1.1c-0.6,0.8-0.4,1.5,0.1,2.2c0.9,1.3,2.6,1.9,4.3,1.4c0.6,0.8,0.6,1.3,0.1,2.1c-1.1,1.8-2.6,3.3-4.3,4.7
	c-0.1,0.1-0.2,0.1-0.3,0.2c-1.9-2.6-4.4-4.3-7.7-5c1-0.9,1.8-1.7,2.7-2.5c1.3-1.2,2.6-2.4,3.9-3.6c0.3-0.3,0.4-0.6,0.4-1
	c0-5.1,0-10.3,0-15.4c0-0.3,0.1-0.8,0.3-1c1.3-1.8,3.1-3.1,5-4.2c0.1-0.1,0.2-0.1,0.4-0.2c0.1,0.6,0.1,1-0.4,1.3
	c-1.6,1.1-2.7,2.7-3.4,4.5c0,0.1-0.1,0.2-0.1,0.2c0,1.2,0,2.4,0,3.7c0.1-0.1,0.2-0.1,0.2-0.1c0.8-2.1,2.3-3.7,3.8-5.2
	c1.5-1.5,3.2-2.8,5.2-3.6c0.6-0.2,1.2-0.3,1.9-0.3c0.5,0,0.9,0.3,1.1,0.8c0.3,0.9,0.6,1.9,0.7,2.8C28.3,6.2,28.3,8,28,9.8
	c-0.1,0.5-0.2,1-0.3,1.6c-0.5-0.5-0.8-0.8-1.2-1.2c-0.8-0.7-1.6-1.4-2.6-1.7c-0.6-0.2-1.2-0.2-1.7,0.1c-2.3,1.1-4.3,2.6-6,4.4
	c-1.1,1.2-1.1,2.6-0.6,4.1c0,0.1,0.2,0.3,0.4,0.3c2.5,0.9,4.9,2,7.2,3.5c0.6,0.4,1.1,1.1,1.6,1.7c0.3,0.3,0.6,0.6,0.8,1
	c0.9,1.1,2,1.3,3.3,0.9C29.7,24.3,30.4,23.8,31,23z"/>
<path class="st0" d="M80.1,28.8c0,0.3-0.1,0.6-0.1,0.8c0,1.9-0.1,3.8-0.1,5.7c0,0.3,0.1,0.6,0.3,0.7c0.5,0.5,1,0.9,1.5,1.3
	c0.2,0.2,0.3,0.4,0.1,0.7c-0.2,0.3-0.3,0.6-0.5,1c-0.5-0.3-0.9-0.6-1.3-0.9c-1.1-1-2.3-1.4-3.7-1.2c-0.4,0.1-0.9,0-1.4,0
	c-0.3,0-0.4-0.1-0.4-0.4c-0.1-1.3-0.1-1.3,1.2-1.5c0.5-0.1,0.7-0.3,0.7-0.9c0-2.2,0-4.5,0-6.7c0-0.4-0.1-0.6-0.5-0.7
	c-0.3-0.1-0.7-0.2-1-0.3c-0.3-0.1-0.4-0.2-0.4-0.5c0-0.9,0-0.9,1.1-1c0.8-0.1,0.8-0.1,0.8-0.9c0-3.8,0-7.5,0-11.3c0-0.2,0-0.4,0-0.6
	c0,0-0.1,0-0.1-0.1c-1,0.9-1.9,1.7-3,2.6c-0.2-0.4-0.5-0.7-0.7-1.1c0-0.1,0-0.2,0-0.3c1.5-1.7,2.9-3.3,4.5-5.1
	c1,1.5,1.9,2.9,2.9,4.4c0.2-0.1,0.3-0.2,0.5-0.4c1.3-1.2,2.5-2.3,3.8-3.5c0.3-0.3,0.5-0.3,0.8,0c2.5,1.9,3.8,4.4,3.9,7.6
	c0,3.2,0,6.4,0,9.6c0,0.5-0.1,1.1-0.3,1.6c-0.8,2-2,3.7-3.7,5.1c-0.1,0.1-0.2,0.1-0.3,0.2C83.4,31.3,81.9,30,80.1,28.8z M80.1,19.9
	c0,1.5,0,2.9,0,4.4c0,0.2,0.1,0.6,0.3,0.7c0.8,0.6,1.6,1.2,2.5,1.8c0.2,0.2,0.4,0.2,0.6-0.1c0.7-0.9,1.4-1.9,2-2.8
	c0.1-0.2,0.2-0.5,0.2-0.7c0-2,0-4-0.1-6c-0.1-1.8-0.9-3.3-2.3-4.5c-0.3-0.2-0.4-0.2-0.7,0c-0.7,0.6-1.4,1.2-2.1,1.8
	c-0.3,0.3-0.5,0.6-0.5,1C80.1,17,80.1,18.5,80.1,19.9z"/>
<path class="st0" d="M136.3,33.7c-1-1.3-1.9-2.5-2.8-3.8c-0.7-1-0.7-1-1.8-0.4c-1.7,0.9-2.6,2.3-3,4.2c0,0.1,0,0.1-0.1,0.3
	c-1.2-0.5-2.2-1.2-3.1-2.1c-1.3-1.4-2-3.1-2-4.9c0-1,0-2.1,0.2-3.1c0.3-1.6,1.2-2.9,2.5-3.8c0.2-0.1,0.3-0.2,0.5-0.4
	c-1.2-1.3-2.4-2.6-3.6-3.9c0.9-1.1,1.9-2.2,2.8-3.3c0.8-1,1.6-2,2.4-3c0.8-0.9,1.7-1.1,2.9-0.9c1.6,0.3,3.1,0.8,4.3,2
	c0,0,0.1,0,0.2,0.1c0.9-0.8,1.7-1.6,2.6-2.5c0.2,0.2,0.5,0.4,0.7,0.7c-0.6,0.7-1.2,1.5-1.8,2.2c-0.3,0.4-0.5,0.8-0.5,1.3
	c0,5.1,0,10.3,0,15.4c0,0.6,0.2,0.7,0.7,0.8c0.1,0,0.2,0,0.3,0c0.3,0.1,0.9,0.2,0.9,0.3c0.1,0.5,0.2,1.1-0.2,1.6
	c-0.7,1-1.4,2.1-2.1,3.1C136.5,33.5,136.4,33.6,136.3,33.7z M128.5,11.3C128.5,11.3,128.5,11.3,128.5,11.3c-1.2,1.4-2.4,2.8-3.6,4.1
	c-0.2,0.2-0.1,0.4,0.1,0.6c0.9,0.8,1.7,1.7,2.6,2.5c0.2,0.2,0.4,0.3,0.7,0.3c1.2,0,2.4,0,3.6,0c1.3,0,1.2,0,1.3-1.3
	c0.1-1.2-0.2-2-1.1-2.8C130.9,13.6,129.7,12.5,128.5,11.3z M133.2,23.4c0-0.7,0-1.4,0-2.1c0-0.7-0.1-0.9-0.8-0.9
	c-1.1,0-2.3,0.1-3.4,0.1c-0.8,0-1.4,0.4-1.6,1.2c-0.1,0.5-0.3,1.1-0.4,1.6c-0.2,0.9,0.1,1.7,0.8,2.4c1.3,1.4,3.5,1.6,5.1,0.7
	c0.3-0.2,0.4-0.4,0.4-0.7C133.2,24.9,133.2,24.2,133.2,23.4z"/>
<path class="st0" d="M68,33.7c-1.1-1.4-2.1-2.8-3.2-4.2c-0.3-0.3-0.5-0.4-0.9-0.2c-1.9,0.7-3,2.1-3.5,4c-0.1,0.2-0.1,0.4-0.2,0.7
	c-0.3-0.1-0.5-0.2-0.7-0.4c-2.8-1.5-4.2-3.9-4.3-7c0-0.9,0.1-1.8,0.2-2.7c0.3-1.8,1.3-3.1,2.7-4c0.1-0.1,0.2-0.1,0.2-0.2
	c0,0,0-0.1,0.1-0.1c-1.2-1.3-2.3-2.6-3.5-3.9c1-1.1,1.9-2.3,2.9-3.4c0.8-1,1.6-2,2.4-3c0.8-1,1.7-1.1,2.9-0.9
	c1.7,0.3,3.2,0.8,4.4,2.2c0.9-0.9,1.8-1.7,2.7-2.5c0.2,0.2,0.5,0.4,0.7,0.7c-0.6,0.8-1.3,1.6-1.9,2.3c-0.2,0.3-0.4,0.6-0.4,1
	c0,5.2,0,10.4,0,15.6c0,0.5,0.2,0.7,0.6,0.7c0.1,0,0.2,0,0.3,0c0.4,0.1,1,0.2,1,0.3c0.1,0.5,0.2,1.1-0.2,1.6c-0.7,1-1.4,2-2.1,3
	C68.3,33.5,68.2,33.6,68,33.7z M60.4,11.2c-0.1,0.1-0.1,0.1-0.2,0.1c-1.2,1.3-2.3,2.7-3.5,4c-0.2,0.2-0.1,0.4,0.1,0.6
	c0.9,0.8,1.7,1.7,2.6,2.5c0.1,0.1,0.4,0.2,0.6,0.3c1.5,0,3,0,4.5,0c0.3,0,0.5-0.1,0.5-0.5c0-0.7,0-1.4,0-2.1c0-0.2-0.1-0.5-0.3-0.6
	c-0.6-0.7-1.2-1.3-1.9-1.9C62,12.8,61.2,12,60.4,11.2z M64.9,23.5c0-0.7,0-1.5,0-2.2c0-0.7-0.1-0.8-0.8-0.8c-0.9,0-1.8,0-2.7,0
	c-2,0.1-2.4,0.5-2.8,2.4c0,0,0,0,0,0c-0.2,1,0,1.9,0.7,2.7c1.3,1.4,3.7,1.7,5.3,0.6c0.2-0.1,0.3-0.4,0.3-0.6
	C65,25,64.9,24.2,64.9,23.5z"/>
<path class="st0" d="M35.2,27.3c0.5-0.1,1-0.2,1.5-0.2c0.4-0.1,0.5-0.2,0.5-0.6c0-4.2,0-8.4,0-12.6c0-0.4-0.1-0.6-0.5-0.6
	c-0.5,0-1-0.2-1.5-0.3c0.1-0.5,0.1-1,0.2-1.5c0-0.2,0.2-0.4,0.4-0.4c0.7-0.1,1.4-0.1,2.2-0.2c0.3,0,0.5-0.1,0.8-0.2
	c1.3-0.6,2.7-1.3,4-2c0.7-0.3,1.3-0.1,2,0c0.1,0,0.2,0.2,0.2,0.3c0.7,2.2,2,3.3,4.3,3.5c0,0,0.1,0,0.1,0c0.8-0.1,1.2,0.3,1.3,1.1
	c0.1,0.3,0,0.5-0.2,0.7c-2.3,1.9-4.6,3.8-6.8,5.7c-0.2,0.2-0.4,0.4-0.7,0.6c0.2,0.1,0.3,0.2,0.5,0.3c0.8,0.4,1.5,0.9,2.4,1.3
	c0.9,0.4,1.5,1.1,1.9,1.9c0.9,1.7,1.9,3.3,2.8,5c0.3,0.4,0.2,1.4-0.2,1.8C50.3,30.9,50.1,31,50,31c-1.7,0.3-3.4,0.6-5,0.9
	c-0.7,0.1-1.4,0.4-1.6,1.2c0,0,0,0.1-0.1,0.1c-0.3,0.3-1.8,0.3-2,0c-0.9-1-1.9-2.1-2.7-3.1c-0.4-0.4-0.8-0.6-1.3-0.6
	c-0.5,0-0.9-0.1-1.4-0.2c-0.2,0-0.4-0.2-0.4-0.4C35.3,28.3,35.3,27.8,35.2,27.3z M40.5,26.3C40.5,26.3,40.5,26.3,40.5,26.3
	c0,0.7,0,1.5,0.1,2.2c0,0.2,0.1,0.4,0.2,0.5c0.7,0.3,1.3,0.8,2.2,0.5c0.2-0.1,0.5-0.1,0.7-0.1c0.9,0,1.2-0.6,1.3-1.2
	c0.2-0.9,0-1.8-0.8-2.4c-0.1-0.1-0.2-0.2-0.3-0.4c-0.6-0.8-1.2-1.6-1.8-2.5c-0.5-0.7-0.8-0.6-1.2,0.1c-0.1,0.2-0.2,0.4-0.2,0.6
	C40.6,24.6,40.5,25.4,40.5,26.3z M40.5,15.2C40.5,15.2,40.5,15.2,40.5,15.2c0,0.6,0,1.2,0,1.8c0,0.6,0.1,1.1,0.6,1.5
	c0.2,0.2,0.5,0.3,0.7,0c0.6-0.6,1.2-1.2,1.9-1.8c0.2-0.2,0.5-0.3,0.8-0.3c0.4,0,0.5-0.2,0.5-0.5c-0.1-0.6-0.3-1.1-0.7-1.5
	c-0.4-0.4-0.8-0.7-1.2-1.1c-1-1-1-1-2.2-0.4c0,0,0,0,0,0c-0.1,0.2-0.3,0.3-0.3,0.5C40.5,14,40.5,14.6,40.5,15.2z"/>
<path class="st0" d="M0.6,31.1C0.6,31,0.5,31,0.5,31c-0.7-1.2-0.7-1.2,0.2-2.3c2-2.4,4.3-4.6,6.6-6.8c0.2-0.2,0.3-0.5,0.3-0.7
	c0-4.7,0-9.4,0-14c0-0.4-0.1-0.6-0.6-0.6C5.3,6.5,3.7,7,2.3,8.1C2.1,8.2,2,8.3,1.7,8.5c0.1-0.3,0.1-0.5,0.1-0.8C2.6,5,4.2,3,6.9,2.1
	C7.7,1.9,8.6,1.9,9.4,2c1.6,0.2,3.1-0.1,4.6-0.9c0.4-0.2,0.8-0.5,1.3-0.7c-0.6,1.1-1,2.2-2.2,2.9c-0.9,0.5-1.8,1.1-2.8,1.7
	c-0.4,0.2-0.5,0.5-0.5,1c0,5.2,0,10.4,0,15.6c0,0.4-0.1,0.7-0.4,1c-2.7,2.7-5.5,5.4-8.2,8.1C1,30.7,0.8,30.9,0.6,31.1z"/>
<path class="st0" d="M142.1,20.3c1-1.1,1.9-2,2.8-3c0.5-0.6,1.1-0.9,2-0.8c3.8,0,7.6,0,11.3,0c0.2,0,0.4,0,0.7,0
	c-0.7,1-1.5,1.8-2,2.8c-0.5,0.8-1.1,1.1-2.1,1c-4-0.1-7.9,0-11.9,0C142.6,20.3,142.4,20.3,142.1,20.3z"/>
</svg>
