<?xml version="1.0" encoding="utf-8"?>
<!-- Generator: Adobe Illustrator 19.1.1, SVG Export Plug-In . SVG Version: 6.00 Build 0)  -->
<svg version="1.1" id="Слой_1" xmlns="http://www.w3.org/2000/svg" xmlns:xlink="http://www.w3.org/1999/xlink" x="0px" y="0px"
	 viewBox="0 0 349.7 48.7" style="enable-background:new 0 0 349.7 48.7;" xml:space="preserve">
<style type="text/css">
	.st0{fill-rule:evenodd;clip-rule:evenodd;fill:#FFFFFF;}
	.st1{fill:#FFFFFF;}
</style>
<path class="st0" d="M4.5,4.5h20.4v1.1c0,0.7-0.6,1.2-1.3,1.3l-6.9,0.8V41l6.9,0.8c0.7,0.1,1.3,0.6,1.3,1.3v1.1H4.5V43
	c0-0.7,0.6-1.2,1.3-1.3l6.9-0.8V7.7L5.8,6.9C5.1,6.9,4.5,6.4,4.5,5.7V4.5z M29.3,4.5h20.4v1.1c0,0.7-0.6,1.2-1.3,1.3l-6.9,0.8V41
	l6.9,0.8c0.7,0.1,1.3,0.6,1.3,1.3v1.1H29.3V43c0-0.7,0.6-1.2,1.3-1.3l6.9-0.8V7.7l-6.9-0.8c-0.7-0.1-1.3-0.6-1.3-1.3V4.5z"/>
<path class="st0" d="M20.3,22.8h13.6c0.5,0,0.8,0.4,0.8,0.8V25c0,0.5-0.4,0.8-0.8,0.8H20.3c-0.5,0-0.8-0.4-0.8-0.8v-1.4
	C19.4,23.2,19.8,22.8,20.3,22.8"/>
<path class="st0" d="M2.3,2.3h49.6v44.1H2.3V2.3z M0,0h54.2v48.7H0V0z"/>
<path class="st1" d="M347.7,7.7v6.5h-1.5c-1.5,0-2.5-0.5-2.5-2.4v-1.7c0-1.6,0.6-2.4,2-2.4H347.7z M347.7,16v7.5h2V5.9h-3.9
	c-2.8,0-3.9,1.4-3.9,4v1.4c0,1.9,0.7,3.2,2.2,3.6c-1.6,0.5-2.2,1.8-2.2,3.7v2.8c0,0.8-0.1,1.5-0.4,2.1h2c0.2-0.5,0.3-1,0.3-2.1v-2.8
	c0-2,0.9-2.6,2.6-2.6H347.7z M338,9.5v14.1h1.8V5.9h-2.2l-2.6,7.6l-1.8,5.6V5.9h-1.7v17.7h2l2.6-8.2L338,9.5z M329.8,25.9v-4.1h-1.3
	V5.9h-2v15.9h-4.3V5.9h-1.9v17.7h7.7v2.4H329.8z M316.4,23.6h2l-4.6-9.6l4.5-8h-2l-4.7,8.5V5.9h-2v17.7h2v-5.9l1-1.7L316.4,23.6z
	 M308.2,5.9h-2l-1.6,6.1l-1,4.4l-1.2-4.4l-1.8-6.1h-2l4.1,13l-0.4,1.2c-0.3,1.3-1,1.8-2.5,1.7v1.8c3.2,0.2,4.1-1.3,4.7-3.9
	L308.2,5.9z M291.7,14.8V7.7h1.9c1.4,0,2,0.8,2,2.4v2.3c0,1.7-0.7,2.4-2.2,2.4H291.7z M289.8,5.9v17.7h2v-7h1.7
	c2.8,0,4.1-1.5,4.1-4.3v-2.1c0-2.7-1.2-4.3-4-4.3H289.8z M285.1,23.6V7.7h3.3V5.9h-8.5v1.8h3.3v15.9H285.1z M274.6,5.7
	c-2.7,0-4,1.8-4,4.4v9.1c0,2.7,1.3,4.4,4,4.4c2.7,0,4-1.8,4-4.4v-2.2h-1.9v2.3c0,1.6-0.6,2.5-2.1,2.5c-1.4,0-2.1-1-2.1-2.5v-9.3
	c0-1.6,0.7-2.5,2.1-2.5c1.4,0,2.1,1,2.1,2.5v1.7h1.9v-1.6C278.6,7.5,277.3,5.7,274.6,5.7z M266.8,15.6v7.9h2V5.9h-2v7.9h-4.3V5.9h-2
	v17.7h2v-7.9H266.8z M252.5,10.1c0-1.6,0.7-2.5,2.1-2.5c1.4,0,2.1,1,2.1,2.5v9.3c0,1.6-0.7,2.5-2.1,2.5c-1.4,0-2.1-0.9-2.1-2.5V10.1
	z M250.5,19.3c0,2.7,1.3,4.4,4,4.4c2.7,0,4.1-1.8,4.1-4.4v-9.1c0-2.7-1.3-4.4-4.1-4.4c-2.7,0-4,1.7-4,4.4V19.3z M247.2,23.6h2
	l-4.6-9.6l4.5-8h-2l-4.7,8.5V5.9h-2v17.7h2v-5.9l1-1.7L247.2,23.6z M232.7,21.8v-7.1h1.7c1.5,0,2.2,0.7,2.2,2.4v2.3
	c0,1.6-0.6,2.4-2,2.4H232.7z M232.7,12.9v-7h-2v17.7h3.9c2.8,0,4-1.6,4-4.3v-2.1c0-2.8-1.3-4.3-4.1-4.3H232.7z M226.7,7.7v15.9h2
	V5.9h-7.2L221,19.3c-0.1,1.7-0.3,2.5-2,2.5v1.8h0.3c2.7,0,3.5-1.6,3.6-4.4l0.4-11.5H226.7z M213.1,8.1l2,10.2h-3.9L213.1,8.1z
	 M215.4,20l0.7,3.6h2l-3.4-17.7h-2.9l-3.4,17.7h1.8l0.7-3.6H215.4z M204.2,23.6V7.7h3.3V5.9H199v1.8h3.3v15.9H204.2z M193.7,5.7
	c-2.7,0-4,1.8-4,4.4v9.1c0,2.7,1.3,4.4,4,4.4c2.7,0,4-1.8,4-4.4v-2.2h-1.9v2.3c0,1.6-0.6,2.5-2.1,2.5c-1.4,0-2.1-1-2.1-2.5v-9.3
	c0-1.6,0.7-2.5,2.1-2.5c1.4,0,2.1,1,2.1,2.5v1.7h1.9v-1.6C197.7,7.5,196.5,5.7,193.7,5.7z M186.1,9.4v14.2h1.9V5.9h-2.8L182.4,20
	l-2.9-14.1h-2.8v17.7h1.7V9.5l2.9,14.1h1.9L186.1,9.4z M168.7,10.1c0-1.6,0.7-2.5,2.1-2.5c1.4,0,2.1,1,2.1,2.5v9.3
	c0,1.6-0.7,2.5-2.1,2.5c-1.4,0-2.1-0.9-2.1-2.5V10.1z M166.8,19.3c0,2.7,1.3,4.4,4,4.4c2.7,0,4.1-1.8,4.1-4.4v-9.1
	c0-2.7-1.3-4.4-4.1-4.4c-2.7,0-4,1.7-4,4.4V19.3z M159.5,14.8V7.7h1.9c1.4,0,2,0.8,2,2.4v2.3c0,1.7-0.7,2.4-2.2,2.4H159.5z
	 M157.6,5.9v17.7h2v-7h1.7c2.8,0,4.1-1.5,4.1-4.3v-2.1c0-2.7-1.2-4.3-4-4.3H157.6z M153.6,7.7v15.9h2V5.9h-8.3v17.7h2V7.7H153.6z
	 M139.4,21.8v-6.6h1.7c1.7,0,2.5,0.7,2.5,2.6v1.6c0,1.6-0.7,2.4-2.1,2.4H139.4z M139.4,13.4V7.7h1.9c1.4,0,1.9,0.8,1.9,2.3v1
	c0,1.8-0.8,2.3-2.4,2.3H139.4z M137.4,5.9v17.7h4.1c2.8,0,4-1.5,4-4.1v-1.5c0-1.9-0.7-3.3-2.4-3.8c1.5-0.5,2.1-1.6,2.1-3.5V9.8
	c0-2.6-1.1-3.9-3.8-3.9H137.4z M130.3,13.7v-6h5.3V5.9h-7.3v17.7h7.3v-1.8h-5.3v-6.3h4.3v-1.8H130.3z M121.8,8.1l2,10.2h-3.9
	L121.8,8.1z M124.1,20l0.7,3.6h2l-3.4-17.7h-2.9l-3.4,17.7h1.8l0.7-3.6H124.1z M113.6,7.7v15.9h2V5.9h-7.2l-0.5,13.4
	c-0.1,1.7-0.3,2.5-2,2.5v1.8h0.3c2.7,0,3.5-1.6,3.6-4.4l0.4-11.5H113.6z M98.4,10.1c0-1.6,0.7-2.5,2.1-2.5c1.4,0,2.1,1,2.1,2.5v9.3
	c0,1.6-0.7,2.5-2.1,2.5c-1.4,0-2.1-0.9-2.1-2.5V10.1z M96.5,19.3c0,2.7,1.3,4.4,4,4.4c2.7,0,4.1-1.8,4.1-4.4v-9.1
	c0-2.7-1.3-4.4-4.1-4.4c-2.7,0-4,1.7-4,4.4V19.3z M93.1,23.6h2L90.5,14l4.5-8h-2l-4.7,8.5V5.9h-2v17.7h2v-5.9l1-1.7L93.1,23.6z
	 M82.6,9.5v14.1h1.8V5.9h-2.2l-2.6,7.6l-1.8,5.6V5.9H76v17.7h2l2.6-8.2L82.6,9.5z M72,15.6v7.9h2V5.9h-2v7.9h-4.3V5.9h-2v17.7h2
	v-7.9H72z"/>
<g>
	<path class="st1" d="M130.5,38.8c0.6,0,1.1-0.1,1.4-0.4c0.3-0.3,0.4-0.7,0.4-1.3c0-0.6-0.1-1.1-0.4-1.4c-0.3-0.3-0.7-0.4-1.4-0.4
		h-0.9v-0.9h0.8c0.6,0,1-0.1,1.3-0.4c0.3-0.3,0.4-0.7,0.4-1.2c0-0.5-0.1-0.9-0.4-1.1c-0.3-0.3-0.7-0.4-1.3-0.4h-1.5v-0.6
		c0.1,0,0.2-0.1,0.3-0.1c0.1,0,0.3-0.1,0.4-0.1c0.2,0,0.3,0,0.5-0.1c0.2,0,0.3,0,0.4,0c1,0,1.6,0.2,2,0.6c0.4,0.4,0.6,1,0.6,1.8
		c0,0.5-0.1,0.9-0.3,1.2c-0.2,0.3-0.5,0.5-0.9,0.7v0.1c0.5,0.1,0.9,0.4,1.1,0.8s0.3,0.9,0.3,1.4c0,0.4-0.1,0.8-0.2,1.1
		c-0.1,0.3-0.3,0.6-0.5,0.8c-0.2,0.2-0.5,0.4-0.9,0.5c-0.4,0.1-0.8,0.1-1.4,0.1c-0.3,0-0.6,0-1-0.1c-0.3-0.1-0.6-0.1-0.8-0.2v-0.6
		H130.5z"/>
	<path class="st1" d="M136.2,37.2l-0.6,2.3h-1.1l2.2-8.9h1.6l2.2,8.9h-1.1l-0.6-2.3H136.2z M137.5,31.9L137.5,31.9l-1.1,4.4h2.2
		L137.5,31.9z"/>
	<path class="st1" d="M145.5,34.8c0.5,0.1,0.9,0.4,1.1,0.8c0.2,0.4,0.3,0.9,0.3,1.5c0,0.4-0.1,0.8-0.2,1.1c-0.1,0.3-0.3,0.6-0.5,0.8
		c-0.2,0.2-0.5,0.4-0.9,0.5c-0.4,0.1-0.8,0.1-1.4,0.1c-0.4,0-0.7,0-1.1-0.1c-0.3,0-0.6-0.1-1-0.2v-8.6c0.3-0.1,0.6-0.2,1-0.2
		c0.3,0,0.7-0.1,1.1-0.1c0.9,0,1.5,0.2,1.9,0.6c0.4,0.4,0.6,1,0.6,1.8c0,0.4-0.1,0.7-0.2,1.1S145.8,34.5,145.5,34.8L145.5,34.8z
		 M143.8,34.4c1,0,1.5-0.5,1.5-1.6c0-1-0.5-1.5-1.5-1.5h-0.8v3.1H143.8z M143.1,35.3v3.5h0.9c0.6,0,1.1-0.1,1.4-0.4
		c0.3-0.3,0.4-0.7,0.4-1.3c0-0.7-0.1-1.1-0.4-1.4c-0.3-0.3-0.7-0.4-1.4-0.4H143.1z"/>
	<path class="st1" d="M151,30.5c0.4,0,0.8,0.1,1.1,0.2c0.3,0.1,0.6,0.4,0.9,0.7c0.2,0.3,0.4,0.8,0.5,1.4c0.1,0.6,0.2,1.3,0.2,2.2
		s-0.1,1.6-0.2,2.2c-0.1,0.6-0.3,1.1-0.5,1.4c-0.2,0.3-0.5,0.6-0.9,0.7c-0.3,0.1-0.7,0.2-1.1,0.2s-0.8-0.1-1.1-0.2
		c-0.3-0.1-0.6-0.4-0.9-0.7c-0.2-0.3-0.4-0.8-0.5-1.4c-0.1-0.6-0.2-1.3-0.2-2.2s0.1-1.6,0.2-2.2c0.1-0.6,0.3-1.1,0.5-1.4
		c0.2-0.3,0.5-0.6,0.9-0.7C150.2,30.6,150.6,30.5,151,30.5z M151,38.9c0.2,0,0.4-0.1,0.6-0.2c0.2-0.1,0.4-0.3,0.5-0.6
		c0.1-0.3,0.3-0.7,0.3-1.2c0.1-0.5,0.1-1.1,0.1-1.9c0-0.8,0-1.4-0.1-1.9c-0.1-0.5-0.2-0.9-0.3-1.2c-0.1-0.3-0.3-0.5-0.5-0.6
		c-0.2-0.1-0.4-0.2-0.6-0.2c-0.2,0-0.4,0.1-0.6,0.2c-0.2,0.1-0.4,0.3-0.5,0.6c-0.1,0.3-0.3,0.7-0.3,1.2c-0.1,0.5-0.1,1.1-0.1,1.9
		c0,0.8,0,1.4,0.1,1.9c0.1,0.5,0.2,0.9,0.3,1.2c0.1,0.3,0.3,0.5,0.5,0.6C150.6,38.8,150.8,38.9,151,38.9z"/>
	<path class="st1" d="M155.8,39.5c-0.1,0.8-0.2,1.4-0.4,1.9h-0.7v-2.8h0.6c0.1-0.2,0.2-0.4,0.3-0.7c0.1-0.2,0.1-0.5,0.2-0.8
		c0.1-0.3,0.1-0.7,0.1-1.1l0.3-5.4h4.1v8h0.8v2.8h-0.7c-0.2-0.5-0.3-1.1-0.4-1.9H155.8z M159.2,38.6v-7.1h-1.9l-0.2,4.5
		c0,0.4-0.1,0.8-0.1,1.1c-0.1,0.3-0.1,0.6-0.2,0.8c-0.1,0.3-0.2,0.5-0.3,0.7H159.2z"/>
	<path class="st1" d="M169.4,38.4l-1.8-5.4h-0.1l-0.4,6.6H166l0.5-8.9h1.4l2.1,6.1h0.1l2.1-6.1h1.4l0.5,8.9h-1.1l-0.4-6.6h-0.1
		l-1.8,5.4H169.4z"/>
	<path class="st1" d="M177,38.6h3.2v0.9h-4.3v-8.9h4.3v0.9H177v2.9h2.8v0.9H177V38.6z"/>
	<path class="st1" d="M181.1,30.6h5.2v0.9h-2v8h-1.1v-8h-2V30.6z"/>
	<path class="st1" d="M188.1,37.2l-0.6,2.3h-1.1l2.2-8.9h1.6l2.2,8.9h-1.1l-0.6-2.3H188.1z M189.4,31.9L189.4,31.9l-1.1,4.4h2.2
		L189.4,31.9z"/>
	<path class="st1" d="M193.7,39.6c-0.2,0-0.4,0-0.5-0.1c-0.1,0-0.2,0-0.2-0.1v-0.6c0.2,0,0.3,0,0.5-0.1c0.1-0.1,0.3-0.2,0.4-0.3
		s0.2-0.4,0.3-0.6c0.1-0.3,0.1-0.6,0.1-1l0.3-6.2h4.2v8.9h-1.1v-8h-2l-0.3,5.3c0,0.5-0.1,0.9-0.2,1.3c-0.1,0.4-0.2,0.6-0.4,0.9
		c-0.1,0.2-0.3,0.4-0.5,0.5C194.1,39.6,193.9,39.6,193.7,39.6z"/>
	<path class="st1" d="M200.7,39.6c-0.2,0-0.4,0-0.5-0.1c-0.1,0-0.2,0-0.2-0.1v-0.6c0.2,0,0.3,0,0.5-0.1c0.1-0.1,0.3-0.2,0.4-0.3
		s0.2-0.4,0.3-0.6c0.1-0.3,0.1-0.6,0.1-1l0.3-6.2h4.2v8.9h-1.1v-8h-2l-0.3,5.3c0,0.5-0.1,0.9-0.2,1.3c-0.1,0.4-0.2,0.6-0.4,0.9
		c-0.1,0.2-0.3,0.4-0.5,0.5C201.1,39.6,200.9,39.6,200.7,39.6z"/>
	<path class="st1" d="M210.3,30.5c0.4,0,0.8,0.1,1.1,0.2c0.3,0.1,0.6,0.4,0.9,0.7c0.2,0.3,0.4,0.8,0.5,1.4c0.1,0.6,0.2,1.3,0.2,2.2
		s-0.1,1.6-0.2,2.2c-0.1,0.6-0.3,1.1-0.5,1.4c-0.2,0.3-0.5,0.6-0.9,0.7c-0.3,0.1-0.7,0.2-1.1,0.2s-0.8-0.1-1.1-0.2
		c-0.3-0.1-0.6-0.4-0.9-0.7c-0.2-0.3-0.4-0.8-0.5-1.4c-0.1-0.6-0.2-1.3-0.2-2.2s0.1-1.6,0.2-2.2c0.1-0.6,0.3-1.1,0.5-1.4
		c0.2-0.3,0.5-0.6,0.9-0.7C209.5,30.6,209.9,30.5,210.3,30.5z M210.3,38.9c0.2,0,0.4-0.1,0.6-0.2c0.2-0.1,0.4-0.3,0.5-0.6
		c0.1-0.3,0.3-0.7,0.3-1.2c0.1-0.5,0.1-1.1,0.1-1.9c0-0.8,0-1.4-0.1-1.9c-0.1-0.5-0.2-0.9-0.3-1.2c-0.1-0.3-0.3-0.5-0.5-0.6
		c-0.2-0.1-0.4-0.2-0.6-0.2c-0.2,0-0.4,0.1-0.6,0.2c-0.2,0.1-0.4,0.3-0.5,0.6c-0.1,0.3-0.3,0.7-0.3,1.2c-0.1,0.5-0.1,1.1-0.1,1.9
		c0,0.8,0,1.4,0.1,1.9c0.1,0.5,0.2,0.9,0.3,1.2c0.1,0.3,0.3,0.5,0.5,0.6C209.9,38.8,210.1,38.9,210.3,38.9z"/>
	<path class="st1" d="M217.6,34.9c0.2,0,0.3,0.1,0.4,0.2c0.1,0.1,0.2,0.2,0.4,0.3s0.2,0.3,0.3,0.4c0.1,0.2,0.1,0.4,0.2,0.7l0.3,1.6
		c0,0.2,0.1,0.4,0.3,0.6s0.4,0.2,0.7,0.2v0.6c-0.1,0-0.1,0-0.2,0.1c-0.2,0-0.3,0.1-0.5,0.1c-0.4,0-0.7-0.1-0.9-0.4
		c-0.2-0.3-0.4-0.6-0.5-1.1l-0.3-1.6c-0.1-0.4-0.2-0.7-0.4-0.9c-0.2-0.2-0.5-0.2-0.8-0.2H216v4.2h-1.1v-8.9h1.1v3.8h0.4
		c0.2,0,0.4-0.1,0.6-0.2c0.2-0.2,0.3-0.5,0.5-0.9l0.3-1.3c0.3-1,0.7-1.5,1.5-1.5c0.1,0,0.2,0,0.3,0c0.1,0,0.2,0,0.2,0
		c0.1,0,0.2,0,0.2,0.1v0.6c-0.3,0-0.6,0.1-0.7,0.2c-0.1,0.1-0.2,0.3-0.3,0.6l-0.3,1.3c-0.1,0.3-0.1,0.5-0.2,0.7
		c-0.1,0.2-0.2,0.3-0.2,0.4c-0.1,0.1-0.2,0.2-0.3,0.3C217.9,34.8,217.7,34.8,217.6,34.9L217.6,34.9z"/>
	<path class="st1" d="M223.8,30.5c0.4,0,0.8,0.1,1.1,0.2c0.3,0.1,0.6,0.4,0.9,0.7c0.2,0.3,0.4,0.8,0.5,1.4c0.1,0.6,0.2,1.3,0.2,2.2
		s-0.1,1.6-0.2,2.2c-0.1,0.6-0.3,1.1-0.5,1.4c-0.2,0.3-0.5,0.6-0.9,0.7c-0.3,0.1-0.7,0.2-1.1,0.2s-0.8-0.1-1.1-0.2
		c-0.3-0.1-0.6-0.4-0.9-0.7c-0.2-0.3-0.4-0.8-0.5-1.4c-0.1-0.6-0.2-1.3-0.2-2.2s0.1-1.6,0.2-2.2c0.1-0.6,0.3-1.1,0.5-1.4
		c0.2-0.3,0.5-0.6,0.9-0.7C223,30.6,223.4,30.5,223.8,30.5z M223.8,38.9c0.2,0,0.4-0.1,0.6-0.2c0.2-0.1,0.4-0.3,0.5-0.6
		c0.1-0.3,0.3-0.7,0.3-1.2c0.1-0.5,0.1-1.1,0.1-1.9c0-0.8,0-1.4-0.1-1.9c-0.1-0.5-0.2-0.9-0.3-1.2c-0.1-0.3-0.3-0.5-0.5-0.6
		c-0.2-0.1-0.4-0.2-0.6-0.2c-0.2,0-0.4,0.1-0.6,0.2c-0.2,0.1-0.4,0.3-0.5,0.6c-0.1,0.3-0.3,0.7-0.3,1.2c-0.1,0.5-0.1,1.1-0.1,1.9
		c0,0.8,0,1.4,0.1,1.9c0.1,0.5,0.2,0.9,0.3,1.2c0.1,0.3,0.3,0.5,0.5,0.6C223.4,38.8,223.6,38.9,223.8,38.9z"/>
	<path class="st1" d="M233.3,30.6v8.9h-1.1v-4.1h-2.7v4.1h-1.1v-8.9h1.1v3.9h2.7v-3.9H233.3z"/>
	<path class="st1" d="M237.9,39.6c-0.4,0-0.8-0.1-1.2-0.2c-0.3-0.1-0.6-0.4-0.9-0.7c-0.2-0.3-0.4-0.8-0.5-1.4
		c-0.1-0.6-0.2-1.3-0.2-2.2s0.1-1.6,0.2-2.2c0.1-0.6,0.3-1.1,0.5-1.4c0.2-0.3,0.5-0.6,0.8-0.7c0.3-0.1,0.7-0.2,1.1-0.2
		c0.4,0,0.7,0,1.1,0.1c0.3,0.1,0.6,0.1,0.8,0.2v0.6h-1.6c-0.3,0-0.5,0.1-0.7,0.2c-0.2,0.1-0.4,0.3-0.6,0.6c-0.2,0.3-0.3,0.7-0.4,1.1
		c-0.1,0.5-0.1,1.1-0.1,1.8s0,1.4,0.1,1.8c0.1,0.5,0.2,0.9,0.4,1.1c0.2,0.3,0.4,0.5,0.6,0.6c0.2,0.1,0.5,0.2,0.8,0.2h1.6v0.6
		c-0.2,0.1-0.5,0.1-0.8,0.2C238.7,39.6,238.3,39.6,237.9,39.6z"/>
	<path class="st1" d="M240.5,30.6h5.2v0.9h-2v8h-1.1v-8h-2V30.6z"/>
	<path class="st1" d="M248.1,39.5H247v-8.7c0.3-0.1,0.6-0.2,1-0.2c0.3,0,0.7-0.1,1.1-0.1c0.5,0,0.9,0.1,1.3,0.2
		c0.4,0.1,0.6,0.3,0.9,0.5c0.2,0.2,0.4,0.6,0.5,1c0.1,0.4,0.2,0.9,0.2,1.5c0,0.6,0,1.1-0.1,1.5c-0.1,0.4-0.2,0.7-0.4,1
		c-0.2,0.2-0.4,0.4-0.7,0.5c-0.3,0.1-0.7,0.2-1.1,0.2c-0.2,0-0.4,0-0.7,0c-0.2,0-0.4-0.1-0.6-0.1V39.5z M249,36c0.3,0,0.5,0,0.7-0.1
		c0.2-0.1,0.4-0.2,0.5-0.4c0.1-0.2,0.2-0.4,0.3-0.7c0.1-0.3,0.1-0.7,0.1-1.1c0-0.5,0-0.8-0.1-1.1c-0.1-0.3-0.2-0.5-0.3-0.7
		c-0.1-0.2-0.3-0.3-0.5-0.4c-0.2-0.1-0.5-0.1-0.7-0.1h-0.9V36H249z"/>
	<path class="st1" d="M254.8,39.6c-0.2,0-0.4,0-0.6-0.1c-0.2-0.1-0.4-0.1-0.6-0.2v-0.6h0.9c0.2,0,0.3,0,0.5-0.1
		c0.1-0.1,0.3-0.2,0.4-0.3c0.1-0.1,0.2-0.3,0.3-0.6c0.1-0.2,0.2-0.5,0.2-0.9c-0.5,0-0.9-0.1-1.2-0.4c-0.3-0.3-0.5-0.6-0.6-1.1
		l-1.3-4.8h1.1l1.3,4.8c0.1,0.5,0.4,0.7,0.9,0.7l1.1-5.5h1.1l-1.4,6.8c-0.2,0.8-0.4,1.3-0.7,1.6C255.9,39.5,255.4,39.6,254.8,39.6z"
		/>
	<path class="st1" d="M262.4,34.9c0.2,0,0.3,0.1,0.4,0.2c0.1,0.1,0.2,0.2,0.4,0.3s0.2,0.3,0.3,0.4c0.1,0.2,0.1,0.4,0.2,0.7l0.3,1.6
		c0,0.2,0.1,0.4,0.3,0.6s0.4,0.2,0.7,0.2v0.6c-0.1,0-0.1,0-0.2,0.1c-0.2,0-0.3,0.1-0.5,0.1c-0.4,0-0.7-0.1-0.9-0.4
		c-0.2-0.3-0.4-0.6-0.5-1.1l-0.3-1.6c-0.1-0.4-0.2-0.7-0.4-0.9c-0.2-0.2-0.5-0.2-0.8-0.2h-0.4v4.2h-1.1v-8.9h1.1v3.8h0.4
		c0.2,0,0.4-0.1,0.6-0.2c0.2-0.2,0.3-0.5,0.5-0.9l0.3-1.3c0.3-1,0.7-1.5,1.5-1.5c0.1,0,0.2,0,0.3,0c0.1,0,0.2,0,0.2,0
		c0.1,0,0.2,0,0.2,0.1v0.6c-0.3,0-0.6,0.1-0.7,0.2c-0.1,0.1-0.2,0.3-0.3,0.6l-0.3,1.3c-0.1,0.3-0.1,0.5-0.2,0.7
		c-0.1,0.2-0.2,0.3-0.2,0.4c-0.1,0.1-0.2,0.2-0.3,0.3C262.7,34.8,262.6,34.8,262.4,34.9L262.4,34.9z"/>
	<path class="st1" d="M266.3,39.5v-8.9h1.1v8h2.5v-8h1.1v8h0.8v2.8h-0.7c-0.2-0.5-0.3-1.1-0.4-1.9H266.3z"/>
	<path class="st1" d="M277.4,32.9L277.4,32.9l-2.7,6.6h-1.3v-8.9h1.1v6.6h0.1l2.5-6.6h1.3v8.9h-1.1V32.9z"/>
	<path class="st1" d="M284.5,32.9L284.5,32.9l-2.7,6.6h-1.3v-8.9h1.1v6.6h0.1l2.5-6.6h1.3v8.9h-1.1V32.9z M283.1,29
		c0.3,0,0.5-0.1,0.8-0.2c0.2-0.1,0.4-0.3,0.5-0.4l0.5,0.5c-0.2,0.3-0.4,0.5-0.7,0.7c-0.3,0.2-0.7,0.3-1.1,0.3
		c-0.4,0-0.8-0.1-1.1-0.3c-0.3-0.2-0.5-0.4-0.7-0.7l0.5-0.5c0.1,0.1,0.3,0.3,0.5,0.4C282.6,28.9,282.9,29,283.1,29z"/>
</g>
</svg>
