<?xml version="1.0" encoding="UTF-8" standalone="no"?>
<svg
   xmlns:dc="http://purl.org/dc/elements/1.1/"
   xmlns:cc="http://creativecommons.org/ns#"
   xmlns:rdf="http://www.w3.org/1999/02/22-rdf-syntax-ns#"
   xmlns:svg="http://www.w3.org/2000/svg"
   xmlns="http://www.w3.org/2000/svg"
   viewBox="0 0 45.55125 65.462502"
   height="65.462502"
   width="45.55125"
   xml:space="preserve"
   version="1.1"
   id="svg2"><metadata
     id="metadata8"><rdf:RDF><cc:Work
         rdf:about=""><dc:format>image/svg+xml</dc:format><dc:type
           rdf:resource="http://purl.org/dc/dcmitype/StillImage" /></cc:Work></rdf:RDF></metadata><defs
     id="defs6"><clipPath
       id="clipPath16"
       clipPathUnits="userSpaceOnUse"><path
         id="path18"
         d="m 0,52.37 36.441,0 L 36.441,0 0,0 0,52.37 Z" /></clipPath></defs><g
     transform="matrix(1.25,0,0,-1.25,0,65.4625)"
     id="g10"><g
       id="g12"><g
         clip-path="url(#clipPath16)"
         id="g14"><g
           transform="translate(18.102,37.552)"
           id="g20"><path
             id="path22"
             style="fill:#000000;fill-opacity:1;fill-rule:nonzero;stroke:none"
             d="m 0,0 c -1.729,0 -3.418,0.155 -4.914,0.438 1.465,4.721 3.531,7.901 5.051,9.761 C 1.653,8.362 3.709,5.21 5.164,0.484 3.61,0.17 1.83,0 0,0 m 0.118,14.818 c 0,0 -10.073,-7.816 -10.073,-27.016 0,-12.314 3.724,-20.013 8.573,-21.329 l 0,12.394 c 0,0.828 0.671,1.5 1.5,1.5 0.829,0 1.5,-0.672 1.5,-1.5 l 0,-12.394 c 4.849,1.315 8.573,9.015 8.573,21.329 0,19.422 -10.073,27.016 -10.073,27.016" /></g><g
           transform="translate(5.444,16.866)"
           id="g24"><path
             id="path26"
             style="fill:#000000;fill-opacity:1;fill-rule:nonzero;stroke:none"
             d="m 0,0 c -3.007,0 -5.444,-2.081 -5.444,-4.648 l 0,-12.218 9.862,7.296 C 2.955,-7.074 1.862,-3.833 1.217,0 1.217,0 0,0 0,0" /></g><g
           transform="translate(30.996,16.866)"
           id="g28"><path
             id="path30"
             style="fill:#000000;fill-opacity:1;fill-rule:nonzero;stroke:none"
             d="m 0,0 -1.216,0 c -0.645,-3.833 -1.738,-7.074 -3.201,-9.57 l 9.862,-7.296 0,12.218 C 5.444,-2.081 3.007,0 0,0" /></g></g></g></g></svg>