<?xml version="1.0" encoding="UTF-8" standalone="no"?>
<svg
   xmlns:dc="http://purl.org/dc/elements/1.1/"
   xmlns:cc="http://creativecommons.org/ns#"
   xmlns:rdf="http://www.w3.org/1999/02/22-rdf-syntax-ns#"
   xmlns:svg="http://www.w3.org/2000/svg"
   xmlns="http://www.w3.org/2000/svg"
   viewBox="0 0 27.5 16.25"
   height="16.25"
   width="27.5"
   xml:space="preserve"
   version="1.1"
   id="svg2"><metadata
     id="metadata8"><rdf:RDF><cc:Work
         rdf:about=""><dc:format>image/svg+xml</dc:format><dc:type
           rdf:resource="http://purl.org/dc/dcmitype/StillImage" /></cc:Work></rdf:RDF></metadata><defs
     id="defs6"><clipPath
       id="clipPath16"
       clipPathUnits="userSpaceOnUse"><path
         id="path18"
         d="M 0,13 22,13 22,0 0,0 0,13 Z" /></clipPath></defs><g
     transform="matrix(1.25,0,0,-1.25,0,16.25)"
     id="g10"><g
       id="g12"><g
         clip-path="url(#clipPath16)"
         id="g14"><g
           transform="translate(11,5)"
           id="g20"><path
             id="path22"
             style="fill:#000000;fill-opacity:1;fill-rule:nonzero;stroke:none"
             d="M 0,0 C -4.6,0 -6,-3.3 -6,-3.3 L -6,-5 6,-5 6,-3.3 C 6,-3.3 4.6,0 0,0 M -3,5 C -3,6.7 -1.7,8 0,8 1.7,8 3,6.7 3,5 3,3.3 1.7,2 0,2 -1.7,2 -3,3.3 -3,5" /></g><g
           transform="translate(17.5,13)"
           id="g24"><path
             id="path26"
             style="fill:#000000;fill-opacity:1;fill-rule:nonzero;stroke:none"
             d="M 0,0 C 1.381,0 2.5,-1.119 2.5,-2.5 2.5,-3.881 1.381,-5 0,-5 c -1.381,0 -2.5,1.119 -2.5,2.5 0,1.381 1.119,2.5 2.5,2.5" /></g><g
           transform="translate(17.5,6)"
           id="g28"><path
             id="path30"
             style="fill:#000000;fill-opacity:1;fill-rule:nonzero;stroke:none"
             d="m 0,0 c -1.2,0 -2.1,-0.3 -2.8,-0.8 2.3,-1.1 3.2,-3 3.2,-3.2 l 0,-0.1 4.1,0 0,1.3 C 4.5,-2.7 3.4,0 0,0" /></g><g
           transform="translate(17.5,13)"
           id="g32"><path
             id="path34"
             style="fill:#000000;fill-opacity:1;fill-rule:nonzero;stroke:none"
             d="M 0,0 C 1.381,0 2.5,-1.119 2.5,-2.5 2.5,-3.881 1.381,-5 0,-5 c -1.381,0 -2.5,1.119 -2.5,2.5 0,1.381 1.119,2.5 2.5,2.5" /></g><g
           transform="translate(17.5,6)"
           id="g36"><path
             id="path38"
             style="fill:#000000;fill-opacity:1;fill-rule:nonzero;stroke:none"
             d="m 0,0 c -1.2,0 -2.1,-0.3 -2.8,-0.8 2.3,-1.1 3.2,-3 3.2,-3.2 l 0,-0.1 4.1,0 0,1.3 C 4.5,-2.7 3.4,0 0,0" /></g><g
           transform="translate(4.5,13)"
           id="g40"><path
             id="path42"
             style="fill:#000000;fill-opacity:1;fill-rule:nonzero;stroke:none"
             d="M 0,0 C 1.381,0 2.5,-1.119 2.5,-2.5 2.5,-3.881 1.381,-5 0,-5 c -1.381,0 -2.5,1.119 -2.5,2.5 0,1.381 1.119,2.5 2.5,2.5" /></g><g
           transform="translate(4.5,6)"
           id="g44"><path
             id="path46"
             style="fill:#000000;fill-opacity:1;fill-rule:nonzero;stroke:none"
             d="M 0,0 C 1.2,0 2.1,-0.3 2.8,-0.8 0.5,-1.9 -0.4,-3.8 -0.4,-4 l 0,-0.1 -4.1,0 0,1.3 C -4.5,-2.7 -3.4,0 0,0" /></g></g></g></g></svg>