<?xml version="1.0" encoding="utf-8"?>
<!-- Generator: Adobe Illustrator 19.1.1, SVG Export Plug-In . SVG Version: 6.00 Build 0)  -->
<svg version="1.1" id="Layer_1" xmlns="http://www.w3.org/2000/svg" xmlns:xlink="http://www.w3.org/1999/xlink" x="0px" y="0px"
	 viewBox="0 0 281.9 29.1" style="enable-background:new 0 0 281.9 29.1;" xml:space="preserve">
<style type="text/css">
	.st0{fill:#FFFFFF;}
</style>
<path class="st0" d="M72.6,7.9c0.4-0.2,0.8-0.4,1.2-0.5c1-0.2,2.1-0.2,3.2,0.1c0.6,0.1,1.2,0.4,1.7,0.8L79,8.5l1.9-1.9l-0.4-0.3
	c-0.9-0.6-1.8-1.1-2.6-1.3c-1.6-0.5-3.3-0.5-4.9-0.1c-0.8,0.2-1.5,0.5-2.1,1c-0.6,0.4-1.1,1-1.5,1.7c-0.4,0.7-0.6,1.5-0.6,2.5
	c0,1.2,0.3,2.2,0.8,2.9c0.5,0.7,1.1,1.3,1.9,1.7c0.7,0.4,1.5,0.7,2.4,0.9c0.8,0.2,1.5,0.4,2.2,0.6c0.6,0.2,1.2,0.5,1.6,0.8
	c0.4,0.3,0.6,0.8,0.6,1.4c0,0.5-0.1,1-0.3,1.5c-0.2,0.4-0.5,0.8-0.9,1.1c-0.4,0.3-0.8,0.5-1.2,0.7c-1,0.4-2.1,0.3-3.1,0
	c-0.6-0.2-1.2-0.4-1.8-0.8l-0.3-0.2l-1.9,1.9l0.4,0.3c0.9,0.6,1.7,1.1,2.6,1.3c0.8,0.3,1.7,0.4,2.6,0.4c0.9,0,1.8-0.1,2.6-0.4
	c0.8-0.3,1.5-0.7,2.1-1.2c0.6-0.5,1-1.2,1.4-1.9c0.3-0.8,0.5-1.6,0.5-2.6c0-1.2-0.3-2.1-0.8-2.8c-0.5-0.7-1.1-1.2-1.9-1.6
	c-0.7-0.4-1.5-0.7-2.3-0.9c-0.8-0.2-1.5-0.4-2.2-0.7c-0.7-0.2-1.2-0.5-1.6-0.9c-0.4-0.3-0.6-0.8-0.6-1.4c0-0.5,0.1-1,0.3-1.3
	C72,8.4,72.3,8.1,72.6,7.9z"/>
<rect x="85.8" y="21.9" class="st0" width="13.1" height="2.6"/>
<rect x="85.8" y="13.3" class="st0" width="11.4" height="2.6"/>
<rect x="85.8" y="4.6" class="st0" width="13.1" height="2.6"/>
<polygon class="st0" points="118.8,18.5 104.8,4 104.8,25.3 107.4,21.8 107.4,10.6 121.4,25.1 121.4,3.8 118.8,7.4 "/>
<polygon class="st0" points="128.4,24.5 131.1,24.5 131.1,7.2 137.9,7.2 137.9,4.6 128.4,4.6 "/>
<rect x="142.4" y="13.3" class="st0" width="11.4" height="2.6"/>
<rect x="142.4" y="21.9" class="st0" width="13.1" height="2.6"/>
<rect x="142.4" y="4.6" class="st0" width="13.1" height="2.6"/>
<polygon class="st0" points="175.3,18.5 161.3,4 161.3,25.3 164,21.8 164,10.6 178,25.1 178,3.8 175.3,7.4 "/>
<path class="st0" d="M197.3,7.5c-0.9-0.9-2-1.6-3.1-2.1c-1.2-0.5-2.5-0.8-3.8-0.8h-6.6v2.6h6.8c1,0,1.9,0.2,2.7,0.6
	c0.9,0.4,1.6,1,2.2,1.7c0.6,0.7,1.1,1.5,1.5,2.3c0.4,0.9,0.5,1.8,0.5,2.7c0,1-0.2,2-0.6,2.8c-0.4,0.9-0.9,1.7-1.6,2.3
	c-0.7,0.7-1.4,1.2-2.3,1.6c-0.8,0.4-1.7,0.6-2.6,0.6h-6.8v2.6h0.4h6.2c1.4,0,2.7-0.3,3.9-0.9c1.2-0.5,2.2-1.3,3.1-2.2
	c0.9-0.9,1.6-2,2.1-3.1c0.5-1.2,0.8-2.5,0.8-3.8c0-1.4-0.3-2.7-0.8-3.9C198.9,9.4,198.2,8.4,197.3,7.5z"/>
<path class="st0" d="M220.5,7.5c-0.9-0.9-2-1.6-3.2-2.1c-2.4-1-5.4-1-7.8,0c-1.2,0.5-2.3,1.2-3.2,2.1c-0.9,0.9-1.6,2-2.1,3.2
	c-0.5,1.2-0.8,2.5-0.8,3.9c0,1.4,0.3,2.7,0.8,3.9c0.5,1.2,1.3,2.3,2.1,3.2c0.9,0.9,2,1.6,3.2,2.1c1.2,0.5,2.5,0.8,3.9,0.8
	c1.4,0,2.7-0.3,3.9-0.8c1.2-0.5,2.3-1.2,3.2-2.1c0.9-0.9,1.6-2,2.1-3.2c0.5-1.2,0.8-2.5,0.8-3.9c0-1.4-0.3-2.7-0.8-3.9
	C222.1,9.5,221.4,8.4,220.5,7.5z M220.1,17.4c-0.4,0.9-0.9,1.7-1.6,2.4c-0.7,0.7-1.4,1.2-2.3,1.6c-1.8,0.8-3.8,0.8-5.6,0
	c-0.9-0.4-1.7-0.9-2.3-1.6c-0.7-0.7-1.2-1.5-1.6-2.4c-0.4-0.9-0.6-1.8-0.6-2.8c0-1,0.2-1.9,0.6-2.8c0.4-0.9,0.9-1.7,1.6-2.4
	c0.7-0.7,1.4-1.2,2.3-1.6c0.9-0.4,1.8-0.6,2.8-0.6c1,0,1.9,0.2,2.8,0.6c0.9,0.4,1.7,0.9,2.3,1.6c0.7,0.7,1.2,1.5,1.6,2.4
	c0.4,0.9,0.6,1.8,0.6,2.8C220.7,15.5,220.5,16.5,220.1,17.4z"/>
<polygon class="st0" points="235.5,4.6 232.9,4.6 232.9,24.5 246,24.5 246,21.9 235.5,21.9 "/>
<rect x="250.1" y="4.6" class="st0" width="3" height="8.2"/>
<path class="st0" d="M268.1,12.5c0.4-0.6,0.7-1.1,0.9-1.6c0.2-0.5,0.3-1.1,0.3-1.6c0-0.7-0.1-1.3-0.4-1.9c-0.2-0.6-0.6-1.1-1-1.5
	c-0.4-0.4-0.9-0.8-1.5-1c-1.2-0.5-2.6-0.5-3.8,0c-0.6,0.2-1.1,0.6-1.5,1c-0.4,0.4-0.8,0.9-1,1.5c-0.2,0.6-0.4,1.2-0.4,1.9
	c0,0.5,0.1,1.1,0.3,1.6c0.2,0.5,0.5,1,0.9,1.6c-0.9,0.8-1.6,1.6-2.1,2.4c-0.5,0.9-0.7,1.9-0.7,2.9c0,0.9,0.2,1.8,0.5,2.5
	c0.3,0.8,0.8,1.5,1.3,2.1c0.6,0.6,1.3,1.1,2,1.4c0.8,0.3,1.6,0.5,2.5,0.5c0.9,0,1.7-0.2,2.5-0.5c0.8-0.3,1.5-0.8,2.1-1.4
	s1.1-1.3,1.4-2.1c0.4-0.8,0.5-1.7,0.5-2.6c0-1-0.3-2.1-0.8-3C269.9,14.1,269.1,13.3,268.1,12.5z M262.9,7.8c0.4-0.4,0.9-0.6,1.5-0.6
	c0.6,0,1.1,0.2,1.5,0.6c0.4,0.4,0.6,0.9,0.6,1.5c0,0.2-0.1,0.5-0.2,0.7c-0.1,0.2-0.3,0.5-0.5,0.7c-0.2,0.2-0.4,0.3-0.7,0.5
	c-0.5,0.2-1.1,0.2-1.6,0c-0.3-0.1-0.5-0.2-0.7-0.4c-0.2-0.2-0.4-0.4-0.5-0.7c-0.1-0.2-0.2-0.5-0.2-0.8
	C262.3,8.7,262.5,8.3,262.9,7.8z M268.1,19.5c-0.2,0.5-0.5,0.9-0.9,1.3c-0.4,0.4-0.8,0.6-1.3,0.9c-1,0.4-2.1,0.4-3,0
	c-0.5-0.2-0.9-0.5-1.2-0.8c-0.3-0.4-0.6-0.8-0.8-1.2c-0.2-0.5-0.3-1-0.3-1.5c0-0.5,0.1-1,0.3-1.5c0.2-0.5,0.5-0.9,0.8-1.3
	c0.3-0.4,0.7-0.7,1.2-0.9c0.4-0.2,0.9-0.3,1.5-0.3c0.5,0,1,0.1,1.5,0.3c0.5,0.2,0.9,0.5,1.3,0.9c0.4,0.4,0.7,0.8,0.9,1.3
	c0.2,0.5,0.3,1,0.3,1.5C268.4,18.5,268.3,19,268.1,19.5z"/>
<path class="st0" d="M281.9,8.2c0-0.2,0-1.6-1-2.7c-0.7-0.7-1.5-1-2.6-1c-1.1,0-1.9,0.3-2.6,1c-1.1,1.1-1,2.6-1,2.7l0,2.6
	c0,0.2,0,1.6,1,2.7c0.7,0.7,1.5,1,2.6,1c1.1,0,1.9-0.3,2.6-1c1-1.1,1-2.6,1-2.7L281.9,8.2z M279.1,11.9c-0.2,0.2-0.5,0.3-0.9,0.3
	c-0.4,0-0.7-0.1-0.9-0.3c-0.3-0.3-0.3-1-0.3-1l0-2.7c0-0.2,0.1-0.7,0.3-1c0.2-0.2,0.5-0.3,0.9-0.3c0.4,0,0.7,0.1,0.9,0.3
	c0.3,0.3,0.3,1,0.3,1l0,2.7C279.5,11.1,279.4,11.6,279.1,11.9z"/>
<rect x="13.5" y="11.1" transform="matrix(-0.7012 0.7129 -0.7129 -0.7012 54.4364 2.1413)" class="st0" width="26.5" height="2.7"/>
<rect x="17.9" y="15.3" transform="matrix(0.7012 -0.7129 0.7129 0.7012 -2.5523 27.1448)" class="st0" width="26.5" height="2.7"/>
<polygon class="st0" points="51.7,10.8 41,0 37.2,0 49.8,12.6 "/>
<polygon class="st0" points="55.9,6.4 49.4,0 45.7,0 54,8.3 "/>
<polygon class="st0" points="23,10.8 12.2,0 8.4,0 21.1,12.6 "/>
<polygon class="st0" points="27.2,6.4 20.7,0 16.9,0 25.3,8.3 "/>
<polygon class="st0" points="49.7,29.1 37,16.5 35.1,18.4 45.9,29.1 "/>
<polygon class="st0" points="41.2,29.1 32.8,20.8 30.9,22.7 37.4,29.1 "/>
<polygon class="st0" points="20.4,29.1 7.8,16.5 5.9,18.4 16.6,29.1 "/>
<polygon class="st0" points="1.7,22.7 8.1,29.1 11.9,29.1 3.6,20.8 "/>
<polygon class="st0" points="47.2,22.8 57.9,11.9 57.9,8.1 45.3,20.9 "/>
<polygon class="st0" points="49.7,25.1 51.6,26.9 57.9,20.5 57.9,16.7 "/>
<polygon class="st0" points="10.7,5.9 0,16.8 0,20.6 12.6,7.8 "/>
<polygon class="st0" points="8.3,3.7 6.3,1.8 0,8.3 0,12.1 "/>
</svg>
