<?xml version="1.0" encoding="utf-8"?>
<!-- Generator: Adobe Illustrator 19.1.1, SVG Export Plug-In . SVG Version: 6.00 Build 0)  -->
<svg version="1.1" id="Layer_1" xmlns="http://www.w3.org/2000/svg" xmlns:xlink="http://www.w3.org/1999/xlink" x="0px" y="0px"
	 viewBox="0 0 114 104.5" style="enable-background:new 0 0 114 104.5;" xml:space="preserve">
<style type="text/css">
	.st0{fill:#FFFFFF;}
</style>
<g>
	<path class="st0" d="M9.2,95.6H8.9c0-1.2-0.2-2.5-1.7-2.5H6.1c0,0-1-0.1-1.1,0.8v3.5h1c1.1,0,1.2-0.9,1.2-1.7h0.2v3.6H7.2
		c0-0.8-0.1-1.6-1.2-1.7H5v3.3c0.1,1,1.3,0.8,1.3,0.8v0.3H3.9H2.8v-0.2c0,0,1,0,1.1-0.8V94c0-0.9-1.1-0.9-1.1-0.9v-0.2h1.1H5h1.1
		h2.4h0.7V95.6z"/>
	<path class="st0" d="M18.6,101.9v0.2h-3.1v-0.2c0,0,1,0.1,0.9-1c0-0.1,0-0.2-0.1-0.3L15.7,99l-0.2-0.4h-3.2L12.2,99l-0.6,1.5
		c-0.1,0.3-0.1,0.5,0,0.7c0.2,0.7,1.1,0.6,1.1,0.6v0.2h-2.5v-0.2c0,0,0.5,0,1-0.9l1.2-3.1l1.4-3.8l0.2-0.6l0.2-0.4l0.4-0.2h0v0
		c0,0,3,7.7,3,7.8c0.1,0.2,0.2,0.4,0.3,0.6c0.1,0.2,0.3,0.3,0.5,0.5C18.4,101.8,18.5,101.8,18.6,101.9L18.6,101.9z M15.5,98.3
		l-0.2-0.4L14,94.4l0,0l-1.3,3.4l-0.2,0.4H15.5z"/>
	<path class="st0" d="M26.7,99.7c0,0.2,0,0.4-0.1,0.7c-0.1,0.6-0.4,1-0.9,1.4c-0.4,0.2-0.8,0.4-1.2,0.5c-0.3,0-0.6,0.1-0.9,0
		c-0.3,0-0.6-0.1-0.9-0.2c-0.1-0.1-0.3-0.1-0.4-0.2c-0.1-0.1-0.3-0.2-0.4-0.3c-0.1-0.1-0.3-0.1-0.4,0c-0.1,0.1-0.1,0.2-0.2,0.4
		l0,0.2h-0.2l0-1.5l0-1.6h0.3v0.1c0,0.4,0.1,0.9,0.3,1.3c0.1,0.3,0.3,0.6,0.5,0.9c0.1,0.1,0.2,0.3,0.4,0.4c0.2,0.1,0.3,0.2,0.5,0.3
		c0.1,0,0.2,0.1,0.4,0.1c0.3,0.1,0.6,0.1,0.8,0c0.8-0.2,1.2-0.8,1.3-1.5c0.2-1.3-1.5-2.3-2.9-3.1c-1.4-0.8-1.4-2.1-1.4-2.1
		c0-0.4,0-0.9,0.2-1.3c0.2-0.4,0.6-0.7,1-0.9c0.3-0.1,0.6-0.2,1-0.3c0.1,0,0.2,0,0.3,0h0c0.2,0,0.4,0,0.6,0.1
		c0.3,0.1,0.6,0.2,0.8,0.4c0.2,0.1,0.5,0.3,0.7,0.1c0.1-0.1,0.1-0.2,0.1-0.3l0-0.2h0.3l0,1.5v1.2h-0.3c0-0.3-0.1-0.6-0.2-0.9
		c-0.1-0.3-0.3-0.6-0.5-0.9c-0.1-0.1-0.2-0.3-0.4-0.4c-0.2-0.1-0.4-0.2-0.6-0.3c-0.5-0.1-1.1-0.2-1.5,0.2c-0.2,0.1-0.3,0.3-0.5,0.5
		c0,0-1.2,1.6,1.7,3C25.7,97.5,26.7,98.6,26.7,99.7z"/>
	<path class="st0" d="M30.3,93.6c-0.1-0.1-0.2-0.2-0.3-0.3c-0.1-0.1-0.2-0.1-0.3-0.2c-0.1,0-0.4-0.1-0.4-0.1v-0.2h3.3v0.2
		c0,0-0.9,0-1.1,0.7c0,0.1,0,0.2,0,0.2v3.4h4.3V94c0-0.1,0-0.2,0-0.2c-0.2-0.7-1.1-0.7-1.1-0.7v-0.2H38v0.2c0,0-0.9,0-1,0.7
		c0,0.1,0,0.2,0,0.2v7c0,0.1,0,0.2,0,0.3c0.2,0.7,1,0.7,1,0.7v0.2h-3.3v-0.2c0,0,0.9,0,1.1-0.7c0-0.1,0-0.1,0-0.2v-3.4h-4.3v3.4
		c0.1,0.9,1.1,0.9,1.1,0.9v0.2h-3.3v-0.2c0,0,0.9,0,1-0.7c0-0.1,0-0.2,0-0.3c0,0,0-6.8,0-7C30.4,93.8,30.4,93.7,30.3,93.6z"/>
	<path class="st0" d="M42.8,94v7c0,0.1,0,0.2,0,0.3c0.2,0.7,1,0.7,1,0.7v0.2h-3.3v-0.2c0,0,0.8,0,1-0.7c0-0.1,0-0.2,0-0.3v-7
		c0-0.1,0-0.2,0-0.2c-0.2-0.7-1-0.7-1-0.7v-0.2h3.3v0.2c0,0-0.9,0-1.1,0.7C42.8,93.8,42.8,93.9,42.8,94z"/>
	<path class="st0" d="M54.3,97.6c0,2.6-1.8,4.8-4.1,4.8s-4.1-2.2-4.1-4.8c0-2.7,1.8-4.8,4.1-4.8S54.3,94.9,54.3,97.6z M53.2,97.5
		c0-2.5-1.3-4.5-2.9-4.5c-1.6,0-2.9,2-2.9,4.5c0,2.5,1.3,4.5,2.9,4.5C51.9,102,53.2,100,53.2,97.5z"/>
	<path class="st0" d="M64.9,92.9v0.2c0,0-1,0-1.1,0.9v8.1h-0.3l-5.4-8.4v7.3c0,0.1,0,0.2,0,0.2c0.2,0.7,1.1,0.7,1.1,0.7v0.2h-2.4
		v-0.2c0,0,0.9,0,1.1-0.7c0-0.1,0-0.1,0-0.2v-7.1c-0.1-0.9-1.1-0.8-1.1-0.8v-0.2H59l4.6,7.2V94c-0.1-0.9-1.2-0.9-1.2-0.9v-0.2H64.9z
		"/>
	<path class="st0" d="M78.9,99.5c0,1.3-0.9,2-1.6,2.3c-0.5,0.2-1,0.3-1.5,0.3h-3.9v-0.3c0,0,1.1,0.1,1.1-0.9V94c0-1-1.1-1-1.1-1
		v-0.2h3.6c0,0,2.6-0.1,2.6,2.1c0,1.5-1.4,2.1-2.1,2.2C76.7,97.3,78.9,97.6,78.9,99.5z M74.9,93.1c-0.4,0.1-0.8,0.3-0.8,0.8v3.3h1.1
		c0.4,0,0.7-0.1,1-0.3c0.4-0.3,0.7-0.8,0.7-1.7c0-0.5-0.1-0.9-0.2-1.2c-0.1-0.2-0.2-0.3-0.3-0.4c-0.2-0.3-0.6-0.4-0.9-0.5
		C75.4,93.1,75.1,93.1,74.9,93.1z M77.6,99.7c0-2.4-1.6-2.3-1.8-2.3h-1.7v3.6c0,0.1,0,0.1,0,0.2c0.1,0.3,0.3,0.5,0.6,0.6
		c0.1,0,0.1,0,0.2,0c0.2,0,0.3,0,0.5,0c0.2,0,0.3,0,0.5-0.1l0.1,0C76.8,101.5,77.6,101,77.6,99.7z"/>
	<path class="st0" d="M83.6,94v7c0,0.1,0,0.2,0,0.3c0.2,0.7,1,0.7,1,0.7v0.2h-3.3v-0.2c0,0,0.8,0,1-0.7c0-0.1,0-0.2,0-0.3v-7
		c0-0.1,0-0.2,0-0.2c-0.2-0.7-1-0.7-1-0.7v-0.2h3.3v0.2c0,0-0.9,0-1.1,0.7C83.6,93.8,83.6,93.9,83.6,94z"/>
	<path class="st0" d="M91,93.1c0,0-0.9,0-1.1,0.7c0,0.1,0,0.2,0,0.2v6c0,0.8,0.2,4.6-2.8,4.6v-0.2c1.9,0,1.7-4.4,1.7-4.4v-6
		c0-0.1,0-0.2,0-0.2c-0.2-0.7-1.1-0.7-1.1-0.7v-0.2h1.1H91V93.1z"/>
	<path class="st0" d="M101.5,97.6c0,2.6-1.8,4.8-4.1,4.8c-2.3,0-4.1-2.2-4.1-4.8c0-2.7,1.8-4.8,4.1-4.8
		C99.7,92.7,101.5,94.9,101.5,97.6z M100.3,97.5c0-2.5-1.3-4.5-2.9-4.5c-1.6,0-2.9,2-2.9,4.5c0,2.5,1.3,4.5,2.9,4.5
		C99,102,100.3,100,100.3,97.5z"/>
	<path class="st0" d="M111.3,92.9v0.2c0,0-1.1-0.1-1.1,1v4.3c0,2.2-0.5,4-3,4c-0.5,0-0.9-0.1-1.3-0.3c-0.3-0.1-0.6-0.4-0.9-0.6
		c-0.2-0.2-0.4-0.5-0.5-0.8c-0.1-0.3-0.2-0.5-0.2-0.8c-0.1-0.4-0.1-0.7-0.1-1.1v-0.7c0-0.3,0-0.7,0-1V96c0-0.3,0-0.7,0-1v-0.7
		c0-0.1,0-0.2,0-0.3c0-0.1,0-0.2,0-0.3c-0.2-0.7-1-0.7-1-0.7v-0.2h3.3v0.2c0,0-1,0-1.1,0.9v0.2c0,0.6,0,1.1,0,1.7V98
		c0,0.6,0,1.2,0.1,1.8c0.1,0.7,0.4,1.4,1.1,1.7c0.3,0.1,0.5,0.2,0.8,0.2c2.6,0,2.7-2.4,2.7-3.5V94c0-1-1.2-1-1.2-1v-0.2H111.3z"/>
</g>
<g>
	<path class="st0" d="M39.5,77.6c-1.2-0.2-2.4-0.6-3.7-1.1c-0.8-0.3-1.7-0.7-2.4-1.1c-0.8-0.5-1.5-1.1-2.4-1.5
		c-0.7-0.3-1.5-0.5-2.1,0.1c-0.6,0.5-0.9,1.4-1.1,2.2c-0.1,0.4-0.2,0.7-0.2,1.1H26l0.2-9.1l-0.1-9.8h1.8v0.4
		c0.1,2.7,0.6,5.3,1.5,7.8c0.7,1.9,1.6,3.7,2.8,5.2c0.7,0.9,1.4,1.7,2.2,2.4c1,0.8,2.1,1.2,3.2,1.6c0.6,0.2,1.2,0.4,1.8,0.5V77.6z
		 M59.7,62.5c0,1.4-0.1,2.7-0.4,4.1c-0.8,3.4-2.7,6.3-5.5,8.2c-2.1,1.4-4.6,2.4-7.2,2.7c-0.1,0.1-0.2,0.1-0.4,0.1v-1.9
		c3.8-1.3,5.9-5.1,6.5-9C53.9,59.1,43.6,52.8,35,48c-8.6-5-8.6-12.8-8.6-12.8c-0.2-2.7,0.2-5.3,1.3-7.8c1.2-2.5,3.3-4.5,5.8-5.6
		c1.8-0.9,3.8-1.4,5.8-1.6h0.2v1.6c-1.1,0.2-2.2,0.7-3.2,1.4c-1.1,0.8-2,1.8-2.7,2.8c-0.1,0-7.1,9.7,10.1,18.1
		C54.1,49.1,59.7,56.1,59.7,62.5z M46.2,20.9c1.4,0.5,2.8,1.1,4.1,2c1.1,0.8,2.9,2,4,0.5c0.5-0.5,0.7-1.2,0.8-1.9l0.2-1.1h1.4
		l-0.2,8.9l0.1,7.3H55c-0.2-1.8-0.6-3.6-1.1-5.3c-0.6-1.9-1.5-3.7-2.7-5.3c-0.6-0.8-1.4-1.7-2.2-2.3c-0.8-0.7-1.7-1.1-2.7-1.4V20.9z
		"/>
	<path class="st0" d="M61.6,46.4c0.4-1,6.4-16.7,7.6-19.9l3.7-9.7c1-2.5,2-5,2.9-7.5c0.8-2,2.1-4.2,0.7-6.2
		c-0.8-1.1-2.1-1.6-3.4-1.8C72.9,1.3,71,1.1,71,1.2V0l18.8,0v1.2c0,0-2.1-0.2-4.3,2.9C84.9,5,84.4,5.9,84,6.9L67,51.5l-2.6,6.7
		l-3.7-9.7L61.6,46.4z M47.2,8c0.1,0.7,0.3,1.3,0.5,1.9l0.4,1.1h-1.6c-1.4-3.7-2.8-8.5-7-9.7c-0.1-0.1-0.6-0.2-0.6-0.2V0l5,0l10.2,0
		v1.2C54.2,1.2,45.9,0.8,47.2,8z"/>
	<path class="st0" d="M64.3,58.7l3.7-9.6L62,45.2l-2,5.4C60.1,50.6,63.6,53.9,64.3,58.7z"/>
	<path class="st0" d="M31,64.2c-0.5,0-0.8,0-0.8,0l0-0.6c0.1,0,9.6,0.7,18.7-6.3c5.2-4,9.2-9.7,12-17c3.2-8.4,8-14.9,14.3-19.2
		l0.3,0.5c-6.2,4.3-10.9,10.6-14.1,19c-2.8,7.4-6.9,13.2-12.1,17.3C41.6,63.7,33.6,64.2,31,64.2z"/>
	<circle class="st0" cx="30.4" cy="5.1" r="2.1"/>
	<circle class="st0" cx="72.1" cy="64.9" r="2.1"/>
	<path class="st0" d="M87.5,72.4c-6,0-12-2.1-16.6-5.9l0.4-0.4c4.6,3.7,10.4,5.8,16.3,5.8c14.3,0,25.9-11.6,25.9-25.9
		s-11.6-25.9-25.9-25.9c-9.3,0-18,5-22.6,13.2l-0.5-0.3c4.7-8.3,13.5-13.5,23.1-13.5c14.6,0,26.5,11.9,26.5,26.5
		S102.1,72.4,87.5,72.4z"/>
	<path class="st0" d="M30.6,64.2C13.7,64.2,0,50.5,0,33.6S13.7,3,30.6,3v0.6c-16.6,0-30,13.5-30,30s13.5,30,30,30
		c10.2,0,20.5-5.8,26-14.8l0.5,0.3C51.4,58.3,41,64.2,30.6,64.2z"/>
</g>
</svg>
